<?xml version="1.0" encoding="utf-8"?>
<!-- Generator: Adobe Illustrator 25.4.1, SVG Export Plug-In . SVG Version: 6.00 Build 0)  -->
<svg version="1.1" id="レイヤー_1" xmlns="http://www.w3.org/2000/svg" xmlns:xlink="http://www.w3.org/1999/xlink" x="0px"
	 y="0px" viewBox="0 0 841.9 176.9" style="enable-background:new 0 0 841.9 176.9;" xml:space="preserve">
<style type="text/css">
	.st0{fill:#015287;}
</style>
<rect x="164.3" y="15.5" class="st0" width="161.5" height="161.5"/>
<g>
	<path d="M437.4,24.7c1-1.2,1-1.2,1.2-1.4c0.4-0.5,0.7-0.7,0.9-0.7c0.7,0,2.5,1.7,2.5,2.3c0,0.2-0.2,0.4-0.7,0.4h-21.1
		c-0.3,0-0.7,0-1.1,0c-0.3-0.4-0.4-0.5-0.4-0.5c0-0.1,0.1-0.2,0.2-0.2c0.5,0,1.1,0.1,1.4,0.1h8v-2.3h-4.8c-0.4,0-0.7,0-1.1,0
		c-0.3-0.4-0.4-0.5-0.4-0.5c0-0.1,0.1-0.2,0.2-0.2c0.5,0,1.1,0.1,1.4,0.1h4.6l0-2.3h-6.6c-0.4,0-0.8,0-1.2,0
		c-0.4-0.4-0.4-0.5-0.4-0.5c0-0.1,0.1-0.2,0.2-0.2c0.5,0,1.1,0,1.4,0h6.6c0-1.3,0-2.3,0-2.6c0-0.4,0-0.4,0.2-0.4
		c0.7,0,2.7,0.3,3.4,0.5c0.4,0.1,0.6,0.3,0.6,0.6c0,0.2,0,0.2-0.8,0.7l0,1.2h4.2c1-1.5,1.5-2.1,1.9-2.1c0.4,0,1.1,0.4,2,1.2
		c0.5,0.4,0.7,0.7,0.7,1c0,0.2-0.2,0.4-0.5,0.4h-8.2v2.3h2.6c1-1.3,1.4-1.8,1.7-1.8c0.6,0,2.4,1.4,2.4,1.9c0,0.3-0.2,0.4-0.7,0.4h-6
		v2.3H437.4z M434.1,27.2c0.7-1,1-1.3,1.3-1.3c0.4,0,1.5,0.6,2.3,1.3c0.4,0.3,0.5,0.5,0.5,0.7c0,0.2-0.1,0.4-0.6,0.8
		c0,0.7,0,0.7,0,1.5c0,1.6,0,1.7,0.1,2.8c0,1.1,0,1.1,0.1,2.9v0.3c0,0.9-0.2,1.4-0.8,1.9c-0.7,0.6-1.6,1-2.6,1
		c-0.4,0-0.8-0.1-0.9-0.2c-0.1-0.1-0.1-0.1-0.3-0.7c-0.2-0.7-0.5-0.9-1.9-1.7c-0.2-0.1-0.2-0.1-0.2-0.2c0-0.1,0-0.1,0.1-0.1
		c0,0,0.1,0,0.3,0c0.4,0,0.8,0.1,1,0.1c0.7,0,1.3-0.1,1.5-0.2c0.3-0.2,0.3-0.2,0.3-2.8h-7.9c0,1.5,0,1.7,0,2.9c0,0.7,0,0.8,0,1.1
		c0,0.8-0.1,1-0.4,1.2c-0.4,0.2-1.1,0.4-1.8,0.4c-0.7,0-1-0.2-1-0.6c0-0.2,0-0.3,0-1.7c0-1.6,0.2-6.3,0.2-7.4v-2.4
		c0-0.2,0-0.3,0.1-0.3c0.3,0,1.1,0.1,2,0.4c0.8,0.2,1,0.3,1.3,0.6H434.1z M434.3,29.9c0-2,0-2,0-2c0-0.1-0.1-0.2-0.2-0.2h-7.2
		c-0.3,0.1-0.4,0.2-0.4,0.5v1.7H434.3z M426.4,30.5v2.1h7.9v-2.1H426.4z"/>
	<path d="M464.8,18.4c1-1.7,1.5-2.1,1.8-2.1c0.7,0,2.7,1.6,2.7,2.2c0,0.2-0.3,0.5-0.6,0.5h-6.5v1.1c0,0.4-0.5,0.8-1.5,0.9
		c2.3,0.5,3.1,0.7,3.1,1.1c0,0.4-0.3,0.6-0.8,0.8c-0.4,0.6-0.7,1-1.1,1.6h2.9c1.2-1.7,1.4-1.9,1.7-1.9c0.7,0,2.3,1.5,2.3,2.1
		c0,0.3-0.2,0.4-0.9,0.4h-6.4c-1,1.4-1.7,2.1-2.7,2.9c-0.6,0.5-0.9,0.7-1.1,0.7c-0.1,0-0.1,0-0.1-0.1c0,0,0-0.1,0.1-0.2
		c1.1-1.3,2.2-5.3,2.5-7.4c-0.2,0-0.4,0-0.5,0c-0.4,0-0.7-0.2-0.7-0.6V19h-3.2v1.1c0,0.6-0.9,1-2.4,1c-0.7,0-0.9-0.1-0.9-0.6l0-1.6
		h-2.9c-0.9,0-1.8,0-2.7,0.2c-0.4-0.5-0.4-0.6-0.4-0.6c0-0.1,0.1-0.2,0.2-0.2c0.8,0,1.8,0.1,2.3,0.1h3.6c0-0.3,0-0.7,0-1.1
		c0-0.4,0-0.9,0-1.3c0-0.1,0-0.1,0.2-0.1c0.8,0,2.9,0.3,3.3,0.5c0.2,0.1,0.4,0.3,0.4,0.5c0,0.2-0.1,0.4-0.5,0.6v1h3.2
		c0-1,0-1.7,0-2.4c0-0.1,0-0.2,0.2-0.2c0.7,0,2.2,0.2,2.9,0.3c0.5,0.1,0.8,0.4,0.8,0.6c0,0.2-0.2,0.4-0.6,0.6l0,1H464.8z
		 M465.9,37.9c1-1.6,1.5-2.3,1.8-2.3c0.6,0,2.1,1.7,2.1,2.4c0,0.3-0.2,0.5-0.8,0.5h-20.5c-0.5,0-1.1,0-1.7,0.1
		c-0.4-0.5-0.4-0.5-0.4-0.6c0-0.1,0.1-0.2,0.2-0.2c0.4,0,0.8,0.1,1.1,0.1h2.7c0-1.1,0-2.2,0-3.3c0-1.2,0-1.9,0-2.5V32
		c0-0.1,0-0.2,0.1-0.2c0.2,0,0.7,0.1,1.6,0.3c1,0.2,1,0.2,1.1,0.4h9c0.9-1.4,0.9-1.4,1.3-1.4c0.3,0,0.6,0.2,1.5,0.8
		c0.7,0.5,1,0.9,1,1.3c0,0.2-0.1,0.4-0.7,0.6l0,4.1H465.9z M455.2,30.4c1.1-1.5,1.1-1.5,1.3-1.5c0.5,0,1.9,1.2,1.9,1.7
		c0,0.2-0.2,0.4-0.5,0.4h-7.5v0.1c0,0.6-0.8,1-1.9,1c-0.7,0-1-0.1-1-0.7c0-0.3,0-0.5,0.1-2.6c0-0.4,0-2.2,0-3.8c0-1.8,0-3,0-3.4
		v-0.2c0-0.1,0-0.2,0.1-0.2c0.3,0,1.7,0.4,2.3,0.5c0.3,0.1,0.5,0.2,0.6,0.4h4.2c0.8-1,1.2-1.3,1.4-1.3c0.2,0,0.4,0.1,1.1,0.7
		c0.5,0.4,0.7,0.6,0.7,0.9c0,0.2-0.2,0.3-0.5,0.3h-3.4l0,2.1h0.6l0.5-0.6c0.2-0.3,0.4-0.4,0.6-0.4c0.3,0,0.4,0.1,1.7,0.9
		c0.4,0.2,0.5,0.4,0.5,0.5c0,0.2-0.1,0.3-0.4,0.5c-0.1,0.1-0.1,0.2-0.1,0.3l0,1.6c0,0.5-0.7,0.9-1.8,0.9c-0.6,0-0.8-0.1-0.8-0.5
		h-0.6l0,2.5H455.2z M451.7,24.8c0-0.4,0-0.8,0-1c0-0.2,0-0.6,0-1h-1c-0.3,0.1-0.3,0.2-0.3,0.9v1.2H451.7z M450.3,25.3v2h4.5v-2
		H450.3z M451.7,30.4c0-0.5,0-1,0-1.2c0-0.3,0-0.7,0-1.3h-1.4l0,2.5H451.7z M453.3,33.1c-0.2,0-0.2,0.2-0.2,1.1v3.7h1.4
		c0-0.9,0-1.3,0-1.8v-3H453.3z M457.4,33.1c0,0.1-0.1,0.1-0.2,0.2c-0.1,0-0.1,0.1-0.2,0.2c0,0.1,0,0.2,0,1.7l0,1.9
		c0,0.4,0,0.5,0,0.8h1.4c0-1.5,0-3.3,0-4.8H457.4z M464.1,29.4c0.1-0.1,0.3-0.6,0.7-1.3c0.4-0.6,0.6-0.9,0.8-0.9
		c0.4,0,0.8,0.3,1.8,1.3c0.3,0.4,0.5,0.7,0.5,0.9c0,0.2-0.2,0.4-0.5,0.4H462c-0.7,0-1.3,0-2,0.1c-0.4-0.5-0.4-0.5-0.4-0.6
		c0-0.1,0.1-0.2,0.2-0.2c0.5,0,1.2,0.1,1.6,0.1H464.1z M461.4,33.1c0,0.1,0,0.1-0.2,0.2c-0.2,0.1-0.2,0.4-0.2,2v2.5h1.4
		c0-1.4,0-4,0-4.8H461.4z"/>
	<path d="M480.4,34.3c0,0.7,0.3,1.1,0.9,1.2c0.7,0.1,2.5,0.2,4.3,0.2c2.9,0,5.1-0.2,6.1-0.5c1.4-0.4,2.9-1.6,4.1-4.2
		c0-0.1,0.1-0.1,0.2-0.1c0.1,0,0.1,0.1,0.1,0.1c0,0.1,0,0.2-0.1,0.6c-0.2,1-0.3,1.9-0.3,2.5c0,0.6,0.1,0.8,0.7,1.5
		c0.2,0.3,0.4,0.6,0.4,0.9c0,0.9-0.7,1.8-2,2.1c-1.2,0.3-3.1,0.4-8.6,0.4c-7.9,0-8.9-0.4-8.9-3.9c0-0.3,0-4.9,0.1-7.3
		c0-2.2,0-3.6,0-4c-1.7,1.2-3.4,2.3-3.8,2.3c-0.1,0-0.2-0.1-0.2-0.2c0-0.1,0-0.1,0.2-0.2c1.2-0.9,2.5-2.4,3.8-4.4
		c0.8-1.3,1.5-2.8,2.4-5.4c1.4,0.3,3.6,0.8,4.1,1c0.6,0.2,0.8,0.5,0.8,0.7c0,0.4-0.3,0.6-1.2,0.7c-0.2,0.3-0.4,0.4-0.6,0.7h2.8
		c0.7-0.7,0.9-0.9,1.2-1.2c0.3-0.3,0.5-0.4,0.7-0.4c0.4,0,1.1,0.4,2.3,1.3c0.5,0.4,0.8,0.7,0.8,1c0,0.4-0.5,0.7-1.4,0.8
		c-1,0.8-1,0.8-3,2.5h4c0.2-0.2,0.3-0.4,0.4-0.5c0.5-0.6,0.7-0.8,1-0.8c0.4,0,1.3,0.5,2.3,1.4c0.5,0.5,0.7,0.7,0.7,1
		c0,0.3-0.2,0.6-0.8,0.8c0,0.6,0,0.8,0,1.2l0,1.9c0,0.5,0,0.8,0,0.9l0,0.5c0,0.5-0.2,0.7-0.6,1c-0.5,0.2-1.2,0.4-1.9,0.4
		c-0.7,0-1.1-0.2-1.1-0.6l0-0.3c0-0.4,0-0.4,0-0.6h-10.1L480.4,34.3z M482.4,19.6c-1.1,1.2-1.9,2-3,2.9c1.2,0.3,1.3,0.4,1.4,0.5h3.9
		c0.4-1,0.9-2.2,1.3-3.4H482.4z M483.8,28.9c0-2.1,0-2.1,0-3.2c0-1.5,0-1.5,0-2.1h-3.1c0,0,0,0-0.1,0.1c-0.2,0.2-0.2,0.2-0.2,1.2
		l0,4H483.8z M487.7,23.5c-0.1,0.1-0.2,0.1-0.3,0.2c-0.3,0.1-0.3,0.2-0.3,0.6c0,1.6,0,3.9,0,4.5h3.4c0-1.6,0-1.7,0-2.4v-2.9H487.7z"
		/>
	<path d="M529.2,29h6.1v1.9h-6.1V29z"/>
	<path d="M560.9,18.7c1.2-1.6,1.5-1.8,1.8-1.8c0.5,0,1.5,0.5,2.5,1.3c0.8,0.6,1.1,1,1.1,1.3c0,0.3-0.2,0.5-1,0.9c0,0.4,0,0.6,0,0.7
		c0,3,0,6.4,0.1,9.2c0,1.1,0.1,1.6,0.1,2.5c0,0.7,0,0.7,0.1,1.9c0,0.7,0,1.4,0,1.7c0,0.9-0.1,1.2-0.7,1.5c-0.5,0.3-1.3,0.5-2,0.5
		c-1,0-1.5-0.3-1.5-1v-1.6h-7.3v1.1c0,0.9-1,1.5-2.7,1.5c-0.9,0-1.2-0.2-1.2-0.9c0-0.3,0-0.6,0-1.5c0.1-2.7,0.2-9.4,0.2-15V19
		c0-0.5,0-1,0-1.5c0-0.3,0-0.3,0.2-0.3c0.4,0,1.5,0.2,2.5,0.5c1.1,0.3,1.5,0.5,1.7,1.1H560.9z M561.4,20.2c0-0.6-0.1-0.7-0.6-0.7
		h-5.9c-0.6,0.2-0.7,0.4-0.7,1.2c0,0.7,0,1.6-0.1,6.4h7.4L561.4,20.2z M561.5,31c0-0.8,0-1.3,0-3.2h-7.4c0,1.2,0,1.2,0.1,5.6l0,1.9
		h7.3L561.5,31z"/>
	<path d="M587.3,22.5c0.5,1.5,1,2.5,2.3,3.9c1.7,2,4,3.9,7.3,5.6c0.5,0.2,0.5,0.3,0.5,0.4c0,0,0,0.1-0.3,0.2
		c-0.3,0.2-1.3,0.9-1.6,1.2c-0.4,0.4-0.5,0.7-0.7,1.2c-0.1,0.2-0.3,0.4-0.6,0.4c-1,0-3.1-2-4.5-4.3c-0.8-1.4-1.4-2.6-1.8-4.1
		c-0.2-0.7-0.5-2.3-1-4.6h-0.1c0,5.1,0,5.1,0.1,9.9h0.4c0.6-1.3,0.9-1.6,1.1-1.6c0.5,0,1.8,1.4,1.8,1.9c0,0.2-0.2,0.3-0.5,0.3H587
		c0,1.3,0,3.4,0.1,4.4c0,0.8-1,1.5-2.4,1.5c-0.8,0-1.3-0.3-1.3-0.9c0-0.2,0-0.9,0-1.6c0-1.4,0.1-2.7,0.1-3.4h-2.1
		c-0.6,0-1.1,0-1.7,0.1c-0.4-0.5-0.5-0.6-0.5-0.6c0-0.1,0.1-0.2,0.2-0.2c0.8,0,1.7,0.1,2.1,0.1h1.9c0-0.9,0.1-4.7,0.1-5.4
		c-1.5,2.6-4.3,5.4-6.9,6.9c-1,0.5-2.5,1.3-2.7,1.3c-0.1,0-0.1,0-0.1-0.1c0-0.1,0-0.1,0.2-0.2c1.1-0.7,2.2-1.9,3.3-3.3
		c1.8-2.3,3.6-5.7,4.7-9.1h-4.4c-0.6,0-1.2,0-2.7,0.1c-0.4-0.6-0.5-0.7-0.5-0.8c0-0.1,0.1-0.1,0.2-0.1c0.1,0,1.4,0.1,2,0.1h6.8
		c0-2.9,0-4.7-0.1-5.7c0-0.1,0-0.2,0.1-0.2c0.3,0,1.6,0.1,2.5,0.2c1.2,0.2,1.6,0.4,1.6,0.8c0,0.3-0.2,0.6-0.8,0.9l0,3.9h4.2
		c1.6-2.3,2-2.6,2.3-2.6c0.9,0,3,1.9,3,2.7c0,0.3-0.3,0.5-0.7,0.5H587.3z"/>
	<path d="M607.2,30.1c0,1.5,0,4.5,0.1,7.4c0,0.5-0.2,0.8-0.9,1c-0.5,0.2-1.1,0.3-1.5,0.3c-0.7,0-0.9-0.2-0.9-0.8c0-0.2,0-0.2,0.1-3
		c0.1-2.2,0.2-6.4,0.2-9.1c-1.1,1.3-1.8,2-2.7,2.6c-0.5,0.4-0.6,0.4-0.7,0.4c0,0-0.1,0-0.1-0.1c0-0.1,0-0.1,0.1-0.1
		c1-1.3,2-3.3,2.7-5.3c0.7-2.1,1.5-5.4,1.8-7.4c2.9,0.6,4.2,1.1,4.2,1.5c0,0.4-0.1,0.5-0.9,0.9c-0.7,1.7-1,2.4-1.9,4.1
		c0.5,0.2,0.7,0.4,0.7,0.6c0,0.2-0.1,0.3-0.5,0.5L607.2,30.1z M619.4,25.9c1.2-1.7,1.8-2.5,2.2-2.5c0.4,0,1,0.4,1.9,1.1
		c0.7,0.6,1.1,1.1,1.1,1.5c0,0.3-0.3,0.5-0.6,0.5h-8l0.1,0c1,0.4,1.1,0.6,1.1,0.9c0,0.3-0.2,0.5-0.8,0.6l-1.1,2.1
		c-0.6,1.2-1.2,2.3-2.7,4.4c0.9,0,0.9,0,2.8-0.1c0.9,0,2.2-0.2,3.8-0.4c-0.4-1-1.4-2.5-2-3.2c-0.1-0.1-0.1-0.1-0.1-0.2
		c0-0.1,0-0.1,0.2-0.1c0.4,0,2.3,0.8,3.2,1.3c2,1.1,3.2,2.7,3.2,4.2s-0.8,2.4-2,2.4c-0.8,0-1.4-0.4-1.6-0.9
		c-0.1-0.3-0.2-0.7-0.3-1.3c-0.2-0.7-0.2-1-0.3-1.3c-3.8,1.7-5.8,2.4-8.5,3.1c-0.8,0.2-1.2,0.3-1.5,0.3c-0.3,0-0.5-0.1-0.6-0.3
		c-0.2-0.4-0.8-2.1-1.2-3.4l3.3,0c0.9-3,1.5-5.8,1.7-8.1h-2.9c-0.6,0-1.2,0-1.7,0.1c-0.5-0.5-0.5-0.6-0.5-0.6c0-0.1,0.1-0.2,0.2-0.2
		c0.5,0,1.1,0.1,1.4,0.1H619.4z M618.1,19.1c1.6-2.2,1.6-2.3,2-2.3c0.3,0,0.9,0.3,1.8,1c0.8,0.6,1.1,1,1.1,1.3
		c0,0.4-0.2,0.6-0.8,0.6h-10.9c-0.4,0-0.7,0-1.1,0c-0.4-0.5-0.4-0.5-0.4-0.6c0-0.1,0.1-0.2,0.2-0.2c0.5,0,1.1,0.1,1.4,0.1H618.1z"/>
	<path d="M632.3,31.2c-0.4,2.4-0.9,3.8-2,5.3c-0.4,0.6-1.2,1.3-1.4,1.3c-0.1,0-0.1,0-0.1-0.1c0-0.1,0-0.1,0.1-0.2
		c0.3-0.6,0.5-1.2,0.6-2.2c0.2-1.2,0.2-3,0.2-5.7c1.8,0.2,3,0.6,3,1C632.7,30.9,632.6,31,632.3,31.2z M636.2,26.6
		c-0.1-0.5-0.3-1-0.5-1.4c0-0.1-0.1-0.1-0.1-0.1c0,0,0-0.1,0.1-0.1c0.2,0,0.8,0.2,1.2,0.3c1.3,0.7,2,1.5,2,2.5
		c0,0.9-0.6,1.5-1.4,1.5c-0.6,0-1-0.3-1-0.9l0-1c-0.3,0-0.6,0.1-0.8,0.2c0,3.4,0,7.4,0.1,10c0,0.4-0.2,0.7-0.6,0.9
		c-0.4,0.2-0.9,0.3-1.4,0.3c-0.6,0-0.9-0.2-0.9-0.6c0-0.1,0-0.4,0-0.6c0.1-1.3,0.2-6.9,0.2-9.4c-0.7,0.2-1.4,0.3-2.3,0.6
		c-0.4,0.2-0.6,0.3-0.8,0.3c-0.3,0-0.4-0.2-0.5-0.7c0-0.1-0.1-0.5-0.2-0.8c-0.1-0.4-0.1-0.8-0.2-1.5l3.5,0.3
		c0.1-0.2,0.2-0.4,0.3-0.5c0.9-1.4,1.7-3,2.9-5.8c0.8,0.4,1.3,0.7,2.1,1.2c0.6,0.4,0.8,0.7,0.8,1c0,0.3-0.3,0.4-0.9,0.5
		c-0.9,1-1.4,1.5-3.8,3.7L636.2,26.6z M635.3,18.6c-1,1-2.3,2.3-2.8,2.8c0.6,0.4,1.1,1.1,1.1,1.7c0,0.9-0.7,1.6-1.7,1.6
		c-0.8,0-1.1-0.4-1.3-1.4c-0.3-1.3-0.5-2.1-1.1-2.6c0,0-0.1-0.1-0.1-0.2c0-0.1,0.1-0.1,0.2-0.1c0.4,0,1.1,0.1,1.8,0.4
		c0.4-1.5,0.8-3,1.1-4.8c1.4,0.3,2.5,0.7,3.1,1c0.5,0.3,0.8,0.5,0.8,0.8C636.4,18.2,636.1,18.5,635.3,18.6z M640.8,27.3
		c0-0.1,0-0.1,0.1-0.1c0.3,0,0.8,0.1,1.8,0.3c1,0.2,1.3,0.4,1.3,0.6c0,0.2-0.1,0.3-0.5,0.6c0,4-0.3,5.5-1.5,6.9
		c-1,1.2-2.6,2.1-4.5,2.6c-0.5,0.1-1.3,0.3-1.6,0.3c-0.1,0-0.1,0-0.1-0.1c0-0.1,0-0.1,0.6-0.3c1.1-0.3,2.2-1,3.1-2
		c1-1.2,1.4-2.9,1.4-6.4C640.8,29.1,640.8,27.7,640.8,27.3L640.8,27.3z M638,34.8c-0.5,0-1-0.2-1.1-0.6c-0.1-0.2-0.1-0.5-0.1-1.2
		c0-1.1-0.3-2-0.8-2.6c-0.1-0.1-0.2-0.2-0.2-0.3s0-0.1,0.1-0.1c0.4,0,1.7,0.5,2.3,0.9c1,0.7,1.4,1.5,1.4,2.3
		C639.7,34.2,639,34.8,638,34.8z M647.7,20c0.2-0.3,0.6-0.8,1.1-1.5c0.3-0.4,0.6-0.6,0.8-0.6c0.7,0,2.3,1.6,2.3,2.2
		c0,0.3-0.2,0.4-0.8,0.4h-7.6c2.1,0.6,2.5,0.7,2.5,1.1c0,0.2-0.1,0.4-0.3,0.4s-0.3,0.1-0.7,0.2c-1.1,1-1.9,1.7-2.4,2.2l5.1-0.1
		c-0.5-0.8-1-1.4-1.5-1.7c-0.1-0.1-0.2-0.1-0.2-0.2c0,0,0.1-0.1,0.2-0.1c0.6,0,2.3,0.6,3.4,1c1.3,0.6,2,1.6,2,2.7
		c0,1-0.6,1.7-1.5,1.7c-0.4,0-1-0.2-1.2-0.4c-0.1-0.1-0.2-0.3-0.4-1c-0.1-0.4-0.2-0.6-0.5-1.2c-4.5,1.3-6.2,1.7-7.4,2
		c-0.2,0.1-0.4,0.2-0.5,0.3c-0.2,0.1-0.3,0.2-0.4,0.2c-0.4,0-0.5-0.2-0.9-1.3c-0.3-0.9-0.6-1.7-0.6-1.8s0.1-0.1,0.3-0.1h0.2l2.3,0.1
		c0.3-1,0.8-3,1-3.9h-3.6c-0.3,0-0.7,0-1.1,0c-0.4-0.4-0.4-0.4-0.4-0.5c0-0.1,0.1-0.2,0.2-0.2c0.5,0,1.1,0.1,1.4,0.1h3.6l0-3.2v-0.5
		c0-0.4,0-0.4,0.2-0.4c0.5,0,1.4,0.1,2.2,0.2c1.2,0.2,1.7,0.5,1.7,0.9c0,0.3-0.2,0.4-0.8,0.8l0,2.2H647.7z M651.5,34.8
		c0,0.4,0.1,0.6,0.3,0.8c0.4,0.3,0.5,0.6,0.5,1c0,0.8-0.5,1.3-1.2,1.7c-0.6,0.2-1.6,0.3-3,0.3c-0.6,0-1.2,0-1.7,0
		c-1.4-0.2-1.8-0.7-1.8-1.8c0-1.8,0-3.7,0-5.5c0-1.6,0-3.2,0-4.8c2.6,0.4,3.4,0.6,3.4,1.2c0,0.2-0.1,0.5-0.7,0.8
		c-0.1,2-0.1,4.1-0.1,5.8c0,0.9,0.2,1,0.9,1c1,0,1.9-0.4,2.3-1.3c0.3-0.6,0.6-1.4,0.9-2.1c0-0.1,0.1-0.2,0.2-0.2
		c0.1,0,0.1,0.1,0.1,0.2c0,0.1,0,0.1,0,0.4l0,0.5c0,0.3-0.1,1.5-0.1,1.7V34.8z"/>
	<path d="M663,34.3c0,0.7,0.3,1.1,0.9,1.2c0.7,0.1,2.5,0.2,4.3,0.2c2.9,0,5.1-0.2,6.1-0.5c1.4-0.4,2.9-1.6,4.1-4.2
		c0-0.1,0.1-0.1,0.2-0.1c0.1,0,0.1,0.1,0.1,0.1c0,0.1,0,0.2-0.1,0.6c-0.2,1-0.3,1.9-0.3,2.5c0,0.6,0.1,0.8,0.7,1.5
		c0.2,0.3,0.4,0.6,0.4,0.9c0,0.9-0.7,1.8-2,2.1c-1.2,0.3-3.1,0.4-8.6,0.4c-7.9,0-8.9-0.4-8.9-3.9c0-0.3,0-4.9,0.1-7.3
		c0-2.2,0-3.6,0-4c-1.7,1.2-3.4,2.3-3.8,2.3c-0.1,0-0.2-0.1-0.2-0.2c0-0.1,0-0.1,0.2-0.2c1.2-0.9,2.5-2.4,3.8-4.4
		c0.8-1.3,1.5-2.8,2.4-5.4c1.4,0.3,3.6,0.8,4.1,1c0.6,0.2,0.8,0.5,0.8,0.7c0,0.4-0.3,0.6-1.2,0.7c-0.2,0.3-0.4,0.4-0.6,0.7h2.8
		c0.7-0.7,0.9-0.9,1.2-1.2c0.3-0.3,0.5-0.4,0.7-0.4c0.4,0,1.1,0.4,2.3,1.3c0.5,0.4,0.8,0.7,0.8,1c0,0.4-0.5,0.7-1.4,0.8
		c-1,0.8-1,0.8-3,2.5h4c0.2-0.2,0.3-0.4,0.4-0.5c0.5-0.6,0.7-0.8,0.9-0.8c0.4,0,1.3,0.5,2.3,1.4c0.5,0.5,0.7,0.7,0.7,1
		c0,0.3-0.2,0.6-0.8,0.8c0,0.6,0,0.8,0,1.2l0,1.9c0,0.5,0,0.8,0,0.9l0,0.5c0,0.5-0.2,0.7-0.6,1c-0.5,0.2-1.2,0.4-1.9,0.4
		c-0.7,0-1.1-0.2-1.1-0.6l0-0.3c0-0.4,0-0.4,0-0.6h-10.1L663,34.3z M664.9,19.6c-1.1,1.2-1.9,2-3,2.9c1.2,0.3,1.3,0.4,1.4,0.5h3.9
		c0.4-1,0.9-2.2,1.3-3.4H664.9z M666.3,28.9c0-2.1,0-2.1,0-3.2c0-1.5,0-1.5,0-2.1h-3.1c0,0,0,0-0.1,0.1c-0.2,0.2-0.2,0.2-0.2,1.2
		l0,4H666.3z M670.3,23.5c-0.1,0.1-0.2,0.1-0.3,0.2c-0.3,0.1-0.3,0.2-0.3,0.6c0,1.6,0,3.9,0,4.5h3.4c0-1.6,0-1.7,0-2.4v-2.9H670.3z"
		/>
	<path d="M690.5,29h6.1v1.9h-6.1V29z"/>
</g>
<g>
	<path d="M425.1,6.7c0.3,0.1,0.5,0.1,0.7,0.1c0.2,0,0.4-0.2,0.4-0.4c0.1-0.4,0.1-0.8,0.2-1.4c-0.6,0.1-1.4,0.4-2.2,0.6
		c0,0.5,0,1.2,0,1.4c0,1,0.4,1.3,1.4,1.3c0.4,0,1,0,1.3-0.1c0.1,0,0.2,0,0.4-0.1c0.1,0,0.2-0.1,0.3-0.1c0.2,0,0.4,0.2,0.4,0.4
		c0,0.1-0.1,0.2-0.3,0.2c-0.2,0-0.6,0.1-1.4,0.1c-0.8,0-1.3,0-1.7-0.2c-0.5-0.2-0.9-0.6-0.9-1.2c0-0.3,0-1,0-1.7
		c-0.5,0.2-0.9,0.4-1.1,0.5c-0.1,0-0.2,0.1-0.3,0.2c-0.1,0.1-0.1,0.1-0.2,0.1c-0.1,0-0.3,0-0.4-0.2c-0.2-0.2-0.4-0.5-0.4-0.8l0.1,0
		c0.1,0.2,0.3,0.4,0.5,0.4c0.1,0,0.2,0,0.4-0.1c0.3-0.1,0.7-0.2,1.4-0.4c0-0.4,0-0.7,0-1.1c0-0.4-0.1-0.5-0.5-0.6V3.5
		c0.1-0.1,0.2-0.1,0.3-0.1c0.2,0,0.5,0.1,0.8,0.4c0.1,0.1,0.1,0.2,0.1,0.2c0,0.1,0,0.1-0.1,0.2c-0.1,0.1-0.1,0.2-0.1,0.3
		c0,0.2,0,0.4,0,0.6c0.7-0.2,1.4-0.4,2.2-0.6c0-0.5,0-1,0-1.5c0-0.3-0.1-0.4-0.2-0.4c-0.1-0.1-0.2-0.1-0.4-0.1l0-0.1
		c0.1-0.1,0.3-0.1,0.4-0.1c0.2,0,0.4,0.1,0.7,0.3c0.2,0.1,0.2,0.2,0.2,0.3S427,3,427,3c-0.1,0.1-0.1,0.2-0.1,0.4c0,0.3,0,0.6,0,1
		c0.4-0.1,0.7-0.2,1.1-0.2c0.1,0,0.2,0,0.3-0.1c0.1,0,0.1-0.1,0.2-0.1c0.2,0,0.4,0.1,0.6,0.1c0.2,0.1,0.3,0.2,0.3,0.3
		c0,0.2-0.1,0.2-0.3,0.2c-0.2,0-0.5,0-0.7,0c-0.5,0-0.9,0-1.5,0.1c0,0.7-0.1,1.2-0.1,1.5c-0.1,0.3-0.2,0.7-0.5,0.9
		c-0.1,0.1-0.2,0.1-0.3,0.1c0,0-0.1,0-0.1-0.1c0-0.1-0.1-0.2-0.2-0.2c-0.1-0.1-0.4-0.2-0.5-0.2L425.1,6.7z"/>
	<path d="M435.6,3c0.3,0.2,0.5,0.4,0.7,0.6c0.1,0.1,0.1,0.3,0.1,0.3c0,0.1-0.1,0.3-0.1,0.5c0,0.2-0.1,0.6,0,1c0,0.7,0.2,1.4,0.5,1.8
		c0.1,0.1,0.1,0.1,0.2,0.1c0.1,0,0.1-0.1,0.2-0.1c0.6-1,1.2-1.9,1.7-2.3c0.4-0.4,0.7-0.5,1.3-0.5c1.2,0,2.3,1.2,2.3,2.4
		c0,0.4-0.1,0.6-0.3,0.6c-0.1,0-0.2,0-0.3-0.2C441.7,7,441.6,7,441.4,7c-0.2,0-0.4-0.1-0.8-0.1V6.7c0.4,0,0.7-0.1,0.9-0.1
		c0.1,0,0.2-0.1,0.2-0.2c0-0.6-0.8-1.6-1.6-1.6c-0.4,0-0.6,0.2-0.9,0.5c-0.4,0.4-0.9,1.2-1.4,2.2c-0.1,0.2-0.1,0.3-0.1,0.4
		c0,0.1,0,0.2,0,0.2c0,0.1,0,0.2,0,0.2c0,0.1-0.1,0.2-0.2,0.2c-0.2,0-0.5-0.2-0.8-0.5c-0.6-0.6-0.9-1.8-0.9-3c0-0.8,0-1.2,0-1.3
		c0-0.1-0.1-0.3-0.3-0.5L435.6,3z"/>
	<path d="M450.6,1.9c0.6,0.1,1.2,0.4,1.5,0.8c0.1,0.1,0.2,0.3,0.2,0.5s-0.1,0.4-0.3,0.4c-0.1,0-0.2,0-0.2-0.1
		c-0.1-0.1-0.2-0.1-0.4-0.1c-0.2,0-0.5,0.1-0.8,0.2c-0.2,0.1-0.2,0.1-0.2,0.2c0,0.1,0,0.2,0.1,0.3c0,0.1,0,0.2,0,0.3
		c0,0.1,0,0.3-0.1,0.7c-0.1,0.5-0.1,1.1-0.1,1.4c0,0.1,0,0.2,0.1,0.2c0,0,0.1,0,0.2-0.1c0.1-0.1,0.2-0.2,0.4-0.3
		c1.3-1,1.9-1.3,2.7-1.3c1,0,1.8,0.7,1.8,1.6c0,1.4-1.6,2.3-4.2,2.5l0-0.2c2.2-0.4,3.6-1.3,3.6-2.4c0-0.7-0.5-1.1-1.2-1.1
		c-0.8,0-1.6,0.4-2.7,1.6c-0.2,0.2-0.3,0.4-0.4,0.6c-0.1,0.2-0.1,0.3-0.3,0.3c-0.2,0-0.4-0.4-0.5-0.8c0-0.6,0.1-1.6,0.2-2.3
		c0-0.2,0-0.3,0-0.4c0-0.1,0-0.2,0-0.3c0-0.2,0.1-0.4,0.4-0.6c0.2-0.1,0.7-0.3,1.1-0.5c-0.2-0.4-0.5-0.7-1-0.9L450.6,1.9z"/>
	<path d="M464.1,6.2c0.3-0.2,0.6-0.3,0.9-0.3c0.4,0,0.7,0.1,0.9,0.4c0.1,0.2,0.2,0.5,0.3,1.2c0.1,0.7,0.2,1,0.7,1
		c0.5,0,1-0.2,1.4-0.8c0.5-0.6,0.9-1.3,1.2-2.2l0.2,0.1c-0.2,1-0.5,1.7-1,2.4C468.3,8.7,467.6,9,467,9c-0.8,0-1.3-0.4-1.3-1.5
		c0-1.1-0.3-1.3-0.7-1.3c-0.4,0-0.9,0.3-1.1,0.7c-0.3,0.5-0.6,1-0.9,1.6c-0.1,0.2-0.2,0.2-0.3,0.3c-0.2,0-0.3-0.1-0.3-0.3
		c0-0.1,0.1-0.4,0.2-0.5c0.2-0.4,0.4-0.7,0.6-0.9c0.6-1.1,1.3-2.3,2-3.8c0.1-0.2,0.1-0.3,0.1-0.4c0-0.3-0.3-0.4-0.6-0.5V2.2
		c0.1,0,0.3,0,0.4,0c0.3,0,0.7,0.3,0.9,0.6C466,2.9,466,2.9,466,3c0,0.1-0.1,0.1-0.2,0.2c-0.1,0.1-0.2,0.2-0.3,0.4
		C464.9,4.7,464.5,5.4,464.1,6.2L464.1,6.2z"/>
</g>
<g>
	<path d="M429.1,171.9v1.5h-10.3v-1.5H429.1z M429.7,166.1v1.5h-10.3v-1.5H429.7z M422.5,162.7h1.4l-2.4,14.2h-1.4L422.5,162.7z
		 M426.8,162.7h1.4l-2.4,14.2h-1.4L426.8,162.7z"/>
	<path d="M434.9,175.9c-0.7-0.7-1-1.7-1-3v-6.5c0-1.3,0.3-2.3,1-3c0.7-0.7,1.7-1.1,3-1.1c1.3,0,2.3,0.4,3,1.1s1,1.7,1,3v6.5
		c0,1.3-0.3,2.3-1,3c-0.7,0.7-1.7,1.1-3,1.1C436.6,177,435.6,176.6,434.9,175.9z M439.7,174.8c0.4-0.4,0.6-1,0.6-1.8v-6.5
		c0-0.8-0.2-1.4-0.6-1.8c-0.4-0.4-1-0.6-1.8-0.6s-1.4,0.2-1.8,0.6c-0.4,0.4-0.6,1-0.6,1.8v6.5c0,0.8,0.2,1.4,0.6,1.8s1,0.6,1.8,0.6
		S439.3,175.2,439.7,174.8z"/>
	<path d="M450.3,176.9h-1.7v-12.5l-2.3,1.4V164l2-1.3h2V176.9z"/>
	<path d="M457.6,176.6c-0.6-0.3-1-0.7-1.4-1.2c-0.3-0.5-0.6-1.2-0.7-1.9v0h1.7v0c0.1,0.6,0.3,1.1,0.7,1.4c0.4,0.3,0.9,0.5,1.6,0.5
		c0.7,0,1.3-0.2,1.7-0.7c0.4-0.4,0.6-1.1,0.6-1.9v-1.6c0-0.8-0.2-1.4-0.5-1.8c-0.4-0.4-0.9-0.6-1.6-0.6c-0.4,0-0.9,0.1-1.3,0.4
		c-0.4,0.2-0.7,0.6-1.1,1h-1.5v-7.5h7.2v1.6h-5.5v3.7c0.3-0.3,0.6-0.5,1-0.6c0.4-0.2,0.8-0.2,1.2-0.2c0.8,0,1.5,0.2,2,0.5
		c0.6,0.3,1,0.8,1.3,1.4s0.4,1.4,0.4,2.2v1.6c0,0.9-0.2,1.6-0.5,2.3c-0.3,0.6-0.8,1.1-1.4,1.4c-0.6,0.3-1.3,0.5-2.2,0.5
		C458.8,177,458.1,176.9,457.6,176.6z"/>
	<path d="M468.2,175.4l5.1-6.8c0.3-0.4,0.6-0.8,0.7-1.3c0.2-0.4,0.3-0.8,0.3-1.2v0c0-0.7-0.2-1.2-0.6-1.5s-0.9-0.5-1.6-0.5
		c-0.7,0-1.2,0.2-1.6,0.6s-0.7,0.9-0.7,1.7v0H468v0c0.1-0.8,0.4-1.5,0.7-2.1s0.8-1,1.4-1.3s1.2-0.5,2-0.5c0.8,0,1.6,0.1,2.2,0.4
		c0.6,0.3,1.1,0.7,1.4,1.3c0.3,0.6,0.5,1.2,0.5,2v0c0,0.5-0.1,1-0.4,1.5c-0.2,0.6-0.6,1.1-1,1.7l-4.4,5.8h5.8v1.6h-8V175.4z"/>
	<path d="M482.6,176.5c-0.6-0.3-1.1-0.8-1.5-1.4c-0.3-0.6-0.5-1.3-0.5-2.1v-0.2c0-0.7,0.2-1.4,0.5-2c0.3-0.6,0.8-1.1,1.4-1.4
		c-0.5-0.3-0.9-0.7-1.2-1.2c-0.3-0.5-0.4-1.1-0.4-1.7v-0.2c0-0.8,0.2-1.4,0.5-2c0.3-0.6,0.8-1,1.4-1.3s1.3-0.5,2.1-0.5
		s1.5,0.2,2.1,0.5s1.1,0.7,1.4,1.3c0.3,0.6,0.5,1.2,0.5,2v0.2c0,0.6-0.1,1.2-0.4,1.7s-0.7,0.9-1.2,1.2c0.6,0.3,1.1,0.8,1.5,1.4
		c0.4,0.6,0.5,1.3,0.5,2v0.2c0,0.8-0.2,1.5-0.5,2.1c-0.3,0.6-0.8,1-1.5,1.4c-0.6,0.3-1.4,0.5-2.3,0.5S483.3,176.8,482.6,176.5z
		 M486.3,175.1c0.4-0.2,0.7-0.5,0.9-0.8c0.2-0.4,0.3-0.8,0.3-1.3v-0.1c0-0.5-0.1-0.9-0.3-1.3c-0.2-0.4-0.5-0.7-0.9-0.8
		c-0.4-0.2-0.9-0.3-1.4-0.3s-1,0.1-1.4,0.3c-0.4,0.2-0.7,0.5-0.9,0.9s-0.3,0.8-0.3,1.3v0.1c0,0.5,0.1,0.9,0.3,1.3
		c0.2,0.4,0.5,0.6,0.9,0.8s0.9,0.3,1.4,0.3S485.9,175.3,486.3,175.1z M486.2,168.6c0.4-0.2,0.6-0.5,0.8-0.8c0.2-0.4,0.3-0.8,0.3-1.3
		v-0.1c0-0.5-0.1-0.9-0.3-1.2c-0.2-0.3-0.5-0.6-0.8-0.8c-0.4-0.2-0.8-0.3-1.2-0.3s-0.9,0.1-1.2,0.3c-0.4,0.2-0.6,0.4-0.8,0.8
		c-0.2,0.3-0.3,0.7-0.3,1.2v0.1c0,0.5,0.1,0.9,0.3,1.3c0.2,0.4,0.5,0.6,0.8,0.8c0.4,0.2,0.8,0.3,1.2,0.3S485.8,168.8,486.2,168.6z"
		/>
	<path d="M501.3,164.1l-3.7,12.7h-1.8l3.7-12.6h-4.2v2.3h-1.7v-3.9h7.7V164.1z"/>
</g>
<path d="M423.8,65.7h1.7v14.2h-1.7V65.7z M424.6,72.3h4.8c0.5,0,0.9-0.1,1.2-0.3s0.6-0.5,0.8-0.9s0.3-0.8,0.3-1.3
	c0-0.5-0.1-0.9-0.3-1.3s-0.5-0.7-0.8-0.9s-0.7-0.3-1.2-0.3h-4.8v-1.6h4.8c0.8,0,1.5,0.2,2.2,0.5s1.1,0.8,1.4,1.4s0.5,1.3,0.5,2.2
	s-0.2,1.5-0.5,2.2s-0.8,1.1-1.5,1.4s-1.3,0.5-2.2,0.5h-4.8V72.3z M428.9,73.4l1.6-0.4l3.6,6.9h-2L428.9,73.4z"/>
<path d="M450,78.9c-0.7-0.7-1-1.7-1-3v-6.5c0-1.3,0.3-2.3,1-3s1.7-1.1,3-1.1c1.3,0,2.3,0.4,3,1.1s1,1.7,1,3V76c0,1.3-0.3,2.3-1,3
	s-1.7,1.1-3,1.1C451.7,80,450.7,79.7,450,78.9z M454.8,77.8c0.4-0.4,0.6-1,0.6-1.8v-6.5c0-0.8-0.2-1.4-0.6-1.8s-1-0.6-1.8-0.6
	s-1.4,0.2-1.8,0.6s-0.6,1-0.6,1.8V76c0,0.8,0.2,1.4,0.6,1.8s1,0.6,1.8,0.6S454.4,78.2,454.8,77.8z"/>
<path d="M462.3,78.9c-0.7-0.7-1-1.7-1-3v-6.5c0-1.3,0.3-2.3,1-3s1.7-1.1,3-1.1c1.3,0,2.3,0.4,3,1.1s1,1.7,1,3V76c0,1.3-0.3,2.3-1,3
	s-1.7,1.1-3,1.1C464,80,463,79.7,462.3,78.9z M467.1,77.8c0.4-0.4,0.6-1,0.6-1.8v-6.5c0-0.8-0.2-1.4-0.6-1.8s-1-0.6-1.8-0.6
	s-1.4,0.2-1.8,0.6s-0.6,1-0.6,1.8V76c0,0.8,0.2,1.4,0.6,1.8s1,0.6,1.8,0.6S466.7,78.2,467.1,77.8z"/>
<path d="M479.4,79.9h-1.7V67.3l-2.3,1.4V67l2-1.3h2V79.9z"/>
<g>
	<path d="M575.9,79.1c-0.7-0.4-1.3-1.1-1.7-1.9s-0.6-1.7-0.6-2.8v-3.9c0-1.1,0.2-2,0.6-2.8s1-1.4,1.7-1.9s1.6-0.7,2.6-0.7
		c0.8,0,1.6,0.2,2.2,0.5s1.3,0.8,1.7,1.4s0.8,1.3,0.9,2.2h-1.7c-0.1-0.5-0.4-0.9-0.7-1.3s-0.7-0.7-1.1-0.9s-0.9-0.3-1.3-0.3
		c-0.6,0-1.2,0.2-1.7,0.5s-0.9,0.7-1.1,1.3s-0.4,1.2-0.4,1.9v3.9c0,0.7,0.1,1.4,0.4,1.9s0.6,1,1.1,1.3s1,0.5,1.7,0.5
		c0.5,0,0.9-0.1,1.3-0.3s0.8-0.5,1.1-0.9s0.6-0.8,0.7-1.3h1.7c-0.2,0.8-0.5,1.5-0.9,2.2s-1,1.1-1.7,1.4s-1.4,0.5-2.2,0.5
		C577.5,79.8,576.7,79.5,575.9,79.1z"/>
	<path d="M596.5,78.7c-0.7-0.7-1-1.7-1-3v-6.5c0-1.3,0.3-2.3,1-3s1.7-1.1,3-1.1c1.3,0,2.3,0.4,3,1.1s1,1.7,1,3v6.5
		c0,1.3-0.3,2.3-1,3s-1.7,1.1-3,1.1C598.2,79.8,597.1,79.4,596.5,78.7z M601.3,77.5c0.4-0.4,0.6-1,0.6-1.8v-6.5
		c0-0.8-0.2-1.4-0.6-1.8s-1-0.6-1.8-0.6s-1.4,0.2-1.8,0.6s-0.6,1-0.6,1.8v6.5c0,0.8,0.2,1.4,0.6,1.8s1,0.6,1.8,0.6
		S600.9,77.9,601.3,77.5z"/>
	<path d="M613.8,72.6l0,0.4c-0.1,0.3-0.4,0.5-0.8,0.7s-0.8,0.2-1.3,0.2c-0.7,0-1.3-0.2-1.9-0.5s-1-0.8-1.2-1.5s-0.4-1.4-0.4-2.2v0
		c0-0.9,0.2-1.7,0.5-2.4s0.8-1.1,1.4-1.5s1.3-0.5,2.1-0.5s1.5,0.2,2.1,0.5s1,0.8,1.4,1.5s0.5,1.4,0.5,2.4v0c0,0.5-0.1,1-0.2,1.6
		s-0.3,1.1-0.6,1.7c0,0.1-0.1,0.2-0.1,0.3s-0.1,0.2-0.1,0.3l-3,6.1h-1.9L613.8,72.6z M613.8,71.5c0.4-0.5,0.6-1.1,0.6-2v0
		c0-0.8-0.2-1.5-0.6-2s-0.9-0.7-1.7-0.7c-0.7,0-1.3,0.2-1.7,0.7s-0.6,1.1-0.6,2v0c0,0.8,0.2,1.5,0.6,2s1,0.7,1.7,0.7
		S613.4,72,613.8,71.5z"/>
	<path d="M622.3,79.3c-0.6-0.3-1-0.7-1.4-1.2s-0.6-1.2-0.7-1.9v0h1.7v0c0.1,0.6,0.3,1.1,0.7,1.4s0.9,0.5,1.6,0.5
		c0.7,0,1.3-0.2,1.7-0.7s0.6-1.1,0.6-1.9V74c0-0.8-0.2-1.4-0.5-1.8s-0.9-0.6-1.6-0.6c-0.4,0-0.9,0.1-1.3,0.4s-0.7,0.6-1.1,1h-1.5
		v-7.5h7.2V67h-5.5v3.7c0.3-0.3,0.6-0.5,1-0.6s0.8-0.2,1.2-0.2c0.8,0,1.5,0.2,2,0.5s1,0.8,1.3,1.4s0.4,1.4,0.4,2.2v1.6
		c0,0.9-0.2,1.6-0.5,2.3s-0.8,1.1-1.4,1.4s-1.3,0.5-2.2,0.5C623.5,79.8,622.9,79.6,622.3,79.3z"/>
</g>
<g>
	<path d="M582.8,96.7h1.7v14.2h-1.7V99.5l0.1,0.6l-3.9,8.8h-1.2l-3.9-8.6l0.1-0.8v11.4h-1.7V96.7h1.7l4.4,9.8L582.8,96.7z"/>
	<path d="M596.5,110c-0.7-0.7-1-1.7-1-3v-6.5c0-1.3,0.3-2.3,1-3c0.7-0.7,1.7-1.1,3-1.1c1.3,0,2.3,0.4,3,1.1s1,1.7,1,3v6.5
		c0,1.3-0.3,2.3-1,3c-0.7,0.7-1.7,1.1-3,1.1C598.2,111.1,597.1,110.7,596.5,110z M601.3,108.8c0.4-0.4,0.6-1,0.6-1.8v-6.5
		c0-0.8-0.2-1.4-0.6-1.8c-0.4-0.4-1-0.6-1.8-0.6s-1.4,0.2-1.8,0.6c-0.4,0.4-0.6,1-0.6,1.8v6.5c0,0.8,0.2,1.4,0.6,1.8s1,0.6,1.8,0.6
		S600.9,109.2,601.3,108.8z"/>
	<path d="M616,98.2l-3.7,12.7h-1.8l3.7-12.6H610v2.3h-1.7v-3.9h7.7V98.2z"/>
	<path d="M620.3,109.5l5.1-6.8c0.3-0.4,0.6-0.8,0.7-1.3c0.2-0.4,0.3-0.8,0.3-1.2v0c0-0.7-0.2-1.2-0.6-1.5s-0.9-0.5-1.6-0.5
		c-0.7,0-1.2,0.2-1.6,0.6s-0.7,0.9-0.7,1.7v0h-1.8v0c0.1-0.8,0.4-1.5,0.7-2.1s0.8-1,1.4-1.3s1.2-0.5,2-0.5c0.8,0,1.6,0.1,2.2,0.4
		s1.1,0.7,1.4,1.3c0.3,0.6,0.5,1.2,0.5,2v0c0,0.5-0.1,1-0.4,1.5c-0.2,0.6-0.6,1.1-1,1.7l-4.4,5.8h5.8v1.6h-8V109.5z"/>
</g>
<g>
	<path d="M579.3,134.9v5.8h-1.7v-5.8l-4.5-8.4h1.9l3.4,6.7l3.4-6.7h1.9L579.3,134.9z"/>
	<path d="M596.5,139.7c-0.7-0.7-1-1.7-1-3v-6.5c0-1.3,0.3-2.3,1-3c0.7-0.7,1.7-1.1,3-1.1c1.3,0,2.3,0.4,3,1.1c0.7,0.7,1,1.7,1,3v6.5
		c0,1.3-0.3,2.3-1,3c-0.7,0.7-1.7,1.1-3,1.1C598.2,140.8,597.1,140.4,596.5,139.7z M601.3,138.5c0.4-0.4,0.6-1,0.6-1.8v-6.5
		c0-0.8-0.2-1.4-0.6-1.8c-0.4-0.4-1-0.6-1.8-0.6s-1.4,0.2-1.8,0.6c-0.4,0.4-0.6,1-0.6,1.8v6.5c0,0.8,0.2,1.4,0.6,1.8s1,0.6,1.8,0.6
		S600.9,139,601.3,138.5z"/>
	<path d="M610.1,140.3c-0.6-0.3-1.1-0.7-1.5-1.2c-0.4-0.5-0.6-1.2-0.7-2h1.7c0.1,0.4,0.2,0.8,0.4,1.1c0.2,0.3,0.5,0.5,0.9,0.7
		c0.4,0.2,0.8,0.2,1.2,0.2c0.8,0,1.3-0.2,1.8-0.6s0.6-1,0.6-1.7v-0.4c0-0.8-0.2-1.3-0.6-1.8c-0.4-0.4-1-0.6-1.7-0.6h-1v-1.6h1
		c0.7,0,1.2-0.2,1.5-0.5c0.4-0.4,0.5-0.9,0.5-1.5V130c0-0.7-0.2-1.2-0.6-1.5c-0.4-0.4-0.9-0.5-1.6-0.5c-0.4,0-0.7,0.1-1,0.2
		c-0.3,0.1-0.6,0.4-0.8,0.7s-0.4,0.7-0.5,1.1h-1.7c0.1-0.7,0.4-1.4,0.7-1.9c0.4-0.5,0.8-0.9,1.4-1.2c0.6-0.3,1.2-0.4,1.9-0.4
		c1.2,0,2.2,0.3,2.8,1s1,1.6,1,2.7v0.3c0,0.7-0.2,1.3-0.5,1.8s-0.8,0.9-1.5,1.1c0.7,0.2,1.3,0.5,1.7,1.1s0.6,1.3,0.6,2.2v0.3
		c0,0.8-0.2,1.5-0.5,2.1s-0.8,1-1.4,1.3c-0.6,0.3-1.3,0.5-2.2,0.5C611.5,140.8,610.8,140.6,610.1,140.3z"/>
	<path d="M626.2,140.6h-1.7v-12.5l-2.3,1.4v-1.8l2-1.3h2V140.6z"/>
</g>
<g>
	<path d="M573,162.6h1.7v14.2H573V162.6z M574.2,171.5l7-8.9h2.1l-9,11L574.2,171.5z M577.3,169.2l1.2-1.5l5.4,9h-2.1L577.3,169.2z"
		/>
	<path d="M596.5,175.9c-0.7-0.7-1-1.7-1-3v-6.5c0-1.3,0.3-2.3,1-3c0.7-0.7,1.7-1.1,3-1.1c1.3,0,2.3,0.4,3,1.1s1,1.7,1,3v6.5
		c0,1.3-0.3,2.3-1,3c-0.7,0.7-1.7,1.1-3,1.1C598.2,176.9,597.1,176.6,596.5,175.9z M601.3,174.7c0.4-0.4,0.6-1,0.6-1.8v-6.5
		c0-0.8-0.2-1.4-0.6-1.8c-0.4-0.4-1-0.6-1.8-0.6s-1.4,0.2-1.8,0.6c-0.4,0.4-0.6,1-0.6,1.8v6.5c0,0.8,0.2,1.4,0.6,1.8s1,0.6,1.8,0.6
		S600.9,175.1,601.3,174.7z"/>
	<path d="M609.1,175.9c-0.7-0.7-1-1.7-1-3v-6.5c0-1.3,0.3-2.3,1-3c0.7-0.7,1.7-1.1,3-1.1c1.3,0,2.3,0.4,3,1.1s1,1.7,1,3v6.5
		c0,1.3-0.3,2.3-1,3c-0.7,0.7-1.7,1.1-3,1.1C610.8,176.9,609.8,176.6,609.1,175.9z M613.9,174.7c0.4-0.4,0.6-1,0.6-1.8v-6.5
		c0-0.8-0.2-1.4-0.6-1.8c-0.4-0.4-1-0.6-1.8-0.6s-1.4,0.2-1.8,0.6c-0.4,0.4-0.6,1-0.6,1.8v6.5c0,0.8,0.2,1.4,0.6,1.8s1,0.6,1.8,0.6
		S613.6,175.1,613.9,174.7z"/>
	<path d="M621.2,175.9c-0.7-0.7-1-1.7-1-3v-6.5c0-1.3,0.3-2.3,1-3c0.7-0.7,1.7-1.1,3-1.1c1.3,0,2.3,0.4,3,1.1s1,1.7,1,3v6.5
		c0,1.3-0.3,2.3-1,3c-0.7,0.7-1.7,1.1-3,1.1C622.9,176.9,621.9,176.6,621.2,175.9z M626,174.7c0.4-0.4,0.6-1,0.6-1.8v-6.5
		c0-0.8-0.2-1.4-0.6-1.8c-0.4-0.4-1-0.6-1.8-0.6s-1.4,0.2-1.8,0.6c-0.4,0.4-0.6,1-0.6,1.8v6.5c0,0.8,0.2,1.4,0.6,1.8s1,0.6,1.8,0.6
		S625.6,175.1,626,174.7z"/>
</g>
<path d="M434,103.3v2.3c0,1.1-0.2,2.1-0.6,2.9c-0.4,0.8-1,1.4-1.7,1.8c-0.7,0.4-1.6,0.6-2.7,0.6c-1.1,0-2-0.2-2.7-0.6
	s-1.3-1-1.7-1.7c-0.4-0.7-0.6-1.7-0.6-2.7v-4.2c0-1.1,0.2-2.1,0.6-2.9c0.4-0.8,1-1.4,1.7-1.8s1.6-0.6,2.7-0.6c0.9,0,1.6,0.2,2.3,0.5
	s1.2,0.8,1.7,1.4c0.4,0.6,0.7,1.4,0.9,2.3H432c-0.1-0.6-0.4-1-0.7-1.4c-0.3-0.4-0.6-0.7-1.1-0.9c-0.4-0.2-0.9-0.3-1.4-0.3
	c-0.7,0-1.3,0.1-1.8,0.4c-0.5,0.3-0.9,0.7-1.1,1.3s-0.4,1.2-0.4,2v4.2c0,0.7,0.1,1.3,0.4,1.8c0.3,0.5,0.6,0.9,1.1,1.1
	s1.1,0.4,1.8,0.4c0.7,0,1.3-0.1,1.7-0.4s0.8-0.7,1.1-1.2c0.3-0.5,0.4-1.2,0.4-2v-0.7H429v-1.6H434z"/>
<path d="M449.8,109.8c-0.7-0.7-1-1.7-1-3v-6.5c0-1.3,0.3-2.3,1-3c0.7-0.7,1.7-1.1,3-1.1c1.3,0,2.3,0.4,3,1.1s1,1.7,1,3v6.5
	c0,1.3-0.3,2.3-1,3c-0.7,0.7-1.7,1.1-3,1.1C451.5,110.9,450.5,110.5,449.8,109.8z M454.6,108.7c0.4-0.4,0.6-1,0.6-1.8v-6.5
	c0-0.8-0.2-1.4-0.6-1.8c-0.4-0.4-1-0.6-1.8-0.6s-1.4,0.2-1.8,0.6c-0.4,0.4-0.6,1-0.6,1.8v6.5c0,0.8,0.2,1.4,0.6,1.8s1,0.6,1.8,0.6
	S454.2,109.1,454.6,108.7z"/>
<path d="M462.9,110.4c-0.6-0.3-1.1-0.8-1.5-1.4c-0.3-0.6-0.5-1.3-0.5-2.1v-0.2c0-0.7,0.2-1.4,0.5-2c0.3-0.6,0.8-1.1,1.4-1.4
	c-0.5-0.3-0.9-0.7-1.2-1.2c-0.3-0.5-0.4-1.1-0.4-1.7v-0.2c0-0.8,0.2-1.4,0.5-2c0.3-0.6,0.8-1,1.4-1.3s1.3-0.5,2.1-0.5
	s1.5,0.2,2.1,0.5s1.1,0.7,1.4,1.3c0.3,0.6,0.5,1.2,0.5,2v0.2c0,0.6-0.1,1.2-0.4,1.7s-0.7,0.9-1.2,1.2c0.6,0.3,1.1,0.8,1.5,1.4
	c0.4,0.6,0.5,1.3,0.5,2v0.2c0,0.8-0.2,1.5-0.5,2.1c-0.3,0.6-0.8,1-1.5,1.4c-0.6,0.3-1.4,0.5-2.3,0.5S463.5,110.7,462.9,110.4z
	 M466.5,109c0.4-0.2,0.7-0.5,0.9-0.8c0.2-0.4,0.3-0.8,0.3-1.3v-0.1c0-0.5-0.1-0.9-0.3-1.3c-0.2-0.4-0.5-0.7-0.9-0.8
	c-0.4-0.2-0.9-0.3-1.4-0.3s-1,0.1-1.4,0.3c-0.4,0.2-0.7,0.5-0.9,0.9s-0.3,0.8-0.3,1.3v0.1c0,0.5,0.1,0.9,0.3,1.3
	c0.2,0.4,0.5,0.6,0.9,0.8s0.9,0.3,1.4,0.3S466.2,109.2,466.5,109z M466.4,102.5c0.4-0.2,0.6-0.5,0.8-0.8c0.2-0.4,0.3-0.8,0.3-1.3
	v-0.1c0-0.5-0.1-0.9-0.3-1.2c-0.2-0.3-0.5-0.6-0.8-0.8c-0.4-0.2-0.8-0.3-1.2-0.3s-0.9,0.1-1.2,0.3c-0.4,0.2-0.6,0.4-0.8,0.8
	c-0.2,0.3-0.3,0.7-0.3,1.2v0.1c0,0.5,0.1,0.9,0.3,1.3c0.2,0.4,0.5,0.6,0.8,0.8c0.4,0.2,0.8,0.3,1.2,0.3S466.1,102.7,466.4,102.5z"/>
<path d="M473.3,109.3l5.1-6.8c0.3-0.4,0.6-0.8,0.7-1.3c0.2-0.4,0.3-0.8,0.3-1.2v0c0-0.7-0.2-1.2-0.6-1.5s-0.9-0.5-1.6-0.5
	c-0.7,0-1.2,0.2-1.6,0.6s-0.7,0.9-0.7,1.7v0h-1.8v0c0.1-0.8,0.4-1.5,0.7-2.1s0.8-1,1.4-1.3s1.2-0.5,2-0.5c0.8,0,1.6,0.1,2.2,0.4
	s1.1,0.7,1.4,1.3c0.3,0.6,0.5,1.2,0.5,2v0c0,0.5-0.1,1-0.4,1.5c-0.2,0.6-0.6,1.1-1,1.7l-4.4,5.8h5.8v1.6h-8V109.3z"/>
<path d="M424,126.5h1.7v14.2H424V126.5z M425.2,139.1h3.9c1.1,0,1.9-0.2,2.4-0.6s0.8-1,0.8-1.8v0c0-0.5-0.1-1-0.3-1.3
	c-0.2-0.4-0.5-0.7-0.9-0.9c-0.4-0.2-0.9-0.3-1.5-0.3h-4.4v-1.5h4.4c0.8,0,1.5-0.2,1.9-0.6c0.4-0.4,0.6-0.9,0.6-1.7
	c0-0.8-0.2-1.4-0.7-1.7c-0.5-0.4-1.2-0.6-2.1-0.6h-4.1v-1.6h4.4c0.9,0,1.7,0.2,2.3,0.5s1.1,0.8,1.4,1.3c0.3,0.6,0.5,1.3,0.5,2.1
	c0,0.5-0.1,0.9-0.3,1.4c-0.2,0.4-0.5,0.8-0.9,1.1c-0.4,0.3-0.9,0.5-1.4,0.6c0.6,0.1,1.1,0.3,1.5,0.6s0.7,0.7,1,1.2
	c0.2,0.5,0.3,1,0.3,1.6v0c0,0.8-0.2,1.4-0.5,2s-0.8,1-1.5,1.4c-0.6,0.3-1.4,0.5-2.2,0.5h-4.6V139.1z"/>
<path d="M454.8,140.7h-1.7v-12.5l-2.3,1.4v-1.8l2-1.3h2V140.7z"/>
<path d="M463.1,140.4c-0.6-0.3-1.1-0.7-1.5-1.2c-0.4-0.5-0.6-1.2-0.7-2h1.7c0.1,0.4,0.2,0.8,0.4,1.1c0.2,0.3,0.5,0.5,0.9,0.7
	c0.4,0.1,0.8,0.2,1.2,0.2c0.8,0,1.3-0.2,1.8-0.6s0.6-1,0.6-1.7v-0.4c0-0.8-0.2-1.3-0.6-1.8c-0.4-0.4-1-0.6-1.7-0.6h-1v-1.6h1
	c0.7,0,1.2-0.2,1.5-0.5c0.4-0.4,0.5-0.9,0.5-1.5V130c0-0.7-0.2-1.2-0.6-1.5c-0.4-0.4-0.9-0.5-1.6-0.5c-0.4,0-0.7,0.1-1,0.2
	s-0.6,0.4-0.8,0.7s-0.4,0.7-0.5,1.1h-1.7c0.1-0.7,0.4-1.4,0.7-1.9c0.4-0.5,0.8-0.9,1.4-1.2c0.6-0.3,1.2-0.4,1.9-0.4
	c1.2,0,2.2,0.3,2.8,1s1,1.6,1,2.7v0.3c0,0.7-0.2,1.3-0.5,1.8s-0.8,0.9-1.5,1.1c0.7,0.2,1.3,0.5,1.7,1.1s0.6,1.3,0.6,2.2v0.3
	c0,0.8-0.2,1.5-0.5,2.1s-0.8,1-1.4,1.3c-0.6,0.3-1.3,0.5-2.2,0.5C464.4,140.8,463.7,140.7,463.1,140.4z"/>
<path d="M475.3,140.4c-0.6-0.3-1-0.7-1.4-1.2c-0.3-0.5-0.6-1.2-0.7-1.9v0h1.7v0c0.1,0.6,0.3,1.1,0.7,1.4c0.4,0.3,0.9,0.5,1.6,0.5
	c0.7,0,1.3-0.2,1.7-0.7c0.4-0.4,0.6-1.1,0.6-1.9v-1.6c0-0.8-0.2-1.4-0.5-1.8c-0.4-0.4-0.9-0.6-1.6-0.6c-0.4,0-0.9,0.1-1.3,0.4
	c-0.4,0.2-0.7,0.6-1.1,1h-1.5v-7.5h7.2v1.6h-5.5v3.7c0.3-0.3,0.6-0.5,1-0.6c0.4-0.2,0.8-0.2,1.2-0.2c0.8,0,1.5,0.2,2,0.5
	c0.6,0.3,1,0.8,1.3,1.4s0.4,1.4,0.4,2.2v1.6c0,0.9-0.2,1.6-0.5,2.3c-0.3,0.6-0.8,1.1-1.4,1.4c-0.6,0.3-1.3,0.5-2.2,0.5
	C476.5,140.8,475.8,140.7,475.3,140.4z"/>
</svg>
