<?xml version="1.0" encoding="utf-8"?>
<!-- Generator: Adobe Illustrator 25.4.1, SVG Export Plug-In . SVG Version: 6.00 Build 0)  -->
<svg version="1.1" id="レイヤー_1" xmlns="http://www.w3.org/2000/svg" xmlns:xlink="http://www.w3.org/1999/xlink" x="0px"
	 y="0px" viewBox="0 0 841.9 595.3" style="enable-background:new 0 0 841.9 595.3;" xml:space="preserve">
<style type="text/css">
	.st0{fill:#015287;}
</style>
<path class="st0" d="M525.1,447.9v-73.1c0-24.9-20.2-45-45-45H289v100.9c0,24.9,20.2,45,45,45h191h27.8
	C537.5,475.7,525.1,463.2,525.1,447.9z"/>
<g>
	<g>
		<path d="M337.9,125.4v3.9h-23.8v-3.9H337.9z M328.1,139.3h-4.2v-23.8h4.2V139.3z"/>
	</g>
</g>
<g>
	<path d="M418.1,259v19.6h-3.9V259H418.1z M427.7,259v19.6h-3.9V259H427.7z"/>
</g>
<g>
	<g>
		<path d="M536.4,125.4v3.9h-23.8v-3.9H536.4z M526.6,139.3h-4.2v-23.8h4.2V139.3z"/>
	</g>
</g>
<g>
	<rect x="178.8" y="83.9" class="st0" width="91.3" height="91.3"/>
	<g>
		<path d="M207.9,201.7c0-0.1,0-0.1,0.1-0.1c0.1,0,0.2,0.1,0.4,0.5c0.5,0.7,0.8,1.6,0.8,2.4c0,1.2-0.7,2-1.8,2
			c-0.7,0-1.3-0.5-1.3-1.2c0-0.4,0.1-0.5,0.8-1.2c0.6-0.5,1-1.4,1-2.3V201.7z M217.9,194c0.5-0.8,0.7-1,0.9-1c0.2,0,0.7,0.2,1.4,0.7
			c0.6,0.4,0.8,0.6,0.8,0.8c0,0.2,0,0.2-0.5,0.5c0,0.5,0,1.2,0.1,2c0,0.6,0.1,1,0.1,1.3c0,0.3-0.1,0.5-0.2,0.6
			c-0.3,0.2-1,0.4-1.6,0.4c-0.6,0-0.8-0.2-0.8-0.7v-0.3h-2.4v0.7c0,0.5,0,0.7,0,0.8c0,0.7-0.5,0.9-1.5,0.9c-0.7,0-0.8-0.1-0.8-0.6
			c0-0.1,0-0.4,0-0.8l0-0.9h-2.4c0,0.5-0.1,0.6-0.3,0.7c-0.3,0.2-0.8,0.3-1.3,0.3c-0.6,0-0.8-0.1-0.8-0.5c0-0.1,0-0.2,0-0.6
			c0-1,0.1-3.2,0.1-4.1v-0.3c0-0.4,0-0.5,0.1-0.5c0.1,0,0.7,0.1,1.3,0.3c0.7,0.2,1,0.3,1.1,0.6l2.1,0v-1.4c0-0.4,0-0.8,0-1.1
			c0-0.1,0-0.1,0.1-0.1c0.3,0,1.8,0.2,2.2,0.3c0.4,0.1,0.6,0.2,0.6,0.4c0,0.2-0.1,0.3-0.5,0.5v1.4H217.9z M212.4,204.7
			c0,0.3,0.1,0.5,0.2,0.5c0.2,0.1,0.8,0.2,1.7,0.2c1.4,0,2.3-0.2,2.8-0.6c0.4-0.4,0.8-1.1,1.2-2c0.1-0.2,0.1-0.3,0.2-0.3
			s0.1,0,0.1,0.1c0,0,0,0.1-0.1,1.1c0,0.3,0,0.5,0,0.6c0,0.5,0.1,0.7,0.6,1c0.2,0.1,0.3,0.4,0.3,0.6c0,0.6-0.3,1.1-0.9,1.4
			c-0.6,0.3-1.3,0.3-2.8,0.3c-4.8,0-5.3-0.2-5.3-1.7v-2.1c0-1.4,0-1.4,0-2v-1c0-0.2,0-0.2,0.2-0.2c0.1,0,1,0.2,1.5,0.3
			c0.8,0.2,1,0.3,1,0.6c0,0.1-0.1,0.2-0.5,0.4L212.4,204.7z M211.1,194.4c-0.1,0-0.2,0.1-0.3,0.2c0,0,0,0.2,0,0.2c0,0.4,0,0.5,0,0.9
			v2h2.4v-3.4H211.1z M214.8,204c-0.4,0-0.8-0.1-0.9-0.4c-0.1-0.1-0.1-0.3-0.1-0.7c0-0.8-0.4-1.7-1-2c-0.1-0.1-0.2-0.1-0.2-0.2
			c0-0.1,0.1-0.1,0.1-0.1c0.4,0,1.6,0.3,2.1,0.6c0.8,0.3,1.3,1,1.3,1.6C216.2,203.5,215.6,204,214.8,204z M218,195.5
			c0-0.7,0-0.8,0-1c0-0.1-0.1-0.2-0.5-0.2h-1.9v3.4h2.4L218,195.5z M221.3,206c-0.8,0-1.1-0.3-1.3-1.5c-0.2-1.5-0.7-2.4-1.3-2.8
			c-0.2-0.1-0.2-0.2-0.2-0.2c0-0.1,0.1-0.1,0.1-0.1c0.5,0,1.6,0.4,2.3,0.7c1.1,0.6,1.8,1.5,1.8,2.6C222.7,205.5,222.2,206,221.3,206
			z"/>
		<path d="M235.4,202.1c0.9,1.7,3.5,2.8,7.3,3.2c0.1,0,0.2,0.1,0.2,0.1c0,0.1,0,0.1-0.1,0.1c-0.8,0.3-1.5,1.1-1.8,1.9
			c-0.1,0.4-0.2,0.4-0.5,0.4c-1.8,0-3.7-1.3-4.6-3.2c-0.4-0.8-0.6-1.5-0.8-2.6h-0.2c-0.6,2-1.6,3.3-3.2,4.3c-1.1,0.6-2.4,1-4.1,1.3
			c-0.6,0.1-1.1,0.1-1.4,0.1c-0.1,0-0.2-0.1-0.2-0.1c0-0.1,0-0.1,1-0.3c1-0.2,2.6-1,3.4-1.7c1-0.9,1.8-2.1,2.2-3.6h-4.7
			c-0.4,0-0.8,0-1.2,0.1c-0.3-0.4-0.3-0.4-0.3-0.4c0-0.1,0.1-0.1,0.1-0.1c0.4,0,0.8,0.1,1.1,0.1h5.2c0.1-0.7,0.2-1.5,0.2-2h-2.3
			c-0.5,0-1.1,0-1.6,0.1c-0.3-0.4-0.3-0.4-0.3-0.5c0-0.1,0.1-0.1,0.1-0.1c0.4,0,1,0.1,1.2,0.1h2.8l0-1.8h-3.6c-0.4,0-0.9,0-1.3,0.1
			c-0.3-0.3-0.3-0.4-0.3-0.4c0-0.1,0.1-0.1,0.1-0.1c0.4,0,0.9,0.1,1.1,0.1h3.9v-2.3c0-0.1,0-0.1,0.1-0.1c0.4,0,1.8,0.2,2.2,0.3
			c0.4,0.1,0.6,0.2,0.6,0.4s-0.1,0.2-0.5,0.5c0,0.4,0,0.7,0,1.2h2.4c0.9-1.3,1-1.3,1.2-1.3c0.1,0,0.1,0,0.2,0.1
			c0.1-0.4,0.2-1,0.2-1.7h-10.1c0.1,0.3,0.1,0.5,0.1,0.8c0,1-0.8,1.8-1.8,1.8c-0.8,0-1.4-0.5-1.4-1.2c0-0.3,0.1-0.6,0.3-0.8
			c0.1-0.1,0.1-0.1,0.8-0.5c0.5-0.3,0.8-0.7,0.8-1.2l0-0.3c0-0.1,0.1-0.1,0.1-0.1c0.2,0,0.7,0.6,1,1.1h3.8c0-0.4,0-1.9-0.1-2.3
			c0-0.1,0-0.1,0.1-0.1c0.4,0,1.6,0.1,2.2,0.3c0.5,0.1,0.7,0.2,0.7,0.5c0,0.2-0.1,0.3-0.5,0.5l0,1.2h3.7c0.7-0.9,0.9-1,1.1-1
			c0.4,0,1.1,0.5,1.8,1.2c0.5,0.5,0.6,0.8,0.6,1.1c0,0.4-0.3,0.7-0.7,0.7c-0.1,0-0.1,0-0.7,0H241c-0.3,0-0.7,0.1-1.4,0.4
			c0.8,0.6,1.2,0.9,1.2,1.2c0,0.2-0.2,0.3-0.5,0.3h-4.9c0,0.8,0,1-0.1,1.8h2c0.1-0.1,0.1-0.1,0.2-0.2c0.7-1,0.9-1.1,1.1-1.1
			c0.5,0,1.7,1.1,1.7,1.4c0,0.2-0.1,0.3-0.5,0.3h-4.5c-0.1,0.8-0.1,1.3-0.2,2h3.9c0.9-1.2,1.2-1.6,1.4-1.6c0.5,0,2,1.3,2,1.7
			c0,0.1-0.1,0.3-0.3,0.3H235.4z"/>
	</g>
</g>
<g>
	<circle class="st0" cx="420.9" cy="129.5" r="45.6"/>
	<g>
		<path d="M404.5,198.9c-0.4,0-0.6-0.1-0.8-0.4c-0.1-0.1-0.1-0.3-0.1-0.6c0-0.7-0.3-1.4-0.6-1.7c-0.1,0-0.1-0.1-0.1-0.1
			c0-0.1,0.1-0.1,0.5-0.1c1.5,0,2.6,0.7,2.6,1.6C405.9,198.4,405.3,198.9,404.5,198.9z M418.1,206.7c0.1-0.2,0.2-0.4,0.3-0.6
			c0.2-0.4,0.3-0.5,0.5-0.5c0.4,0,1.1,0.9,1.1,1.4c0,0.2-0.1,0.3-0.4,0.3h-10.8c-0.7,0-1.7,0-2.3,0.1c-0.3-0.3-0.3-0.4-0.3-0.5
			c-0.3,0.5-0.8,0.9-1.4,0.9c-0.8,0-1.2-0.4-1.2-1.1c0-0.2,0-0.3,0.1-0.8c0-0.3,0.1-0.5,0.1-0.7c0-0.5,0-1.1-0.3-1.5
			c-0.2-0.3-0.3-0.5-0.5-0.6c0,0-0.1-0.1-0.1-0.1c0-0.1,0-0.1,0.1-0.1c0,0,0,0,0.2,0c0.1,0,0.2,0.1,0.4,0.1c0.5,0,0.6-0.2,1.2-1.3
			c0.8-1.7,2.9-6.7,3.4-8.3c0-0.1,0.1-0.1,0.1-0.1c0.1,0,0.1,0,0.1,0.1c0,0.1,0,0.1,0,0.2c-0.1,0.4-0.4,1.4-0.8,3.2
			c-0.2,0.9-0.4,1.7-0.6,2.3c-0.7,2.8-0.9,4-0.9,4.8c0,0.3-0.1,1.1,0,1.7c0,0.2,0.1,0.6,0.1,0.9c0,0.2,0,0.3-0.1,0.4c0,0,0,0,0.1,0
			c0.4,0,0.6,0,1.8,0l0-2.7l0-2.7c0-1.5,0-1.5,0-1.5c0-0.1,0.1-0.1,0.1-0.1c0.2,0,1,0.2,1.4,0.3c0.3,0.1,0.5,0.2,0.6,0.3h5.3
			c0.4-0.6,0.6-0.8,0.8-0.8c0.3,0,0.9,0.3,1.6,0.7c0.4,0.3,0.4,0.4,0.4,0.6c0,0.1-0.1,0.3-0.5,0.5c0,0.4,0,0.6,0,0.8v4.7H418.1z
			 M406,194.9c-0.4,0-0.7-0.2-0.8-0.4c-0.1-0.1-0.1-0.4-0.1-0.7c-0.1-0.7-0.4-1.4-0.8-1.6c-0.1,0-0.1-0.1-0.1-0.1
			c0-0.1,0.3-0.1,0.8-0.1c0.6,0,1.4,0.2,1.8,0.4c0.4,0.3,0.7,0.7,0.7,1.2C407.5,194.3,406.8,194.9,406,194.9z M414.9,192.5
			c0.5-0.8,0.6-0.9,0.9-0.9c0.2,0,0.4,0.1,1.3,0.6c0.6,0.4,0.8,0.6,0.8,0.8c0,0.1-0.1,0.3-0.5,0.5c0,0.2,0,0.4,0,0.5
			c0,0.3,0,0.5,0,1.2c0.1,1.2,0.1,2.3,0.1,2.8c0,0.4-0.1,0.5-0.5,0.7c-0.3,0.1-0.8,0.2-1.2,0.2c-0.5,0-0.7-0.1-0.7-0.4v-0.1h-4.2
			c0,0.2,0,0.3-0.1,0.3c-0.2,0.2-0.7,0.4-1.2,0.4c-0.5,0-0.7-0.1-0.7-0.4c0-0.7,0-1.5,0-2.4c0-1.1,0-2.3,0-3.6v-0.5
			c0-0.2,0-0.2,0.1-0.2c0.3,0,1.3,0.2,1.7,0.3c0.2,0.1,0.4,0.1,0.5,0.3H414.9z M410.3,200.6c-0.2,0-0.3,0.2-0.3,0.9v5.1h0.8v-6
			H410.3z M415.1,195.2c0-0.6,0-1,0-1.3v-0.6c0-0.3-0.1-0.4-0.3-0.4l-3.5,0c-0.3,0-0.3,0.1-0.3,0.8v1.5H415.1z M410.9,195.6v2.3h4.2
			l0-2.3H410.9z M412.5,200.6c0,0.1,0,0.1-0.1,0.2c-0.1,0.1-0.1,0.2-0.1,0.3v5.5h0.8v-6H412.5z M415.8,200.8c0-0.1,0-0.2-0.1-0.2
			H415c0,0.1,0,0.1-0.1,0.2c0,0.1-0.1,0.2-0.1,0.3v5.6h0.9V200.8z"/>
		<path d="M429.3,197.3c0.8-1.4,0.9-1.4,1.1-1.4c0.2,0,0.4,0.2,1,0.6c0.4,0.4,0.6,0.7,0.6,1c0,0.2-0.1,0.3-0.4,0.3h-2.8v2
			c2,0.2,3.2,0.9,3.2,2c0,0.8-0.6,1.4-1.4,1.4c-0.6,0-0.9-0.3-0.9-0.9c-0.1-1.1-0.3-1.6-0.8-2.3l0.1,5.2c0,0.5,0,1,0,1.7
			c0,0.3,0,0.4-0.1,0.5c-0.2,0.3-0.8,0.5-1.5,0.5c-0.6,0-0.8-0.1-0.8-0.5c0,0,0,0,0.1-1c0-0.6,0.1-1.8,0.1-2.3c0-1.2,0-1.2,0.1-1.9
			c-0.8,0.9-1.6,1.7-2.6,2.3c-0.6,0.4-1.3,0.8-1.4,0.8c0,0-0.1,0-0.1-0.1c0,0,0-0.1,0.1-0.1c1.4-1.1,3.2-4.6,3.8-7.2H424
			c-0.3,0-0.6,0-0.9,0c-0.3-0.3-0.3-0.4-0.3-0.4c0-0.1,0.1-0.1,0.1-0.1c0.3,0,0.8,0.1,1,0.1h2.7c0-1.1,0-1.7,0-2.7
			c-0.1,0-0.1,0-0.5,0.1c-0.9,0.2-2.7,0.4-3.2,0.4c-0.2,0-0.2,0-0.2-0.1c0-0.1,0.1-0.1,0.2-0.1c2.1-0.7,4.2-1.9,5.8-3.5
			c1.7,0.7,2.7,1.4,2.7,1.9c0,0.3-0.3,0.4-0.8,0.4c-0.1,0-0.1,0-0.2,0c-1,0.3-1.3,0.4-1.7,0.4c0.3,0.1,0.4,0.2,0.4,0.4
			c0,0.1-0.1,0.2-0.4,0.3c0,0.5,0,0.6-0.1,2.5H429.3z M436.1,194.8c0.4-0.7,0.7-0.9,0.9-0.9c0.3,0,0.8,0.3,1.4,0.8
			c0.5,0.3,0.6,0.5,0.6,0.7c0,0.2-0.1,0.4-0.5,0.7c0,2.5,0,2.5,0.1,4.8c0,1.3,0.1,3.4,0.1,4.2c0,0.7-0.5,1.1-1.5,1.1
			c-0.5,0-0.7-0.1-0.8-0.3c-0.1-0.1-0.1-0.1-0.1-1.5h-1.9v0.5c0,0.6,0,0.7-0.2,0.8c-0.3,0.3-0.8,0.4-1.3,0.4c-0.5,0-0.6-0.1-0.6-0.6
			c0,0,0,0,0-0.7c0-1.9,0-4.4,0-7c0-2.9,0-2.9,0-3.5c0-0.2,0-0.2,0.1-0.2c0.2,0,1.3,0.3,1.7,0.5c0.2,0.1,0.3,0.2,0.4,0.3H436.1z
			 M436.3,204c0-6.8,0-7.4,0-7.8v-0.6c0-0.1,0-0.2-0.1-0.2h-1.5c-0.3,0-0.3,0.2-0.3,1.4l0,4.9c0,0.5,0,1.3,0,2.4H436.3z"/>
	</g>
</g>
<g>
	<path class="st0" d="M675.8,159.3c12.1-7.8,19.8-19.1,19.8-31.8c0-23.4-26-42.3-58.1-42.3c-32.1,0-58.1,18.9-58.1,42.3
		s26,42.3,58.1,42.3c10.2,0,19.7-1.9,28-5.2c7.2,4.7,24.4,9.2,24.4,9.2L675.8,159.3z"/>
	<g>
		<path d="M632.5,196.5c0.4-0.5,0.4-0.5,0.9-1.1c0.3-0.4,0.5-0.5,0.7-0.5c0.6,0,2.1,1.3,2.1,1.8c0,0.2-0.2,0.3-0.5,0.3h-15.1
			c-0.4,0-0.7,0-1.1,0.1c-0.3-0.4-0.3-0.4-0.3-0.4c0-0.1,0.1-0.1,0.1-0.1c0.3,0,0.7,0.1,0.9,0.1h4.5c-0.3-0.1-0.4-0.3-0.4-0.8
			c0-0.8-0.3-1.6-0.7-1.9h-2.2c-0.3,0-0.5,0-0.8,0c-0.3-0.3-0.3-0.4-0.3-0.4c0-0.1,0.1-0.1,0.1-0.1c0.3,0,0.8,0.1,1,0.1h4.8V193
			c0-0.6,0-1.1,0-1.2c0-0.1,0-0.1,0-0.2c0-0.2,0-0.2,0.1-0.2c0.4,0,1.7,0.2,2.3,0.3c0.4,0.1,0.7,0.3,0.7,0.5c0,0.2-0.1,0.2-0.5,0.6
			l0,0.7h2.8c0.9-1.2,1.1-1.5,1.4-1.5c0.3,0,0.7,0.3,1.5,0.9c0.3,0.3,0.5,0.5,0.5,0.7c0,0.2-0.2,0.3-0.5,0.3h-4.1
			c0.3,0.1,0.7,0.2,1.1,0.4c0.4,0.2,0.6,0.3,0.6,0.5c0,0.2-0.1,0.3-0.6,0.4c-0.6,0.4-0.8,0.5-2.2,1.4H632.5z M620.8,207.3
			c-0.8,0-1.3-0.5-1.3-1.2c0-0.3,0.1-0.6,0.3-0.8c0.1-0.1,0.1-0.1,1-0.6c0.4-0.2,0.8-0.8,0.9-1.5c0-0.1,0-0.2,0.1-0.2
			c0.1,0,0.1,0,0.4,0.5c0.3,0.5,0.6,1.3,0.6,1.9C622.7,206.5,621.9,207.3,620.8,207.3z M630.7,198.1c0.1-0.1,0.1-0.1,0.3-0.3
			c0.2-0.2,0.5-0.4,0.6-0.4c0.2,0,1.1,0.5,1.6,0.8c0.3,0.2,0.5,0.4,0.5,0.5c0,0.1,0,0.1-0.1,0.2c-0.1,0.1-0.1,0.1-0.2,0.2l-0.2,0.1
			c0,0.4,0.1,1.5,0.1,2.4c0,0.3,0,0.4-0.2,0.5c-0.4,0.3-0.9,0.4-1.8,0.4c-0.5,0-0.6-0.1-0.6-0.4v-0.3h-6.4v0.1
			c0,0.4-0.6,0.6-1.7,0.6c-0.4,0-0.6-0.1-0.6-0.4c0-0.2,0-0.8,0-1.3c0-0.5,0-1.9,0-2.2c0-0.1,0-0.4,0-1v-0.1c0-0.2,0-0.2,0.2-0.2
			c0.1,0,0.6,0.1,1.1,0.2c0.8,0.2,1.1,0.3,1.2,0.5H630.7z M631.6,204.4c0,0.6,0.1,0.8,0.4,1.1c0.3,0.3,0.4,0.4,0.4,0.6
			c0,1.2-1.2,1.6-4.2,1.6c-2.2,0-3.5-0.1-4.1-0.4c-0.5-0.2-0.5-0.3-0.5-1.8l0-2.8c0-0.1,0-0.1,0.2-0.1c0.2,0,1.1,0.2,1.6,0.3
			c0.5,0.1,0.8,0.3,0.8,0.5c0,0.1,0,0.1-0.1,0.2c-0.1,0.1-0.2,0.1-0.3,0.2l0,1.4c0,0.3,0.3,0.4,0.6,0.4l1.2,0c1,0,2.1-0.1,2.4-0.3
			c0.5-0.3,1.2-1.2,1.5-2.3c0-0.1,0.1-0.1,0.1-0.1c0.1,0,0.1,0,0.1,0.2L631.6,204.4z M624,193.8c0.5,0.1,1.4,0.3,1.8,0.5
			c0.5,0.2,0.9,0.7,0.9,1.2c0,0.5-0.3,0.8-0.9,1h2.7c0.5-1.6,0.6-2.2,0.7-2.7H624z M630.8,198.9c0-0.2,0-0.3,0-0.4h-6
			c-0.3,0.1-0.3,0.1-0.3,1.3h6.4V198.9z M624.4,200.1l0,1.3h6.4v-1.3H624.4z M628.1,205c-0.3,0-0.6-0.1-0.8-0.3
			c-0.1-0.2-0.2-0.2-0.2-0.8c0-0.8-0.4-1.4-0.9-1.7c-0.1-0.1-0.1-0.1-0.1-0.1c0-0.1,0.1-0.1,0.2-0.1c0.5,0,1.3,0.1,1.8,0.3
			c0.9,0.3,1.4,0.8,1.4,1.4C629.5,204.5,628.9,205,628.1,205z M634.5,206.9c-0.3,0-0.7-0.1-0.9-0.3c-0.2-0.2-0.3-0.4-0.3-1.1
			c-0.1-1-0.5-1.9-1-2.3c-0.1-0.1-0.2-0.1-0.2-0.2c0-0.1,0.1-0.1,0.1-0.1c0.4,0,1.5,0.3,2.1,0.6c1,0.5,1.6,1.3,1.6,2.1
			C635.9,206.3,635.3,206.9,634.5,206.9z"/>
		<path d="M649.7,204.4c0,0.6,0.1,1,0.6,1c0.2,0,0.6,0.1,0.9,0.1c0.6,0,1.3-0.1,1.7-0.3c0.3-0.1,0.5-0.3,0.8-0.5
			c0.3-0.3,0.6-0.7,0.8-1.3c0.2-0.5,0.4-1,0.5-1.3c0.1-0.2,0.1-0.3,0.2-0.3c0.1,0,0.1,0.1,0.1,0.1c0,0.1,0,0.4-0.1,0.6
			c-0.1,0.8-0.1,1.4-0.1,1.7c0,0.4,0,0.8,0.3,1c0.3,0.3,0.4,0.6,0.4,1c0,0.7-0.5,1.3-1.7,1.4c-0.7,0.1-1.4,0.1-3.1,0.1
			c-1.5,0-2.5-0.1-2.9-0.4c-0.6-0.3-0.6-0.8-0.6-1.7c0-0.6,0-1.3,0-2c0-1,0-1.7,0-2v-1.2v-0.2h-2.3c0.6,0.1,1,0.2,1.3,0.3
			c0.6,0.2,0.7,0.3,0.7,0.5c0,0.1-0.1,0.2-0.4,0.4c-0.4,1.9-1,3.1-1.8,3.9c-0.9,0.9-2.5,1.7-4.4,2c-0.6,0.1-1.2,0.2-1.5,0.2
			c-0.1,0-0.2,0-0.2-0.1c0-0.1,0.1-0.1,0.4-0.2c0.3-0.1,1.1-0.3,1.6-0.6c2-1,3.2-2.9,3.6-5.5c-0.5,0.4-0.9,0.6-1.5,0.6
			c-0.3,0-0.5-0.1-0.6-0.2c-0.1-0.1-0.1-0.1-0.1-0.5c0-2.1,0.1-4.2,0.1-6.3v-1c0-0.7,0-1.4,0-2.1c0-0.2,0-0.3,0.1-0.3
			c0.1,0,0.5,0.1,0.8,0.1c1.7,0.4,1.7,0.4,1.8,0.6h5.1c0.5-0.7,0.8-1,1-1c0.2,0,0.2,0,0.9,0.4c1,0.6,1.5,1,1.5,1.3
			c0,0.2-0.1,0.3-0.6,0.6v0.8c0,0.6,0.1,2.5,0.2,5.7c0,0.4,0,0.7,0,0.8c0,0.4-0.1,0.6-0.3,0.8c-0.3,0.2-1,0.4-1.5,0.4
			c-0.7,0-0.8-0.1-0.8-0.8v-0.9h-0.5c0.2,0.1,0.3,0.2,0.3,0.3c0,0.1,0,0.1-0.3,0.3c0,0.8,0,0.9,0,2V204.4z M650.3,193.3
			c0-0.5-0.1-0.6-0.4-0.6h-4.8c-0.1,0-0.2,0.1-0.3,0.2c-0.1,0.1-0.1,0.6-0.1,2h5.6L650.3,193.3z M644.7,195.3v2.2h5.6v-2.2H644.7z
			 M644.7,197.9l0,2.2h5.6v-2.2H644.7z"/>
	</g>
</g>
<g>
	<path d="M346.8,510.3c0.7-0.9,0.7-0.9,0.9-1c0.3-0.4,0.5-0.5,0.7-0.5c0.5,0,1.8,1.2,1.8,1.7c0,0.2-0.2,0.3-0.5,0.3h-15.2
		c-0.3,0-0.5,0-0.8,0c-0.3-0.3-0.3-0.3-0.3-0.4c0-0.1,0.1-0.1,0.1-0.1c0.3,0,0.8,0,1,0h5.8v-1.7h-3.5c-0.3,0-0.5,0-0.8,0
		c-0.3-0.3-0.3-0.3-0.3-0.4c0-0.1,0.1-0.1,0.1-0.1c0.3,0,0.8,0,1,0h3.3l0-1.6h-4.8c-0.3,0-0.6,0-0.9,0c-0.3-0.3-0.3-0.3-0.3-0.4
		c0-0.1,0.1-0.1,0.1-0.1c0.3,0,0.8,0,1,0h4.8c0-0.9,0-1.6,0-1.9c0-0.3,0-0.3,0.2-0.3c0.5,0,2,0.2,2.4,0.3c0.3,0.1,0.5,0.2,0.5,0.4
		c0,0.2,0,0.2-0.6,0.5l0,0.8h3c0.7-1.1,1.1-1.5,1.4-1.5c0.3,0,0.8,0.3,1.4,0.9c0.4,0.3,0.5,0.5,0.5,0.7c0,0.2-0.2,0.3-0.4,0.3h-5.9
		v1.6h1.9c0.7-0.9,1-1.3,1.2-1.3c0.5,0,1.7,1,1.7,1.4c0,0.2-0.1,0.3-0.5,0.3h-4.3v1.7H346.8z M344.3,512.1c0.5-0.7,0.7-1,0.9-1
		c0.3,0,1.1,0.5,1.7,0.9c0.3,0.2,0.4,0.3,0.4,0.5c0,0.2-0.1,0.3-0.4,0.6c0,0.5,0,0.5,0,1.1c0,1.1,0,1.2,0.1,2c0,0.8,0,0.8,0.1,2.1
		v0.2c0,0.7-0.1,1-0.6,1.4c-0.5,0.5-1.1,0.7-1.9,0.7c-0.3,0-0.5-0.1-0.7-0.2c-0.1-0.1-0.1-0.1-0.2-0.5c-0.2-0.5-0.4-0.6-1.4-1.2
		c-0.1-0.1-0.1-0.1-0.1-0.1c0-0.1,0-0.1,0.1-0.1c0,0,0.1,0,0.2,0c0.3,0,0.5,0.1,0.8,0.1c0.5,0,0.9-0.1,1.1-0.2
		c0.2-0.1,0.2-0.1,0.2-2h-5.7c0,1.1,0,1.3,0,2.1c0,0.5,0,0.6,0,0.8c0,0.6-0.1,0.7-0.3,0.8c-0.3,0.2-0.8,0.3-1.3,0.3
		c-0.5,0-0.7-0.1-0.7-0.5c0-0.1,0-0.2,0-1.3c0-1.2,0.1-4.6,0.1-5.3v-1.8c0-0.2,0-0.2,0.1-0.2c0.3,0,0.8,0.1,1.4,0.3
		c0.6,0.2,0.8,0.2,0.9,0.4H344.3z M344.5,514.1c0-1.4,0-1.4,0-1.5c0-0.1-0.1-0.1-0.2-0.1h-5.2c-0.2,0.1-0.3,0.2-0.3,0.3v1.2H344.5z
		 M338.8,514.5v1.5h5.7v-1.5H338.8z"/>
	<path d="M366.5,505.8c0.8-1.2,1.1-1.5,1.3-1.5c0.5,0,1.9,1.2,1.9,1.6c0,0.2-0.2,0.3-0.4,0.3h-4.7v0.8c0,0.3-0.3,0.6-1.1,0.7
		c1.7,0.4,2.2,0.5,2.2,0.8c0,0.3-0.3,0.5-0.6,0.6c-0.3,0.4-0.5,0.7-0.8,1.2h2.1c0.9-1.2,1-1.4,1.2-1.4c0.5,0,1.7,1.1,1.7,1.5
		c0,0.2-0.2,0.3-0.7,0.3h-4.6c-0.7,1-1.2,1.5-2,2.1c-0.5,0.4-0.7,0.5-0.8,0.5c-0.1,0-0.1,0-0.1-0.1c0,0,0-0.1,0.1-0.2
		c0.8-1,1.6-3.8,1.8-5.3c-0.2,0-0.3,0-0.4,0c-0.3,0-0.5-0.2-0.5-0.4v-1.1h-2.3v0.8c0,0.5-0.7,0.8-1.7,0.8c-0.5,0-0.6-0.1-0.6-0.4
		l0-1.1h-2.1c-0.6,0-1.3,0-2,0.1c-0.3-0.4-0.3-0.4-0.3-0.5c0-0.1,0.1-0.1,0.1-0.1c0.6,0,1.3,0.1,1.7,0.1h2.6c0-0.3,0-0.5,0-0.8
		c0-0.3,0-0.6,0-1c0-0.1,0-0.1,0.1-0.1c0.6,0,2.1,0.2,2.4,0.3c0.2,0.1,0.3,0.2,0.3,0.3c0,0.2-0.1,0.3-0.4,0.4v0.8h2.3
		c0-0.8,0-1.3,0-1.7c0-0.1,0-0.1,0.2-0.1c0.5,0,1.6,0.1,2.1,0.2c0.4,0.1,0.6,0.3,0.6,0.5c0,0.2-0.2,0.3-0.5,0.4l0,0.8H366.5z
		 M367.2,519.8c0.7-1.2,1.1-1.6,1.3-1.6c0.4,0,1.5,1.2,1.5,1.7c0,0.2-0.2,0.3-0.6,0.3h-14.8c-0.4,0-0.8,0-1.2,0.1
		c-0.3-0.3-0.3-0.4-0.3-0.4c0-0.1,0.1-0.1,0.1-0.1c0.3,0,0.6,0,0.8,0h2c0-0.8,0-1.6,0-2.4c0-0.8,0-1.4,0-1.8v-0.1
		c0-0.1,0-0.1,0.1-0.1c0.1,0,0.5,0.1,1.2,0.2c0.7,0.2,0.7,0.2,0.8,0.3h6.5c0.6-1,0.7-1,1-1c0.2,0,0.5,0.2,1.1,0.6
		c0.5,0.4,0.7,0.7,0.7,0.9c0,0.2-0.1,0.3-0.5,0.5l0,3H367.2z M359.5,514.4c0.8-1.1,0.8-1.1,1-1.1c0.4,0,1.4,0.9,1.4,1.2
		c0,0.2-0.2,0.3-0.4,0.3h-5.4v0.1c0,0.4-0.6,0.7-1.4,0.7c-0.5,0-0.7-0.1-0.7-0.5c0-0.3,0-0.4,0.1-1.9c0-0.3,0-1.6,0-2.8
		c0-1.3,0-2.2,0-2.4v-0.1c0-0.1,0-0.1,0.1-0.1c0.2,0,1.2,0.3,1.6,0.4c0.2,0.1,0.4,0.2,0.4,0.3h3.1c0.6-0.7,0.8-1,1-1
		c0.1,0,0.3,0.1,0.8,0.5c0.4,0.3,0.5,0.5,0.5,0.6c0,0.1-0.1,0.2-0.4,0.2h-2.5l0,1.5h0.4l0.3-0.4c0.2-0.2,0.3-0.3,0.5-0.3
		c0.2,0,0.3,0.1,1.2,0.6c0.3,0.2,0.4,0.3,0.4,0.4c0,0.1-0.1,0.2-0.3,0.3c-0.1,0.1-0.1,0.1-0.1,0.2l0,1.2c0,0.4-0.5,0.6-1.3,0.6
		c-0.4,0-0.6-0.1-0.6-0.4h-0.5l0,1.8H359.5z M357,510.4c0-0.3,0-0.6,0-0.7s0-0.4,0-0.8h-0.7c-0.2,0.1-0.3,0.1-0.3,0.6v0.9H357z
		 M356.1,510.8v1.4h3.3v-1.4H356.1z M357.1,514.4c0-0.4,0-0.7,0-0.9c0-0.2,0-0.5,0-0.9h-1l0,1.8H357.1z M358.2,516.4
		c-0.1,0-0.2,0.2-0.2,0.8v2.6h1c0-0.6,0-0.9,0-1.3v-2.1H358.2z M361.1,516.4c0,0.1-0.1,0.1-0.1,0.1c-0.1,0-0.1,0.1-0.1,0.1
		c0,0.1,0,0.1,0,1.2l0,1.4c0,0.3,0,0.4,0,0.6h1c0-1.1,0-2.4,0-3.5H361.1z M365.9,513.7c0.1-0.1,0.3-0.5,0.5-0.9s0.4-0.6,0.6-0.6
		c0.3,0,0.5,0.2,1.3,1c0.3,0.3,0.4,0.5,0.4,0.7c0,0.2-0.1,0.3-0.3,0.3h-3.9c-0.5,0-1,0-1.4,0.1c-0.3-0.4-0.3-0.4-0.3-0.4
		c0-0.1,0.1-0.1,0.1-0.1c0.4,0,0.9,0.1,1.1,0.1H365.9z M364,516.4c0,0.1,0,0.1-0.2,0.2c-0.1,0.1-0.1,0.3-0.1,1.5v1.8h1
		c0-1,0-2.9,0-3.5H364z"/>
	<path d="M382.9,512.2c0.1,0.1,0.2,0.2,0.2,0.3c0,0.2-0.1,0.3-0.4,0.4c-0.2,1.4-0.5,2.6-1,3.5c-0.6,1.1-1.6,1.9-2.9,2.5
		c-0.4,0.2-1.1,0.5-1.7,0.6c-0.4,0.1-0.7,0.2-0.9,0.2c-0.1,0-0.1,0-0.1-0.1c0-0.1,0.1-0.1,0.3-0.2c0.5-0.2,1-0.5,1.4-0.8
		c0.6-0.4,1.1-0.9,1.4-1.5c0.8-1.2,1.3-2.9,1.3-4.6c0-0.8-0.1-1-0.3-1.4c-0.2,0-0.6,0.1-1.1,0.2c-0.5,0.1-1.1,0.3-1.6,0.4
		c-0.3,0.1-0.7,0.3-1.1,0.5c-0.2,0.1-0.3,0.1-0.3,0.1c-0.3,0-0.7-0.3-1-0.7c-0.4-0.4-0.6-0.8-0.6-1.1c0,0,0-0.1,0.1-0.1
		c0,0,0.1,0,0.2,0.1c0.4,0.1,0.7,0.2,1,0.2c0.3,0,1.3-0.1,2.7-0.3c1.3-0.2,2.9-0.4,4.6-0.7c0.7-0.1,1-0.2,1.5-0.4
		c0.2-0.1,0.2-0.1,0.5-0.2c0.2-0.1,0.3-0.1,0.3-0.1c0.3,0,1.3,0.4,1.9,0.8c0.4,0.2,0.6,0.5,0.6,0.8c0,0.3-0.4,0.7-0.7,0.7
		c-0.1,0-0.6-0.1-1.2-0.2c-0.9-0.2-1.4-0.2-2.3-0.2c-0.8,0-1.7,0-2.6,0.1C382.6,511.9,382.7,512,382.9,512.2z M382.7,507.7
		c-0.5,0-1.4,0.1-2.2,0.2c-0.7,0.1-1.3,0.2-1.7,0.3c-0.2,0.1-0.4,0.1-0.5,0.1c-0.3,0-0.6-0.2-0.9-0.6c-0.1-0.1-0.2-0.3-0.3-0.4
		c-0.1-0.1-0.1-0.3-0.1-0.3c0,0,0-0.1,0.1-0.1c0,0,0.2,0.1,0.3,0.1c0.2,0,0.5,0.1,0.7,0.1c0.5,0,1.3-0.1,2.1-0.3
		c0.8-0.2,1.7-0.4,2.2-0.6c0.4-0.2,0.5-0.2,0.7-0.2c0.3,0,0.7,0.1,1.3,0.5c0.5,0.2,0.6,0.5,0.6,0.8s-0.3,0.5-1,0.5
		c-0.2,0-0.3,0-0.8-0.1L382.7,507.7z M386.8,507.4c-0.2,0-0.4-0.1-0.5-0.3c-0.1-0.1-0.1-0.1-0.2-0.6c-0.1-0.5-0.5-1.2-0.9-1.5
		c-0.1,0-0.1-0.1-0.1-0.1c0-0.1,0-0.1,0.1-0.1c0.3,0,0.9,0.2,1.2,0.5c0.6,0.3,0.9,0.9,0.9,1.3C387.4,507.1,387.1,507.4,386.8,507.4z
		 M388,506c-0.2-0.6-0.7-1.2-1.2-1.5c-0.1-0.1-0.2-0.1-0.2-0.2c0,0,0.1-0.1,0.1-0.1c0.3,0,0.6,0.1,1,0.2c1,0.4,1.6,0.9,1.6,1.4
		c0,0.4-0.3,0.7-0.6,0.7C388.4,506.7,388.2,506.5,388,506z"/>
	<path d="M399.7,510.1c1.6-0.1,2-0.2,2.5-0.2c0-0.3,0-0.5,0-0.7c0-0.3,0-0.6,0-1c0-0.9-0.1-1.7-0.3-1.8c-0.1-0.1-0.3-0.2-0.5-0.2
		c-0.1,0-0.1,0-0.1-0.1c0-0.1,0.1-0.2,0.3-0.3c0.2-0.2,0.6-0.3,0.8-0.3c0.3,0,0.8,0.2,1.1,0.4c0.7,0.5,1,0.8,1,1.1
		c0,0.1,0,0.2-0.1,0.3c-0.2,0.3-0.2,0.3-0.3,0.4c0,0.7,0,1.4,0,2.1c0.9-0.1,1.3-0.1,1.8-0.3c0.2-0.1,0.3-0.1,0.4-0.1
		c0.3,0,1,0.3,1.6,0.7c0.4,0.2,0.6,0.5,0.6,0.8s-0.3,0.6-0.7,0.6c-0.1,0-0.4-0.1-1.3-0.3c-0.6-0.1-0.9-0.2-2.2-0.3
		c-0.1,2.8-0.2,3.3-0.6,4.5c-0.7,1.9-2.3,3.3-4.6,4.2c-0.6,0.2-1.2,0.4-1.4,0.4c-0.1,0-0.1,0-0.1-0.1c0-0.1,0.1-0.1,0.4-0.3
		c1.2-0.7,2.4-1.7,3.1-2.8c0.6-1,1-2.2,1.2-3.7c0.1-0.5,0.1-0.7,0.1-2.3c-0.3,0-0.6,0-0.7,0.1c-1,0.1-1.1,0.1-1.7,0.2l0,2.2
		c0,1.5-0.4,2.3-1.1,2.3c-0.3,0-0.4-0.1-0.5-0.4c-0.1-0.3-0.2-1-0.2-1.2c0-0.4,0-1.2,0-2.1c0-0.1,0-0.2,0-0.5
		c-1.3,0.3-1.7,0.4-2.4,0.7c-0.2,0.1-0.4,0.1-0.5,0.1c-0.2,0-0.5-0.2-0.7-0.5c-0.3-0.4-0.6-0.9-0.6-1.2c0-0.1,0-0.2,0.2-0.4
		c0.3,0.3,0.5,0.5,0.8,0.5c0.6,0,1.1,0,3.2-0.3c-0.1-1.6-0.1-2-0.3-2.2c-0.1-0.2-0.3-0.3-0.6-0.3c-0.1,0-0.2-0.1-0.2-0.1
		c0-0.1,0.2-0.2,0.5-0.3c0.3-0.1,0.6-0.2,0.8-0.2c0.3,0,0.6,0.1,1.1,0.4c0.6,0.3,0.8,0.6,0.8,0.8c0,0.1,0,0.2-0.3,0.7V510.1z
		 M406.9,507.8c-0.2,0-0.4-0.1-0.5-0.3c-0.1-0.1-0.1-0.1-0.2-0.6c-0.1-0.5-0.5-1.2-0.8-1.4c-0.1-0.1-0.1-0.1-0.1-0.1
		c0,0,0-0.1,0.1-0.1c0.3,0,0.9,0.3,1.3,0.5c0.5,0.3,0.9,0.9,0.9,1.3C407.5,507.6,407.2,507.8,406.9,507.8z M407.9,506.4
		c-0.2-0.6-0.8-1.2-1.3-1.5c-0.1-0.1-0.2-0.1-0.2-0.2c0,0,0.1-0.1,0.1-0.1c0.3,0,0.6,0,1,0.1c1,0.4,1.6,0.8,1.6,1.4
		c0,0.4-0.3,0.7-0.6,0.7C408.2,506.9,408.1,506.8,407.9,506.4z"/>
	<path d="M422.3,514.4c0,1,0,1,0.1,2.4c0,0.5,0,0.9,0,1.2c0,0.6,0,0.9-0.2,1.1c-0.1,0.3-0.5,0.5-0.8,0.5c-0.4,0-0.8-0.3-1.1-0.9
		c-0.2-0.6-0.4-1.2-0.4-1.5c0-0.1,0-0.3,0.1-0.4c0.1-0.3,0.1-0.3,0.2-0.5c0.1-0.7,0.3-3.7,0.3-5.7c-0.2,0.2-0.2,0.2-0.5,0.5
		c-1.1,1.1-3,2.3-4.4,2.8c-0.4,0.1-0.9,0.3-1.1,0.3c-0.1,0-0.1,0-0.1-0.1s0.1-0.1,0.3-0.2c0.2-0.1,0.6-0.3,1-0.6
		c0.3-0.2,0.6-0.5,0.9-0.7c1.3-1.2,2.8-3,3.7-4.6c0.3-0.5,0.5-0.9,0.6-1.3c0-0.1,0.1-0.2,0.1-0.2c0-0.1-0.1-0.2-0.1-0.2
		c-0.1-0.1-0.2-0.1-0.3-0.2c-0.1,0-0.1-0.1-0.1-0.1c0-0.1,0.1-0.2,0.3-0.3c0.4-0.2,0.9-0.4,1.2-0.4c0.4,0,0.6,0.1,1.2,0.6
		c0.7,0.6,0.9,0.8,0.9,1.1c0,0.2-0.2,0.4-0.4,0.5c-0.4,0.2-0.5,0.3-0.9,0.8c-0.3,0.3-1,1.1-1.3,1.4c0.1,0.1,0.1,0.1,0.3,0.3
		c0.3,0.2,0.5,0.6,0.5,0.9c0,0.1,0,0.1,0,0.3c0,0.3,0,0.4,0,0.6V514.4z"/>
	<path d="M439.6,509.5c0,0.7-0.5,1.3-1.3,1.3c-0.2,0-0.4-0.1-0.5-0.1c-0.1,0-0.1-0.1-0.3-0.4c-0.4-0.7-1.6-1.8-2.3-2
		c-0.1,0-0.1-0.1-0.1-0.1c0-0.1,0.2-0.1,0.5-0.2c0.4-0.1,0.9-0.1,1.4-0.1C438.5,507.9,439.6,508.6,439.6,509.5z M438.3,517.4
		c-0.3,0.2-0.5,0.3-0.7,0.3c-0.3,0-0.5-0.1-0.8-0.3c-0.3-0.2-0.6-0.5-1-0.9c-0.4-0.5-0.6-0.8-0.6-1.1c0-0.5,0.3-1.1,0.6-1.2
		c0.2,0.6,0.5,0.8,1.3,0.8c0.2,0,1.7-0.5,2.2-0.7c1.8-0.8,4.2-2.2,6-3.4c0.5-0.3,1-0.8,1.6-1.4c0.3-0.3,0.3-0.3,0.4-0.3
		c0.1,0,0.1,0,0.1,0.1c0,0,0,0.1-0.1,0.1c-0.2,0.4-1,1.5-1.6,2.2c-0.8,0.9-1.7,1.8-2.8,2.6c-1.3,1-2.8,2-4.5,3L438.3,517.4z"/>
	<path d="M466.5,514.3c0.1-0.1,0.1-0.2,0.1-0.3c0.5-0.9,0.8-1.2,1-1.2c0.4,0,1.5,1.1,1.5,1.5c0,0.2-0.2,0.3-0.8,0.3h-2.2
		c0,1.2,0,1.4,0.1,1.9c0,0.2,0,0.4,0,0.6c0,0.4-0.2,0.7-0.8,0.9c-0.3,0.1-0.6,0.2-1,0.2c-0.5,0-0.6-0.1-0.7-0.2
		c-0.1-0.1-0.1-0.3-0.1-1.2h-2.2c0,0.4,0,0.4,0,1.2v0.1c0,0.9-0.2,1.4-0.6,1.8c-0.5,0.4-1.1,0.6-1.9,0.6c-0.6,0-0.8-0.1-0.9-0.6
		c-0.1-0.5-0.1-0.6-0.7-1c-0.3-0.2-0.5-0.3-0.8-0.5c-0.1-0.1-0.1-0.1-0.1-0.2c0-0.1,0.1-0.1,0.2-0.1c0.1,0,0.6,0,0.8,0
		c0.9,0,1.3-0.1,1.5-0.3c0.1-0.1,0.1-0.3,0.1-1.2H455c-0.3,0-0.7,0-1,0.1c-0.3-0.4-0.3-0.4-0.3-0.4c0-0.1,0.1-0.1,0.1-0.1
		c0.3,0,0.6,0.1,0.8,0.1h4.5v-1.7h-5.8c-0.3,0-0.6,0-1,0.1c-0.3-0.4-0.3-0.4-0.3-0.4c0-0.1,0.1-0.1,0.1-0.1c0.4,0,0.9,0.1,1.1,0.1
		h5.8v-1.7h-4.2c-0.3,0-0.7,0-1,0.1c-0.3-0.3-0.3-0.4-0.3-0.4c0-0.1,0.1-0.1,0.1-0.1c0.3,0,0.6,0,0.8,0h4.7v-1.6h-2.2v0.2
		c0,0.5-0.5,0.8-1.5,0.8c-0.7,0-0.9-0.1-0.9-0.5c0-0.7,0.1-1.9,0.1-2.7v-1.1c0-0.1,0-0.1,0.1-0.1c0.3,0,1.1,0.1,1.8,0.3
		c0.6,0.1,0.7,0.2,0.9,0.4h1.8v-1.4h-5.7c-0.3,0-0.5,0-0.8,0c-0.3-0.3-0.3-0.4-0.3-0.4c0-0.1,0.1-0.1,0.1-0.1c0.3,0,0.8,0,1,0h5.6
		c0-0.8,0-1.6-0.1-2.1c0-0.1,0-0.1,0.2-0.1c0.3,0,1.7,0.2,2,0.3c0.4,0.1,0.7,0.3,0.7,0.5c0,0.1-0.1,0.3-0.5,0.5c0,0.3,0,0.4,0,0.8
		h3.5c0.2-0.2,0.2-0.2,0.9-1c0.3-0.4,0.5-0.5,0.7-0.5c0.2,0,0.6,0.2,1.2,0.7c0.5,0.4,0.8,0.7,0.8,1s-0.2,0.3-0.6,0.3h-6.5v1.4h2.1
		c0.1-0.1,0.1-0.1,0.3-0.3c0.3-0.3,0.5-0.5,0.6-0.5c0.3,0,0.8,0.2,1.5,0.6c0.5,0.3,0.6,0.4,0.6,0.6c0,0.1-0.1,0.2-0.3,0.3
		c-0.1,0.1-0.2,0.2-0.2,0.2c0,0,0,0.1,0,0.1c0,0.3,0.1,1.2,0.1,1.3v0.1c0,0.3-0.1,0.5-0.5,0.6c-0.4,0.1-0.8,0.2-1.4,0.2
		c-0.5,0-0.6-0.1-0.6-0.5v-0.1h-2.2l0,1.6h2.1c0.7-0.7,0.8-0.8,1-0.8c0.2,0,0.4,0.1,1.3,0.5c0.5,0.2,0.6,0.4,0.6,0.6
		c0,0.1,0,0.1-0.1,0.2c-0.2,0.2-0.3,0.2-0.3,0.3v0.2c0,0.1,0,0.1,0,0.5v0.6H466.5z M457.3,508.3c-0.3,0-0.4,0.1-0.4,0.6v1.3h2.3
		v-1.9H457.3z M463.7,508.5c0-0.2,0-0.2-0.2-0.2h-2l0,1.9h2.2V508.5z M463.8,513c0-0.3-0.1-0.4-0.2-0.4h-2l0,1.7h2.3V513z
		 M461.5,514.8l0,1.7h2.2v-1.7H461.5z"/>
	<path d="M477.5,509.8c0.5-0.6,0.7-0.8,0.9-0.8c0.3,0,1,0.4,1.7,1c0.3,0.2,0.4,0.5,0.4,0.8c0,0.3-0.2,0.5-0.7,0.5
		c-0.6,0.1-1.1,0.3-1.9,1.1c-0.1,0.1-0.1,0.1-0.2,0.1s-0.1,0-0.1-0.1c0-0.1,0-0.1,0-0.2c0.1-0.4,0.3-1.1,0.4-2.1h-1.3
		c0.4,0.1,0.6,0.2,0.6,0.3c0,0.1-0.1,0.1-0.3,0.3l0.1,7.5c0,0.8-0.2,1.2-0.9,1.7c-0.5,0.3-1,0.5-1.5,0.5c-0.4,0-0.6-0.1-0.6-0.4
		c-0.1-0.6-0.4-1.1-1.2-1.4c-0.1,0-0.1-0.1-0.1-0.1c0-0.1,0-0.1,0.6-0.1c0.8,0,1.2-0.1,1.4-0.2c0.2-0.2,0.2-0.4,0.2-3.5
		c-0.8,1.1-1.4,1.7-2.4,2.4c-0.4,0.3-0.8,0.5-0.9,0.5c-0.1,0-0.1,0-0.1-0.1c0,0,0-0.1,0.1-0.1c1.4-1.5,2.8-4.7,3.2-7.1H473
		c-0.3,0-0.5,0-0.8,0.1c-0.2-0.3-0.3-0.3-0.3-0.4c0-0.1,0.1-0.1,0.1-0.1c0.3,0,0.6,0,0.8,0H477.5z M476.2,505.1
		c0.8-0.9,0.9-0.9,1.1-0.9c0.2,0,0.5,0.1,0.8,0.4c0.9,0.6,1.3,1.1,1.3,1.5c0,0.3-0.2,0.5-0.6,0.5c-0.7,0-1,0.1-1.5,0.4
		c-0.3,0.2-0.6,0.4-1,0.6c0.5,0.3,0.7,0.8,0.7,1.2c0,0.6-0.6,1-1.4,1c-0.7,0-0.9-0.2-1-1c-0.1-0.6-0.2-0.8-0.3-1.1
		c-0.2-0.3-0.7-0.8-0.9-0.9c-0.1-0.1-0.2-0.1-0.2-0.2c0-0.1,0.1-0.1,0.1-0.1c0.5,0,1.4,0.3,2.5,0.7c0.2-0.5,0.5-1.1,0.6-1.7h-3.1
		c-0.3,0-0.5,0-0.8,0.1c-0.3-0.3-0.3-0.3-0.3-0.4c0-0.1,0.1-0.1,0.1-0.1c0.3,0,0.7,0.1,0.8,0.1H476.2z M485.4,506.8
		c0.1,0,0.1,0,0.4,0.1c0.5,0.2,0.8,0.4,0.8,0.6c0,0.1-0.1,0.3-0.4,0.3c-0.6,1-1,1.4-1.6,2.1c1.1,0.5,2.7,1,4.5,1.1
		c0.2,0,0.2,0.1,0.2,0.1c0,0.1,0,0.1-0.2,0.2c-0.5,0.3-1.3,1.3-1.5,1.9c-0.1,0.2-0.2,0.2-0.4,0.2c-0.4,0-1.2-0.3-1.9-0.6
		c-0.8-0.4-1.4-0.8-2.1-1.5c-0.3,0.2-0.7,0.5-1.2,0.8c0.6,0.1,1.5,0.3,2.1,0.4c0.3,0.1,0.5,0.2,0.5,0.4c0,0.2-0.1,0.2-0.5,0.5
		l-0.2,1h1.3c0.1-0.1,0.1-0.1,0.2-0.2c0.4-0.4,0.6-0.6,0.7-0.6c0.3,0,1,0.4,1.5,0.9c0.3,0.3,0.4,0.5,0.4,0.6c0,0.2-0.1,0.3-0.4,0.4
		c-0.3,4.1-1.1,5-3.4,5c-0.4,0-0.6-0.1-0.6-0.3c-0.2-0.8-0.3-0.9-1.1-1.4c-0.2-0.1-0.2-0.1-0.2-0.2c0-0.1,0-0.1,0.1-0.1
		c0.1,0,0.2,0,0.3,0c0.3,0,0.6,0.1,0.8,0.1c0.7,0,1.1-0.4,1.4-1.3c0.2-0.6,0.4-1.7,0.5-2.5h-1.5c-0.5,2.3-1,3.2-2.4,4.1
		c-0.8,0.6-1.7,0.9-3.1,1.3c-0.7,0.2-1.4,0.3-1.7,0.3c-0.1,0-0.2-0.1-0.2-0.1c0-0.1,0.1-0.1,0.2-0.2c1.1-0.2,2.3-0.9,3.1-1.6
		c1-0.9,1.5-2.1,1.8-3.8h-2.1c-0.3,0-0.5,0-0.8,0c-0.3-0.3-0.3-0.3-0.3-0.4c0-0.1,0.1-0.1,0.1-0.1c0.3,0,0.7,0,0.8,0h2.2
		c0.1-0.4,0.1-1.7,0.1-1.9c0,0,0-0.1,0-0.2c-0.6,0.4-1.3,0.7-2.1,0.9c-0.6,0.2-1.9,0.5-2.1,0.5c-0.1,0-0.1,0-0.1-0.1
		c0-0.1,0.1-0.1,0.2-0.2c1.7-0.5,3.6-1.9,4.7-3.5c-0.4-0.9-0.5-1.2-0.8-3.1c-0.6,0.7-1.2,1.3-1.6,1.7c-0.5,0.4-0.9,0.6-1,0.6
		c0,0-0.1,0-0.1-0.1s0-0.1,0.1-0.2c0.6-1,1.4-3.3,1.6-5c0-0.2,0.1-0.3,0.1-0.3s0.3,0.1,0.5,0.1c2,0.5,2.5,0.7,2.5,1.1
		c0,0.2-0.2,0.4-0.8,0.5c-0.2,0.2-0.2,0.2-0.4,0.5c-0.2,0.3-0.2,0.3-0.4,0.5h3.7c0.6-1.1,1-1.5,1.3-1.5s0.7,0.3,1.3,0.8
		c0.4,0.4,0.5,0.6,0.5,0.8c0,0.2-0.2,0.2-0.6,0.2H485.4z M481.7,506.8c0.3,1,0.6,1.6,1.2,2.3c0.5-0.8,0.6-1.2,0.9-2.3H481.7z"/>
	<path d="M496.9,509c0.6-0.9,0.7-0.9,1-0.9c0.2,0,0.6,0.2,1.5,0.9c0.4,0.3,0.5,0.4,0.5,0.6c0,0.2-0.1,0.3-0.5,0.5c0,0.1,0,1,0.1,2.8
		l0,0.6c0,0.3-0.1,0.5-0.3,0.6c-0.3,0.2-0.9,0.3-1.3,0.3c-0.3,0-0.6-0.1-0.7-0.2c-0.1-0.1-0.1-0.1-0.1-0.7h-1.9
		c-0.1,2.4-0.4,3.5-1.4,4.9c-0.5,0.7-1.8,1.8-2.2,1.8c0,0-0.1,0-0.1-0.1c0-0.1,0-0.1,0.2-0.2c0.5-0.4,0.9-1.3,1.2-2.4
		c0.2-0.8,0.3-1.6,0.3-2.8c0-1.5-0.1-5.2-0.2-6.2c0-0.1,0-0.1,0.1-0.1c0.6,0,2,0.4,2.3,0.6H496.9z M496.6,505.7
		c0.2-0.3,0.2-0.3,0.8-1.1c0.3-0.4,0.4-0.5,0.6-0.5c0.2,0,0.6,0.2,1.2,0.7c0.5,0.4,0.7,0.7,0.7,1c0,0.2-0.2,0.3-0.6,0.3h-6.3
		c-0.3,0-0.5,0-0.8,0c-0.3-0.3-0.3-0.4-0.3-0.4c0-0.1,0.1-0.1,0.1-0.1c0.3,0,0.8,0.1,1,0.1H496.6z M497,509.6c0-0.2,0-0.2-0.2-0.2
		h-1.6l-0.1,0.1c-0.1,0.1-0.1,0.2-0.1,0.5l0,3.1h1.9V509.6z M505.2,510.1c1-1.7,1.1-1.8,1.4-1.8c0.2,0,0.7,0.3,1.3,0.9
		c0.5,0.5,0.6,0.7,0.6,1c0,0.2-0.2,0.3-0.4,0.3h-1.8c0.2,0.1,0.3,0.2,0.3,0.3c0,0.1,0,0.1-0.2,0.2c-0.1,0.1-0.2,0.1-0.3,0.3
		c0,0.3,0,0.3,0,1.3c0,0.6,0.2,4.9,0.2,5.6c0,0.8,0.1,1.4,0.1,1.5c0,0.5-0.7,0.9-1.8,0.9c-0.7,0-0.8-0.1-0.8-0.7c0-0.2,0-0.4,0-0.8
		c0.1-0.9,0.1-4.5,0.1-6.3c0-0.8,0-1.2,0-2.2h-1.4c0,3.9-0.3,5.2-1,6.5c-0.7,1.1-2.1,2.2-3.8,3c-0.5,0.2-1.1,0.4-1.3,0.4
		c-0.1,0-0.1-0.1-0.1-0.1c0-0.1,0-0.1,0.5-0.3c0.9-0.4,2-1.3,2.5-2.2c0.5-0.8,0.8-1.7,1-2.9c0.1-0.8,0.2-1.6,0.2-3.8
		c0-0.8-0.1-4.2-0.1-5.1c0-0.4,0-0.8,0-1c0-0.1,0-0.1,0.1-0.1c0.6,0,1.8,0.4,2.5,0.8c1.3-0.7,1.8-1,3-1.8c1.7,1,2.3,1.5,2.3,2
		c0,0.3-0.2,0.4-0.6,0.4c-0.2,0-0.4,0-0.8,0c-2.3,0.1-3.6,0.1-4.1,0.1c-0.1,0.1-0.1,0.2-0.1,0.3v3.3H505.2z"/>
</g>
</svg>
