<?xml version="1.0" encoding="utf-8"?>
<!-- Generator: Adobe Illustrator 25.4.1, SVG Export Plug-In . SVG Version: 6.00 Build 0)  -->
<svg version="1.1" id="レイヤー_1" xmlns="http://www.w3.org/2000/svg" xmlns:xlink="http://www.w3.org/1999/xlink" x="0px"
	 y="0px" viewBox="0 0 841.9 85.3" style="enable-background:new 0 0 841.9 85.3;" xml:space="preserve">
<style type="text/css">
	.st0{fill:#015287;}
</style>
<g>
	<path d="M285.3,18.3c1.3-1.6,1.3-1.6,1.5-1.8c0.5-0.7,0.9-0.9,1.2-0.9c0.9,0,3.2,2.2,3.2,3c0,0.3-0.3,0.5-0.9,0.5h-27.1
		c-0.4,0-0.9,0-1.4,0.1c-0.4-0.5-0.5-0.6-0.5-0.7c0-0.1,0.1-0.2,0.3-0.2c0.6,0,1.4,0.1,1.8,0.1h10.3v-3h-6.2c-0.4,0-0.9,0-1.4,0.1
		c-0.4-0.5-0.5-0.6-0.5-0.7c0-0.1,0.1-0.2,0.3-0.2c0.6,0,1.4,0.1,1.8,0.1h6l0-2.9h-8.5c-0.5,0-1.1,0-1.6,0c-0.5-0.5-0.5-0.6-0.5-0.6
		c0-0.1,0.1-0.2,0.3-0.2c0.6,0,1.4,0.1,1.8,0.1h8.5c0-1.6,0-2.9,0-3.3c0-0.5,0-0.5,0.3-0.5c0.8,0,3.5,0.4,4.4,0.6
		c0.5,0.1,0.8,0.4,0.8,0.8c0,0.3,0,0.3-1,0.9l0,1.5h5.4c1.3-2,2-2.7,2.4-2.7c0.5,0,1.4,0.5,2.6,1.6c0.6,0.6,0.9,1,0.9,1.3
		c0,0.3-0.3,0.5-0.7,0.5H278v2.9h3.3c1.3-1.7,1.8-2.2,2.2-2.2c0.8,0,3.1,1.9,3.1,2.5c0,0.4-0.2,0.5-0.9,0.5H278v3H285.3z
		 M280.9,21.5c0.9-1.3,1.3-1.7,1.6-1.7c0.4,0,2,0.8,3,1.6c0.5,0.4,0.6,0.6,0.6,0.9c0,0.3-0.1,0.4-0.8,1c0,0.9,0,0.9,0,1.9
		c0.1,2,0.1,2.2,0.1,3.6c0,1.4,0,1.4,0.1,3.7v0.4c0,1.2-0.3,1.8-1.1,2.5c-0.9,0.8-2,1.3-3.3,1.3c-0.5,0-1-0.1-1.2-0.3
		c-0.1-0.1-0.1-0.1-0.4-0.9c-0.3-0.9-0.6-1.2-2.4-2.2c-0.2-0.1-0.3-0.2-0.3-0.2c0-0.1,0-0.2,0.2-0.2c0.1,0,0.1,0,0.4,0
		c0.5,0.1,1,0.1,1.3,0.1c0.9,0,1.6-0.1,1.9-0.3c0.4-0.3,0.4-0.3,0.4-3.6H271c0,2,0,2.2,0,3.7c0,1,0,1.1,0,1.4c0,1-0.1,1.3-0.5,1.5
		c-0.5,0.3-1.5,0.5-2.3,0.5c-0.9,0-1.3-0.3-1.3-0.8c0-0.3,0-0.4,0.1-2.2c0.1-2.1,0.2-8.1,0.2-9.5v-3.1c0-0.3,0-0.4,0.2-0.4
		c0.4,0,1.4,0.2,2.5,0.5c1.1,0.3,1.3,0.4,1.7,0.8H280.9z M281.2,25c0-2.5,0-2.5,0-2.6c0-0.1-0.1-0.2-0.3-0.2h-9.3
		c-0.4,0.2-0.5,0.3-0.5,0.6V25H281.2z M271,25.7v2.7h10.2v-2.7H271z"/>
	<path d="M321.9,10.2c1.3-2.2,1.9-2.7,2.4-2.7c0.9,0,3.5,2.1,3.5,2.9c0,0.3-0.4,0.6-0.7,0.6h-8.4v1.4c0,0.6-0.6,1.1-2,1.2
		c3,0.6,4,0.9,4,1.4c0,0.6-0.4,0.8-1,1.1c-0.5,0.7-0.8,1.3-1.4,2.1h3.7c1.5-2.2,1.8-2.5,2.2-2.5c0.9,0,3,2,3,2.8
		c0,0.4-0.3,0.5-1.2,0.5h-8.3c-1.3,1.8-2.2,2.7-3.5,3.8c-0.8,0.6-1.2,0.9-1.4,0.9c-0.1,0-0.2,0-0.2-0.1c0-0.1,0-0.1,0.2-0.3
		c1.4-1.7,2.9-6.8,3.3-9.5c-0.3,0.1-0.5,0-0.7,0c-0.5,0-0.9-0.3-0.9-0.8v-1.9h-4.2v1.4c0,0.8-1.2,1.3-3,1.3c-0.9,0-1.2-0.2-1.2-0.7
		l0-2h-3.7c-1.2,0-2.4,0.1-3.5,0.2c-0.5-0.7-0.5-0.8-0.5-0.8c0-0.1,0.1-0.2,0.3-0.2c1,0.1,2.3,0.1,3,0.1h4.6c0-0.4,0-0.9,0-1.4
		c0-0.6,0-1.2,0-1.7c0-0.2,0-0.2,0.2-0.2c1.1,0,3.7,0.4,4.2,0.6c0.3,0.2,0.5,0.4,0.5,0.6c0,0.3-0.2,0.5-0.7,0.8v1.3h4.2
		c0-1.3,0-2.2,0-3.1c0-0.2,0.1-0.3,0.3-0.3c0.9,0,2.9,0.2,3.7,0.4c0.7,0.2,1,0.4,1,0.8c0,0.3-0.3,0.6-0.8,0.8l0,1.3H321.9z
		 M323.3,35.3c1.2-2.1,2-2.9,2.4-2.9c0.8,0,2.7,2.2,2.7,3.1c0,0.4-0.3,0.6-1,0.6H301c-0.7,0-1.5,0-2.2,0.1c-0.5-0.6-0.5-0.7-0.5-0.7
		c0-0.1,0.1-0.2,0.3-0.2c0.5,0,1.1,0.1,1.4,0.1h3.5c0-1.4,0-2.9,0-4.3c0-1.5,0-2.5-0.1-3.2v-0.1c0-0.2,0.1-0.3,0.2-0.3
		c0.2,0,0.9,0.1,2.1,0.4c1.3,0.3,1.3,0.3,1.4,0.5h11.6c1.1-1.8,1.2-1.9,1.7-1.9c0.4,0,0.8,0.3,1.9,1.1c0.9,0.6,1.3,1.2,1.3,1.6
		c0,0.3-0.2,0.4-0.9,0.8l0,5.3H323.3z M309.5,25.6c1.4-1.9,1.4-1.9,1.7-1.9c0.7,0,2.5,1.6,2.5,2.2c0,0.3-0.3,0.5-0.7,0.5h-9.6v0.1
		c0,0.7-1,1.3-2.4,1.3c-0.9,0-1.2-0.2-1.2-0.9c0-0.4,0-0.7,0.1-3.4c0-0.5,0-2.9,0-4.9c0-2.3,0-3.9,0-4.4V14c0-0.2,0-0.2,0.2-0.2
		c0.4,0,2.2,0.4,2.9,0.7c0.4,0.2,0.6,0.3,0.8,0.5h5.5c1.1-1.3,1.5-1.7,1.8-1.7c0.3,0,0.5,0.2,1.4,0.9c0.7,0.5,0.9,0.8,0.9,1.1
		c0,0.3-0.2,0.4-0.6,0.4h-4.4l0,2.7h0.7l0.6-0.8c0.3-0.4,0.5-0.5,0.8-0.5c0.4,0,0.6,0.1,2.2,1.2c0.5,0.3,0.6,0.5,0.6,0.7
		c0,0.2-0.1,0.4-0.5,0.6c-0.2,0.1-0.2,0.2-0.2,0.4l0,2.1c0,0.7-0.9,1.1-2.3,1.1c-0.8,0-1.1-0.1-1.1-0.7h-0.8l0,3.2H309.5z M305,18.4
		c0-0.6,0-1,0-1.3c0-0.3,0-0.7,0-1.3h-1.3c-0.4,0.1-0.4,0.3-0.4,1.1v1.6H305z M303.3,19.1v2.6h5.8v-2.6H303.3z M305.1,25.6
		c0-0.7,0-1.3,0-1.6c0-0.4,0-0.9,0-1.6h-1.8l0,3.2H305.1z M307.2,29.1c-0.2,0-0.3,0.3-0.3,1.5v4.7h1.8c0-1.2,0-1.7,0-2.4v-3.8H307.2
		z M312.4,29.1c0,0.1-0.1,0.2-0.2,0.2c-0.1,0.1-0.2,0.2-0.2,0.3c0,0.1,0,0.2-0.1,2.2l0,2.5c0,0.4,0,0.6,0,1h1.8c0-2,0-4.3,0-6.2
		H312.4z M320.9,24.4c0.1-0.2,0.4-0.8,1-1.6c0.5-0.8,0.7-1.1,1.1-1.1c0.5,0,1,0.4,2.2,1.7c0.5,0.5,0.6,0.9,0.6,1.2
		c0,0.3-0.3,0.5-0.6,0.5h-6.9c-0.8,0-1.7,0-2.6,0.2c-0.5-0.6-0.5-0.7-0.5-0.8c0-0.1,0.1-0.2,0.3-0.2c0.7,0.1,1.6,0.1,2,0.1H320.9z
		 M317.5,29.1c0,0.1-0.1,0.2-0.3,0.3c-0.2,0.1-0.2,0.4-0.2,2.6v3.3h1.8c0-1.8,0-5.2,0-6.2H317.5z"/>
	<path d="M354,21.8c0.2,0.2,0.3,0.4,0.3,0.5c0,0.3-0.2,0.5-0.6,0.7c-0.3,2.5-0.9,4.6-1.9,6.2c-1.2,2-2.8,3.4-5.1,4.5
		c-0.8,0.4-2,0.8-3,1.1c-0.7,0.2-1.3,0.3-1.6,0.3c-0.1,0-0.2,0-0.2-0.1c0-0.1,0.1-0.2,0.6-0.3c0.8-0.3,1.7-0.9,2.5-1.4
		c1-0.8,1.9-1.7,2.5-2.6c1.4-2.1,2.3-5.2,2.3-8.2c0-1.4-0.1-1.7-0.6-2.4c-0.4,0-1.1,0.2-1.9,0.3c-0.9,0.2-2,0.4-2.8,0.7
		c-0.5,0.1-1.3,0.4-2,0.8c-0.3,0.1-0.4,0.2-0.6,0.2c-0.5,0-1.3-0.5-1.9-1.2c-0.6-0.7-1.1-1.5-1.1-2c0-0.1,0-0.1,0.1-0.1
		c0.1,0,0.1,0,0.4,0.1c0.7,0.2,1.2,0.3,1.9,0.3c0.5,0,2.2-0.2,4.8-0.5c2.3-0.3,5.2-0.7,8.3-1.2c1.3-0.2,1.7-0.3,2.6-0.6
		c0.3-0.1,0.4-0.2,0.8-0.3c0.3-0.1,0.5-0.1,0.6-0.1c0.5,0,2.3,0.7,3.4,1.4c0.6,0.4,1.1,0.9,1.1,1.4c0,0.5-0.6,1.2-1.2,1.2
		c-0.2,0-1.1-0.2-2.1-0.4c-1.6-0.3-2.5-0.4-4.1-0.4c-1.5,0-3.1,0.1-4.7,0.2C353.4,21.2,353.6,21.3,354,21.8z M353.6,13.6
		c-0.9,0-2.5,0.2-3.9,0.4c-1.3,0.2-2.4,0.4-3.1,0.6c-0.4,0.1-0.7,0.2-0.8,0.2c-0.5,0-1-0.3-1.7-1.2c-0.2-0.3-0.4-0.5-0.5-0.8
		c-0.2-0.3-0.3-0.4-0.3-0.5c0-0.1,0-0.1,0.1-0.1c0.1,0,0.4,0.1,0.5,0.1c0.4,0.1,1,0.2,1.3,0.2c0.8,0,2.2-0.2,3.7-0.5
		c1.5-0.3,3-0.7,3.9-1c0.8-0.4,0.9-0.4,1.2-0.4c0.5,0,1.2,0.3,2.3,0.8c0.8,0.4,1.2,0.8,1.2,1.4s-0.6,1-1.8,1c-0.4,0-0.4,0-1.4-0.1
		L353.6,13.6z M360.9,13.1c-0.4,0-0.7-0.1-1-0.4c-0.2-0.3-0.2-0.3-0.3-1c-0.2-0.9-0.9-2.1-1.5-2.6C358,8.9,358,8.8,358,8.8
		c0-0.1,0.1-0.1,0.2-0.1c0.4,0,1.5,0.4,2.2,0.9c1,0.6,1.6,1.5,1.6,2.3C361.9,12.6,361.5,13.1,360.9,13.1z M363.1,10.7
		c-0.3-1-1.2-2.1-2.2-2.7c-0.2-0.1-0.3-0.2-0.3-0.3c0-0.1,0.1-0.1,0.2-0.1c0.5,0,1.1,0.1,1.8,0.4c1.8,0.6,2.8,1.6,2.8,2.6
		c0,0.7-0.5,1.2-1.1,1.2C363.7,11.8,363.4,11.5,363.1,10.7z"/>
	<path d="M384,17.8c2.9-0.2,3.5-0.3,4.4-0.4c0-0.4,0-0.9,0-1.3c0-0.6,0-1.2,0-1.7c0-1.7-0.2-3-0.5-3.3c-0.2-0.2-0.4-0.3-0.9-0.3
		c-0.1,0-0.2-0.1-0.2-0.2c0-0.1,0.2-0.3,0.4-0.5c0.4-0.3,1.1-0.6,1.5-0.6c0.5,0,1.3,0.3,2,0.7c1.3,0.9,1.8,1.4,1.8,1.9
		c0,0.1-0.1,0.3-0.2,0.4c-0.4,0.4-0.4,0.4-0.4,0.8c0,1.2,0,2.5,0,3.7c1.7-0.1,2.2-0.3,3.1-0.6c0.3-0.1,0.5-0.2,0.6-0.2
		c0.5,0,1.8,0.6,2.9,1.3c0.7,0.4,1,0.9,1,1.5c0,0.6-0.6,1-1.3,1c-0.2,0-0.8-0.1-2.4-0.5c-1.1-0.3-1.6-0.3-4-0.5c-0.2,4.9-0.3,6-1,8
		c-1.2,3.3-4.1,6-8.3,7.6c-1.1,0.4-2.1,0.7-2.4,0.7c-0.1,0-0.2-0.1-0.2-0.1c0-0.1,0.1-0.2,0.7-0.5c2.2-1.2,4.2-3,5.5-5
		c1.1-1.8,1.8-3.9,2.1-6.6c0.1-0.9,0.1-1.3,0.2-4c-0.6,0-1.1,0.1-1.3,0.1c-1.7,0.1-2,0.2-3.1,0.3l0.1,4c0,2.7-0.7,4.2-2,4.2
		c-0.4,0-0.6-0.2-0.9-0.8c-0.2-0.6-0.4-1.7-0.4-2.1c0-0.7,0.1-2.1,0.1-3.8c0-0.3,0-0.4,0-0.8c-2.3,0.5-3,0.8-4.3,1.3
		c-0.4,0.2-0.7,0.3-0.9,0.3c-0.4,0-0.9-0.4-1.3-1c-0.6-0.7-1.1-1.6-1.1-2.2c0-0.2,0.1-0.4,0.3-0.7c0.5,0.6,0.9,0.8,1.4,0.8
		c1.1,0,2-0.1,5.7-0.5c-0.2-2.8-0.3-3.5-0.5-3.9c-0.3-0.4-0.6-0.5-1.2-0.6c-0.2,0-0.3-0.1-0.3-0.2c0-0.1,0.4-0.4,0.9-0.5
		c0.5-0.2,1.1-0.4,1.4-0.4c0.5,0,1.2,0.3,2,0.7c1.1,0.6,1.5,1.1,1.5,1.5c0,0.3,0,0.3-0.5,1.2V17.8z M396.8,13.9
		c-0.4,0-0.7-0.2-0.9-0.5c-0.2-0.2-0.2-0.2-0.3-1c-0.2-0.9-0.8-2.1-1.5-2.6c-0.1-0.1-0.2-0.1-0.2-0.2c0-0.1,0.1-0.1,0.2-0.1
		c0.5,0,1.6,0.4,2.3,0.8c0.9,0.6,1.6,1.6,1.6,2.4C397.9,13.4,397.4,13.9,396.8,13.9z M398.6,11.3c-0.4-1-1.3-2.1-2.3-2.6
		c-0.3-0.2-0.3-0.2-0.3-0.3c0-0.1,0.1-0.1,0.3-0.1c0.6,0,1,0.1,1.8,0.3c1.9,0.6,2.9,1.5,2.9,2.6c0,0.7-0.5,1.2-1.1,1.2
		C399.2,12.3,398.9,12.1,398.6,11.3z"/>
	<path d="M424,25.6c0,1.9,0,1.9,0.2,4.2c0,0.8,0.1,1.6,0.1,2.2c0,1.1-0.1,1.6-0.3,2c-0.2,0.5-0.9,0.9-1.4,0.9
		c-0.8,0-1.4-0.6-1.9-1.7c-0.4-1-0.6-2.1-0.6-2.7c0-0.3,0-0.5,0.1-0.7c0.2-0.4,0.2-0.6,0.3-1c0.3-1.2,0.5-6.6,0.5-10.2
		c-0.3,0.3-0.3,0.3-0.9,0.8c-2,2-5.3,4-7.9,5c-0.7,0.3-1.7,0.5-2,0.5c-0.1,0-0.2,0-0.2-0.1c0-0.1,0.1-0.2,0.6-0.4
		c0.4-0.2,1.1-0.6,1.8-1.1c0.5-0.4,1.1-0.8,1.5-1.2c2.4-2.1,4.9-5.3,6.6-8.3c0.5-0.9,0.8-1.6,1-2.2c0.1-0.2,0.1-0.3,0.1-0.4
		c0-0.1-0.1-0.3-0.3-0.4c-0.2-0.1-0.4-0.3-0.5-0.3c-0.2-0.1-0.3-0.1-0.3-0.2c0-0.1,0.3-0.3,0.6-0.5c0.6-0.3,1.6-0.6,2.2-0.6
		c0.6,0,1.2,0.3,2.2,1.1c1.3,1.1,1.7,1.5,1.7,2c0,0.4-0.3,0.7-0.7,0.9c-0.6,0.3-0.8,0.5-1.6,1.4c-0.5,0.5-1.8,2-2.2,2.5
		c0.1,0.2,0.1,0.2,0.6,0.5c0.5,0.4,0.8,1.1,0.8,1.6c0,0.2,0,0.3-0.1,0.6c0,0.5,0,0.7,0,1.1V25.6z"/>
	<path d="M449.4,16.9c0,1.3-1,2.3-2.3,2.3c-0.3,0-0.7-0.1-1-0.2c-0.2-0.1-0.2-0.1-0.5-0.7c-0.7-1.3-2.9-3.2-4.1-3.6
		c-0.2-0.1-0.2-0.1-0.2-0.2c0-0.1,0.4-0.2,0.8-0.3c0.7-0.1,1.7-0.2,2.5-0.2C447.5,14,449.4,15.2,449.4,16.9z M447.2,30.9
		c-0.6,0.4-0.9,0.5-1.3,0.5c-0.4,0-0.9-0.2-1.5-0.6c-0.5-0.4-1.1-0.9-1.7-1.6c-0.7-0.8-1.1-1.4-1.1-2c0-0.9,0.5-1.9,1.1-2.1
		c0.3,1,1,1.4,2.3,1.4c0.4,0,3-0.8,3.9-1.2c3.2-1.4,7.6-3.9,10.8-6.1c0.8-0.6,1.7-1.3,2.9-2.4c0.5-0.5,0.6-0.5,0.7-0.5
		s0.2,0.1,0.2,0.2c0,0.1,0,0.1-0.1,0.3c-0.4,0.7-1.8,2.7-2.9,4c-1.4,1.6-3.1,3.1-5,4.7c-2.3,1.8-5,3.6-8.1,5.3L447.2,30.9z"/>
	<path d="M499.9,25.4c0.1-0.2,0.2-0.4,0.3-0.5c1-1.6,1.3-2.1,1.7-2.1c0.8,0,2.7,2,2.7,2.7c0,0.4-0.3,0.5-1.3,0.5h-3.9
		c0.1,2.2,0.1,2.5,0.1,3.3c0,0.4,0,0.7,0,1c0,0.8-0.4,1.2-1.4,1.5c-0.5,0.2-1.1,0.3-1.7,0.3c-0.8,0-1.1-0.1-1.3-0.4
		c-0.1-0.2-0.1-0.4-0.1-2.1h-3.9c0,0.7,0,0.7,0.1,2.2v0.2c0,1.6-0.3,2.4-1.1,3.1c-0.8,0.8-1.9,1.2-3.4,1.2c-1.1,0-1.5-0.3-1.6-1.1
		c-0.1-0.8-0.3-1-1.3-1.7c-0.5-0.3-1-0.6-1.4-0.8c-0.2-0.1-0.3-0.2-0.3-0.3c0-0.1,0.1-0.2,0.4-0.2c0.2,0,1.1,0.1,1.4,0.1
		c1.6,0,2.3-0.2,2.6-0.6c0.2-0.3,0.2-0.6,0.2-2.1h-7.3c-0.6,0-1.2,0-1.8,0.1c-0.5-0.6-0.5-0.7-0.5-0.8c0-0.1,0.1-0.2,0.3-0.2
		c0.5,0.1,1.1,0.1,1.4,0.1h8v-3h-10.4c-0.6,0-1.2,0-1.7,0.1c-0.5-0.6-0.5-0.7-0.5-0.8c0-0.1,0.1-0.2,0.3-0.2c0.7,0.1,1.6,0.1,2,0.1
		h10.3v-3h-7.6c-0.6,0-1.3,0-1.9,0.1c-0.5-0.6-0.5-0.6-0.5-0.7c0-0.1,0.1-0.2,0.3-0.2c0.5,0,1.1,0.1,1.4,0.1h8.3v-2.8h-3.9v0.3
		c0,0.9-0.9,1.4-2.7,1.4c-1.2,0-1.7-0.3-1.6-0.8c0.1-1.3,0.1-3.4,0.1-4.8V13c0-0.1,0-0.2,0.1-0.2c0.5,0,2,0.2,3.2,0.5
		c1,0.3,1.3,0.4,1.6,0.7h3.2v-2.6h-10.2c-0.4,0-0.9,0-1.4,0.1c-0.5-0.6-0.5-0.6-0.5-0.7c0-0.1,0.1-0.2,0.3-0.2
		c0.6,0,1.4,0.1,1.8,0.1h10c0-1.4-0.1-2.9-0.1-3.7c0-0.2,0-0.2,0.4-0.2c0.6,0,3,0.3,3.6,0.5c0.8,0.2,1.2,0.5,1.2,1
		c0,0.1-0.1,0.5-0.8,1c0,0.5,0,0.8-0.1,1.5h6.3c0.4-0.4,0.4-0.4,1.5-1.8c0.5-0.6,0.8-0.9,1.2-0.9c0.4,0,1.2,0.4,2.2,1.2
		c0.9,0.7,1.4,1.3,1.4,1.7c0,0.4-0.3,0.6-1.1,0.6h-11.6V14h3.8c0.2-0.2,0.2-0.2,0.5-0.6c0.5-0.6,0.9-0.9,1.2-0.9
		c0.5,0,1.4,0.4,2.6,1.1c0.9,0.5,1.2,0.8,1.2,1.1c0,0.2-0.1,0.3-0.5,0.6c-0.2,0.1-0.3,0.3-0.3,0.4c0,0.1,0,0.1,0,0.2
		c0,0.5,0.2,2.1,0.2,2.4v0.2c0,0.6-0.2,0.9-1,1.2c-0.6,0.3-1.4,0.4-2.5,0.4c-0.9,0-1.2-0.2-1.2-0.8v-0.3h-3.9l0,2.9h3.7
		c1.2-1.2,1.4-1.4,1.9-1.4c0.4,0,0.7,0.2,2.2,0.9c0.9,0.4,1.2,0.7,1.2,1c0,0.1,0,0.2-0.1,0.3c-0.3,0.3-0.4,0.4-0.5,0.5v0.4
		c0,0.3,0,0.3,0,0.8v1.1H499.9z M483.5,14.7c-0.6,0-0.8,0.2-0.8,1.2v2.2h4v-3.4H483.5z M494.9,15.1c0-0.3,0-0.4-0.4-0.4h-3.6
		l0.1,3.4h3.9V15.1z M495,23.2c0-0.5-0.1-0.7-0.4-0.7H491l0,3h4V23.2z M491,26.2l0.1,3h3.9v-3H491z"/>
	<path d="M522.3,17.5c0.9-1.1,1.2-1.4,1.6-1.4c0.6,0,1.8,0.7,3,1.9c0.4,0.4,0.7,1,0.7,1.3c0,0.5-0.4,0.8-1.3,0.9
		c-1.1,0.1-2,0.6-3.4,2c-0.1,0.1-0.2,0.2-0.3,0.2c-0.1,0-0.2,0-0.2-0.1c0-0.1,0-0.2,0.1-0.3c0.2-0.7,0.4-2,0.7-3.7h-2.4
		c0.7,0.2,1,0.3,1,0.5c0,0.1-0.1,0.3-0.5,0.5l0.2,13.4c0,1.4-0.4,2.2-1.6,3c-0.8,0.5-1.7,0.8-2.6,0.8c-0.7,0-1.1-0.2-1.1-0.8
		c-0.1-1.1-0.7-1.9-2.2-2.5c-0.2-0.1-0.2-0.1-0.2-0.2c0-0.1,0-0.1,1-0.1c1.4,0,2.2-0.1,2.5-0.4c0.3-0.3,0.3-0.6,0.3-6.3
		c-1.4,2-2.6,3.1-4.3,4.3c-0.7,0.5-1.4,0.9-1.5,0.9c-0.1,0-0.2-0.1-0.2-0.2c0-0.1,0.1-0.2,0.1-0.3c2.5-2.7,5-8.3,5.6-12.7h-3.3
		c-0.5,0-1,0-1.4,0.1c-0.4-0.5-0.4-0.6-0.4-0.7c0-0.1,0.1-0.2,0.3-0.2c0.5,0,1.2,0.1,1.5,0.1H522.3z M519.9,9
		c1.4-1.5,1.6-1.6,1.9-1.6c0.4,0,0.8,0.2,1.4,0.6c1.5,1.1,2.3,2,2.3,2.7c0,0.5-0.4,0.8-1.2,0.8c-1.3,0.1-1.8,0.2-2.7,0.7
		c-0.6,0.4-1.2,0.7-1.8,1c0.8,0.6,1.3,1.4,1.3,2.2c0,1-1,1.8-2.4,1.8c-1.2,0-1.6-0.4-1.8-1.8c-0.2-1-0.3-1.4-0.6-1.9
		c-0.3-0.5-1.2-1.4-1.6-1.6c-0.2-0.1-0.3-0.2-0.3-0.3c0-0.1,0.1-0.1,0.2-0.1c0.8,0,2.5,0.5,4.4,1.2c0.4-0.9,0.8-1.9,1.2-3h-5.6
		c-0.4,0-1,0-1.4,0.1c-0.4-0.5-0.5-0.6-0.5-0.7c0-0.1,0.1-0.2,0.3-0.2c0.5,0.1,1.2,0.1,1.5,0.1H519.9z M536.3,12
		c0.1,0.1,0.1,0.1,0.6,0.3c0.9,0.3,1.4,0.7,1.4,1c0,0.3-0.3,0.4-0.8,0.6c-1.1,1.7-1.7,2.5-2.9,3.8c1.9,1,4.9,1.7,8,2
		c0.3,0,0.4,0.1,0.4,0.2c0,0.2-0.1,0.2-0.3,0.4c-0.9,0.5-2.3,2.2-2.8,3.3c-0.1,0.3-0.3,0.4-0.7,0.4c-0.7,0-2.2-0.5-3.3-1.1
		c-1.5-0.8-2.5-1.5-3.8-2.7c-0.6,0.4-1.3,0.9-2.2,1.5c1,0.1,2.6,0.4,3.7,0.7c0.6,0.2,0.9,0.4,0.9,0.7c0,0.3-0.1,0.4-0.9,0.8
		l-0.3,1.8h2.3c0.1-0.1,0.1-0.1,0.3-0.4c0.7-0.8,1-1,1.3-1c0.4,0,1.8,0.8,2.8,1.6c0.5,0.4,0.8,0.8,0.8,1.1c0,0.3-0.3,0.5-0.8,0.7
		c-0.5,7.3-2,8.9-6,8.9c-0.7,0-1-0.2-1.2-0.6c-0.4-1.4-0.5-1.6-2-2.4c-0.3-0.2-0.4-0.2-0.4-0.3s0.1-0.2,0.2-0.2c0.1,0,0.3,0,0.6,0.1
		c0.5,0.1,1,0.1,1.4,0.1c1.3,0,2-0.6,2.6-2.3c0.4-1.1,0.7-3,0.8-4.5h-2.7c-0.9,4-1.8,5.8-4.2,7.4c-1.5,1-3,1.6-5.6,2.3
		c-1.2,0.3-2.4,0.5-3,0.5c-0.2,0-0.3-0.1-0.3-0.2c0-0.1,0.1-0.2,0.4-0.3c1.9-0.4,4.1-1.5,5.5-2.9c1.7-1.6,2.7-3.7,3.2-6.7h-3.7
		c-0.5,0-1,0-1.4,0.1c-0.5-0.5-0.5-0.6-0.5-0.6c0-0.1,0.1-0.2,0.3-0.2c0.5,0,1.2,0.1,1.5,0.1h3.9c0.1-0.8,0.3-3,0.3-3.4
		c0-0.1,0-0.1,0-0.3c-1.1,0.7-2.3,1.2-3.7,1.7c-1.1,0.4-3.3,0.9-3.8,0.9c-0.1,0-0.2-0.1-0.2-0.2c0-0.1,0.1-0.2,0.4-0.3
		c3.1-0.9,6.4-3.3,8.4-6.3c-0.7-1.6-0.9-2.2-1.5-5.6c-1.1,1.3-2.1,2.3-2.9,3c-0.9,0.6-1.6,1.1-1.8,1.1c-0.1,0-0.1,0-0.1-0.1
		c0-0.1,0-0.1,0.1-0.3c1.2-1.7,2.5-6,2.8-8.9c0-0.4,0.1-0.5,0.2-0.5s0.6,0.1,0.8,0.2c3.5,0.9,4.4,1.3,4.4,2c0,0.4-0.3,0.6-1.3,0.9
		c-0.3,0.4-0.3,0.4-0.7,1c-0.4,0.5-0.4,0.5-0.8,0.9h6.6c1.2-1.9,1.8-2.7,2.3-2.7c0.4,0,1.2,0.5,2.3,1.5c0.7,0.7,0.9,1,0.9,1.5
		c0,0.3-0.3,0.4-1,0.4H536.3z M529.7,12c0.4,1.8,1,2.9,2.1,4c0.8-1.5,1.1-2.1,1.7-4H529.7z"/>
	<path d="M559.8,16c1.2-1.5,1.3-1.7,1.7-1.7c0.4,0,1.1,0.4,2.7,1.5c0.6,0.5,0.8,0.7,0.8,1c0,0.3-0.2,0.6-0.9,1c0,0.1,0.1,1.8,0.2,5
		l0,1c0,0.6-0.2,0.9-0.5,1.2c-0.6,0.4-1.6,0.6-2.4,0.6c-0.6,0-1-0.1-1.2-0.3c-0.1-0.2-0.1-0.2-0.1-1.3h-3.5
		c-0.1,4.2-0.7,6.2-2.6,8.8c-1,1.3-3.2,3.2-3.9,3.2c-0.1,0-0.2-0.1-0.2-0.2c0-0.1,0.1-0.1,0.4-0.4c0.9-0.8,1.7-2.4,2.1-4.2
		c0.3-1.5,0.4-2.8,0.4-5.1c0-2.7-0.3-9.3-0.4-11c0-0.1,0.1-0.2,0.2-0.2c1,0,3.6,0.7,4.2,1.1H559.8z M559.3,10.1
		c0.3-0.4,0.3-0.4,1.3-1.9c0.5-0.7,0.7-0.9,1.1-0.9c0.4,0,1,0.4,2.1,1.3c0.9,0.8,1.3,1.3,1.3,1.7c0,0.4-0.3,0.6-1.1,0.6h-11.3
		c-0.4,0-0.9,0-1.4,0.1c-0.5-0.6-0.5-0.6-0.5-0.7c0-0.1,0.1-0.2,0.3-0.2c0.6,0.1,1.4,0.1,1.8,0.1H559.3z M560,17
		c0-0.3-0.1-0.4-0.3-0.4h-2.9l-0.1,0.1c-0.2,0.2-0.2,0.3-0.2,0.8l0.1,5.6h3.5V17z M574.6,17.9c1.7-3,1.9-3.3,2.4-3.3
		c0.4,0,1.3,0.6,2.3,1.7c0.9,0.9,1.2,1.3,1.2,1.8c0,0.3-0.3,0.6-0.7,0.6h-3.2c0.4,0.1,0.6,0.3,0.6,0.5c0,0.2-0.1,0.3-0.3,0.4
		c-0.2,0.1-0.3,0.2-0.5,0.4c0,0.6,0,0.6,0.1,2.4c0,1.2,0.4,8.7,0.4,10c0,1.5,0.1,2.5,0.1,2.6c0,1-1.2,1.6-3.1,1.6
		c-1.3,0-1.5-0.2-1.5-1.2c0-0.4,0-0.7,0-1.5c0.1-1.7,0.2-8,0.2-11.3c0-1.4,0-2.2-0.1-3.9H570c-0.1,7-0.4,9.3-1.9,11.6
		c-1.3,2-3.8,4-6.8,5.3c-1,0.4-2,0.8-2.4,0.8c-0.1,0-0.2-0.1-0.2-0.2c0-0.2,0-0.2,0.9-0.6c1.6-0.7,3.5-2.4,4.4-3.9
		c0.9-1.4,1.5-3,1.8-5.2c0.2-1.4,0.3-2.9,0.3-6.7c0-1.4-0.2-7.5-0.2-9c0-0.6-0.1-1.4-0.1-1.7c0-0.1,0.1-0.2,0.2-0.2
		c1.2,0,3.3,0.6,4.5,1.4c2.3-1.2,3.2-1.7,5.3-3.2c3.1,1.8,4.1,2.7,4.1,3.5c0,0.5-0.3,0.7-1.2,0.7c-0.3,0-0.7,0-1.4,0
		c-4,0.2-6.5,0.3-7.3,0.3c-0.2,0.2-0.2,0.4-0.2,0.6v5.9H574.6z"/>
</g>
<g>
	<path d="M596,77.6l1.6,0v-10l-1.5,0v-0.4c0.7,0,1,0,1.5,0c1.1,0,2.3,0,3.6,0c1.4,0,2.4,0.2,3.2,0.7c1.5,0.9,2.4,2.6,2.4,4.7
		c0,2.1-0.9,3.9-2.5,4.8c-0.9,0.5-2,0.8-3.6,0.8c-0.9,0-1.9,0-2.8,0c-0.3,0-1,0-1.7,0V77.6z M599.8,77.6h0.5c1.2,0,2-0.3,2.7-0.9
		c0.8-0.8,1.3-2.3,1.3-4.2c0-2-0.4-3.4-1.2-4.1c-0.6-0.5-1.4-0.7-2.4-0.7c-0.2,0-0.4,0-0.8,0V77.6z"/>
	<path d="M620.8,67.5c-0.6,0-0.7,0-0.7,0.8c0,0.8,0,1.7,0,2.4l0,5.2c0,0.7,0,1.3,0,2.1h-1.1c-0.4-0.7-0.8-1.2-1.1-1.8l-3.7-5.9
		c-0.4-0.7-0.8-1.3-1.3-2.1l0,8.9c0,0.3,0.1,0.4,0.5,0.4l1.2,0V78h-3.8v-0.4l0.9,0c0.4,0,0.6-0.1,0.6-0.4l0-9.5
		c-0.3-0.1-0.7-0.1-1.5-0.1v-0.4c0.3,0,0.7,0,1.1,0h1.6c0.4,0,0.8,0,1.2,0l4.9,7.8l0-6.9c0-0.4-0.1-0.5-0.5-0.5l-1.2,0v-0.4h3.9v0.4
		L620.8,67.5z"/>
	<path d="M625.7,77.6l1.6,0V67.5l-1.3,0v-0.4c1,0,1.8,0.1,2.4,0.1c0.9,0,1.7-0.1,2.7-0.1c1,0,1.8,0.2,2.3,0.5
		c0.9,0.5,1.3,1.4,1.3,2.5c0,1.9-1.5,3.1-3.9,3.1c-0.4,0-0.6,0-1.5-0.1v4.6l2.1,0V78h-5.8V77.6z M629.4,72.6c0.5,0,0.7,0.1,1,0.1
		c0.8,0,1.4-0.3,1.8-0.8c0.3-0.4,0.5-1.1,0.5-1.9c0-1-0.4-2-1-2.3c-0.3-0.2-0.7-0.2-1.3-0.2c-0.3,0-0.5,0-1,0V72.6z"/>
	<path d="M655.9,69.5c0.3,0.5,0.8,0.9,1.5,1.3c0.7,0.4,1.4,0.7,2.2,0.9c1,0.3,1.8,0.5,2.2,0.5c0.1,0,0.1,0,0.1,0.1
		c0,0,0,0.1-0.1,0.1c-0.2,0.1-0.6,0.4-0.9,0.6c-0.4,0.4-0.6,0.6-0.7,0.8c-0.1,0.2-0.2,0.4-0.4,0.4c-0.3,0-0.8-0.2-1.1-0.5
		c-0.5-0.3-1.2-0.8-1.6-1.4c-0.3-0.5-0.6-0.9-0.9-1.3c-0.2-0.5-0.4-1-0.5-1.6h-0.2c0,0.4,0,0.8,0,1.5c0,0.6,0,0.7,0,1
		c0,0.2,0,0.3-0.2,0.4c-0.2,0.2-0.7,0.3-1,0.3c-0.6,0-0.8-0.1-0.8-0.5c0-0.1,0-0.2,0-0.5c0-0.4,0-0.4,0-0.8
		c-0.6,0.8-1.3,1.4-2.2,2.1c0.2,0,0.4,0,0.6,0h3.4c0.4-0.6,0.5-0.7,0.7-0.7c0.2,0,0.4,0.1,0.9,0.5c0.2,0.2,0.5,0.4,0.5,0.6
		c0,0.2-0.1,0.3-0.4,0.4c-0.1,0.4-0.2,0.7-0.4,1.1h1.1c0.1-0.1,0.2-0.3,0.3-0.4c0.2-0.2,0.3-0.3,0.4-0.3c0.2,0,0.6,0.2,1.4,0.8
		c0.2,0.2,0.3,0.3,0.3,0.5c0,0.2-0.1,0.3-0.4,0.4c0,0.2-0.2,0.8-0.5,1.7c-0.2,0.7-0.6,1.3-1.1,1.6c-0.4,0.2-1,0.3-1.6,0.3
		c-0.3,0-0.6-0.1-0.8-0.2c-0.1-0.1-0.2-0.2-0.2-0.5c0-0.3-0.3-0.5-0.9-0.8c-0.1-0.1-0.2-0.1-0.3-0.2c-0.1-0.1-0.1-0.1-0.1-0.1
		c0,0,0-0.1,0.1-0.1c0,0,0.4,0.1,0.6,0.1c0.5,0.1,0.9,0.1,1.3,0.1c0.5,0,0.7-0.2,0.9-0.6c0.1-0.3,0.3-0.8,0.5-1.2
		c0.1-0.5,0.1-0.5,0.2-0.8h-1.3c0,0.1-0.1,0.2-0.1,0.3c-0.1,0.3-0.2,0.5-0.5,0.6c-0.1,0-0.3,0.1-0.5,0.1c-0.6,0-0.9-0.2-0.9-0.4
		c0-0.1,0-0.1,0.1-0.5c0.2-0.5,0.5-1.4,0.6-1.9h-1.2c0.1,0,0.1,0.1,0.1,0.2c0,0.1-0.1,0.1-0.2,0.2c-0.2,2.1-0.9,3.5-2.2,4.4
		c-0.4,0.3-1,0.6-1.6,0.8c-0.4,0.2-0.9,0.3-1.3,0.4c-0.3,0.1-0.6,0.1-0.7,0.1c0,0-0.1,0-0.1-0.1c0-0.1,0-0.1,0.2-0.2
		c0.3-0.1,0.6-0.2,1-0.4c0.5-0.3,0.9-0.6,1.2-0.9c1-1,1.5-2.4,1.5-4.5c-0.4,0-0.6,0-0.9,0c-0.1-0.1-0.1-0.2-0.2-0.3
		c-1.1,0.7-1.5,0.9-2.4,1.3c-0.6,0.2-0.9,0.3-1,0.3c-0.1,0-0.1,0-0.1-0.1c0,0,0-0.1,0.2-0.1c0.7-0.4,1.6-1.1,2.3-1.9
		c0.9-1,1.5-1.8,2.2-3.3h-2.9c-0.4,0-0.7,0-1.1,0.1c-0.2-0.3-0.3-0.4-0.3-0.4c0-0.1,0-0.1,0.1-0.1c0.2,0,0.8,0.1,1.1,0.1h4.4l0-1.3
		c-1.4,0.1-2.6,0.2-3.8,0.2c-0.3,0-1,0-1.2,0c-0.6,0-0.6,0-0.6-0.1c0-0.1,0.1-0.1,0.3-0.1c0.5-0.1,1.1-0.2,1.5-0.2
		c0.6-0.1,1.2-0.2,2.1-0.5c2-0.5,3.4-0.9,4.4-1.6c1.5,0.7,2.5,1.3,2.5,1.7c0,0.1-0.1,0.3-0.2,0.3c-0.1,0.1-0.2,0.1-0.9,0.1
		c-0.9,0-1.3,0.1-2.1,0.1c0.1,0.1,0.1,0.1,0.1,0.2c0,0.1-0.1,0.1-0.3,0.2l0,1h2.8c0.9-1.2,1.1-1.4,1.3-1.4c0.4,0,1.8,1.2,1.8,1.6
		c0,0.2-0.2,0.3-0.4,0.3H655.9z"/>
	<path d="M673.5,74.4c0.7,1.5,2.8,2.5,6,3.1c0.2,0,0.3,0,0.3,0.1c0,0,0,0.1-0.1,0.1c-1,0.5-1.4,0.9-1.7,1.5
		c-0.1,0.2-0.2,0.3-0.4,0.3c-0.7,0-1.8-0.6-2.6-1.4c-0.9-0.9-1.4-2-1.7-3.7h-0.3c-0.6,2.4-1.8,3.6-4.2,4.5c-1,0.3-2.2,0.6-2.8,0.6
		c-0.1,0-0.2,0-0.2-0.1c0-0.1,0-0.1,0.2-0.2c0.8-0.2,1.3-0.3,2-0.8c1.6-0.9,2.5-2.2,3.1-4.1h-3.7c-0.5,0-0.9,0-1.4,0.1
		c-0.2-0.3-0.2-0.4-0.2-0.4c0-0.1,0-0.1,0.1-0.1c0.4,0,0.9,0.1,1.1,0.1h0.9l0-1.4c0-0.6,0-1.5,0-2.3c0,0,0-0.2,0-0.3
		c0-0.1,0-0.1,0.1-0.1c0.4,0,0.4,0,1.3,0.2c0.5,0.1,0.6,0.2,0.7,0.5h1.4c0-0.3,0-0.3,0-0.7c0-0.1,0-0.2,0-0.8
		c-0.3,0.2-0.7,0.2-1.1,0.2c-0.3,0-0.5-0.1-0.6-0.2c0-0.1,0-0.2,0-0.6c0-0.2,0-0.4,0-0.7h-1.9c-0.5,0-1,0-1.5,0.1
		c-0.3-0.3-0.3-0.4-0.3-0.4c0-0.1,0-0.1,0.1-0.1c0.4,0,0.9,0.1,1.2,0.1h2.3v-1.8c0-0.1,0-0.1,0.1-0.1c0.5,0,1.4,0.1,1.8,0.3
		c0.2,0.1,0.4,0.2,0.4,0.3c0,0.1-0.1,0.2-0.3,0.4v0.9h2.1V66c0-0.1,0-0.1,0-0.3c0-0.1,0-0.1,0.1-0.1c0.4,0,1.3,0.1,1.8,0.2
		c0.3,0.1,0.5,0.2,0.5,0.4c0,0.1-0.1,0.3-0.4,0.4v0.9h1.1c0.2-0.3,0.6-0.8,0.8-1.1c0.2-0.2,0.3-0.3,0.4-0.3c0.3,0,0.7,0.3,1.3,0.9
		c0.2,0.3,0.3,0.4,0.3,0.6c0,0.1-0.1,0.3-0.3,0.3h-3.7l0,0.8c0,0.4,0,0.5-0.3,0.6c-0.2,0.1-0.7,0.2-1,0.2c-0.2,0-0.4,0-0.5-0.1
		c-0.2-0.1-0.2-0.2-0.2-0.5c0-0.1,0-0.5,0-1h-2.1v0.7c0,0.1,0,0.2,0,0.3c0,0.1,0,0.2-0.1,0.2c1.8,0.2,2.2,0.3,2.2,0.6
		c0,0.2-0.1,0.3-0.4,0.4l0,0.5h1.7c0.5-0.6,0.7-0.9,0.9-0.9c0.2,0,0.6,0.2,1.2,0.6c0.4,0.3,0.5,0.5,0.5,0.6c0,0.2-0.2,0.3-0.6,0.5
		l0,2.5h0.3c0.7-1.2,0.9-1.5,1.1-1.5c0.4,0,1.3,1,1.3,1.5c0,0.2-0.2,0.3-0.4,0.3H673.5z M669.9,71c-0.2,0.1-0.2,0.1-0.2,0.9
		c0,0.2,0,0.5,0,0.8v0.8c0,0.1,0,0.3,0,0.6h1.3l0-0.1c0.1-0.7,0.2-1.4,0.2-2.4V71H669.9z M673.2,71c0,1.3-0.1,2-0.2,3.1h1.9V71
		H673.2z"/>
	<path d="M687.8,73.3c0.3-0.5,0.5-0.7,0.7-1.1c0.4-0.8,0.4-0.8,0.5-1c1,0.5,1.5,0.8,1.5,1.1c0,0.1-0.1,0.2-0.5,0.3
		c-0.3,0.1-0.3,0.1-1,0.4c-0.6,0.2-0.6,0.2-0.9,0.4c1.7,0.3,2.4,0.7,2.4,1.6c0,0.6-0.4,1-1,1c-0.4,0-0.6-0.2-0.7-0.7
		c-0.2-0.9-0.6-1.5-1.2-1.8l0.1,3.8c0,0.4,0,0.9,0,1.2v0.1c0,0.5-0.4,0.8-1.3,0.8c-0.6,0-0.7-0.1-0.7-0.5c0-0.2,0-0.2,0-0.8
		c0.1-1.8,0.1-2.7,0.1-4.7c-0.6,0.5-1.3,1-1.9,1.4c-0.3,0.2-0.5,0.2-0.5,0.2c0,0-0.1,0-0.1-0.1c0,0,0-0.1,0.3-0.3
		c0.7-0.6,1.8-2,2.2-2.8l0-0.6c0-0.1,0-0.1,0.1-0.1c0.1,0,0.3,0.1,0.5,0.2c0.4-0.6,0.7-1.2,1.1-2.1h-2.6c-0.3,0-0.6,0-0.9,0
		c-0.2-0.2-0.2-0.3-0.2-0.3c0-0.1,0-0.1,0.1-0.1c0.2,0,0.5,0,0.6,0h1.4l0-3c0-0.1,0-0.1,0.1-0.1c0.1,0,0.9,0.1,1.3,0.2
		c0.7,0.1,0.9,0.2,0.9,0.4c0,0.1-0.1,0.3-0.5,0.4l0,2h0.1c0.6-0.8,0.7-0.8,0.9-0.8c0.2,0,0.5,0.3,0.9,0.7c0.3,0.3,0.5,0.5,0.5,0.6
		c0,0.2,0,0.2-0.7,0.5c-0.7,0.9-1.3,1.6-1.6,1.9c0.2,0.1,0.2,0.2,0.2,0.3c0,0.1-0.1,0.2-0.3,0.3v1L687.8,73.3z M694.6,67.6
		c0.5-0.7,0.6-0.9,0.8-0.9c0.2,0,0.7,0.3,1.3,0.8c0.4,0.3,0.5,0.5,0.5,0.7c0,0.1,0,0.1-0.2,0.3c0,0,0,0-0.1,0.1
		c-0.1,0.1-0.1,0.1-0.2,0.1c0,1.4,0,2.2,0,2.8c0,3.7-0.1,5.3-0.4,6.1c-0.4,0.9-1.3,1.5-2.4,1.5c-0.3,0-0.5-0.1-0.6-0.3
		c0-0.1,0-0.1-0.1-0.4c0-0.3-0.2-0.5-0.8-1.1c0,0-0.1-0.1-0.2-0.2c0,0-0.1-0.1-0.1-0.1c0,0,0-0.1,0.1-0.1s0.1,0,0.2,0
		c0.3,0,0.5,0.1,0.8,0.1c0.6,0,1-0.3,1.2-1.1c0.3-1.1,0.3-1.9,0.3-6.2c0-0.4,0-1.1-0.1-2.1h-1.4c0.3,0.1,0.4,0.1,0.4,0.3
		c0,0.1,0,0.1-0.2,0.2c0,0-0.1,0-0.1,0.1c0,4.2-0.2,5.2-0.7,6.7c-0.6,1.5-2,2.7-3.8,3.4c-0.4,0.2-0.9,0.3-1.1,0.3c0,0-0.1,0-0.1-0.1
		s0-0.1,0.1-0.1c0.8-0.3,1.4-0.8,2-1.4c1.3-1.4,1.6-2.7,1.6-7.3v-2c-0.6,0-1.2,0-1.8,0.1c-0.2-0.3-0.3-0.3-0.3-0.4
		c0-0.1,0-0.1,0.1-0.1c0.3,0,0.7,0,0.9,0H694.6z"/>
	<path d="M712.6,71.5c0.5-0.7,0.6-0.8,0.7-0.9c0.3-0.4,0.5-0.5,0.6-0.5c0.5,0,1.7,1.1,1.7,1.5c0,0.1-0.2,0.3-0.4,0.3h-7.2
		c0.2,0.1,0.3,0.2,0.3,0.2c0,0.1-0.1,0.2-0.5,0.4c-0.1,0.3-0.5,1.2-0.5,1.4h3.3c0.5-0.7,0.7-0.9,0.8-0.9c0.2,0,0.6,0.2,1.2,0.7
		c0.3,0.3,0.5,0.5,0.5,0.7c0,0.2-0.1,0.2-0.5,0.5c0,1.5-0.3,2.8-0.7,3.4c-0.5,0.7-1.4,1.2-2.3,1.2c-0.6,0-0.8-0.2-0.8-0.6
		c-0.1-0.3-0.1-0.5-0.4-0.7c-0.3-0.2-0.8-0.5-1.2-0.7c-0.1,0-0.1-0.1-0.1-0.1c0,0,0-0.1,0.1-0.1c0,0,0.1,0,0.7,0.1
		c0.3,0,1,0.1,1.2,0.1c1.1,0,1.5-0.8,1.7-3.4h-3.5c-0.1,0.3-0.1,0.4-0.3,0.9c-0.3,0.7-0.4,0.9-0.5,1c-0.2,0.1-0.5,0.2-0.8,0.2
		c-0.6,0-1.1-0.2-1.1-0.5c0-0.1,0-0.2,0.1-0.3c0.6-1.1,1.4-3,1.4-3.6h-2.1c-0.6,0-1.3,0-1.9,0.1c-0.3-0.4-0.3-0.4-0.3-0.4
		c0-0.1,0-0.1,0.1-0.1c0.5,0,1.1,0.1,1.4,0.1H712.6z M710.4,66.7c0.5-0.8,0.5-0.8,0.7-0.8c0.2,0,0.6,0.2,1.3,0.6
		c0.3,0.2,0.5,0.4,0.5,0.5c0,0.2,0,0.2-0.4,0.4c0,0.3,0.1,2.3,0.1,2.4c0,0.5-0.6,0.8-1.6,0.8c-0.4,0-0.5-0.1-0.5-0.5v-0.3h-4.2
		c0,0.1,0,0.2,0,0.3c0,0.3-0.1,0.4-0.3,0.5c-0.2,0.1-0.6,0.2-0.9,0.2c-0.5,0-0.7-0.1-0.7-0.4c0-0.3,0-0.9,0-1.8c0-0.4,0-0.9,0-1.4
		c0-0.5,0-0.8,0-1.1c0-0.1,0.1-0.1,0.2-0.1c0.2,0,1,0.2,1.3,0.3c0.4,0.1,0.6,0.2,0.7,0.3H710.4z M710.5,69.5c0-0.6,0-1.5,0-2
		c0-0.5,0-0.5-0.2-0.5h-3.7c-0.1,0-0.2,0.1-0.3,0.2c0,0.1,0,0.2,0,0.7v1.6H710.5z"/>
	<path d="M723.6,66.9c0.4-0.6,0.6-0.8,0.8-0.8c0.4,0,1.7,1,1.7,1.4c0,0.2,0,0.2-0.5,0.5c0,1.1,0,2.1,0.1,6.5c0,0.4-0.1,0.5-0.5,0.7
		c-0.2,0.1-0.5,0.2-0.8,0.2c-0.4,0-0.5-0.1-0.5-0.6v-0.8h-1.6l0,1.4c0,0.4,0,0.5-0.3,0.6c-0.2,0.1-0.6,0.2-1,0.2
		c-0.5,0-0.6-0.1-0.6-0.4c0-0.3,0-1.8,0.1-2.5c0-1.2,0-2.4,0-3.5c0-0.7,0-1.8,0-3.5v0c0-0.1,0.1-0.1,0.2-0.1c0.2,0,1.1,0.2,1.5,0.4
		c0.2,0.1,0.3,0.2,0.4,0.3H723.6z M723.8,68c0-0.3,0-0.4,0-0.6c0-0.1-0.1-0.1-0.2-0.1h-1.2c-0.2,0.1-0.2,0.1-0.2,0.9v2.1h1.7
		L723.8,68z M722.2,70.6v3.2h1.6l0-3.2H722.2z M730.4,66.8c0.4-0.7,0.6-0.9,0.8-0.9c0.3,0,0.7,0.3,1.4,0.8c0.3,0.3,0.5,0.4,0.5,0.6
		c0,0.2-0.1,0.3-0.5,0.6c0,1.7,0,3.5,0.1,5.2c0,2.2,0.1,3.4,0.1,3.8c0,1.2,0,1.6-0.5,2c-0.4,0.3-0.9,0.6-1.6,0.6
		c-0.4,0-0.7-0.1-0.7-0.5c0-0.2-0.2-0.5-0.4-0.6c-0.2-0.2-0.5-0.4-0.9-0.6c-0.1,0-0.2-0.1-0.2-0.1s0-0.1,0.1-0.1c0.1,0,0.8,0,1,0
		c0.6,0,0.8,0,0.9-0.3c0.1-0.2,0.1-0.4,0.1-1.4V74h-2.4c-0.3,1.7-0.8,2.6-1.9,3.6c-0.9,0.8-2.1,1.3-3.2,1.7
		c-0.4,0.1-0.6,0.1-0.7,0.1c-0.1,0-0.1,0-0.1-0.1c0-0.1,0-0.1,0.5-0.2c1.1-0.4,2.2-1.2,2.9-2.4c0.8-1.2,0.9-2.3,0.9-5.5
		c0-1.9-0.1-4-0.1-4.7c0,0,0,0,0-0.1c0-0.1,0-0.2,0.1-0.2c0.4,0,1.2,0.2,1.7,0.3c0.2,0.1,0.3,0.1,0.3,0.3H730.4z M730.6,70.5h-2.2
		c0,2.3,0,2.3-0.1,3.2h2.3L730.6,70.5z M730.6,70.1c0-0.9,0-2.3,0-2.7c0-0.2-0.1-0.3-0.2-0.3h-1.6c-0.2,0-0.3,0.1-0.3,0.3v2.7H730.6
		z"/>
	<path d="M742.9,75.6c0.6-0.8,0.8-1,1-1c0.3,0,1.1,0.8,1.1,1.2c0,0.1-0.1,0.2-0.2,0.2h-2.7c0,1.4,0,2.1,0,2.7c0,0.3-0.1,0.5-0.3,0.6
		c-0.3,0.1-0.6,0.2-1,0.2c-0.4,0-0.6-0.1-0.6-0.5c0,0,0-0.2,0-0.3c0.1-1.1,0.1-1.7,0.1-2.6h-1.8c-0.3,0-0.6,0-0.8,0
		c-0.2-0.3-0.2-0.3-0.2-0.3c0-0.1,0-0.1,0.1-0.1c0.3,0,0.7,0,0.9,0h1.8c0-1,0-1.1,0-1.9H740v0.1c0,0.3-0.1,0.4-0.3,0.5
		c-0.3,0.1-0.6,0.2-0.8,0.2c-0.4,0-0.6-0.2-0.6-0.5c0-0.1,0-1.3,0-2.9c0-0.6,0-1.3,0-1.9c0-0.1,0-0.1,0.1-0.1c0.5,0,1.6,0.3,1.7,0.5
		h0.4c0-0.7,0-1,0-1.6h-1.9c-0.2,0-0.5,0-0.7,0c-0.2-0.3-0.2-0.3-0.2-0.3c0-0.1,0-0.1,0.1-0.1c0.3,0,0.6,0,0.8,0h1.9
		c0-0.8,0-1.2,0-1.8c0-0.1,0-0.2,0.1-0.2c0.5,0,1.5,0.2,1.8,0.3c0.2,0.1,0.3,0.2,0.3,0.3c0,0.1-0.1,0.2-0.4,0.4l0,1h0.6
		c0.2-0.2,0.2-0.2,0.5-0.8c0.1-0.2,0.3-0.3,0.4-0.3c0.4,0,1.3,0.8,1.3,1.2c0,0.1-0.1,0.2-0.3,0.2h-2.5l0,1.6h0.4
		c0.5-0.7,0.5-0.7,0.7-0.7c0.2,0,0.4,0.2,0.9,0.5c0.4,0.3,0.5,0.4,0.5,0.6c0,0.1,0,0.1-0.3,0.4c0,1.3,0.1,1.9,0.1,2.4
		c0,0.4,0,0.5,0,0.7c0,0.3,0,0.4-0.1,0.5c-0.2,0.2-0.7,0.3-1.2,0.3c-0.4,0-0.5-0.1-0.5-0.4v-0.2h-0.5l0,0.9l0,1H742.9z M742.6,70.3
		c0-0.3,0-0.3-0.1-0.3h-2.4c-0.1,0.1-0.1,0.2-0.1,0.3l0,1.2h2.7L742.6,70.3z M739.9,71.8l0,1.6h2.7v-1.6H739.9z M749.1,66.4
		c0.1-0.2,0.3-0.3,0.4-0.3c0.2,0,0.4,0.1,0.9,0.5c0.6,0.5,0.8,0.6,0.8,0.8c0,0.2,0,0.2-0.4,0.6c0,0.3,0,0.7,0,1.1
		c0,0.5,0.1,3.6,0.1,4.2c0,0.6,0,1.5,0.1,2.9c0,0.6,0,0.6,0,0.8c0,1-0.1,1.4-0.5,1.8c-0.4,0.3-1.1,0.6-1.7,0.6
		c-0.4,0-0.6-0.1-0.6-0.4c-0.1-0.4-0.2-0.7-0.5-0.9c-0.1-0.1-0.3-0.2-0.5-0.3c-0.2-0.1-0.3-0.2-0.3-0.2c0-0.1,0-0.1,0.1-0.1
		c0,0,0.1,0,0.3,0c0.2,0,0.6,0,0.8,0c0.7,0,0.8-0.2,0.9-0.8c0-0.4,0-1,0-2.8h-2c-0.1,1.6-0.3,2.5-1.1,3.4c-0.6,0.8-1.7,1.5-2.7,1.8
		c-0.3,0.1-0.7,0.2-0.8,0.2c0,0-0.1,0-0.1-0.1s0-0.1,0.2-0.2c0.6-0.3,1.3-0.8,1.8-1.4c0.9-1,1.1-2.1,1.1-4.5c0-3.8-0.1-5.7-0.1-6.4
		l0-0.2c0-0.1,0-0.1,0.1-0.1c0.2,0,0.5,0,0.9,0.1c0.6,0.1,0.9,0.2,1,0.4h1.5L749.1,66.4z M748.9,70.6H747v1c0,0.6,0,1,0,1.9h1.9
		L748.9,70.6z M748.9,67.7c0-0.3,0-0.3-0.2-0.3h-1.5c-0.2,0.1-0.2,0.2-0.2,0.3l0,2.5h1.9L748.9,67.7z"/>
	<path d="M764.9,77.8c0-0.5,0.1-1,0.1-1.5c0-0.5,0-1.2-0.1-1.9l0.4-0.1c0.1,1,0.4,1.8,0.9,2.4c0.5,0.6,1.3,1,2.1,1
		c1.4,0,2.4-0.9,2.4-2c0-0.5-0.2-0.9-0.5-1.2c-0.4-0.3-0.7-0.5-1.9-0.8c-1.1-0.3-1.8-0.7-2.4-1.1c-0.7-0.6-1.1-1.5-1.1-2.4
		c0-1.8,1.5-3.2,3.3-3.2c0.8,0,1.2,0.1,2.3,0.7l0.4-0.5l0.3,0.1c0,0.5,0,0.9,0,1.3c0,0.5,0,1.1,0,1.7l-0.5,0.1
		c-0.1-0.9-0.2-1.4-0.6-2c-0.4-0.6-1.2-1-2-1c-1.2,0-2,0.8-2,1.8c0,0.5,0.2,1,0.7,1.3c0.3,0.2,0.7,0.4,1.7,0.7
		c1.3,0.4,1.9,0.7,2.4,1.2c0.7,0.6,1,1.4,1,2.3c0,2-1.6,3.5-3.7,3.5c-0.9,0-1.5-0.2-2.7-0.9l-0.4,0.7L764.9,77.8z"/>
	<path d="M775.8,71.3c0.9-0.2,1.3-0.4,1.7-0.9c0.5-0.5,0.7-0.9,0.9-1.8h0.3c0,0.6,0,1.2,0,1.7l0,0.9h1.6v0.4h-1.6l0,3.8
		c0,1.1,0,1.5,0.1,1.7c0.1,0.3,0.3,0.5,0.7,0.5c0.4,0,0.7-0.2,1.2-0.6l0.3,0.3c-0.7,0.6-1.2,0.9-2.1,0.9c-0.9,0-1.6-0.3-1.9-1
		c-0.2-0.3-0.2-0.7-0.2-1.3c0-0.3,0-0.8,0-1.2l0.1-3.2h-0.8V71.3z"/>
	<path d="M788.7,67.5v-0.4c1.7-0.1,2-0.1,2.8-0.5l0.2,0.2c0,0.8-0.1,1.7-0.1,2.6v8.3h1V78h-0.3c-0.9,0-1.4,0.1-2.3,0.3l-0.2-0.2
		l-0.1-1c-0.2,0.2-0.3,0.3-0.4,0.4c-0.5,0.5-1.1,0.7-1.8,0.7c-1.7,0-3-1.5-3-3.5c0-2.2,1.3-3.8,3.1-3.8c0.6,0,1.1,0.2,1.5,0.5
		c0.2,0.2,0.4,0.4,0.7,0.9v-4.9L788.7,67.5z M789.8,73.8c0-0.7-0.1-1.1-0.4-1.4c-0.3-0.3-0.7-0.5-1.1-0.5c-0.5,0-0.8,0.2-1.1,0.6
		c-0.3,0.4-0.5,1.4-0.5,2.3c0,1.8,0.6,2.8,1.6,2.8c0.7,0,1.2-0.4,1.4-1V73.8z"/>
	<path d="M805.7,77.6l1.6,0V67.5l-1.6,0v-0.4h5.3v0.4l-1.5,0v4.7h4.6v-4.7l-1.5,0v-0.4h5.3v0.4l-1.5,0v10.1l1.5,0V78h-5.2v-0.4
		l1.5,0v-4.9h-4.6v4.9l1.5,0V78h-5.3V77.6z"/>
	<path d="M828.5,71.6c-0.3,0-0.4,0.1-0.8,1.1l-1.5,3.7c-0.3,0.7-0.5,1.2-0.7,1.9h-0.8c-0.2-0.6-0.4-1.1-0.6-1.8l-1.3-3.2
		c-0.2-0.5-0.4-1.1-0.7-1.6l-0.8,0v-0.4h3.9v0.4l-1,0l1.6,4.5l1.4-3.4c0.2-0.5,0.3-0.7,0.3-0.9c0-0.1-0.1-0.2-0.3-0.2l-0.6,0v-0.4
		h2.4v0.4L828.5,71.6z"/>
</g>
</svg>
