<?xml version="1.0" encoding="utf-8"?>
<!-- Generator: Adobe Illustrator 25.4.1, SVG Export Plug-In . SVG Version: 6.00 Build 0)  -->
<svg version="1.1" id="レイヤー_1" xmlns="http://www.w3.org/2000/svg" xmlns:xlink="http://www.w3.org/1999/xlink" x="0px"
	 y="0px" viewBox="0 0 417.3 43.4" style="enable-background:new 0 0 417.3 43.4;" xml:space="preserve">
<style type="text/css">
	.st0{fill:#015287;}
</style>
<g>
	<path class="st0" d="M70.1,35.1V13.4C70.1,6,64.1,0,56.8,0H0v30c0,7.4,6,13.4,13.4,13.4h56.8h8.3C73.8,43.4,70.1,39.7,70.1,35.1z"
		/>
	<path d="M122.1,18.4c1.3-1.6,1.3-1.6,1.5-1.8c0.5-0.7,0.9-0.9,1.2-0.9c0.9,0,3.2,2.2,3.2,3c0,0.3-0.3,0.5-0.9,0.5h-27.1
		c-0.4,0-0.9,0-1.4,0.1c-0.4-0.5-0.5-0.6-0.5-0.7c0-0.1,0.1-0.2,0.3-0.2c0.6,0,1.4,0.1,1.8,0.1h10.3v-3h-6.2c-0.4,0-0.9,0-1.4,0.1
		c-0.4-0.5-0.5-0.6-0.5-0.7c0-0.1,0.1-0.2,0.3-0.2c0.6,0,1.4,0.1,1.8,0.1h6l0-2.9H102c-0.5,0-1.1,0-1.6,0c-0.5-0.5-0.5-0.6-0.5-0.6
		c0-0.1,0.1-0.2,0.3-0.2c0.6,0,1.4,0.1,1.8,0.1h8.5c0-1.6,0-2.9,0-3.3c0-0.5,0-0.5,0.3-0.5c0.8,0,3.5,0.4,4.4,0.6
		c0.5,0.1,0.8,0.4,0.8,0.8c0,0.3,0,0.3-1,0.9l0,1.5h5.4c1.3-2,2-2.7,2.4-2.7c0.5,0,1.4,0.5,2.6,1.6c0.6,0.6,0.9,1,0.9,1.3
		c0,0.3-0.3,0.5-0.7,0.5h-10.6v2.9h3.3c1.3-1.7,1.8-2.2,2.2-2.2c0.8,0,3.1,1.9,3.1,2.5c0,0.4-0.2,0.5-0.9,0.5h-7.7v3H122.1z
		 M117.7,21.7c0.9-1.3,1.3-1.7,1.6-1.7c0.4,0,2,0.8,3,1.6c0.5,0.4,0.6,0.6,0.6,0.9c0,0.3-0.1,0.4-0.8,1c0,0.9,0,0.9,0,1.9
		c0.1,2,0.1,2.2,0.1,3.6c0,1.4,0,1.4,0.1,3.7v0.4c0,1.2-0.3,1.8-1.1,2.5c-0.9,0.8-2,1.3-3.3,1.3c-0.5,0-1-0.1-1.2-0.3
		c-0.1-0.1-0.1-0.1-0.4-0.9c-0.3-0.9-0.6-1.2-2.4-2.2c-0.2-0.1-0.3-0.2-0.3-0.2c0-0.1,0-0.2,0.2-0.2c0.1,0,0.1,0,0.4,0
		c0.5,0.1,1,0.1,1.3,0.1c0.9,0,1.6-0.1,1.9-0.3c0.4-0.3,0.4-0.3,0.4-3.6h-10.2c0,2,0,2.2,0,3.7c0,1,0,1.1,0,1.4c0,1-0.1,1.3-0.5,1.5
		c-0.5,0.3-1.5,0.5-2.3,0.5c-0.9,0-1.3-0.3-1.3-0.8c0-0.3,0-0.4,0.1-2.2c0.1-2.1,0.2-8.1,0.2-9.5v-3.1c0-0.3,0-0.4,0.2-0.4
		c0.4,0,1.4,0.2,2.5,0.5c1.1,0.3,1.3,0.4,1.7,0.8H117.7z M118,25.2c0-2.5,0-2.5,0-2.6c0-0.1-0.1-0.2-0.3-0.2h-9.3
		c-0.4,0.2-0.5,0.3-0.5,0.6v2.2H118z M107.9,25.9v2.7H118v-2.7H107.9z"/>
	<path d="M158.7,10.4c1.3-2.2,1.9-2.7,2.4-2.7c0.9,0,3.5,2.1,3.5,2.9c0,0.3-0.4,0.6-0.7,0.6h-8.4v1.4c0,0.6-0.6,1.1-2,1.2
		c3,0.6,4,0.9,4,1.4c0,0.6-0.4,0.8-1,1.1c-0.5,0.7-0.8,1.3-1.4,2.1h3.7c1.5-2.2,1.8-2.5,2.2-2.5c0.9,0,3,2,3,2.8
		c0,0.4-0.3,0.5-1.2,0.5h-8.3c-1.3,1.8-2.2,2.7-3.5,3.8c-0.8,0.6-1.2,0.9-1.4,0.9c-0.1,0-0.2,0-0.2-0.1c0-0.1,0-0.1,0.2-0.3
		c1.4-1.7,2.9-6.8,3.3-9.5c-0.3,0.1-0.5,0-0.7,0c-0.5,0-0.9-0.3-0.9-0.8v-1.9H147v1.4c0,0.8-1.2,1.3-3,1.3c-0.9,0-1.2-0.2-1.2-0.7
		l0-2h-3.7c-1.2,0-2.4,0.1-3.5,0.2c-0.5-0.7-0.5-0.8-0.5-0.8c0-0.1,0.1-0.2,0.3-0.2c1,0.1,2.3,0.1,3,0.1h4.6c0-0.4,0-0.9,0-1.4
		c0-0.6,0-1.2,0-1.7c0-0.2,0-0.2,0.2-0.2c1.1,0,3.7,0.4,4.2,0.6c0.3,0.2,0.5,0.4,0.5,0.6c0,0.3-0.2,0.5-0.7,0.8v1.3h4.2
		c0-1.3,0-2.2,0-3.1c0-0.2,0.1-0.3,0.3-0.3c0.9,0,2.9,0.2,3.7,0.4c0.7,0.2,1,0.4,1,0.8c0,0.3-0.3,0.6-0.8,0.8l0,1.3H158.7z
		 M160.1,35.5c1.2-2.1,2-2.9,2.4-2.9c0.8,0,2.7,2.2,2.7,3.1c0,0.4-0.3,0.6-1,0.6h-26.4c-0.7,0-1.5,0-2.2,0.1
		c-0.5-0.6-0.5-0.7-0.5-0.7c0-0.1,0.1-0.2,0.3-0.2c0.5,0,1.1,0.1,1.4,0.1h3.5c0-1.4,0-2.9,0-4.3c0-1.5,0-2.5-0.1-3.2v-0.1
		c0-0.2,0.1-0.3,0.2-0.3c0.2,0,0.9,0.1,2.1,0.4c1.3,0.3,1.3,0.3,1.4,0.5h11.6c1.1-1.8,1.2-1.9,1.7-1.9c0.4,0,0.8,0.3,1.9,1.1
		c0.9,0.6,1.3,1.2,1.3,1.6c0,0.3-0.2,0.4-0.9,0.8l0,5.3H160.1z M146.3,25.8c1.4-1.9,1.4-1.9,1.7-1.9c0.7,0,2.5,1.6,2.5,2.2
		c0,0.3-0.3,0.5-0.7,0.5h-9.6v0.1c0,0.7-1,1.3-2.4,1.3c-0.9,0-1.2-0.2-1.2-0.9c0-0.4,0-0.7,0.1-3.4c0-0.5,0-2.9,0-4.9
		c0-2.3,0-3.9,0-4.4v-0.2c0-0.2,0-0.2,0.2-0.2c0.4,0,2.2,0.4,2.9,0.7c0.4,0.2,0.6,0.3,0.8,0.5h5.5c1.1-1.3,1.5-1.7,1.8-1.7
		c0.3,0,0.5,0.2,1.4,0.9c0.7,0.5,0.9,0.8,0.9,1.1c0,0.3-0.2,0.4-0.6,0.4H145l0,2.7h0.7l0.6-0.8c0.3-0.4,0.5-0.5,0.8-0.5
		c0.4,0,0.6,0.1,2.2,1.2c0.5,0.3,0.6,0.5,0.6,0.7c0,0.2-0.1,0.4-0.5,0.6c-0.2,0.1-0.2,0.2-0.2,0.4l0,2.1c0,0.7-0.9,1.1-2.3,1.1
		c-0.8,0-1.1-0.1-1.1-0.7h-0.8l0,3.2H146.3z M141.9,18.5c0-0.6,0-1,0-1.3c0-0.3,0-0.7,0-1.3h-1.3c-0.4,0.1-0.4,0.3-0.4,1.1v1.6
		H141.9z M140.1,19.3v2.6h5.8v-2.6H140.1z M141.9,25.8c0-0.7,0-1.3,0-1.6c0-0.4,0-0.9,0-1.6h-1.8l0,3.2H141.9z M144,29.3
		c-0.2,0-0.3,0.3-0.3,1.5v4.7h1.8c0-1.2,0-1.7,0-2.4v-3.8H144z M149.2,29.3c0,0.1-0.1,0.2-0.2,0.2c-0.1,0.1-0.2,0.2-0.2,0.3
		c0,0.1,0,0.2-0.1,2.2l0,2.5c0,0.4,0,0.6,0,1h1.8c0-2,0-4.3,0-6.2H149.2z M157.8,24.5c0.1-0.2,0.4-0.8,1-1.6
		c0.5-0.8,0.7-1.1,1.1-1.1c0.5,0,1,0.4,2.2,1.7c0.5,0.5,0.6,0.9,0.6,1.2c0,0.3-0.3,0.5-0.6,0.5h-6.9c-0.8,0-1.7,0-2.6,0.2
		c-0.5-0.6-0.5-0.7-0.5-0.8c0-0.1,0.1-0.2,0.3-0.2c0.7,0.1,1.6,0.1,2,0.1H157.8z M154.3,29.3c0,0.1-0.1,0.2-0.3,0.3
		c-0.2,0.1-0.2,0.4-0.2,2.6v3.3h1.8c0-1.8,0-5.2,0-6.2H154.3z"/>
	<path d="M190.8,21.9c0.2,0.2,0.3,0.4,0.3,0.5c0,0.3-0.2,0.5-0.6,0.7c-0.3,2.5-0.9,4.6-1.9,6.2c-1.2,2-2.8,3.4-5.1,4.5
		c-0.8,0.4-2,0.8-3,1.1c-0.7,0.2-1.3,0.3-1.6,0.3c-0.1,0-0.2,0-0.2-0.1c0-0.1,0.1-0.2,0.6-0.3c0.8-0.3,1.7-0.9,2.5-1.4
		c1-0.8,1.9-1.7,2.5-2.6c1.4-2.1,2.3-5.2,2.3-8.2c0-1.4-0.1-1.7-0.6-2.4c-0.4,0-1.1,0.2-1.9,0.3c-0.9,0.2-2,0.4-2.8,0.7
		c-0.5,0.1-1.3,0.4-2,0.8c-0.3,0.1-0.4,0.2-0.6,0.2c-0.5,0-1.3-0.5-1.9-1.2c-0.6-0.7-1.1-1.5-1.1-2c0-0.1,0-0.1,0.1-0.1
		c0.1,0,0.1,0,0.4,0.1c0.7,0.2,1.2,0.3,1.9,0.3c0.5,0,2.2-0.2,4.8-0.5c2.3-0.3,5.2-0.7,8.3-1.2c1.3-0.2,1.7-0.3,2.6-0.6
		c0.3-0.1,0.4-0.2,0.8-0.3c0.3-0.1,0.5-0.1,0.6-0.1c0.5,0,2.3,0.7,3.4,1.4c0.6,0.4,1.1,0.9,1.1,1.4c0,0.5-0.6,1.2-1.2,1.2
		c-0.2,0-1.1-0.2-2.1-0.4c-1.6-0.3-2.5-0.4-4.1-0.4c-1.5,0-3.1,0.1-4.7,0.2C190.2,21.3,190.4,21.5,190.8,21.9z M190.4,13.8
		c-0.9,0-2.5,0.2-3.9,0.4c-1.3,0.2-2.4,0.4-3.1,0.6c-0.4,0.1-0.7,0.2-0.8,0.2c-0.5,0-1-0.3-1.7-1.2c-0.2-0.3-0.4-0.5-0.5-0.8
		c-0.2-0.3-0.3-0.4-0.3-0.5c0-0.1,0-0.1,0.1-0.1c0.1,0,0.4,0.1,0.5,0.1c0.4,0.1,1,0.2,1.3,0.2c0.8,0,2.2-0.2,3.7-0.5
		c1.5-0.3,3-0.7,3.9-1c0.8-0.4,0.9-0.4,1.2-0.4c0.5,0,1.2,0.3,2.3,0.8c0.8,0.4,1.2,0.8,1.2,1.4s-0.6,1-1.8,1c-0.4,0-0.4,0-1.4-0.1
		L190.4,13.8z M197.7,13.2c-0.4,0-0.7-0.1-1-0.4c-0.2-0.3-0.2-0.3-0.3-1c-0.2-0.9-0.9-2.1-1.5-2.6c-0.1-0.1-0.1-0.1-0.1-0.2
		c0-0.1,0.1-0.1,0.2-0.1c0.4,0,1.5,0.4,2.2,0.9c1,0.6,1.6,1.5,1.6,2.3C198.8,12.7,198.3,13.2,197.7,13.2z M199.9,10.8
		c-0.3-1-1.2-2.1-2.2-2.7c-0.2-0.1-0.3-0.2-0.3-0.3c0-0.1,0.1-0.1,0.2-0.1c0.5,0,1.1,0.1,1.8,0.4c1.8,0.6,2.8,1.6,2.8,2.6
		c0,0.7-0.5,1.2-1.1,1.2C200.5,11.9,200.2,11.7,199.9,10.8z"/>
	<path d="M220.8,18c2.9-0.2,3.5-0.3,4.4-0.4c0-0.4,0-0.9,0-1.3c0-0.6,0-1.2,0-1.7c0-1.7-0.2-3-0.5-3.3c-0.2-0.2-0.4-0.3-0.9-0.3
		c-0.1,0-0.2-0.1-0.2-0.2c0-0.1,0.2-0.3,0.4-0.5c0.4-0.3,1.1-0.6,1.5-0.6c0.5,0,1.3,0.3,2,0.7c1.3,0.9,1.8,1.4,1.8,1.9
		c0,0.1-0.1,0.3-0.2,0.4c-0.4,0.4-0.4,0.4-0.4,0.8c0,1.2,0,2.5,0,3.7c1.7-0.1,2.2-0.3,3.1-0.6c0.3-0.1,0.5-0.2,0.6-0.2
		c0.5,0,1.8,0.6,2.9,1.3c0.7,0.4,1,0.9,1,1.5c0,0.6-0.6,1-1.3,1c-0.2,0-0.8-0.1-2.4-0.5c-1.1-0.3-1.6-0.3-4-0.5c-0.2,4.9-0.3,6-1,8
		c-1.2,3.3-4.1,6-8.3,7.6c-1.1,0.4-2.1,0.7-2.4,0.7c-0.1,0-0.2-0.1-0.2-0.1c0-0.1,0.1-0.2,0.7-0.5c2.2-1.2,4.2-3,5.5-5
		c1.1-1.8,1.8-3.9,2.1-6.6c0.1-0.9,0.1-1.3,0.2-4c-0.6,0-1.1,0.1-1.3,0.1c-1.7,0.1-2,0.2-3.1,0.3l0.1,4c0,2.7-0.7,4.2-2,4.2
		c-0.4,0-0.6-0.2-0.9-0.8c-0.2-0.6-0.4-1.7-0.4-2.1c0-0.7,0.1-2.1,0.1-3.8c0-0.3,0-0.4,0-0.8c-2.3,0.5-3,0.8-4.3,1.3
		c-0.4,0.2-0.7,0.3-0.9,0.3c-0.4,0-0.9-0.4-1.3-1c-0.6-0.7-1.1-1.6-1.1-2.2c0-0.2,0.1-0.4,0.3-0.7c0.5,0.6,0.9,0.8,1.4,0.8
		c1.1,0,2-0.1,5.7-0.5c-0.2-2.8-0.3-3.5-0.5-3.9c-0.3-0.4-0.6-0.5-1.2-0.6c-0.2,0-0.3-0.1-0.3-0.2c0-0.1,0.4-0.4,0.9-0.5
		c0.5-0.2,1.1-0.4,1.4-0.4c0.5,0,1.2,0.3,2,0.7c1.1,0.6,1.5,1.1,1.5,1.5c0,0.3,0,0.3-0.5,1.2V18z M233.6,14c-0.4,0-0.7-0.2-0.9-0.5
		c-0.2-0.2-0.2-0.2-0.3-1c-0.2-0.9-0.8-2.1-1.5-2.6c-0.1-0.1-0.2-0.1-0.2-0.2c0-0.1,0.1-0.1,0.2-0.1c0.5,0,1.6,0.4,2.3,0.8
		c0.9,0.6,1.6,1.6,1.6,2.4C234.7,13.5,234.2,14,233.6,14z M235.4,11.4c-0.4-1-1.3-2.1-2.3-2.6c-0.3-0.2-0.3-0.2-0.3-0.3
		c0-0.1,0.1-0.1,0.3-0.1c0.6,0,1,0.1,1.8,0.3c1.9,0.6,2.9,1.5,2.9,2.6c0,0.7-0.5,1.2-1.1,1.2C236,12.4,235.8,12.2,235.4,11.4z"/>
	<path d="M260.8,25.8c0,1.9,0,1.9,0.2,4.2c0,0.8,0.1,1.6,0.1,2.2c0,1.1-0.1,1.6-0.3,2c-0.2,0.5-0.9,0.9-1.4,0.9
		c-0.8,0-1.4-0.6-1.9-1.7c-0.4-1-0.6-2.1-0.6-2.7c0-0.3,0-0.5,0.1-0.7c0.2-0.4,0.2-0.6,0.3-1c0.3-1.2,0.5-6.6,0.5-10.2
		c-0.3,0.3-0.3,0.3-0.9,0.8c-2,2-5.3,4-7.9,5c-0.7,0.3-1.7,0.5-2,0.5c-0.1,0-0.2,0-0.2-0.1c0-0.1,0.1-0.2,0.6-0.4
		c0.4-0.2,1.1-0.6,1.8-1.1c0.5-0.4,1.1-0.8,1.5-1.2c2.4-2.1,4.9-5.3,6.6-8.3c0.5-0.9,0.8-1.6,1-2.2c0.1-0.2,0.1-0.3,0.1-0.4
		c0-0.1-0.1-0.3-0.3-0.4c-0.2-0.1-0.4-0.3-0.5-0.3c-0.2-0.1-0.3-0.1-0.3-0.2c0-0.1,0.3-0.3,0.6-0.5c0.6-0.3,1.6-0.6,2.2-0.6
		c0.6,0,1.2,0.3,2.2,1.1c1.3,1.1,1.7,1.5,1.7,2c0,0.4-0.3,0.7-0.7,0.9c-0.6,0.3-0.8,0.5-1.6,1.4c-0.5,0.5-1.8,2-2.2,2.5
		c0.1,0.2,0.1,0.2,0.6,0.5c0.5,0.4,0.8,1.1,0.8,1.6c0,0.2,0,0.3-0.1,0.6c0,0.5,0,0.7,0,1.1V25.8z"/>
	<path d="M286.2,17.1c0,1.3-1,2.3-2.3,2.3c-0.3,0-0.7-0.1-1-0.2c-0.2-0.1-0.2-0.1-0.5-0.7c-0.7-1.3-2.9-3.2-4.1-3.6
		c-0.2-0.1-0.2-0.1-0.2-0.2c0-0.1,0.4-0.2,0.8-0.3c0.7-0.1,1.7-0.2,2.5-0.2C284.3,14.1,286.2,15.3,286.2,17.1z M284,31.1
		c-0.6,0.4-0.9,0.5-1.3,0.5c-0.4,0-0.9-0.2-1.5-0.6c-0.5-0.4-1.1-0.9-1.7-1.6c-0.7-0.8-1.1-1.4-1.1-2c0-0.9,0.5-1.9,1.1-2.1
		c0.3,1,1,1.4,2.3,1.4c0.4,0,3-0.8,3.9-1.2c3.2-1.4,7.6-3.9,10.8-6.1c0.8-0.6,1.7-1.3,2.9-2.4c0.5-0.5,0.6-0.5,0.7-0.5
		c0.1,0,0.2,0.1,0.2,0.2c0,0.1,0,0.1-0.1,0.3c-0.4,0.7-1.8,2.7-2.9,4c-1.4,1.6-3.1,3.1-5,4.7c-2.3,1.8-5,3.6-8.1,5.3L284,31.1z"/>
	<path d="M336.8,25.6c0.1-0.2,0.2-0.4,0.3-0.5c1-1.6,1.3-2.1,1.7-2.1c0.8,0,2.7,2,2.7,2.7c0,0.4-0.3,0.5-1.3,0.5h-3.9
		c0.1,2.2,0.1,2.5,0.1,3.3c0,0.4,0,0.7,0,1c0,0.8-0.4,1.2-1.4,1.5c-0.5,0.2-1.1,0.3-1.7,0.3c-0.8,0-1.1-0.1-1.3-0.4
		c-0.1-0.2-0.1-0.4-0.1-2.1h-3.9c0,0.7,0,0.7,0.1,2.2v0.2c0,1.6-0.3,2.4-1.1,3.1c-0.8,0.8-1.9,1.2-3.4,1.2c-1.1,0-1.5-0.3-1.6-1.1
		c-0.1-0.8-0.3-1-1.3-1.7c-0.5-0.3-1-0.6-1.4-0.8c-0.2-0.1-0.3-0.2-0.3-0.3c0-0.1,0.1-0.2,0.4-0.2c0.2,0,1.1,0.1,1.4,0.1
		c1.6,0,2.3-0.2,2.6-0.6c0.2-0.3,0.2-0.6,0.2-2.1h-7.3c-0.6,0-1.2,0-1.8,0.1c-0.5-0.6-0.5-0.7-0.5-0.8c0-0.1,0.1-0.2,0.3-0.2
		c0.5,0.1,1.1,0.1,1.4,0.1h8v-3h-10.4c-0.6,0-1.2,0-1.7,0.1c-0.5-0.6-0.5-0.7-0.5-0.8c0-0.1,0.1-0.2,0.3-0.2c0.7,0.1,1.6,0.1,2,0.1
		h10.3v-3H316c-0.6,0-1.3,0-1.9,0.1c-0.5-0.6-0.5-0.6-0.5-0.7c0-0.1,0.1-0.2,0.3-0.2c0.5,0,1.1,0.1,1.4,0.1h8.3V19h-3.9v0.3
		c0,0.9-0.9,1.4-2.7,1.4c-1.2,0-1.7-0.3-1.6-0.8c0.1-1.3,0.1-3.4,0.1-4.8v-1.9c0-0.1,0-0.2,0.1-0.2c0.5,0,2,0.2,3.2,0.5
		c1,0.3,1.3,0.4,1.6,0.7h3.2v-2.6h-10.2c-0.4,0-0.9,0-1.4,0.1c-0.5-0.6-0.5-0.6-0.5-0.7c0-0.1,0.1-0.2,0.3-0.2
		c0.6,0,1.4,0.1,1.8,0.1h10c0-1.4-0.1-2.9-0.1-3.7c0-0.2,0-0.2,0.4-0.2c0.6,0,3,0.3,3.6,0.5c0.8,0.2,1.2,0.5,1.2,1
		c0,0.1-0.1,0.5-0.8,1c0,0.5,0,0.8-0.1,1.5h6.3c0.4-0.4,0.4-0.4,1.5-1.8c0.5-0.6,0.8-0.9,1.2-0.9c0.4,0,1.2,0.4,2.2,1.2
		c0.9,0.7,1.4,1.3,1.4,1.7c0,0.4-0.3,0.6-1.1,0.6h-11.6v2.6h3.8c0.2-0.2,0.2-0.2,0.5-0.6c0.5-0.6,0.9-0.9,1.2-0.9
		c0.5,0,1.4,0.4,2.6,1.1c0.9,0.5,1.2,0.8,1.2,1.1c0,0.2-0.1,0.3-0.5,0.6c-0.2,0.1-0.3,0.3-0.3,0.4c0,0.1,0,0.1,0,0.2
		c0,0.5,0.2,2.1,0.2,2.4v0.2c0,0.6-0.2,0.9-1,1.2c-0.6,0.3-1.4,0.4-2.5,0.4c-0.9,0-1.2-0.2-1.2-0.8V19h-3.9l0,2.9h3.7
		c1.2-1.2,1.4-1.4,1.9-1.4c0.4,0,0.7,0.2,2.2,0.9c0.9,0.4,1.2,0.7,1.2,1c0,0.1,0,0.2-0.1,0.3c-0.3,0.3-0.4,0.4-0.5,0.5v0.4
		c0,0.3,0,0.3,0,0.8v1.1H336.8z M320.3,14.9c-0.6,0-0.8,0.2-0.8,1.2v2.2h4v-3.4H320.3z M331.7,15.2c0-0.3,0-0.4-0.4-0.4h-3.6
		l0.1,3.4h3.9V15.2z M331.8,23.3c0-0.5-0.1-0.7-0.4-0.7h-3.6l0,3h4V23.3z M327.8,26.4l0.1,3h3.9v-3H327.8z"/>
	<path d="M359.1,17.6c0.9-1.1,1.2-1.4,1.6-1.4c0.6,0,1.8,0.7,3,1.9c0.4,0.4,0.7,1,0.7,1.3c0,0.5-0.4,0.8-1.3,0.9
		c-1.1,0.1-2,0.6-3.4,2c-0.1,0.1-0.2,0.2-0.3,0.2s-0.2,0-0.2-0.1c0-0.1,0-0.2,0.1-0.3c0.2-0.7,0.4-2,0.7-3.7h-2.4
		c0.7,0.2,1,0.3,1,0.5c0,0.1-0.1,0.3-0.5,0.5l0.2,13.4c0,1.4-0.4,2.2-1.6,3c-0.8,0.5-1.7,0.8-2.6,0.8c-0.7,0-1.1-0.2-1.1-0.8
		c-0.1-1.1-0.7-1.9-2.2-2.5c-0.2-0.1-0.2-0.1-0.2-0.2c0-0.1,0-0.1,1-0.1c1.4,0,2.2-0.1,2.5-0.4c0.3-0.3,0.3-0.6,0.3-6.3
		c-1.4,2-2.6,3.1-4.3,4.3c-0.7,0.5-1.4,0.9-1.5,0.9c-0.1,0-0.2-0.1-0.2-0.2c0-0.1,0.1-0.2,0.1-0.3c2.5-2.7,5-8.3,5.6-12.7H351
		c-0.5,0-1,0-1.4,0.1c-0.4-0.5-0.4-0.6-0.4-0.7c0-0.1,0.1-0.2,0.3-0.2c0.5,0,1.2,0.1,1.5,0.1H359.1z M356.7,9.2
		c1.4-1.5,1.6-1.6,1.9-1.6c0.4,0,0.8,0.2,1.4,0.6c1.5,1.1,2.3,2,2.3,2.7c0,0.5-0.4,0.8-1.2,0.8c-1.3,0.1-1.8,0.2-2.7,0.7
		c-0.6,0.4-1.2,0.7-1.8,1c0.8,0.6,1.3,1.4,1.3,2.2c0,1-1,1.8-2.4,1.8c-1.2,0-1.6-0.4-1.8-1.8c-0.2-1-0.3-1.4-0.6-1.9
		c-0.3-0.5-1.2-1.4-1.6-1.6c-0.2-0.1-0.3-0.2-0.3-0.3c0-0.1,0.1-0.1,0.2-0.1c0.8,0,2.5,0.5,4.4,1.2c0.4-0.9,0.8-1.9,1.2-3h-5.6
		c-0.4,0-1,0-1.4,0.1c-0.4-0.5-0.5-0.6-0.5-0.7c0-0.1,0.1-0.2,0.3-0.2c0.5,0.1,1.2,0.1,1.5,0.1H356.7z M373.1,12.2
		c0.1,0.1,0.1,0.1,0.6,0.3c0.9,0.3,1.4,0.7,1.4,1c0,0.3-0.3,0.4-0.8,0.6c-1.1,1.7-1.7,2.5-2.9,3.8c1.9,1,4.9,1.7,8,2
		c0.3,0,0.4,0.1,0.4,0.2c0,0.2-0.1,0.2-0.3,0.4c-0.9,0.5-2.3,2.2-2.8,3.3c-0.1,0.3-0.3,0.4-0.7,0.4c-0.7,0-2.2-0.5-3.3-1.1
		c-1.5-0.8-2.5-1.5-3.8-2.7c-0.6,0.4-1.3,0.9-2.2,1.5c1,0.1,2.6,0.4,3.7,0.7c0.6,0.2,0.9,0.4,0.9,0.7c0,0.3-0.1,0.4-0.9,0.8
		l-0.3,1.8h2.3c0.1-0.1,0.1-0.1,0.3-0.4c0.7-0.8,1-1,1.3-1c0.4,0,1.8,0.8,2.8,1.6c0.5,0.4,0.8,0.8,0.8,1.1c0,0.3-0.3,0.5-0.8,0.7
		c-0.5,7.3-2,8.9-6,8.9c-0.7,0-1-0.2-1.2-0.6c-0.4-1.4-0.5-1.6-2-2.4c-0.3-0.2-0.4-0.2-0.4-0.3s0.1-0.2,0.2-0.2s0.3,0,0.6,0.1
		c0.5,0.1,1,0.1,1.4,0.1c1.3,0,2-0.6,2.6-2.3c0.4-1.1,0.7-3,0.8-4.5h-2.7c-0.9,4-1.8,5.8-4.2,7.4c-1.5,1-3,1.6-5.6,2.3
		c-1.2,0.3-2.4,0.5-3,0.5c-0.2,0-0.3-0.1-0.3-0.2c0-0.1,0.1-0.2,0.4-0.3c1.9-0.4,4.1-1.5,5.5-2.9c1.7-1.6,2.7-3.7,3.2-6.7h-3.7
		c-0.5,0-1,0-1.4,0.1c-0.5-0.5-0.5-0.6-0.5-0.6c0-0.1,0.1-0.2,0.3-0.2c0.5,0,1.2,0.1,1.5,0.1h3.9c0.1-0.8,0.3-3,0.3-3.4
		c0-0.1,0-0.1,0-0.3c-1.1,0.7-2.3,1.2-3.7,1.7c-1.1,0.4-3.3,0.9-3.8,0.9c-0.1,0-0.2-0.1-0.2-0.2c0-0.1,0.1-0.2,0.4-0.3
		c3.1-0.9,6.4-3.3,8.4-6.3c-0.7-1.6-0.9-2.2-1.5-5.6c-1.1,1.3-2.1,2.3-2.9,3c-0.9,0.6-1.6,1.1-1.8,1.1c-0.1,0-0.1,0-0.1-0.1
		c0-0.1,0-0.1,0.1-0.3c1.2-1.7,2.5-6,2.8-8.9c0-0.4,0.1-0.5,0.2-0.5c0.1,0,0.6,0.1,0.8,0.2c3.5,0.9,4.4,1.3,4.4,2
		c0,0.4-0.3,0.6-1.3,0.9c-0.3,0.4-0.3,0.4-0.7,1c-0.4,0.5-0.4,0.5-0.8,0.9h6.6c1.2-1.9,1.8-2.7,2.3-2.7c0.4,0,1.2,0.5,2.3,1.5
		c0.7,0.7,0.9,1,0.9,1.5c0,0.3-0.3,0.4-1,0.4H373.1z M366.5,12.2c0.4,1.8,1,2.9,2.1,4c0.8-1.5,1.1-2.1,1.7-4H366.5z"/>
	<path d="M396.6,16.1c1.2-1.5,1.3-1.7,1.7-1.7c0.4,0,1.1,0.4,2.7,1.5c0.6,0.5,0.8,0.7,0.8,1c0,0.3-0.2,0.6-0.9,1
		c0,0.1,0.1,1.8,0.2,5l0,1c0,0.6-0.2,0.9-0.5,1.2c-0.6,0.4-1.6,0.6-2.4,0.6c-0.6,0-1-0.1-1.2-0.3c-0.1-0.2-0.1-0.2-0.1-1.3h-3.5
		c-0.1,4.2-0.7,6.2-2.6,8.8c-1,1.3-3.2,3.2-3.9,3.2c-0.1,0-0.2-0.1-0.2-0.2c0-0.1,0.1-0.1,0.4-0.4c0.9-0.8,1.7-2.4,2.1-4.2
		c0.3-1.5,0.4-2.8,0.4-5.1c0-2.7-0.3-9.3-0.4-11c0-0.1,0.1-0.2,0.2-0.2c1,0,3.6,0.7,4.2,1.1H396.6z M396.2,10.3
		c0.3-0.4,0.3-0.4,1.3-1.9c0.5-0.7,0.7-0.9,1.1-0.9c0.4,0,1,0.4,2.1,1.3c0.9,0.8,1.3,1.3,1.3,1.7c0,0.4-0.3,0.6-1.1,0.6h-11.3
		c-0.4,0-0.9,0-1.4,0.1c-0.5-0.6-0.5-0.6-0.5-0.7c0-0.1,0.1-0.2,0.3-0.2c0.6,0.1,1.4,0.1,1.8,0.1H396.2z M396.9,17.2
		c0-0.3-0.1-0.4-0.3-0.4h-2.9l-0.1,0.1c-0.2,0.2-0.2,0.3-0.2,0.8l0.1,5.6h3.5V17.2z M411.5,18c1.7-3,1.9-3.3,2.4-3.3
		c0.4,0,1.3,0.6,2.3,1.7c0.9,0.9,1.2,1.3,1.2,1.8c0,0.3-0.3,0.6-0.7,0.6h-3.2c0.4,0.1,0.6,0.3,0.6,0.5c0,0.2-0.1,0.3-0.3,0.4
		c-0.2,0.1-0.3,0.2-0.5,0.4c0,0.6,0,0.6,0.1,2.4c0,1.2,0.4,8.7,0.4,10c0,1.5,0.1,2.5,0.1,2.6c0,1-1.2,1.6-3.1,1.6
		c-1.3,0-1.5-0.2-1.5-1.2c0-0.4,0-0.7,0-1.5c0.1-1.7,0.2-8,0.2-11.3c0-1.4,0-2.2-0.1-3.9h-2.4c-0.1,7-0.4,9.3-1.9,11.6
		c-1.3,2-3.8,4-6.8,5.3c-1,0.4-2,0.8-2.4,0.8c-0.1,0-0.2-0.1-0.2-0.2c0-0.2,0-0.2,0.9-0.6c1.6-0.7,3.5-2.4,4.4-3.9
		c0.9-1.4,1.5-3,1.8-5.2c0.2-1.4,0.3-2.9,0.3-6.7c0-1.4-0.2-7.5-0.2-9c0-0.6-0.1-1.4-0.1-1.7c0-0.1,0.1-0.2,0.2-0.2
		c1.2,0,3.3,0.6,4.5,1.4c2.3-1.2,3.2-1.7,5.3-3.2c3.1,1.8,4.1,2.7,4.1,3.5c0,0.5-0.3,0.7-1.2,0.7c-0.3,0-0.7,0-1.4,0
		c-4,0.2-6.5,0.3-7.3,0.3c-0.2,0.2-0.2,0.4-0.2,0.6V18H411.5z"/>
</g>
</svg>
