<?xml version="1.0" encoding="utf-8"?>
<!-- Generator: Adobe Illustrator 25.4.1, SVG Export Plug-In . SVG Version: 6.00 Build 0)  -->
<svg version="1.1" id="レイヤー_1" xmlns="http://www.w3.org/2000/svg" xmlns:xlink="http://www.w3.org/1999/xlink" x="0px"
	 y="0px" viewBox="0 0 841.9 481.8" style="enable-background:new 0 0 841.9 481.8;" xml:space="preserve">
<style type="text/css">
	.st0{fill:#015287;}
</style>
<g>
	<path class="st0" d="M355.1,107.4V85.7c0-7.4-6-13.4-13.4-13.4h-56.8v30c0,7.4,6,13.4,13.4,13.4h56.8h8.3
		C358.8,115.7,355.1,112,355.1,107.4z"/>
	<path d="M407,90.8c1.3-1.6,1.3-1.6,1.5-1.8c0.5-0.7,0.9-0.9,1.2-0.9c0.9,0,3.2,2.2,3.2,3c0,0.3-0.3,0.5-0.9,0.5H385
		c-0.4,0-0.9,0-1.4,0.1c-0.4-0.5-0.5-0.6-0.5-0.7c0-0.1,0.1-0.2,0.3-0.2c0.6,0,1.4,0.1,1.8,0.1h10.3v-3h-6.2c-0.4,0-0.9,0-1.4,0.1
		c-0.4-0.5-0.5-0.6-0.5-0.7c0-0.1,0.1-0.2,0.3-0.2c0.6,0,1.4,0.1,1.8,0.1h6l0-2.9H387c-0.5,0-1.1,0-1.6,0c-0.5-0.5-0.5-0.6-0.5-0.6
		c0-0.1,0.1-0.2,0.3-0.2c0.6,0,1.4,0.1,1.8,0.1h8.5c0-1.6,0-2.9,0-3.3c0-0.5,0-0.5,0.3-0.5c0.8,0,3.5,0.4,4.4,0.6
		c0.5,0.1,0.8,0.4,0.8,0.8c0,0.3,0,0.3-1,0.9l0,1.5h5.4c1.3-2,2-2.7,2.4-2.7c0.5,0,1.4,0.5,2.6,1.6c0.6,0.6,0.9,1,0.9,1.3
		c0,0.3-0.3,0.5-0.7,0.5h-10.6V87h3.3c1.3-1.7,1.8-2.2,2.2-2.2c0.8,0,3.1,1.9,3.1,2.5c0,0.4-0.2,0.5-0.9,0.5h-7.7v3H407z M402.7,94
		c0.9-1.3,1.3-1.7,1.6-1.7c0.4,0,2,0.8,3,1.6c0.5,0.4,0.6,0.6,0.6,0.9c0,0.3-0.1,0.4-0.8,1c0,0.9,0,0.9,0,1.9c0.1,2,0.1,2.2,0.1,3.6
		c0,1.4,0,1.4,0.1,3.7v0.4c0,1.2-0.3,1.8-1.1,2.5c-0.9,0.8-2,1.3-3.3,1.3c-0.5,0-1-0.1-1.2-0.3c-0.1-0.1-0.1-0.1-0.4-0.9
		c-0.3-0.9-0.6-1.2-2.4-2.2c-0.2-0.1-0.3-0.2-0.3-0.2c0-0.1,0-0.2,0.2-0.2c0.1,0,0.1,0,0.4,0c0.5,0.1,1,0.1,1.3,0.1
		c0.9,0,1.6-0.1,1.9-0.3c0.4-0.3,0.4-0.3,0.4-3.6h-10.2c0,2,0,2.2,0,3.7c0,1,0,1.1,0,1.4c0,1-0.1,1.3-0.5,1.5
		c-0.5,0.3-1.5,0.5-2.3,0.5c-0.9,0-1.3-0.3-1.3-0.8c0-0.3,0-0.4,0.1-2.2c0.1-2.1,0.2-8.1,0.2-9.5v-3.1c0-0.3,0-0.4,0.2-0.4
		c0.4,0,1.4,0.2,2.5,0.5c1.1,0.3,1.3,0.4,1.7,0.8H402.7z M403,97.5c0-2.5,0-2.5,0-2.6c0-0.1-0.1-0.2-0.3-0.2h-9.3
		c-0.4,0.2-0.5,0.3-0.5,0.6v2.2H403z M392.8,98.2v2.7H403v-2.7H392.8z"/>
	<path d="M443.7,82.7c1.3-2.2,1.9-2.7,2.4-2.7c0.9,0,3.5,2.1,3.5,2.9c0,0.3-0.4,0.6-0.7,0.6h-8.4v1.4c0,0.6-0.6,1.1-2,1.2
		c3,0.6,4,0.9,4,1.4c0,0.6-0.4,0.8-1,1.1c-0.5,0.7-0.8,1.3-1.4,2.1h3.7c1.5-2.2,1.8-2.5,2.2-2.5c0.9,0,3,2,3,2.8
		c0,0.4-0.3,0.5-1.2,0.5h-8.3c-1.3,1.8-2.2,2.7-3.5,3.8c-0.8,0.6-1.2,0.9-1.4,0.9c-0.1,0-0.2,0-0.2-0.1c0-0.1,0-0.1,0.2-0.3
		c1.4-1.7,2.9-6.8,3.3-9.5c-0.3,0.1-0.5,0-0.7,0c-0.5,0-0.9-0.3-0.9-0.8v-1.9H432v1.4c0,0.8-1.2,1.3-3,1.3c-0.9,0-1.2-0.2-1.2-0.7
		l0-2h-3.7c-1.2,0-2.4,0.1-3.5,0.2c-0.5-0.7-0.5-0.8-0.5-0.8c0-0.1,0.1-0.2,0.3-0.2c1,0.1,2.3,0.1,3,0.1h4.6c0-0.4,0-0.9,0-1.4
		c0-0.6,0-1.2,0-1.7c0-0.2,0-0.2,0.2-0.2c1.1,0,3.7,0.4,4.2,0.6c0.3,0.2,0.5,0.4,0.5,0.6c0,0.3-0.2,0.5-0.7,0.8v1.3h4.2
		c0-1.3,0-2.2,0-3.1c0-0.2,0.1-0.3,0.3-0.3c0.9,0,2.9,0.2,3.7,0.4c0.7,0.2,1,0.4,1,0.8c0,0.3-0.3,0.6-0.8,0.8l0,1.3H443.7z
		 M445,107.8c1.2-2.1,2-2.9,2.4-2.9c0.8,0,2.7,2.2,2.7,3.1c0,0.4-0.3,0.6-1,0.6h-26.4c-0.7,0-1.5,0-2.2,0.1
		c-0.5-0.6-0.5-0.7-0.5-0.7c0-0.1,0.1-0.2,0.3-0.2c0.5,0,1.1,0.1,1.4,0.1h3.5c0-1.4,0-2.9,0-4.3c0-1.5,0-2.5-0.1-3.2v-0.1
		c0-0.2,0.1-0.3,0.2-0.3c0.2,0,0.9,0.1,2.1,0.4c1.3,0.3,1.3,0.3,1.4,0.5h11.6c1.1-1.8,1.2-1.9,1.7-1.9c0.4,0,0.8,0.3,1.9,1.1
		c0.9,0.6,1.3,1.2,1.3,1.6c0,0.3-0.2,0.4-0.9,0.8l0,5.3H445z M431.3,98.1c1.4-1.9,1.4-1.9,1.7-1.9c0.7,0,2.5,1.6,2.5,2.2
		c0,0.3-0.3,0.5-0.7,0.5h-9.6V99c0,0.7-1,1.3-2.4,1.3c-0.9,0-1.2-0.2-1.2-0.9c0-0.4,0-0.7,0.1-3.4c0-0.5,0-2.9,0-4.9
		c0-2.3,0-3.9,0-4.4v-0.2c0-0.2,0-0.2,0.2-0.2c0.4,0,2.2,0.4,2.9,0.7c0.4,0.2,0.6,0.3,0.8,0.5h5.5c1.1-1.3,1.5-1.7,1.8-1.7
		c0.3,0,0.5,0.2,1.4,0.9c0.7,0.5,0.9,0.8,0.9,1.1c0,0.3-0.2,0.4-0.6,0.4H430l0,2.7h0.7l0.6-0.8c0.3-0.4,0.5-0.5,0.8-0.5
		c0.4,0,0.6,0.1,2.2,1.2c0.5,0.3,0.6,0.5,0.6,0.7c0,0.2-0.1,0.4-0.5,0.6c-0.2,0.1-0.2,0.2-0.2,0.4l0,2.1c0,0.7-0.9,1.1-2.3,1.1
		c-0.8,0-1.1-0.1-1.1-0.7h-0.8l0,3.2H431.3z M426.8,90.9c0-0.6,0-1,0-1.3c0-0.3,0-0.7,0-1.3h-1.3c-0.4,0.1-0.4,0.3-0.4,1.1v1.6
		H426.8z M425.1,91.6v2.6h5.8v-2.6H425.1z M426.8,98.1c0-0.7,0-1.3,0-1.6c0-0.4,0-0.9,0-1.6h-1.8l0,3.2H426.8z M428.9,101.6
		c-0.2,0-0.3,0.3-0.3,1.5v4.7h1.8c0-1.2,0-1.7,0-2.4v-3.8H428.9z M434.1,101.6c0,0.1-0.1,0.2-0.2,0.2c-0.1,0.1-0.2,0.2-0.2,0.3
		c0,0.1,0,0.2-0.1,2.2l0,2.5c0,0.4,0,0.6,0,1h1.8c0-2,0-4.3,0-6.2H434.1z M442.7,96.9c0.1-0.2,0.4-0.8,1-1.6
		c0.5-0.8,0.7-1.1,1.1-1.1c0.5,0,1,0.4,2.2,1.7c0.5,0.5,0.6,0.9,0.6,1.2c0,0.3-0.3,0.5-0.6,0.5h-6.9c-0.8,0-1.7,0-2.6,0.2
		c-0.5-0.6-0.5-0.7-0.5-0.8c0-0.1,0.1-0.2,0.3-0.2c0.7,0.1,1.6,0.1,2,0.1H442.7z M439.3,101.6c0,0.1-0.1,0.2-0.3,0.3
		c-0.2,0.1-0.2,0.4-0.2,2.6v3.3h1.8c0-1.8,0-5.2,0-6.2H439.3z"/>
	<path d="M475.8,94.2c0.2,0.2,0.3,0.4,0.3,0.5c0,0.3-0.2,0.5-0.6,0.7c-0.3,2.5-0.9,4.6-1.9,6.2c-1.2,2-2.8,3.4-5.1,4.5
		c-0.8,0.4-2,0.8-3,1.1c-0.7,0.2-1.3,0.3-1.6,0.3c-0.1,0-0.2,0-0.2-0.1c0-0.1,0.1-0.2,0.6-0.3c0.8-0.3,1.7-0.9,2.5-1.4
		c1-0.8,1.9-1.7,2.5-2.6c1.4-2.1,2.3-5.2,2.3-8.2c0-1.4-0.1-1.7-0.6-2.4c-0.4,0-1.1,0.2-1.9,0.3c-0.9,0.2-2,0.4-2.8,0.7
		c-0.5,0.1-1.3,0.4-2,0.8c-0.3,0.1-0.4,0.2-0.6,0.2c-0.5,0-1.3-0.5-1.9-1.2c-0.6-0.7-1.1-1.5-1.1-2c0-0.1,0-0.1,0.1-0.1
		c0.1,0,0.1,0,0.4,0.1c0.7,0.2,1.2,0.3,1.9,0.3c0.5,0,2.2-0.2,4.8-0.5c2.3-0.3,5.2-0.7,8.3-1.2c1.3-0.2,1.7-0.3,2.6-0.6
		c0.3-0.1,0.4-0.2,0.8-0.3c0.3-0.1,0.5-0.1,0.6-0.1c0.5,0,2.3,0.7,3.4,1.4c0.6,0.4,1.1,0.9,1.1,1.4c0,0.5-0.6,1.2-1.2,1.2
		c-0.2,0-1.1-0.2-2.1-0.4c-1.6-0.3-2.5-0.4-4.1-0.4c-1.5,0-3.1,0.1-4.7,0.2C475.2,93.7,475.3,93.8,475.8,94.2z M475.3,86.1
		c-0.9,0-2.5,0.2-3.9,0.4c-1.3,0.2-2.4,0.4-3.1,0.6c-0.4,0.1-0.7,0.2-0.8,0.2c-0.5,0-1-0.3-1.7-1.2c-0.2-0.3-0.4-0.5-0.5-0.8
		c-0.2-0.3-0.3-0.4-0.3-0.5c0-0.1,0-0.1,0.1-0.1c0.1,0,0.4,0.1,0.5,0.1c0.4,0.1,1,0.2,1.3,0.2c0.8,0,2.2-0.2,3.7-0.5
		c1.5-0.3,3-0.7,3.9-1c0.8-0.4,0.9-0.4,1.2-0.4c0.5,0,1.2,0.3,2.3,0.8c0.8,0.4,1.2,0.8,1.2,1.4s-0.6,1-1.8,1c-0.4,0-0.4,0-1.4-0.1
		L475.3,86.1z M482.6,85.5c-0.4,0-0.7-0.1-1-0.4c-0.2-0.3-0.2-0.3-0.3-1c-0.2-0.9-0.9-2.1-1.5-2.6c-0.1-0.1-0.1-0.1-0.1-0.2
		c0-0.1,0.1-0.1,0.2-0.1c0.4,0,1.5,0.4,2.2,0.9c1,0.6,1.6,1.5,1.6,2.3C483.7,85,483.3,85.5,482.6,85.5z M484.8,83.2
		c-0.3-1-1.2-2.1-2.2-2.7c-0.2-0.1-0.3-0.2-0.3-0.3c0-0.1,0.1-0.1,0.2-0.1c0.5,0,1.1,0.1,1.8,0.4c1.8,0.6,2.8,1.6,2.8,2.6
		c0,0.7-0.5,1.2-1.1,1.2C485.4,84.2,485.1,84,484.8,83.2z"/>
	<path d="M505.8,90.3c2.9-0.2,3.5-0.3,4.4-0.4c0-0.4,0-0.9,0-1.3c0-0.6,0-1.2,0-1.7c0-1.7-0.2-3-0.5-3.3c-0.2-0.2-0.4-0.3-0.9-0.3
		c-0.1,0-0.2-0.1-0.2-0.2c0-0.1,0.2-0.3,0.4-0.5c0.4-0.3,1.1-0.6,1.5-0.6c0.5,0,1.3,0.3,2,0.7c1.3,0.9,1.8,1.4,1.8,1.9
		c0,0.1-0.1,0.3-0.2,0.4c-0.4,0.4-0.4,0.4-0.4,0.8c0,1.2,0,2.5,0,3.7c1.7-0.1,2.2-0.3,3.1-0.6c0.3-0.1,0.5-0.2,0.6-0.2
		c0.5,0,1.8,0.6,2.9,1.3c0.7,0.4,1,0.9,1,1.5c0,0.6-0.6,1-1.3,1c-0.2,0-0.8-0.1-2.4-0.5c-1.1-0.3-1.6-0.3-4-0.5c-0.2,4.9-0.3,6-1,8
		c-1.2,3.3-4.1,6-8.3,7.6c-1.1,0.4-2.1,0.7-2.4,0.7c-0.1,0-0.2-0.1-0.2-0.1c0-0.1,0.1-0.2,0.7-0.5c2.2-1.2,4.2-3,5.5-5
		c1.1-1.8,1.8-3.9,2.1-6.6c0.1-0.9,0.1-1.3,0.2-4c-0.6,0-1.1,0.1-1.3,0.1c-1.7,0.1-2,0.2-3.1,0.3l0.1,4c0,2.7-0.7,4.2-2,4.2
		c-0.4,0-0.6-0.2-0.9-0.8c-0.2-0.6-0.4-1.7-0.4-2.1c0-0.7,0.1-2.1,0.1-3.8c0-0.3,0-0.4,0-0.8c-2.3,0.5-3,0.8-4.3,1.3
		c-0.4,0.2-0.7,0.3-0.9,0.3c-0.4,0-0.9-0.4-1.3-1c-0.6-0.7-1.1-1.6-1.1-2.2c0-0.2,0.1-0.4,0.3-0.7c0.5,0.6,0.9,0.8,1.4,0.8
		c1.1,0,2-0.1,5.7-0.5c-0.2-2.8-0.3-3.5-0.5-3.9c-0.3-0.4-0.6-0.5-1.2-0.6c-0.2,0-0.3-0.1-0.3-0.2c0-0.1,0.4-0.4,0.9-0.5
		c0.5-0.2,1.1-0.4,1.4-0.4c0.5,0,1.2,0.3,2,0.7c1.1,0.6,1.5,1.1,1.5,1.5c0,0.3,0,0.3-0.5,1.2V90.3z M518.5,86.3
		c-0.4,0-0.7-0.2-0.9-0.5c-0.2-0.2-0.2-0.2-0.3-1c-0.2-0.9-0.8-2.1-1.5-2.6c-0.1-0.1-0.2-0.1-0.2-0.2c0-0.1,0.1-0.1,0.2-0.1
		c0.5,0,1.6,0.4,2.3,0.8c0.9,0.6,1.6,1.6,1.6,2.4C519.6,85.9,519.2,86.3,518.5,86.3z M520.4,83.7c-0.4-1-1.3-2.1-2.3-2.6
		c-0.3-0.2-0.3-0.2-0.3-0.3c0-0.1,0.1-0.1,0.3-0.1c0.6,0,1,0.1,1.8,0.3c1.9,0.6,2.9,1.5,2.9,2.6c0,0.7-0.5,1.2-1.1,1.2
		C521,84.8,520.7,84.5,520.4,83.7z"/>
	<path d="M545.7,98.1c0,1.9,0,1.9,0.2,4.2c0,0.8,0.1,1.6,0.1,2.2c0,1.1-0.1,1.6-0.3,2c-0.2,0.5-0.9,0.9-1.4,0.9
		c-0.8,0-1.4-0.6-1.9-1.7c-0.4-1-0.6-2.1-0.6-2.7c0-0.3,0-0.5,0.1-0.7c0.2-0.4,0.2-0.6,0.3-1c0.3-1.2,0.5-6.6,0.5-10.2
		c-0.3,0.3-0.3,0.3-0.9,0.8c-2,2-5.3,4-7.9,5c-0.7,0.3-1.7,0.5-2,0.5c-0.1,0-0.2,0-0.2-0.1c0-0.1,0.1-0.2,0.6-0.4
		c0.4-0.2,1.1-0.6,1.8-1.1c0.5-0.4,1.1-0.8,1.5-1.2c2.4-2.1,4.9-5.3,6.6-8.3c0.5-0.9,0.8-1.6,1-2.2c0.1-0.2,0.1-0.3,0.1-0.4
		c0-0.1-0.1-0.3-0.3-0.4c-0.2-0.1-0.4-0.3-0.5-0.3c-0.2-0.1-0.3-0.1-0.3-0.2c0-0.1,0.3-0.3,0.6-0.5c0.6-0.3,1.6-0.6,2.2-0.6
		c0.6,0,1.2,0.3,2.2,1.1c1.3,1.1,1.7,1.5,1.7,2c0,0.4-0.3,0.7-0.7,0.9c-0.6,0.3-0.8,0.5-1.6,1.4c-0.5,0.5-1.8,2-2.2,2.5
		c0.1,0.2,0.1,0.2,0.6,0.5c0.5,0.4,0.8,1.1,0.8,1.6c0,0.2,0,0.3-0.1,0.6c0,0.5,0,0.7,0,1.1V98.1z"/>
	<path d="M571.2,89.4c0,1.3-1,2.3-2.3,2.3c-0.3,0-0.7-0.1-1-0.2c-0.2-0.1-0.2-0.1-0.5-0.7c-0.7-1.3-2.9-3.2-4.1-3.6
		c-0.2-0.1-0.2-0.1-0.2-0.2c0-0.1,0.4-0.2,0.8-0.3c0.7-0.1,1.7-0.2,2.5-0.2C569.2,86.4,571.2,87.6,571.2,89.4z M568.9,103.4
		c-0.6,0.4-0.9,0.5-1.3,0.5c-0.4,0-0.9-0.2-1.5-0.6c-0.5-0.4-1.1-0.9-1.7-1.6c-0.7-0.8-1.1-1.4-1.1-2c0-0.9,0.5-1.9,1.1-2.1
		c0.3,1,1,1.4,2.3,1.4c0.4,0,3-0.8,3.9-1.2c3.2-1.4,7.6-3.9,10.8-6.1c0.8-0.6,1.7-1.3,2.9-2.4c0.5-0.5,0.6-0.5,0.7-0.5
		s0.2,0.1,0.2,0.2c0,0.1,0,0.1-0.1,0.3c-0.4,0.7-1.8,2.7-2.9,4c-1.4,1.6-3.1,3.1-5,4.7c-2.3,1.8-5,3.6-8.1,5.3L568.9,103.4z"/>
	<path d="M621.7,97.9c0.1-0.2,0.2-0.4,0.3-0.5c1-1.6,1.3-2.1,1.7-2.1c0.8,0,2.7,2,2.7,2.7c0,0.4-0.3,0.5-1.3,0.5h-3.9
		c0.1,2.2,0.1,2.5,0.1,3.3c0,0.4,0,0.7,0,1c0,0.8-0.4,1.2-1.4,1.5c-0.5,0.2-1.1,0.3-1.7,0.3c-0.8,0-1.1-0.1-1.3-0.4
		c-0.1-0.2-0.1-0.4-0.1-2.1h-3.9c0,0.7,0,0.7,0.1,2.2v0.2c0,1.6-0.3,2.4-1.1,3.1c-0.8,0.8-1.9,1.2-3.4,1.2c-1.1,0-1.5-0.3-1.6-1.1
		c-0.1-0.8-0.3-1-1.3-1.7c-0.5-0.3-1-0.6-1.4-0.8c-0.2-0.1-0.3-0.2-0.3-0.3c0-0.1,0.1-0.2,0.4-0.2c0.2,0,1.1,0.1,1.4,0.1
		c1.6,0,2.3-0.2,2.6-0.6c0.2-0.3,0.2-0.6,0.2-2.1h-7.3c-0.6,0-1.2,0-1.8,0.1c-0.5-0.6-0.5-0.7-0.5-0.8c0-0.1,0.1-0.2,0.3-0.2
		c0.5,0.1,1.1,0.1,1.4,0.1h8v-3h-10.4c-0.6,0-1.2,0-1.7,0.1c-0.5-0.6-0.5-0.7-0.5-0.8c0-0.1,0.1-0.2,0.3-0.2c0.7,0.1,1.6,0.1,2,0.1
		h10.3v-3h-7.6c-0.6,0-1.3,0-1.9,0.1c-0.5-0.6-0.5-0.6-0.5-0.7c0-0.1,0.1-0.2,0.3-0.2c0.5,0,1.1,0.1,1.4,0.1h8.3v-2.8h-3.9v0.3
		c0,0.9-0.9,1.4-2.7,1.4c-1.2,0-1.7-0.3-1.6-0.8c0.1-1.3,0.1-3.4,0.1-4.8v-1.9c0-0.1,0-0.2,0.1-0.2c0.5,0,2,0.2,3.2,0.5
		c1,0.3,1.3,0.4,1.6,0.7h3.2v-2.6h-10.2c-0.4,0-0.9,0-1.4,0.1c-0.5-0.6-0.5-0.6-0.5-0.7c0-0.1,0.1-0.2,0.3-0.2
		c0.6,0,1.4,0.1,1.8,0.1h10c0-1.4-0.1-2.9-0.1-3.7c0-0.2,0-0.2,0.4-0.2c0.6,0,3,0.3,3.6,0.5c0.8,0.2,1.2,0.5,1.2,1
		c0,0.1-0.1,0.5-0.8,1c0,0.5,0,0.8-0.1,1.5h6.3c0.4-0.4,0.4-0.4,1.5-1.8c0.5-0.6,0.8-0.9,1.2-0.9c0.4,0,1.2,0.4,2.2,1.2
		c0.9,0.7,1.4,1.3,1.4,1.7c0,0.4-0.3,0.6-1.1,0.6h-11.6v2.6h3.8c0.2-0.2,0.2-0.2,0.5-0.6c0.5-0.6,0.9-0.9,1.2-0.9
		c0.5,0,1.4,0.4,2.6,1.1c0.9,0.5,1.2,0.8,1.2,1.1c0,0.2-0.1,0.3-0.5,0.6c-0.2,0.1-0.3,0.3-0.3,0.4c0,0.1,0,0.1,0,0.2
		c0,0.5,0.2,2.1,0.2,2.4v0.2c0,0.6-0.2,0.9-1,1.2c-0.6,0.3-1.4,0.4-2.5,0.4c-0.9,0-1.2-0.2-1.2-0.8v-0.3h-3.9l0,2.9h3.7
		c1.2-1.2,1.4-1.4,1.9-1.4c0.4,0,0.7,0.2,2.2,0.9c0.9,0.4,1.2,0.7,1.2,1c0,0.1,0,0.2-0.1,0.3c-0.3,0.3-0.4,0.4-0.5,0.5V96
		c0,0.3,0,0.3,0,0.8v1.1H621.7z M605.3,87.2c-0.6,0-0.8,0.2-0.8,1.2v2.2h4v-3.4H605.3z M616.6,87.6c0-0.3,0-0.4-0.4-0.4h-3.6
		l0.1,3.4h3.9V87.6z M616.8,95.6c0-0.5-0.1-0.7-0.4-0.7h-3.6l0,3h4V95.6z M612.8,98.7l0.1,3h3.9v-3H612.8z"/>
	<path d="M644.1,89.9c0.9-1.1,1.2-1.4,1.6-1.4c0.6,0,1.8,0.7,3,1.9c0.4,0.4,0.7,1,0.7,1.3c0,0.5-0.4,0.8-1.3,0.9
		c-1.1,0.1-2,0.6-3.4,2c-0.1,0.1-0.2,0.2-0.3,0.2s-0.2,0-0.2-0.1c0-0.1,0-0.2,0.1-0.3c0.2-0.7,0.4-2,0.7-3.7h-2.4
		c0.7,0.2,1,0.3,1,0.5c0,0.1-0.1,0.3-0.5,0.5l0.2,13.4c0,1.4-0.4,2.2-1.6,3c-0.8,0.5-1.7,0.8-2.6,0.8c-0.7,0-1.1-0.2-1.1-0.8
		c-0.1-1.1-0.7-1.9-2.2-2.5c-0.2-0.1-0.2-0.1-0.2-0.2c0-0.1,0-0.1,1-0.1c1.4,0,2.2-0.1,2.5-0.4c0.3-0.3,0.3-0.6,0.3-6.3
		c-1.4,2-2.6,3.1-4.3,4.3c-0.7,0.5-1.4,0.9-1.5,0.9c-0.1,0-0.2-0.1-0.2-0.2c0-0.1,0.1-0.2,0.1-0.3c2.5-2.7,5-8.3,5.6-12.7h-3.3
		c-0.5,0-1,0-1.4,0.1c-0.4-0.5-0.4-0.6-0.4-0.7c0-0.1,0.1-0.2,0.3-0.2c0.5,0,1.2,0.1,1.5,0.1H644.1z M641.7,81.5
		c1.4-1.5,1.6-1.6,1.9-1.6c0.4,0,0.8,0.2,1.4,0.6c1.5,1.1,2.3,2,2.3,2.7c0,0.5-0.4,0.8-1.2,0.8c-1.3,0.1-1.8,0.2-2.7,0.7
		c-0.6,0.4-1.2,0.7-1.8,1c0.8,0.6,1.3,1.4,1.3,2.2c0,1-1,1.8-2.4,1.8c-1.2,0-1.6-0.4-1.8-1.8c-0.2-1-0.3-1.4-0.6-1.9
		c-0.3-0.5-1.2-1.4-1.6-1.6c-0.2-0.1-0.3-0.2-0.3-0.3c0-0.1,0.1-0.1,0.2-0.1c0.8,0,2.5,0.5,4.4,1.2c0.4-0.9,0.8-1.9,1.2-3h-5.6
		c-0.4,0-1,0-1.4,0.1c-0.4-0.5-0.5-0.6-0.5-0.7c0-0.1,0.1-0.2,0.3-0.2c0.5,0.1,1.2,0.1,1.5,0.1H641.7z M658.1,84.5
		c0.1,0.1,0.1,0.1,0.6,0.3c0.9,0.3,1.4,0.7,1.4,1c0,0.3-0.3,0.4-0.8,0.6c-1.1,1.7-1.7,2.5-2.9,3.8c1.9,1,4.9,1.7,8,2
		c0.3,0,0.4,0.1,0.4,0.2c0,0.2-0.1,0.2-0.3,0.4c-0.9,0.5-2.3,2.2-2.8,3.3c-0.1,0.3-0.3,0.4-0.7,0.4c-0.7,0-2.2-0.5-3.3-1.1
		c-1.5-0.8-2.5-1.5-3.8-2.7c-0.6,0.4-1.3,0.9-2.2,1.5c1,0.1,2.6,0.4,3.7,0.7c0.6,0.2,0.9,0.4,0.9,0.7c0,0.3-0.1,0.4-0.9,0.8L655,98
		h2.3c0.1-0.1,0.1-0.1,0.3-0.4c0.7-0.8,1-1,1.3-1c0.4,0,1.8,0.8,2.8,1.6c0.5,0.4,0.8,0.8,0.8,1.1c0,0.3-0.3,0.5-0.8,0.7
		c-0.5,7.3-2,8.9-6,8.9c-0.7,0-1-0.2-1.2-0.6c-0.4-1.4-0.5-1.6-2-2.4c-0.3-0.2-0.4-0.2-0.4-0.3c0-0.1,0.1-0.2,0.2-0.2s0.3,0,0.6,0.1
		c0.5,0.1,1,0.1,1.4,0.1c1.3,0,2-0.6,2.6-2.3c0.4-1.1,0.7-3,0.8-4.5h-2.7c-0.9,4-1.8,5.8-4.2,7.4c-1.5,1-3,1.6-5.6,2.3
		c-1.2,0.3-2.4,0.5-3,0.5c-0.2,0-0.3-0.1-0.3-0.2c0-0.1,0.1-0.2,0.4-0.3c1.9-0.4,4.1-1.5,5.5-2.9c1.7-1.6,2.7-3.7,3.2-6.7h-3.7
		c-0.5,0-1,0-1.4,0.1c-0.5-0.5-0.5-0.6-0.5-0.6c0-0.1,0.1-0.2,0.3-0.2c0.5,0,1.2,0.1,1.5,0.1h3.9c0.1-0.8,0.3-3,0.3-3.4
		c0-0.1,0-0.1,0-0.3c-1.1,0.7-2.3,1.2-3.7,1.7c-1.1,0.4-3.3,0.9-3.8,0.9c-0.1,0-0.2-0.1-0.2-0.2c0-0.1,0.1-0.2,0.4-0.3
		c3.1-0.9,6.4-3.3,8.4-6.3c-0.7-1.6-0.9-2.2-1.5-5.6c-1.1,1.3-2.1,2.3-2.9,3c-0.9,0.6-1.6,1.1-1.8,1.1c-0.1,0-0.1,0-0.1-0.1
		c0-0.1,0-0.1,0.1-0.3c1.2-1.7,2.5-6,2.8-8.9c0-0.4,0.1-0.5,0.2-0.5s0.6,0.1,0.8,0.2c3.5,0.9,4.4,1.3,4.4,2c0,0.4-0.3,0.6-1.3,0.9
		c-0.3,0.4-0.3,0.4-0.7,1c-0.4,0.5-0.4,0.5-0.8,0.9h6.6c1.2-1.9,1.8-2.7,2.3-2.7c0.4,0,1.2,0.5,2.3,1.5c0.7,0.7,0.9,1,0.9,1.5
		c0,0.3-0.3,0.4-1,0.4H658.1z M651.4,84.5c0.4,1.8,1,2.9,2.1,4c0.8-1.5,1.1-2.1,1.7-4H651.4z"/>
	<path d="M681.5,88.5c1.2-1.5,1.3-1.7,1.7-1.7c0.4,0,1.1,0.4,2.7,1.5c0.6,0.5,0.8,0.7,0.8,1c0,0.3-0.2,0.6-0.9,1
		c0,0.1,0.1,1.8,0.2,5l0,1c0,0.6-0.2,0.9-0.5,1.2c-0.6,0.4-1.6,0.6-2.4,0.6c-0.6,0-1-0.1-1.2-0.3c-0.1-0.2-0.1-0.2-0.1-1.3h-3.5
		c-0.1,4.2-0.7,6.2-2.6,8.8c-1,1.3-3.2,3.2-3.9,3.2c-0.1,0-0.2-0.1-0.2-0.2c0-0.1,0.1-0.1,0.4-0.4c0.9-0.8,1.7-2.4,2.1-4.2
		c0.3-1.5,0.4-2.8,0.4-5.1c0-2.7-0.3-9.3-0.4-11c0-0.1,0.1-0.2,0.2-0.2c1,0,3.6,0.7,4.2,1.1H681.5z M681.1,82.6
		c0.3-0.4,0.3-0.4,1.3-1.9c0.5-0.7,0.7-0.9,1.1-0.9c0.4,0,1,0.4,2.1,1.3c0.9,0.8,1.3,1.3,1.3,1.7c0,0.4-0.3,0.6-1.1,0.6h-11.3
		c-0.4,0-0.9,0-1.4,0.1c-0.5-0.6-0.5-0.6-0.5-0.7c0-0.1,0.1-0.2,0.3-0.2c0.6,0.1,1.4,0.1,1.8,0.1H681.1z M681.8,89.5
		c0-0.3-0.1-0.4-0.3-0.4h-2.9l-0.1,0.1c-0.2,0.2-0.2,0.3-0.2,0.8l0.1,5.6h3.5V89.5z M696.4,90.3c1.7-3,1.9-3.3,2.4-3.3
		c0.4,0,1.3,0.6,2.3,1.7c0.9,0.9,1.2,1.3,1.2,1.8c0,0.3-0.3,0.6-0.7,0.6h-3.2c0.4,0.1,0.6,0.3,0.6,0.5c0,0.2-0.1,0.3-0.3,0.4
		c-0.2,0.1-0.3,0.2-0.5,0.4c0,0.6,0,0.6,0.1,2.4c0,1.2,0.4,8.7,0.4,10c0,1.5,0.1,2.5,0.1,2.6c0,1-1.2,1.6-3.1,1.6
		c-1.3,0-1.5-0.2-1.5-1.2c0-0.4,0-0.7,0-1.5c0.1-1.7,0.2-8,0.2-11.3c0-1.4,0-2.2-0.1-3.9h-2.4c-0.1,7-0.4,9.3-1.9,11.6
		c-1.3,2-3.8,4-6.8,5.3c-1,0.4-2,0.8-2.4,0.8c-0.1,0-0.2-0.1-0.2-0.2c0-0.2,0-0.2,0.9-0.6c1.6-0.7,3.5-2.4,4.4-3.9
		c0.9-1.4,1.5-3,1.8-5.2c0.2-1.4,0.3-2.9,0.3-6.7c0-1.4-0.2-7.5-0.2-9c0-0.6-0.1-1.4-0.1-1.7c0-0.1,0.1-0.2,0.2-0.2
		c1.2,0,3.3,0.6,4.5,1.4c2.3-1.2,3.2-1.7,5.3-3.2c3.1,1.8,4.1,2.7,4.1,3.5c0,0.5-0.3,0.7-1.2,0.7c-0.3,0-0.7,0-1.4,0
		c-4,0.2-6.5,0.3-7.3,0.3c-0.2,0.2-0.2,0.4-0.2,0.6v5.9H696.4z"/>
</g>
<g>
	<path class="st0" d="M355.2,216.7V195c0-7.4-6-13.4-13.4-13.4h-56.8v30c0,7.4,6,13.4,13.4,13.4h56.8h8.3
		C358.9,225,355.2,221.3,355.2,216.7z"/>
	<g>
		<path d="M407.1,193.5c1.3-1.6,1.3-1.6,1.5-1.8c0.5-0.7,0.9-0.9,1.2-0.9c0.9,0,3.2,2.2,3.2,3c0,0.3-0.3,0.5-0.9,0.5h-27.1
			c-0.4,0-0.9,0-1.4,0.1c-0.4-0.5-0.5-0.6-0.5-0.7c0-0.1,0.1-0.2,0.3-0.2c0.6,0,1.4,0.1,1.8,0.1h10.3v-3h-6.2c-0.4,0-0.9,0-1.4,0.1
			c-0.4-0.5-0.5-0.6-0.5-0.7c0-0.1,0.1-0.2,0.3-0.2c0.6,0,1.4,0.1,1.8,0.1h6l0-2.9h-8.5c-0.5,0-1.1,0-1.6,0
			c-0.5-0.5-0.5-0.6-0.5-0.6c0-0.1,0.1-0.2,0.3-0.2c0.6,0,1.4,0.1,1.8,0.1h8.5c0-1.6,0-2.9,0-3.3c0-0.5,0-0.5,0.3-0.5
			c0.8,0,3.5,0.4,4.4,0.6c0.5,0.1,0.8,0.4,0.8,0.8c0,0.3,0,0.3-1,0.9l0,1.5h5.4c1.3-2,2-2.7,2.4-2.7c0.5,0,1.4,0.5,2.6,1.6
			c0.6,0.6,0.9,1,0.9,1.3c0,0.3-0.3,0.5-0.7,0.5h-10.6v2.9h3.3c1.3-1.7,1.8-2.2,2.2-2.2c0.8,0,3.1,1.9,3.1,2.5
			c0,0.4-0.2,0.5-0.9,0.5h-7.7v3H407.1z M402.8,196.7c0.9-1.3,1.3-1.7,1.6-1.7c0.4,0,2,0.8,3,1.6c0.5,0.4,0.6,0.6,0.6,0.9
			c0,0.3-0.1,0.4-0.8,1c0,0.9,0,0.9,0,1.9c0.1,2,0.1,2.2,0.1,3.6c0,1.4,0,1.4,0.1,3.7v0.4c0,1.2-0.3,1.8-1.1,2.5
			c-0.9,0.8-2,1.3-3.3,1.3c-0.5,0-1-0.1-1.2-0.3c-0.1-0.1-0.1-0.1-0.4-0.9c-0.3-0.9-0.6-1.2-2.4-2.2c-0.2-0.1-0.3-0.2-0.3-0.2
			c0-0.1,0-0.2,0.2-0.2c0.1,0,0.1,0,0.4,0c0.5,0.1,1,0.1,1.3,0.1c0.9,0,1.6-0.1,1.9-0.3c0.4-0.3,0.4-0.3,0.4-3.6h-10.2
			c0,2,0,2.2,0,3.7c0,1,0,1.1,0,1.4c0,1-0.1,1.3-0.5,1.5c-0.5,0.3-1.5,0.5-2.3,0.5c-0.9,0-1.3-0.3-1.3-0.8c0-0.3,0-0.4,0.1-2.2
			c0.1-2.1,0.2-8.1,0.2-9.5v-3.1c0-0.3,0-0.4,0.2-0.4c0.4,0,1.4,0.2,2.5,0.5c1.1,0.3,1.3,0.4,1.7,0.8H402.8z M403.1,200.3
			c0-2.5,0-2.5,0-2.6c0-0.1-0.1-0.2-0.3-0.2h-9.3c-0.4,0.2-0.5,0.3-0.5,0.6v2.2H403.1z M392.9,201v2.7h10.2V201H392.9z"/>
		<path d="M443.8,185.4c1.3-2.2,1.9-2.7,2.4-2.7c0.9,0,3.5,2.1,3.5,2.9c0,0.3-0.4,0.6-0.7,0.6h-8.4v1.4c0,0.6-0.6,1.1-2,1.2
			c3,0.6,4,0.9,4,1.4c0,0.6-0.4,0.8-1,1.1c-0.5,0.7-0.8,1.3-1.4,2.1h3.7c1.5-2.2,1.8-2.5,2.2-2.5c0.9,0,3,2,3,2.8
			c0,0.4-0.3,0.5-1.2,0.5h-8.3c-1.3,1.8-2.2,2.7-3.5,3.8c-0.8,0.6-1.2,0.9-1.4,0.9c-0.1,0-0.2,0-0.2-0.1c0-0.1,0-0.1,0.2-0.3
			c1.4-1.7,2.9-6.8,3.3-9.5c-0.3,0.1-0.5,0-0.7,0c-0.5,0-0.9-0.3-0.9-0.8v-1.9h-4.2v1.4c0,0.8-1.2,1.3-3,1.3c-0.9,0-1.2-0.2-1.2-0.7
			l0-2h-3.7c-1.2,0-2.4,0.1-3.5,0.2c-0.5-0.7-0.5-0.8-0.5-0.8c0-0.1,0.1-0.2,0.3-0.2c1,0.1,2.3,0.1,3,0.1h4.6c0-0.4,0-0.9,0-1.4
			c0-0.6,0-1.2,0-1.7c0-0.2,0-0.2,0.2-0.2c1.1,0,3.7,0.4,4.2,0.6c0.3,0.2,0.5,0.4,0.5,0.6c0,0.3-0.2,0.5-0.7,0.8v1.3h4.2
			c0-1.3,0-2.2,0-3.1c0-0.2,0.1-0.3,0.3-0.3c0.9,0,2.9,0.2,3.7,0.4c0.7,0.2,1,0.4,1,0.8c0,0.3-0.3,0.6-0.8,0.8l0,1.3H443.8z
			 M445.1,210.6c1.2-2.1,2-2.9,2.4-2.9c0.8,0,2.7,2.2,2.7,3.1c0,0.4-0.3,0.6-1,0.6h-26.4c-0.7,0-1.5,0-2.2,0.1
			c-0.5-0.6-0.5-0.7-0.5-0.7c0-0.1,0.1-0.2,0.3-0.2c0.5,0,1.1,0.1,1.4,0.1h3.5c0-1.4,0-2.9,0-4.3c0-1.5,0-2.5-0.1-3.2v-0.1
			c0-0.2,0.1-0.3,0.2-0.3c0.2,0,0.9,0.1,2.1,0.4c1.3,0.3,1.3,0.3,1.4,0.5h11.6c1.1-1.8,1.2-1.9,1.7-1.9c0.4,0,0.8,0.3,1.9,1.1
			c0.9,0.6,1.3,1.2,1.3,1.6c0,0.3-0.2,0.4-0.9,0.8l0,5.3H445.1z M431.4,200.9c1.4-1.9,1.4-1.9,1.7-1.9c0.7,0,2.5,1.6,2.5,2.2
			c0,0.3-0.3,0.5-0.7,0.5h-9.6v0.1c0,0.7-1,1.3-2.4,1.3c-0.9,0-1.2-0.2-1.2-0.9c0-0.4,0-0.7,0.1-3.4c0-0.5,0-2.9,0-4.9
			c0-2.3,0-3.9,0-4.4v-0.2c0-0.2,0-0.2,0.2-0.2c0.4,0,2.2,0.4,2.9,0.7c0.4,0.2,0.6,0.3,0.8,0.5h5.5c1.1-1.3,1.5-1.7,1.8-1.7
			c0.3,0,0.5,0.2,1.4,0.9c0.7,0.5,0.9,0.8,0.9,1.1c0,0.3-0.2,0.4-0.6,0.4h-4.4l0,2.7h0.7l0.6-0.8c0.3-0.4,0.5-0.5,0.8-0.5
			c0.4,0,0.6,0.1,2.2,1.2c0.5,0.3,0.6,0.5,0.6,0.7c0,0.2-0.1,0.4-0.5,0.6c-0.2,0.1-0.2,0.2-0.2,0.4l0,2.1c0,0.7-0.9,1.1-2.3,1.1
			c-0.8,0-1.1-0.1-1.1-0.7h-0.8l0,3.2H431.4z M426.9,193.6c0-0.6,0-1,0-1.3c0-0.3,0-0.7,0-1.3h-1.3c-0.4,0.1-0.4,0.3-0.4,1.1v1.6
			H426.9z M425.2,194.3v2.6h5.8v-2.6H425.2z M427,200.9c0-0.7,0-1.3,0-1.6c0-0.4,0-0.9,0-1.6h-1.8l0,3.2H427z M429.1,204.4
			c-0.2,0-0.3,0.3-0.3,1.5v4.7h1.8c0-1.2,0-1.7,0-2.4v-3.8H429.1z M434.3,204.4c0,0.1-0.1,0.2-0.2,0.2c-0.1,0.1-0.2,0.2-0.2,0.3
			c0,0.1,0,0.2-0.1,2.2l0,2.5c0,0.4,0,0.6,0,1h1.8c0-2,0-4.3,0-6.2H434.3z M442.8,199.6c0.1-0.2,0.4-0.8,1-1.6
			c0.5-0.8,0.7-1.1,1.1-1.1c0.5,0,1,0.4,2.2,1.7c0.5,0.5,0.6,0.9,0.6,1.2c0,0.3-0.3,0.5-0.6,0.5h-6.9c-0.8,0-1.7,0-2.6,0.2
			c-0.5-0.6-0.5-0.7-0.5-0.8c0-0.1,0.1-0.2,0.3-0.2c0.7,0.1,1.6,0.1,2,0.1H442.8z M439.4,204.4c0,0.1-0.1,0.2-0.3,0.3
			c-0.2,0.1-0.2,0.4-0.2,2.6v3.3h1.8c0-1.8,0-5.2,0-6.2H439.4z"/>
		<path d="M475.9,197c0.2,0.2,0.3,0.4,0.3,0.5c0,0.3-0.2,0.5-0.6,0.7c-0.3,2.5-0.9,4.6-1.9,6.2c-1.2,2-2.8,3.4-5.1,4.5
			c-0.8,0.4-2,0.8-3,1.1c-0.7,0.2-1.3,0.3-1.6,0.3c-0.1,0-0.2,0-0.2-0.1c0-0.1,0.1-0.2,0.6-0.3c0.8-0.3,1.7-0.9,2.5-1.4
			c1-0.8,1.9-1.7,2.5-2.6c1.4-2.1,2.3-5.2,2.3-8.2c0-1.4-0.1-1.7-0.6-2.4c-0.4,0-1.1,0.2-1.9,0.3c-0.9,0.2-2,0.4-2.8,0.7
			c-0.5,0.1-1.3,0.4-2,0.8c-0.3,0.1-0.4,0.2-0.6,0.2c-0.5,0-1.3-0.5-1.9-1.2c-0.6-0.7-1.1-1.5-1.1-2c0-0.1,0-0.1,0.1-0.1
			c0.1,0,0.1,0,0.4,0.1c0.7,0.2,1.2,0.3,1.9,0.3c0.5,0,2.2-0.2,4.8-0.5c2.3-0.3,5.2-0.7,8.3-1.2c1.3-0.2,1.7-0.3,2.6-0.6
			c0.3-0.1,0.4-0.2,0.8-0.3c0.3-0.1,0.5-0.1,0.6-0.1c0.5,0,2.3,0.7,3.4,1.4c0.6,0.4,1.1,0.9,1.1,1.4c0,0.5-0.6,1.2-1.2,1.2
			c-0.2,0-1.1-0.2-2.1-0.4c-1.6-0.3-2.5-0.4-4.1-0.4c-1.5,0-3.1,0.1-4.7,0.2C475.3,196.4,475.4,196.6,475.9,197z M475.4,188.9
			c-0.9,0-2.5,0.2-3.9,0.4c-1.3,0.2-2.4,0.4-3.1,0.6c-0.4,0.1-0.7,0.2-0.8,0.2c-0.5,0-1-0.3-1.7-1.2c-0.2-0.3-0.4-0.5-0.5-0.8
			c-0.2-0.3-0.3-0.4-0.3-0.5c0-0.1,0-0.1,0.1-0.1c0.1,0,0.4,0.1,0.5,0.1c0.4,0.1,1,0.2,1.3,0.2c0.8,0,2.2-0.2,3.7-0.5
			c1.5-0.3,3-0.7,3.9-1c0.8-0.4,0.9-0.4,1.2-0.4c0.5,0,1.2,0.3,2.3,0.8c0.8,0.4,1.2,0.8,1.2,1.4c0,0.6-0.6,1-1.8,1
			c-0.4,0-0.4,0-1.4-0.1L475.4,188.9z M482.8,188.3c-0.4,0-0.7-0.1-1-0.4c-0.2-0.3-0.2-0.3-0.3-1c-0.2-0.9-0.9-2.1-1.5-2.6
			c-0.1-0.1-0.1-0.1-0.1-0.2c0-0.1,0.1-0.1,0.2-0.1c0.4,0,1.5,0.4,2.2,0.9c1,0.6,1.6,1.5,1.6,2.3
			C483.8,187.8,483.4,188.3,482.8,188.3z M485,185.9c-0.3-1-1.2-2.1-2.2-2.7c-0.2-0.1-0.3-0.2-0.3-0.3c0-0.1,0.1-0.1,0.2-0.1
			c0.5,0,1.1,0.1,1.8,0.4c1.8,0.6,2.8,1.6,2.8,2.6c0,0.7-0.5,1.2-1.1,1.2C485.6,187,485.3,186.8,485,185.9z"/>
		<path d="M505.9,193.1c2.9-0.2,3.5-0.3,4.4-0.4c0-0.4,0-0.9,0-1.3c0-0.6,0-1.2,0-1.7c0-1.7-0.2-3-0.5-3.3c-0.2-0.2-0.4-0.3-0.9-0.3
			c-0.1,0-0.2-0.1-0.2-0.2c0-0.1,0.2-0.3,0.4-0.5c0.4-0.3,1.1-0.6,1.5-0.6c0.5,0,1.3,0.3,2,0.7c1.3,0.9,1.8,1.4,1.8,1.9
			c0,0.1-0.1,0.3-0.2,0.4c-0.4,0.4-0.4,0.4-0.4,0.8c0,1.2,0,2.5,0,3.7c1.7-0.1,2.2-0.3,3.1-0.6c0.3-0.1,0.5-0.2,0.6-0.2
			c0.5,0,1.8,0.6,2.9,1.3c0.7,0.4,1,0.9,1,1.5c0,0.6-0.6,1-1.3,1c-0.2,0-0.8-0.1-2.4-0.5c-1.1-0.3-1.6-0.3-4-0.5c-0.2,4.9-0.3,6-1,8
			c-1.2,3.3-4.1,6-8.3,7.6c-1.1,0.4-2.1,0.7-2.4,0.7c-0.1,0-0.2-0.1-0.2-0.1c0-0.1,0.1-0.2,0.7-0.5c2.2-1.2,4.2-3,5.5-5
			c1.1-1.8,1.8-3.9,2.1-6.6c0.1-0.9,0.1-1.3,0.2-4c-0.6,0-1.1,0.1-1.3,0.1c-1.7,0.1-2,0.2-3.1,0.3l0.1,4c0,2.7-0.7,4.2-2,4.2
			c-0.4,0-0.6-0.2-0.9-0.8c-0.2-0.6-0.4-1.7-0.4-2.1c0-0.7,0.1-2.1,0.1-3.8c0-0.3,0-0.4,0-0.8c-2.3,0.5-3,0.8-4.3,1.3
			c-0.4,0.2-0.7,0.3-0.9,0.3c-0.4,0-0.9-0.4-1.3-1c-0.6-0.7-1.1-1.6-1.1-2.2c0-0.2,0.1-0.4,0.3-0.7c0.5,0.6,0.9,0.8,1.4,0.8
			c1.1,0,2-0.1,5.7-0.5c-0.2-2.8-0.3-3.5-0.5-3.9c-0.3-0.4-0.6-0.5-1.2-0.6c-0.2,0-0.3-0.1-0.3-0.2c0-0.1,0.4-0.4,0.9-0.5
			c0.5-0.2,1.1-0.4,1.4-0.4c0.5,0,1.2,0.3,2,0.7c1.1,0.6,1.5,1.1,1.5,1.5c0,0.3,0,0.3-0.5,1.2V193.1z M518.7,189.1
			c-0.4,0-0.7-0.2-0.9-0.5c-0.2-0.2-0.2-0.2-0.3-1c-0.2-0.9-0.8-2.1-1.5-2.6c-0.1-0.1-0.2-0.1-0.2-0.2c0-0.1,0.1-0.1,0.2-0.1
			c0.5,0,1.6,0.4,2.3,0.8c0.9,0.6,1.6,1.6,1.6,2.4C519.7,188.6,519.3,189.1,518.7,189.1z M520.5,186.5c-0.4-1-1.3-2.1-2.3-2.6
			c-0.3-0.2-0.3-0.2-0.3-0.3c0-0.1,0.1-0.1,0.3-0.1c0.6,0,1,0.1,1.8,0.3c1.9,0.6,2.9,1.5,2.9,2.6c0,0.7-0.5,1.2-1.1,1.2
			C521.1,187.5,520.8,187.3,520.5,186.5z"/>
		<path d="M545.9,200.9c0,1.9,0,1.9,0.2,4.2c0,0.8,0.1,1.6,0.1,2.2c0,1.1-0.1,1.6-0.3,2c-0.2,0.5-0.9,0.9-1.4,0.9
			c-0.8,0-1.4-0.6-1.9-1.7c-0.4-1-0.6-2.1-0.6-2.7c0-0.3,0-0.5,0.1-0.7c0.2-0.4,0.2-0.6,0.3-1c0.3-1.2,0.5-6.6,0.5-10.2
			c-0.3,0.3-0.3,0.3-0.9,0.8c-2,2-5.3,4-7.9,5c-0.7,0.3-1.7,0.5-2,0.5c-0.1,0-0.2,0-0.2-0.1c0-0.1,0.1-0.2,0.6-0.4
			c0.4-0.2,1.1-0.6,1.8-1.1c0.5-0.4,1.1-0.8,1.5-1.2c2.4-2.1,4.9-5.3,6.6-8.3c0.5-0.9,0.8-1.6,1-2.2c0.1-0.2,0.1-0.3,0.1-0.4
			c0-0.1-0.1-0.3-0.3-0.4c-0.2-0.1-0.4-0.3-0.5-0.3c-0.2-0.1-0.3-0.1-0.3-0.2c0-0.1,0.3-0.3,0.6-0.5c0.6-0.3,1.6-0.6,2.2-0.6
			c0.6,0,1.2,0.3,2.2,1.1c1.3,1.1,1.7,1.5,1.7,2c0,0.4-0.3,0.7-0.7,0.9c-0.6,0.3-0.8,0.5-1.6,1.4c-0.5,0.5-1.8,2-2.2,2.5
			c0.1,0.2,0.1,0.2,0.6,0.5c0.5,0.4,0.8,1.1,0.8,1.6c0,0.2,0,0.3-0.1,0.6c0,0.5,0,0.7,0,1.1V200.9z"/>
		<path d="M571.3,192.2c0,1.3-1,2.3-2.3,2.3c-0.3,0-0.7-0.1-1-0.2c-0.2-0.1-0.2-0.1-0.5-0.7c-0.7-1.3-2.9-3.2-4.1-3.6
			c-0.2-0.1-0.2-0.1-0.2-0.2c0-0.1,0.4-0.2,0.8-0.3c0.7-0.1,1.7-0.2,2.5-0.2C569.4,189.2,571.3,190.4,571.3,192.2z M569.1,206.2
			c-0.6,0.4-0.9,0.5-1.3,0.5c-0.4,0-0.9-0.2-1.5-0.6c-0.5-0.4-1.1-0.9-1.7-1.6c-0.7-0.8-1.1-1.4-1.1-2c0-0.9,0.5-1.9,1.1-2.1
			c0.3,1,1,1.4,2.3,1.4c0.4,0,3-0.8,3.9-1.2c3.2-1.4,7.6-3.9,10.8-6.1c0.8-0.6,1.7-1.3,2.9-2.4c0.5-0.5,0.6-0.5,0.7-0.5
			s0.2,0.1,0.2,0.2c0,0.1,0,0.1-0.1,0.3c-0.4,0.7-1.8,2.7-2.9,4c-1.4,1.6-3.1,3.1-5,4.7c-2.3,1.8-5,3.6-8.1,5.3L569.1,206.2z"/>
		<path d="M621.8,200.7c0.1-0.2,0.2-0.4,0.3-0.5c1-1.6,1.3-2.1,1.7-2.1c0.8,0,2.7,2,2.7,2.7c0,0.4-0.3,0.5-1.3,0.5h-3.9
			c0.1,2.2,0.1,2.5,0.1,3.3c0,0.4,0,0.7,0,1c0,0.8-0.4,1.2-1.4,1.5c-0.5,0.2-1.1,0.3-1.7,0.3c-0.8,0-1.1-0.1-1.3-0.4
			c-0.1-0.2-0.1-0.4-0.1-2.1H613c0,0.7,0,0.7,0.1,2.2v0.2c0,1.6-0.3,2.4-1.1,3.1c-0.8,0.8-1.9,1.2-3.4,1.2c-1.1,0-1.5-0.3-1.6-1.1
			c-0.1-0.8-0.3-1-1.3-1.7c-0.5-0.3-1-0.6-1.4-0.8c-0.2-0.1-0.3-0.2-0.3-0.3c0-0.1,0.1-0.2,0.4-0.2c0.2,0,1.1,0.1,1.4,0.1
			c1.6,0,2.3-0.2,2.6-0.6c0.2-0.3,0.2-0.6,0.2-2.1h-7.3c-0.6,0-1.2,0-1.8,0.1c-0.5-0.6-0.5-0.7-0.5-0.8c0-0.1,0.1-0.2,0.3-0.2
			c0.5,0.1,1.1,0.1,1.4,0.1h8v-3h-10.4c-0.6,0-1.2,0-1.7,0.1c-0.5-0.6-0.5-0.7-0.5-0.8c0-0.1,0.1-0.2,0.3-0.2c0.7,0.1,1.6,0.1,2,0.1
			h10.3v-3H601c-0.6,0-1.3,0-1.9,0.1c-0.5-0.6-0.5-0.6-0.5-0.7c0-0.1,0.1-0.2,0.3-0.2c0.5,0,1.1,0.1,1.4,0.1h8.3v-2.8h-3.9v0.3
			c0,0.9-0.9,1.4-2.7,1.4c-1.2,0-1.7-0.3-1.6-0.8c0.1-1.3,0.1-3.4,0.1-4.8v-1.9c0-0.1,0-0.2,0.1-0.2c0.5,0,2,0.2,3.2,0.5
			c1,0.3,1.3,0.4,1.6,0.7h3.2v-2.6h-10.2c-0.4,0-0.9,0-1.4,0.1c-0.5-0.6-0.5-0.6-0.5-0.7c0-0.1,0.1-0.2,0.3-0.2
			c0.6,0,1.4,0.1,1.8,0.1h10c0-1.4-0.1-2.9-0.1-3.7c0-0.2,0-0.2,0.4-0.2c0.6,0,3,0.3,3.6,0.5c0.8,0.2,1.2,0.5,1.2,1
			c0,0.1-0.1,0.5-0.8,1c0,0.5,0,0.8-0.1,1.5h6.3c0.4-0.4,0.4-0.4,1.5-1.8c0.5-0.6,0.8-0.9,1.2-0.9c0.4,0,1.2,0.4,2.2,1.2
			c0.9,0.7,1.4,1.3,1.4,1.7c0,0.4-0.3,0.6-1.1,0.6h-11.6v2.6h3.8c0.2-0.2,0.2-0.2,0.5-0.6c0.5-0.6,0.9-0.9,1.2-0.9
			c0.5,0,1.4,0.4,2.6,1.1c0.9,0.5,1.2,0.8,1.2,1.1c0,0.2-0.1,0.3-0.5,0.6c-0.2,0.1-0.3,0.3-0.3,0.4c0,0.1,0,0.1,0,0.2
			c0,0.5,0.2,2.1,0.2,2.4v0.2c0,0.6-0.2,0.9-1,1.2c-0.6,0.3-1.4,0.4-2.5,0.4c-0.9,0-1.2-0.2-1.2-0.8v-0.3h-3.9l0,2.9h3.7
			c1.2-1.2,1.4-1.4,1.9-1.4c0.4,0,0.7,0.2,2.2,0.9c0.9,0.4,1.2,0.7,1.2,1c0,0.1,0,0.2-0.1,0.3c-0.3,0.3-0.4,0.4-0.5,0.5v0.4
			c0,0.3,0,0.3,0,0.8v1.1H621.8z M605.4,190c-0.6,0-0.8,0.2-0.8,1.2v2.2h4V190H605.4z M616.8,190.3c0-0.3,0-0.4-0.4-0.4h-3.6
			l0.1,3.4h3.9V190.3z M616.9,198.4c0-0.5-0.1-0.7-0.4-0.7h-3.6l0,3h4V198.4z M612.9,201.5l0.1,3h3.9v-3H612.9z"/>
		<path d="M644.2,192.7c0.9-1.1,1.2-1.4,1.6-1.4c0.6,0,1.8,0.7,3,1.9c0.4,0.4,0.7,1,0.7,1.3c0,0.5-0.4,0.8-1.3,0.9
			c-1.1,0.1-2,0.6-3.4,2c-0.1,0.1-0.2,0.2-0.3,0.2s-0.2,0-0.2-0.1c0-0.1,0-0.2,0.1-0.3c0.2-0.7,0.4-2,0.7-3.7h-2.4
			c0.7,0.2,1,0.3,1,0.5c0,0.1-0.1,0.3-0.5,0.5l0.2,13.4c0,1.4-0.4,2.2-1.6,3c-0.8,0.5-1.7,0.8-2.6,0.8c-0.7,0-1.1-0.2-1.1-0.8
			c-0.1-1.1-0.7-1.9-2.2-2.5c-0.2-0.1-0.2-0.1-0.2-0.2c0-0.1,0-0.1,1-0.1c1.4,0,2.2-0.1,2.5-0.4c0.3-0.3,0.3-0.6,0.3-6.3
			c-1.4,2-2.6,3.1-4.3,4.3c-0.7,0.5-1.4,0.9-1.5,0.9c-0.1,0-0.2-0.1-0.2-0.2c0-0.1,0.1-0.2,0.1-0.3c2.5-2.7,5-8.3,5.6-12.7H636
			c-0.5,0-1,0-1.4,0.1c-0.4-0.5-0.4-0.6-0.4-0.7c0-0.1,0.1-0.2,0.3-0.2c0.5,0,1.2,0.1,1.5,0.1H644.2z M641.8,184.3
			c1.4-1.5,1.6-1.6,1.9-1.6c0.4,0,0.8,0.2,1.4,0.6c1.5,1.1,2.3,2,2.3,2.7c0,0.5-0.4,0.8-1.2,0.8c-1.3,0.1-1.8,0.2-2.7,0.7
			c-0.6,0.4-1.2,0.7-1.8,1c0.8,0.6,1.3,1.4,1.3,2.2c0,1-1,1.8-2.4,1.8c-1.2,0-1.6-0.4-1.8-1.8c-0.2-1-0.3-1.4-0.6-1.9
			c-0.3-0.5-1.2-1.4-1.6-1.6c-0.2-0.1-0.3-0.2-0.3-0.3c0-0.1,0.1-0.1,0.2-0.1c0.8,0,2.5,0.5,4.4,1.2c0.4-0.9,0.8-1.9,1.2-3h-5.6
			c-0.4,0-1,0-1.4,0.1c-0.4-0.5-0.5-0.6-0.5-0.7c0-0.1,0.1-0.2,0.3-0.2c0.5,0.1,1.2,0.1,1.5,0.1H641.8z M658.2,187.3
			c0.1,0.1,0.1,0.1,0.6,0.3c0.9,0.3,1.4,0.7,1.4,1c0,0.3-0.3,0.4-0.8,0.6c-1.1,1.7-1.7,2.5-2.9,3.8c1.9,1,4.9,1.7,8,2
			c0.3,0,0.4,0.1,0.4,0.2c0,0.2-0.1,0.2-0.3,0.4c-0.9,0.5-2.3,2.2-2.8,3.3c-0.1,0.3-0.3,0.4-0.7,0.4c-0.7,0-2.2-0.5-3.3-1.1
			c-1.5-0.8-2.5-1.5-3.8-2.7c-0.6,0.4-1.3,0.9-2.2,1.5c1,0.1,2.6,0.4,3.7,0.7c0.6,0.2,0.9,0.4,0.9,0.7c0,0.3-0.1,0.4-0.9,0.8
			l-0.3,1.8h2.3c0.1-0.1,0.1-0.1,0.3-0.4c0.7-0.8,1-1,1.3-1c0.4,0,1.8,0.8,2.8,1.6c0.5,0.4,0.8,0.8,0.8,1.1c0,0.3-0.3,0.5-0.8,0.7
			c-0.5,7.3-2,8.9-6,8.9c-0.7,0-1-0.2-1.2-0.6c-0.4-1.4-0.5-1.6-2-2.4c-0.3-0.2-0.4-0.2-0.4-0.3c0-0.1,0.1-0.2,0.2-0.2
			c0.1,0,0.3,0,0.6,0.1c0.5,0.1,1,0.1,1.4,0.1c1.3,0,2-0.6,2.6-2.3c0.4-1.1,0.7-3,0.8-4.5H655c-0.9,4-1.8,5.8-4.2,7.4
			c-1.5,1-3,1.6-5.6,2.3c-1.2,0.3-2.4,0.5-3,0.5c-0.2,0-0.3-0.1-0.3-0.2c0-0.1,0.1-0.2,0.4-0.3c1.9-0.4,4.1-1.5,5.5-2.9
			c1.7-1.6,2.7-3.7,3.2-6.7h-3.7c-0.5,0-1,0-1.4,0.1c-0.5-0.5-0.5-0.6-0.5-0.6c0-0.1,0.1-0.2,0.3-0.2c0.5,0,1.2,0.1,1.5,0.1h3.9
			c0.1-0.8,0.3-3,0.3-3.4c0-0.1,0-0.1,0-0.3c-1.1,0.7-2.3,1.2-3.7,1.7c-1.1,0.4-3.3,0.9-3.8,0.9c-0.1,0-0.2-0.1-0.2-0.2
			c0-0.1,0.1-0.2,0.4-0.3c3.1-0.9,6.4-3.3,8.4-6.3c-0.7-1.6-0.9-2.2-1.5-5.6c-1.1,1.3-2.1,2.3-2.9,3c-0.9,0.6-1.6,1.1-1.8,1.1
			c-0.1,0-0.1,0-0.1-0.1c0-0.1,0-0.1,0.1-0.3c1.2-1.7,2.5-6,2.8-8.9c0-0.4,0.1-0.5,0.2-0.5s0.6,0.1,0.8,0.2c3.5,0.9,4.4,1.3,4.4,2
			c0,0.4-0.3,0.6-1.3,0.9c-0.3,0.4-0.3,0.4-0.7,1c-0.4,0.5-0.4,0.5-0.8,0.9h6.6c1.2-1.9,1.8-2.7,2.3-2.7c0.4,0,1.2,0.5,2.3,1.5
			c0.7,0.7,0.9,1,0.9,1.5c0,0.3-0.3,0.4-1,0.4H658.2z M651.6,187.3c0.4,1.8,1,2.9,2.1,4c0.8-1.5,1.1-2.1,1.7-4H651.6z"/>
		<path d="M681.7,191.2c1.2-1.5,1.3-1.7,1.7-1.7c0.4,0,1.1,0.4,2.7,1.5c0.6,0.5,0.8,0.7,0.8,1c0,0.3-0.2,0.6-0.9,1
			c0,0.1,0.1,1.8,0.2,5l0,1c0,0.6-0.2,0.9-0.5,1.2c-0.6,0.4-1.6,0.6-2.4,0.6c-0.6,0-1-0.1-1.2-0.3c-0.1-0.2-0.1-0.2-0.1-1.3h-3.5
			c-0.1,4.2-0.7,6.2-2.6,8.8c-1,1.3-3.2,3.2-3.9,3.2c-0.1,0-0.2-0.1-0.2-0.2s0.1-0.1,0.4-0.4c0.9-0.8,1.7-2.4,2.1-4.2
			c0.3-1.5,0.4-2.8,0.4-5.1c0-2.7-0.3-9.3-0.4-11c0-0.1,0.1-0.2,0.2-0.2c1,0,3.6,0.7,4.2,1.1H681.7z M681.2,185.3
			c0.3-0.4,0.3-0.4,1.3-1.9c0.5-0.7,0.7-0.9,1.1-0.9c0.4,0,1,0.4,2.1,1.3c0.9,0.8,1.3,1.3,1.3,1.7c0,0.4-0.3,0.6-1.1,0.6h-11.3
			c-0.4,0-0.9,0-1.4,0.1c-0.5-0.6-0.5-0.6-0.5-0.7c0-0.1,0.1-0.2,0.3-0.2c0.6,0.1,1.4,0.1,1.8,0.1H681.2z M681.9,192.3
			c0-0.3-0.1-0.4-0.3-0.4h-2.9l-0.1,0.1c-0.2,0.2-0.2,0.3-0.2,0.8l0.1,5.6h3.5V192.3z M696.5,193.1c1.7-3,1.9-3.3,2.4-3.3
			c0.4,0,1.3,0.6,2.3,1.7c0.9,0.9,1.2,1.3,1.2,1.8c0,0.3-0.3,0.6-0.7,0.6h-3.2c0.4,0.1,0.6,0.3,0.6,0.5c0,0.2-0.1,0.3-0.3,0.4
			c-0.2,0.1-0.3,0.2-0.5,0.4c0,0.6,0,0.6,0.1,2.4c0,1.2,0.4,8.7,0.4,10c0,1.5,0.1,2.5,0.1,2.6c0,1-1.2,1.6-3.1,1.6
			c-1.3,0-1.5-0.2-1.5-1.2c0-0.4,0-0.7,0-1.5c0.1-1.7,0.2-8,0.2-11.3c0-1.4,0-2.2-0.1-3.9h-2.4c-0.1,7-0.4,9.3-1.9,11.6
			c-1.3,2-3.8,4-6.8,5.3c-1,0.4-2,0.8-2.4,0.8c-0.1,0-0.2-0.1-0.2-0.2c0-0.2,0-0.2,0.9-0.6c1.6-0.7,3.5-2.4,4.4-3.9
			c0.9-1.4,1.5-3,1.8-5.2c0.2-1.4,0.3-2.9,0.3-6.7c0-1.4-0.2-7.5-0.2-9c0-0.6-0.1-1.4-0.1-1.7c0-0.1,0.1-0.2,0.2-0.2
			c1.2,0,3.3,0.6,4.5,1.4c2.3-1.2,3.2-1.7,5.3-3.2c3.1,1.8,4.1,2.7,4.1,3.5c0,0.5-0.3,0.7-1.2,0.7c-0.3,0-0.7,0-1.4,0
			c-4,0.2-6.5,0.3-7.3,0.3c-0.2,0.2-0.2,0.4-0.2,0.6v5.9H696.5z"/>
	</g>
	<g>
		<path d="M392.5,220.1c-0.3-0.4-0.7-0.7-1.5-0.7c-0.7,0-1.2,0.3-1.2,1c0,0.7,0.6,1,1.5,1.2c1.2,0.2,1.9,0.6,1.9,1.8
			c0,0.8-0.5,1.7-2.1,1.7c-1,0-1.7-0.3-2.2-1l0.6-0.4c0.4,0.5,0.8,0.8,1.6,0.8c1,0,1.3-0.5,1.3-1c0-0.6-0.3-1-1.5-1.2
			c-1.2-0.2-1.9-0.7-1.9-1.8c0-0.9,0.6-1.7,2-1.7c1,0,1.6,0.3,2.1,1L392.5,220.1z"/>
		<path d="M401.4,218.7v0.7h-3v1.9h2.7v0.7h-2.7v2.2h3v0.7h-3.7v-6.2H401.4z"/>
		<path d="M406.6,224.9h-0.8v-6.2h0.8V224.9z"/>
		<path d="M415,224.9l-1.3-2.6h-1.5v2.6h-0.8v-6.2h2c1.4,0,2.3,0.6,2.3,1.8c0,0.9-0.4,1.4-1.2,1.7l1.4,2.8H415z M413.4,221.6
			c1.1,0,1.5-0.3,1.5-1.1c0-0.8-0.4-1.1-1.5-1.1h-1.2v2.2H413.4z"/>
		<path d="M419.4,224.9l2.2-6.2h0.7l2.2,6.2h-0.8l-0.5-1.4h-2.4l-0.5,1.4H419.4z M421,222.8h2l-1-2.9L421,222.8z"/>
		<path d="M432.8,218.7v6.2H432l-2.7-4.7v4.7h-0.8v-6.2h0.7l2.7,4.7v-4.7H432.8z"/>
		<path d="M443,224.9v-6.2h2c1.4,0,2.2,0.8,2.2,2.8v0.6c0,2-0.9,2.8-2.2,2.8H443z M446.5,222.1v-0.6c0-1.5-0.5-2.1-1.5-2.1h-1.2v4.8
			h1.2C446,224.2,446.5,223.6,446.5,222.1z"/>
		<path d="M455.4,218.7v0.7h-3v1.9h2.7v0.7h-2.7v2.2h3v0.7h-3.7v-6.2H455.4z"/>
		<path d="M463,220.1c-0.3-0.4-0.7-0.7-1.5-0.7c-0.7,0-1.2,0.3-1.2,1c0,0.7,0.6,1,1.5,1.2c1.2,0.2,1.9,0.6,1.9,1.8
			c0,0.8-0.5,1.7-2.1,1.7c-1,0-1.7-0.3-2.2-1l0.6-0.4c0.4,0.5,0.8,0.8,1.6,0.8c1,0,1.3-0.5,1.3-1c0-0.6-0.3-1-1.5-1.2
			c-1.2-0.2-1.9-0.7-1.9-1.8c0-0.9,0.6-1.7,2-1.7c1,0,1.6,0.3,2.1,1L463,220.1z"/>
		<path d="M469,224.9h-0.8v-6.2h0.8V224.9z"/>
		<path d="M478.1,221.8v0.4c0,2-0.9,2.8-2.3,2.8c-1.4,0-2.3-0.8-2.3-2.8v-0.7c0-2,0.9-2.8,2.3-2.8c1.2,0,2,0.6,2.2,2h-0.8
			c-0.2-0.9-0.7-1.3-1.5-1.3c-1,0-1.5,0.6-1.5,2.1v0.7c0,1.5,0.5,2.1,1.5,2.1c0.9,0,1.4-0.5,1.5-1.8h-1.5v-0.7H478.1z"/>
		<path d="M486.8,218.7v6.2H486l-2.7-4.7v4.7h-0.8v-6.2h0.7l2.7,4.7v-4.7H486.8z"/>
		<path d="M498.9,225c-1.4,0-2.3-0.8-2.3-2.8v-0.7c0-2,0.9-2.8,2.3-2.8c1.4,0,2.2,0.8,2.2,2.8v0.7C501.2,224.1,500.3,225,498.9,225z
			 M497.5,222.1c0,1.5,0.5,2.1,1.5,2.1c1,0,1.5-0.6,1.5-2.1v-0.7c0-1.5-0.5-2.1-1.5-2.1c-1,0-1.5,0.6-1.5,2.1V222.1z"/>
		<path d="M509.4,218.7v0.7h-3v2.1h2.7v0.7h-2.7v2.7h-0.8v-6.2H509.4z"/>
		<path d="M517.4,218.7v0.7h-3v2.1h2.7v0.7h-2.7v2.7h-0.8v-6.2H517.4z"/>
		<path d="M522.5,224.9h-0.8v-6.2h0.8V224.9z"/>
		<path d="M530.8,220.6c-0.2-1-0.7-1.3-1.5-1.3c-1,0-1.5,0.6-1.5,2.1v0.7c0,1.5,0.5,2.1,1.5,2.1c0.8,0,1.3-0.4,1.5-1.3h0.7
			c-0.2,1.4-1,2-2.2,2c-1.4,0-2.3-0.8-2.3-2.8v-0.7c0-2,0.9-2.8,2.3-2.8c1.2,0,2,0.6,2.2,2H530.8z"/>
		<path d="M539.6,218.7v0.7h-3v1.9h2.7v0.7h-2.7v2.2h3v0.7h-3.7v-6.2H539.6z"/>
		<path d="M549.3,218.7h0.8v0.8h-0.8V218.7z M549.3,220.4h0.7v4.5h-0.7V220.4z"/>
		<path d="M554.6,220.4h0.7v0.4c0.2-0.3,0.5-0.5,1.2-0.5c1,0,1.6,0.5,1.6,1.8v2.8h-0.7v-2.8c0-0.9-0.5-1.1-1-1.1
			c-0.7,0-1.1,0.5-1.1,1.1v2.8h-0.7V220.4z"/>
		<path d="M572,218.7v0.7h-3v2.1h2.7v0.7H569v2.7h-0.8v-6.2H572z"/>
		<path d="M580.7,218.7v3.7c0,1.8-0.9,2.6-2.3,2.6c-1.4,0-2.2-0.8-2.2-2.6v-3.7h0.8v3.7c0,1.4,0.5,1.9,1.5,1.9s1.5-0.5,1.5-1.9v-3.7
			H580.7z"/>
		<path d="M589.5,224.9l-2.1-3.1l-1.1,1.4v1.7h-0.8v-6.2h0.8v3.3l2.7-3.3h1l-2,2.5l2.5,3.7H589.5z"/>
		<path d="M599,218.7v3.7c0,1.8-0.9,2.6-2.3,2.6c-1.4,0-2.2-0.8-2.2-2.6v-3.7h0.8v3.7c0,1.4,0.5,1.9,1.5,1.9s1.5-0.5,1.5-1.9v-3.7
			H599z"/>
		<path d="M605.7,225c-1.4,0-2.3-0.8-2.3-2.8v-0.7c0-2,0.9-2.8,2.3-2.8c1.4,0,2.2,0.8,2.2,2.8v0.7C607.9,224.1,607,225,605.7,225z
			 M604.2,222.1c0,1.5,0.5,2.1,1.5,2.1c1,0,1.5-0.6,1.5-2.1v-0.7c0-1.5-0.5-2.1-1.5-2.1c-1,0-1.5,0.6-1.5,2.1V222.1z"/>
		<path d="M616.4,224.9l-2.1-3.1l-1.1,1.4v1.7h-0.8v-6.2h0.8v3.3l2.7-3.3h1l-2,2.5l2.5,3.7H616.4z"/>
		<path d="M620.7,224.9l2.2-6.2h0.7l2.2,6.2h-0.8l-0.5-1.4H622l-0.5,1.4H620.7z M622.2,222.8h2l-1-2.9L622.2,222.8z"/>
	</g>
</g>
<g>
	<path class="st0" d="M357,328.2v-21.7c0-7.4-6-13.4-13.4-13.4h-56.8v30c0,7.4,6,13.4,13.4,13.4H357h8.3
		C360.7,336.4,357,332.7,357,328.2z"/>
	<g>
		<path d="M384.2,302.2c-0.5-0.7-1.1-1.2-2.3-1.2c-1.1,0-1.8,0.5-1.8,1.4c0,1,0.8,1.4,2.3,1.8c2.2,0.5,3.3,1.3,3.3,3.2
			c0,1.6-1.1,3.1-3.7,3.1c-1.8,0-3.1-0.6-4-1.8l1.4-1c0.6,0.8,1.3,1.2,2.5,1.2c1.5,0,2-0.7,2-1.4c0-0.9-0.5-1.4-2.4-1.8
			c-2.1-0.4-3.3-1.4-3.3-3.3c0-1.6,1.1-3,3.6-3c1.7,0,2.9,0.6,3.7,1.8L384.2,302.2z"/>
		<path d="M395.8,299.6v1.6H391v2.8h4.3v1.6H391v3.2h4.8v1.6h-6.6v-10.8H395.8z"/>
		<path d="M401,310.4h-1.8v-10.8h1.8V310.4z"/>
		<path d="M411.1,310.4L409,306h-2.1v4.4h-1.8v-10.8h3.7c2.5,0,4,1.1,4,3.2c0,1.5-0.7,2.4-2,2.9l2.3,4.7H411.1z M408.7,304.5
			c1.5,0,2.3-0.4,2.3-1.6s-0.8-1.6-2.3-1.6h-1.7v3.3H408.7z"/>
		<path d="M415.1,310.4l3.8-10.8h1.7l3.8,10.8h-1.9l-0.7-2.2h-3.9l-0.7,2.2H415.1z M418.3,306.6h2.9l-1.4-4.4L418.3,306.6z"/>
		<path d="M434.6,299.6v10.8H433l-4.4-7.3v7.3h-1.8v-10.8h1.6l4.4,7.4v-7.4H434.6z"/>
		<path d="M378,329.9v-10.8h3.6c2.4,0,4.1,1.3,4.1,4.8v1.3c0,3.5-1.6,4.8-4.1,4.8H378z M383.9,325.2v-1.3c0-2.2-0.7-3.2-2.2-3.2
			h-1.8v7.7h1.8C383.2,328.4,383.9,327.4,383.9,325.2z"/>
		<path d="M395.8,319.1v1.6H391v2.8h4.3v1.6H391v3.2h4.8v1.6h-6.6v-10.8H395.8z"/>
		<path d="M404.8,321.7c-0.5-0.7-1.1-1.2-2.3-1.2c-1.1,0-1.8,0.5-1.8,1.4c0,1,0.8,1.4,2.3,1.8c2.2,0.5,3.3,1.3,3.3,3.2
			c0,1.6-1.1,3.1-3.7,3.1c-1.8,0-3.1-0.6-4-1.8l1.4-1c0.6,0.8,1.3,1.2,2.5,1.2c1.5,0,2-0.7,2-1.4c0-0.9-0.5-1.4-2.4-1.8
			c-2.1-0.4-3.3-1.4-3.3-3.3c0-1.6,1.1-3,3.6-3c1.7,0,2.9,0.6,3.7,1.8L404.8,321.7z"/>
		<path d="M411.7,329.9h-1.8v-10.8h1.8V329.9z"/>
		<path d="M423.3,324.4v0.8c0,3.4-1.5,4.9-4,4.9c-2.4,0-4-1.5-4-4.9v-1.3c0-3.5,1.6-4.9,4-4.9c2.2,0,3.6,1.2,3.9,3.5h-1.8
			c-0.3-1.3-1-1.9-2.2-1.9c-1.4,0-2.2,0.9-2.2,3.3v1.4c0,2.3,0.8,3.3,2.2,3.3c1.4,0,2.1-0.8,2.2-2.5h-2.1v-1.6H423.3z"/>
		<path d="M434.6,319.1v10.8H433l-4.4-7.3v7.3h-1.8v-10.8h1.6l4.4,7.4v-7.4H434.6z"/>
		<path d="M447.7,330.1c-2.4,0-4-1.5-4-4.9v-1.4c0-3.4,1.6-4.9,4-4.9c2.4,0,4.1,1.5,4.1,4.9v1.4
			C451.7,328.6,450.1,330.1,447.7,330.1z M445.4,325.2c0,2.3,0.8,3.3,2.2,3.3s2.2-0.9,2.2-3.3v-1.4c0-2.3-0.8-3.3-2.2-3.3
			s-2.2,0.9-2.2,3.3V325.2z"/>
		<path d="M461.8,319.1v1.6H457v3.1h4.3v1.6H457v4.6h-1.8v-10.8H461.8z"/>
		<path d="M471.6,319.1v1.6h-4.8v3.1h4.3v1.6h-4.3v4.6H465v-10.8H471.6z"/>
		<path d="M476.8,329.9H475v-10.8h1.8V329.9z"/>
		<path d="M486.6,322.5c-0.3-1.3-1-1.9-2.2-1.9c-1.4,0-2.2,0.9-2.2,3.3v1.4c0,2.3,0.8,3.3,2.2,3.3c1.2,0,1.9-0.6,2.2-1.9h1.7
			c-0.4,2.4-1.8,3.5-3.9,3.5c-2.4,0-4-1.5-4-4.9v-1.4c0-3.4,1.6-4.9,4-4.9c2.1,0,3.6,1.1,3.9,3.5H486.6z"/>
		<path d="M498.3,319.1v1.6h-4.8v2.8h4.3v1.6h-4.3v3.2h4.8v1.6h-6.6v-10.8H498.3z"/>
	</g>
</g>
<g>
	<path class="st0" d="M643.8,327v-21.7c0-7.4-6-13.4-13.4-13.4h-56.8v30c0,7.4,6,13.4,13.4,13.4h56.8h8.3
		C647.5,335.2,643.8,331.5,643.8,327z"/>
	<g>
		<path d="M598.7,344.8c-0.4-0.6-0.8-0.8-1.6-0.8c-0.8,0-1.2,0.3-1.2,0.9c0,0.6,0.5,0.9,1.6,1.2c1.7,0.4,2.5,1.1,2.5,2.5
			c0,1.4-0.9,2.4-2.9,2.4c-1.5,0-2.5-0.4-3.2-1.4l1.3-0.9c0.4,0.6,0.9,0.8,1.8,0.8c1,0,1.3-0.4,1.3-0.9c0-0.6-0.3-0.9-1.7-1.2
			c-1.6-0.4-2.4-1.2-2.4-2.6c0-1.3,0.9-2.3,2.8-2.3c1.3,0,2.3,0.4,2.9,1.4L598.7,344.8z"/>
		<path d="M608.3,342.6v1.4h-3.5v1.9h3.1v1.4h-3.1v2.2h3.5v1.4h-5.2v-8.3H608.3z"/>
		<path d="M615.2,350.9h-1.7v-8.3h1.7V350.9z"/>
		<path d="M624.4,350.9l-1.5-3.2h-1.3v3.2h-1.7v-8.3h3c1.9,0,3.1,0.9,3.1,2.5c0,1.1-0.5,1.8-1.4,2.2l1.7,3.5H624.4z M622.7,346.2
			c1,0,1.6-0.2,1.6-1.1c0-0.9-0.6-1.1-1.6-1.1h-1.1v2.2H622.7z"/>
		<path d="M628.1,350.9l2.9-8.3h1.6l2.9,8.3h-1.8l-0.5-1.6h-2.8l-0.5,1.6H628.1z M630.9,347.9h1.9l-0.9-2.9L630.9,347.9z"/>
		<path d="M643.6,342.6v8.3h-1.4l-3.2-5.1v5.1h-1.6v-8.3h1.4l3.2,5.2v-5.2H643.6z"/>
		<path d="M594,365.9v-8.3h2.9c1.9,0,3.2,1,3.2,3.6v1.1c0,2.6-1.3,3.6-3.2,3.6H594z M598.4,362.3v-1.1c0-1.4-0.4-2.2-1.5-2.2h-1.3
			v5.4h1.3C598,364.5,598.4,363.7,598.4,362.3z"/>
		<path d="M609,357.6v1.4h-3.5v1.9h3.1v1.4h-3.1v2.2h3.5v1.4h-5.2v-8.3H609z"/>
		<path d="M617,359.8c-0.4-0.6-0.8-0.8-1.6-0.8c-0.8,0-1.2,0.3-1.2,0.9c0,0.6,0.5,0.9,1.6,1.2c1.7,0.4,2.5,1.1,2.5,2.5
			c0,1.4-0.9,2.4-2.9,2.4c-1.5,0-2.5-0.4-3.2-1.4l1.3-0.9c0.4,0.6,0.9,0.8,1.8,0.8c1,0,1.3-0.4,1.3-0.9c0-0.6-0.3-0.9-1.7-1.2
			c-1.6-0.4-2.4-1.2-2.4-2.6c0-1.3,0.9-2.3,2.8-2.3c1.3,0,2.3,0.4,2.9,1.4L617,359.8z"/>
		<path d="M623.9,365.9h-1.7v-8.3h1.7V365.9z"/>
		<path d="M634.7,361.6v0.8c0,2.5-1.2,3.7-3,3.7c-1.9,0-3.2-1.1-3.2-3.7v-1.1c0-2.7,1.3-3.8,3.2-3.8c1.7,0,2.8,1,3,2.7H633
			c-0.1-0.8-0.6-1.3-1.4-1.3c-1,0-1.5,0.7-1.5,2.2v1.2c0,1.6,0.5,2.2,1.5,2.2c0.9,0,1.3-0.6,1.4-1.6h-1.4v-1.4H634.7z"/>
		<path d="M643.6,357.6v8.3h-1.4l-3.2-5.1v5.1h-1.6v-8.3h1.4l3.2,5.2v-5.2H643.6z"/>
		<path d="M597,381c-1.9,0-3.2-1.1-3.2-3.7v-1.2c0-2.6,1.3-3.7,3.2-3.7c1.9,0,3.2,1.1,3.2,3.7v1.2C600.2,379.9,598.9,381,597,381z
			 M595.5,377.3c0,1.6,0.5,2.2,1.5,2.2c1,0,1.5-0.7,1.5-2.2v-1.2c0-1.6-0.5-2.2-1.5-2.2c-1,0-1.5,0.7-1.5,2.2V377.3z"/>
		<path d="M609,372.6v1.4h-3.5v2.1h3.1v1.4h-3.1v3.4h-1.7v-8.3H609z"/>
		<path d="M617.9,372.6v1.4h-3.5v2.1h3.1v1.4h-3.1v3.4h-1.7v-8.3H617.9z"/>
		<path d="M623.9,380.9h-1.7v-8.3h1.7V380.9z"/>
		<path d="M633.1,375.2c-0.2-0.8-0.6-1.3-1.4-1.3c-1,0-1.5,0.7-1.5,2.2v1.2c0,1.5,0.5,2.2,1.5,2.2c0.8,0,1.2-0.4,1.4-1.3h1.6
			c-0.3,1.9-1.3,2.7-3,2.7c-1.9,0-3.2-1.1-3.2-3.7v-1.2c0-2.6,1.3-3.7,3.2-3.7c1.6,0,2.8,0.9,3,2.7H633.1z"/>
		<path d="M643.6,372.6v1.4h-3.5v1.9h3.1v1.4h-3.1v2.2h3.5v1.4h-5.2v-8.3H643.6z"/>
	</g>
</g>
<g>
	<path class="st0" d="M209.6,56V34.3c0-7.4-6-13.4-13.4-13.4h-56.8v30c0,7.4,6,13.4,13.4,13.4h56.8h8.3
		C213.3,64.3,209.6,60.6,209.6,56z"/>
	<path d="M184.6,98.6c1.5-1.8,1.5-1.8,1.7-2c0.6-0.8,1-1,1.4-1c1,0,3.6,2.4,3.6,3.4c0,0.4-0.4,0.6-1,0.6H160c-0.5,0-1,0-1.5,0.1
		c-0.5-0.6-0.5-0.7-0.5-0.8c0-0.1,0.1-0.3,0.3-0.3c0.7,0,1.6,0.1,2,0.1h11.5v-3.3h-6.9c-0.5,0-1,0-1.5,0.1c-0.5-0.6-0.5-0.7-0.5-0.8
		c0-0.1,0.1-0.3,0.3-0.3c0.7,0,1.6,0.1,2,0.1h6.7l0-3.3h-9.5c-0.6,0-1.2,0-1.8,0c-0.5-0.6-0.6-0.6-0.6-0.7c0-0.1,0.1-0.3,0.3-0.3
		c0.7,0,1.5,0.1,2,0.1h9.6c0-1.8,0-3.3,0-3.7c0-0.6,0-0.6,0.4-0.6c0.9,0,3.9,0.4,4.9,0.7c0.5,0.1,0.9,0.5,0.9,0.9c0,0.4,0,0.4-1.1,1
		l0,1.7h6c1.5-2.2,2.2-3,2.7-3c0.6,0,1.5,0.6,2.9,1.8c0.7,0.6,1,1.1,1,1.5c0,0.4-0.3,0.6-0.8,0.6h-11.9v3.3h3.7
		c1.4-1.9,2-2.5,2.4-2.5c0.9,0,3.4,2.1,3.4,2.8c0,0.4-0.3,0.6-1,0.6h-8.7v3.3H184.6z M179.8,102.2c1-1.5,1.4-1.9,1.8-1.9
		c0.5,0,2.2,0.9,3.4,1.8c0.5,0.4,0.7,0.7,0.7,1c0,0.3-0.1,0.5-0.9,1.1c0,1,0,1,0,2.2c0.1,2.3,0.1,2.4,0.1,4c0,1.6,0,1.6,0.1,4.1v0.4
		c0,1.3-0.3,2-1.2,2.8c-1,0.9-2.3,1.4-3.7,1.4c-0.6,0-1.1-0.1-1.3-0.3c-0.1-0.1-0.1-0.1-0.4-1c-0.3-1-0.7-1.3-2.7-2.4
		c-0.2-0.1-0.3-0.2-0.3-0.3c0-0.1,0-0.2,0.2-0.2c0.1,0,0.1,0,0.4,0c0.6,0.1,1.1,0.1,1.5,0.1c1,0,1.8-0.1,2.2-0.3
		c0.5-0.3,0.5-0.3,0.5-4h-11.4c0,2.2,0,2.5,0,4.1c0,1.1,0,1.2,0,1.6c0,1.1-0.1,1.4-0.6,1.7c-0.6,0.3-1.7,0.6-2.6,0.6
		c-1,0-1.4-0.3-1.4-0.9c0-0.3,0-0.4,0.1-2.5c0.1-2.3,0.2-9.1,0.2-10.7v-3.5c0-0.4,0-0.4,0.2-0.4c0.5,0,1.5,0.2,2.8,0.6
		c1.2,0.3,1.5,0.5,1.9,0.9H179.8z M180.1,106.1c0-2.8,0-2.8,0-2.9c0-0.1-0.1-0.2-0.4-0.2h-10.4c-0.4,0.2-0.6,0.4-0.6,0.7v2.5H180.1z
		 M168.7,106.9v3h11.4v-3H168.7z"/>
	<path d="M184.2,131.5c1.5-2.5,2.1-3,2.7-3c1,0,3.9,2.3,3.9,3.2c0,0.3-0.4,0.6-0.8,0.6h-9.4v1.6c0,0.6-0.7,1.2-2.2,1.3
		c3.3,0.7,4.5,1,4.5,1.5c0,0.6-0.5,0.9-1.1,1.2c-0.5,0.8-0.9,1.4-1.6,2.3h4.1c1.7-2.5,2-2.8,2.4-2.8c1,0,3.3,2.2,3.3,3.1
		c0,0.5-0.3,0.6-1.3,0.6h-9.2c-1.5,2-2.4,3-4,4.2c-0.9,0.7-1.4,1-1.6,1c-0.1,0-0.2,0-0.2-0.1c0-0.1,0-0.1,0.2-0.3
		c1.5-1.9,3.2-7.6,3.7-10.6c-0.3,0.1-0.6,0-0.8,0c-0.6,0-1-0.3-1-0.9v-2.2h-4.7v1.6c0,0.9-1.3,1.5-3.4,1.5c-1,0-1.3-0.2-1.3-0.8
		l0-2.3h-4.2c-1.3,0-2.7,0.1-4,0.3c-0.6-0.8-0.6-0.9-0.6-0.9c0-0.1,0.1-0.3,0.3-0.3c1.2,0.1,2.6,0.1,3.3,0.1h5.1c0-0.5,0-1,0-1.5
		c0-0.6,0-1.3,0-1.9c0-0.2,0-0.2,0.3-0.2c1.2,0,4.2,0.4,4.7,0.7c0.4,0.2,0.5,0.4,0.5,0.6c0,0.3-0.2,0.5-0.8,0.9v1.5h4.7
		c0-1.5,0-2.5,0-3.4c0-0.2,0.1-0.3,0.4-0.3c1,0,3.2,0.3,4.1,0.5c0.8,0.2,1.1,0.5,1.1,0.9c0,0.3-0.3,0.6-0.9,0.9l0,1.5H184.2z
		 M185.8,159.6c1.4-2.3,2.2-3.3,2.7-3.3c0.9,0,3.1,2.4,3.1,3.5c0,0.5-0.4,0.7-1.1,0.7h-29.5c-0.8,0-1.7,0-2.4,0.1
		c-0.6-0.7-0.6-0.8-0.6-0.8c0-0.1,0.1-0.3,0.3-0.3c0.5,0,1.2,0.1,1.5,0.1h4c0-1.6,0-3.2,0-4.8c0-1.7,0-2.8-0.1-3.6v-0.1
		c0-0.2,0.1-0.3,0.2-0.3c0.2,0,1,0.1,2.3,0.4c1.4,0.3,1.4,0.3,1.6,0.6h13c1.3-2,1.4-2.1,1.9-2.1c0.4,0,0.9,0.3,2.2,1.2
		c1,0.7,1.5,1.3,1.5,1.8c0,0.3-0.2,0.5-1,0.9l0,5.9H185.8z M170.4,148.8c1.6-2.2,1.6-2.2,1.9-2.2c0.8,0,2.8,1.8,2.8,2.4
		c0,0.3-0.3,0.5-0.8,0.5h-10.8v0.1c0,0.8-1.1,1.4-2.7,1.4c-1,0-1.4-0.2-1.4-1c0-0.5,0-0.8,0.1-3.8c0-0.6,0-3.2,0-5.5
		c0-2.6,0-4.4,0-4.9v-0.2c0-0.2,0-0.3,0.2-0.3c0.4,0,2.5,0.5,3.3,0.8c0.4,0.2,0.7,0.4,0.9,0.6h6.1c1.2-1.4,1.7-1.9,2-1.9
		c0.3,0,0.6,0.2,1.6,1c0.8,0.6,1,0.9,1,1.3c0,0.3-0.3,0.5-0.7,0.5h-5l0,3h0.8l0.7-0.9c0.3-0.4,0.5-0.6,0.9-0.6
		c0.4,0,0.6,0.1,2.4,1.3c0.5,0.4,0.7,0.6,0.7,0.8c0,0.3-0.1,0.4-0.6,0.7c-0.2,0.1-0.2,0.3-0.2,0.4l0,2.3c0,0.8-1,1.3-2.6,1.3
		c-0.9,0-1.2-0.1-1.2-0.8H169l0,3.6H170.4z M165.4,140.7c0-0.6,0-1.1,0-1.5c0-0.3,0-0.8,0-1.5h-1.4c-0.5,0.1-0.5,0.3-0.5,1.2v1.8
		H165.4z M163.4,141.5v2.9h6.5v-2.9H163.4z M165.4,148.8c0-0.8,0-1.4,0-1.8c0-0.4,0-1,0-1.8h-2l0,3.6H165.4z M167.8,152.7
		c-0.3,0-0.3,0.3-0.3,1.7v5.3h2c0-1.3,0-1.9,0-2.7v-4.3H167.8z M173.6,152.7c0,0.1-0.1,0.2-0.2,0.3c-0.1,0.1-0.2,0.2-0.3,0.3
		c0,0.1,0,0.3-0.1,2.5l0,2.8c0,0.5,0,0.7,0,1.1h2c0-2.2,0-4.8,0-6.9H173.6z M183.2,147.4c0.1-0.2,0.5-0.9,1.1-1.8
		c0.6-0.9,0.8-1.2,1.2-1.2c0.6,0,1.1,0.4,2.5,1.9c0.5,0.6,0.7,1,0.7,1.4c0,0.4-0.3,0.6-0.7,0.6h-7.8c-0.9,0-1.9,0-2.9,0.2
		c-0.5-0.7-0.6-0.8-0.6-0.9c0-0.1,0.1-0.3,0.3-0.3c0.8,0.1,1.8,0.1,2.3,0.1H183.2z M179.3,152.7c0,0.1-0.1,0.2-0.3,0.3
		c-0.2,0.1-0.2,0.5-0.2,2.9v3.7h2c0-2,0-5.8,0-6.9H179.3z"/>
	<path d="M176.7,186.2c0.2,0.3,0.3,0.4,0.3,0.6c0,0.3-0.2,0.5-0.7,0.8c-0.3,2.8-1,5.1-2.1,7c-1.3,2.2-3.2,3.8-5.7,5.1
		c-0.9,0.4-2.2,0.9-3.3,1.3c-0.8,0.2-1.5,0.4-1.8,0.4c-0.1,0-0.3,0-0.3-0.1c0-0.1,0.1-0.2,0.6-0.4c0.9-0.4,1.9-1,2.8-1.6
		c1.1-0.9,2.2-1.9,2.8-2.9c1.6-2.3,2.6-5.8,2.6-9.1c0-1.5-0.1-1.9-0.6-2.7c-0.4,0-1.2,0.2-2.2,0.4c-1,0.2-2.2,0.5-3.2,0.8
		c-0.5,0.1-1.4,0.5-2.2,0.9c-0.3,0.1-0.5,0.2-0.7,0.2c-0.6,0-1.4-0.6-2.1-1.3c-0.7-0.8-1.2-1.7-1.2-2.3c0-0.1,0-0.1,0.1-0.1
		c0.1,0,0.1,0,0.4,0.1c0.8,0.3,1.4,0.4,2.1,0.4c0.5,0,2.5-0.3,5.3-0.6c2.6-0.4,5.8-0.8,9.3-1.3c1.5-0.2,1.9-0.3,2.9-0.7
		c0.3-0.1,0.5-0.2,0.9-0.4c0.3-0.1,0.5-0.1,0.6-0.1c0.5,0,2.6,0.8,3.8,1.5c0.7,0.4,1.2,1,1.2,1.5c0,0.6-0.7,1.4-1.3,1.4
		c-0.3,0-1.3-0.2-2.3-0.4c-1.8-0.4-2.8-0.4-4.6-0.4c-1.7,0-3.4,0.1-5.3,0.2C176,185.5,176.2,185.7,176.7,186.2z M176.2,177.1
		c-1,0-2.8,0.2-4.4,0.4c-1.4,0.2-2.7,0.4-3.4,0.6c-0.5,0.1-0.8,0.2-0.9,0.2c-0.5,0-1.1-0.4-1.9-1.3c-0.2-0.3-0.4-0.6-0.6-0.9
		c-0.2-0.3-0.3-0.5-0.3-0.6c0-0.1,0-0.1,0.1-0.1c0.1,0,0.4,0.1,0.6,0.1c0.4,0.1,1.1,0.2,1.4,0.2c0.9,0,2.5-0.2,4.1-0.5
		c1.7-0.4,3.4-0.8,4.3-1.1c0.9-0.4,1-0.4,1.3-0.4c0.6,0,1.4,0.3,2.6,0.9c0.9,0.4,1.3,0.9,1.3,1.6c0,0.7-0.7,1.1-2,1.1
		c-0.4,0-0.5,0-1.6-0.1L176.2,177.1z M184.4,176.4c-0.4,0-0.8-0.1-1.1-0.5c-0.2-0.3-0.2-0.3-0.3-1.1c-0.2-1-1-2.3-1.7-2.9
		c-0.1-0.1-0.1-0.1-0.1-0.2c0-0.1,0.1-0.1,0.2-0.1c0.5,0,1.7,0.5,2.5,1c1.1,0.6,1.8,1.7,1.8,2.6
		C185.6,175.9,185.1,176.4,184.4,176.4z M186.8,173.8c-0.4-1.1-1.3-2.3-2.4-3c-0.3-0.1-0.3-0.2-0.3-0.3c0-0.1,0.1-0.1,0.3-0.1
		c0.5,0,1.2,0.1,2,0.5c2,0.7,3.1,1.8,3.1,2.9c0,0.8-0.5,1.4-1.2,1.4C187.5,175,187.2,174.7,186.8,173.8z"/>
	<path d="M171.2,223.4c3.2-0.3,3.9-0.3,5-0.4c0-0.5,0-1,0-1.4c0-0.6,0-1.3,0-1.9c0-1.9-0.2-3.3-0.6-3.7c-0.2-0.2-0.5-0.3-1-0.4
		c-0.1,0-0.2-0.1-0.2-0.2c0-0.1,0.2-0.4,0.5-0.6c0.5-0.3,1.2-0.7,1.7-0.7c0.5,0,1.5,0.4,2.2,0.8c1.5,1,2,1.6,2,2.2
		c0,0.1-0.1,0.4-0.2,0.5c-0.5,0.5-0.5,0.5-0.5,0.9c0,1.4,0,2.8,0,4.1c1.9-0.1,2.5-0.3,3.5-0.6c0.3-0.1,0.6-0.2,0.7-0.2
		c0.5,0,2,0.7,3.2,1.4c0.8,0.5,1.1,1,1.1,1.7s-0.6,1.1-1.5,1.1c-0.3,0-0.9-0.1-2.7-0.6c-1.2-0.3-1.8-0.4-4.5-0.5
		c-0.2,5.5-0.4,6.7-1.1,8.9c-1.3,3.7-4.6,6.7-9.3,8.5c-1.2,0.5-2.3,0.8-2.7,0.8c-0.1,0-0.3-0.1-0.3-0.1c0-0.1,0.1-0.2,0.8-0.5
		c2.5-1.3,4.7-3.3,6.1-5.6c1.3-2,2-4.4,2.3-7.4c0.1-1,0.1-1.4,0.2-4.5c-0.7,0-1.2,0.1-1.5,0.1c-1.9,0.1-2.2,0.2-3.5,0.3l0.1,4.5
		c0,3-0.8,4.7-2.3,4.7c-0.5,0-0.7-0.2-1-0.9c-0.3-0.6-0.4-1.9-0.4-2.4c0-0.8,0.1-2.3,0.1-4.2c0-0.3,0-0.5,0-0.9
		c-2.6,0.6-3.4,0.9-4.8,1.4c-0.4,0.2-0.8,0.3-1,0.3c-0.4,0-1-0.5-1.5-1.1c-0.6-0.8-1.2-1.8-1.2-2.4c0-0.3,0.1-0.4,0.4-0.8
		c0.6,0.7,1,0.9,1.6,0.9c1.3,0,2.2-0.1,6.4-0.6c-0.2-3.2-0.3-4-0.6-4.4c-0.3-0.4-0.6-0.6-1.3-0.7c-0.2,0-0.3-0.1-0.3-0.2
		c0-0.1,0.5-0.4,1-0.6c0.6-0.2,1.2-0.4,1.5-0.4c0.5,0,1.3,0.3,2.2,0.8c1.2,0.7,1.7,1.2,1.7,1.7c0,0.3,0,0.4-0.6,1.3V223.4z
		 M185.5,219c-0.4,0-0.8-0.2-1-0.5c-0.2-0.3-0.2-0.3-0.4-1.1c-0.2-1-0.9-2.4-1.7-2.9c-0.1-0.1-0.2-0.1-0.2-0.3
		c0-0.1,0.1-0.1,0.2-0.1c0.5,0,1.8,0.5,2.6,0.9c1,0.7,1.8,1.8,1.8,2.7C186.7,218.4,186.2,219,185.5,219z M187.5,216
		c-0.4-1.1-1.5-2.3-2.6-2.9c-0.3-0.2-0.4-0.2-0.4-0.3c0-0.1,0.1-0.1,0.3-0.1c0.6,0,1.1,0.1,2,0.3c2.1,0.7,3.2,1.7,3.2,2.9
		c0,0.8-0.5,1.3-1.2,1.3C188.2,217.2,187.9,216.9,187.5,216z"/>
	<path d="M176.3,274.5c0,2.1,0,2.1,0.2,4.7c0,0.9,0.1,1.8,0.1,2.5c0,1.3-0.1,1.8-0.3,2.2c-0.3,0.6-1,1-1.5,1c-0.9,0-1.6-0.7-2.1-1.9
		c-0.4-1.1-0.7-2.4-0.7-3c0-0.3,0-0.5,0.1-0.8c0.2-0.5,0.3-0.7,0.4-1.1c0.3-1.3,0.6-7.4,0.6-11.4c-0.3,0.3-0.3,0.3-1,0.9
		c-2.2,2.2-5.9,4.5-8.9,5.6c-0.8,0.3-1.9,0.6-2.2,0.6c-0.1,0-0.2,0-0.2-0.1c0-0.1,0.1-0.2,0.6-0.4c0.4-0.2,1.2-0.6,2-1.3
		c0.5-0.4,1.2-0.9,1.7-1.4c2.7-2.4,5.5-5.9,7.4-9.3c0.5-1,0.9-1.8,1.1-2.5c0.1-0.2,0.1-0.4,0.1-0.5c0-0.1-0.1-0.4-0.3-0.5
		c-0.2-0.1-0.4-0.3-0.6-0.4c-0.3-0.1-0.3-0.1-0.3-0.2c0-0.1,0.3-0.4,0.7-0.5c0.7-0.4,1.8-0.7,2.4-0.7c0.7,0,1.3,0.3,2.4,1.2
		c1.4,1.2,1.9,1.7,1.9,2.2c0,0.4-0.3,0.8-0.8,1c-0.7,0.4-0.9,0.6-1.8,1.6c-0.6,0.6-2,2.2-2.5,2.8c0.1,0.2,0.1,0.2,0.6,0.6
		c0.6,0.5,0.9,1.2,0.9,1.8c0,0.2,0,0.3-0.1,0.7c0,0.6,0,0.8,0,1.2V274.5z"/>
	<path d="M171.3,305.6c0,1.4-1.1,2.6-2.6,2.6c-0.4,0-0.8-0.1-1.1-0.2c-0.3-0.1-0.3-0.1-0.6-0.8c-0.8-1.4-3.2-3.6-4.6-4.1
		c-0.2-0.1-0.3-0.1-0.3-0.2c0-0.1,0.4-0.2,0.9-0.3c0.8-0.1,1.9-0.3,2.8-0.3C169.1,302.3,171.3,303.6,171.3,305.6z M168.7,321.3
		c-0.7,0.5-1,0.6-1.4,0.6c-0.5,0-1-0.2-1.7-0.7c-0.6-0.4-1.2-1-1.9-1.8c-0.8-0.9-1.2-1.6-1.2-2.2c0-1,0.6-2.1,1.3-2.3
		c0.3,1.1,1.1,1.6,2.6,1.6c0.5,0,3.3-0.9,4.4-1.3c3.6-1.6,8.5-4.3,12.1-6.8c0.9-0.7,1.9-1.5,3.3-2.7c0.6-0.5,0.7-0.6,0.8-0.6
		c0.1,0,0.2,0.1,0.2,0.2c0,0.1,0,0.1-0.1,0.3c-0.4,0.8-2,3-3.3,4.5c-1.5,1.8-3.4,3.5-5.6,5.2c-2.6,2-5.6,4-9,5.9L168.7,321.3z"/>
	<path d="M186.5,355.9c0.1-0.2,0.2-0.4,0.3-0.5c1.1-1.8,1.5-2.3,1.9-2.3c0.9,0,3.1,2.2,3.1,3.1c0,0.4-0.4,0.6-1.5,0.6h-4.4
		c0.1,2.4,0.1,2.8,0.1,3.7c0,0.4,0,0.8,0,1.1c0,0.9-0.4,1.3-1.5,1.7c-0.5,0.2-1.3,0.3-1.9,0.3c-0.9,0-1.3-0.1-1.4-0.4
		c-0.1-0.2-0.1-0.5-0.1-2.3h-4.4c0,0.8,0,0.8,0.1,2.5v0.2c0,1.8-0.3,2.7-1.2,3.5c-0.9,0.9-2.2,1.3-3.8,1.3c-1.3,0-1.7-0.3-1.8-1.2
		c-0.1-0.9-0.3-1.1-1.4-1.9c-0.5-0.4-1.1-0.7-1.5-0.9c-0.2-0.1-0.3-0.2-0.3-0.3c0-0.1,0.1-0.2,0.4-0.2c0.3,0,1.2,0.1,1.5,0.1
		c1.8,0,2.6-0.2,2.9-0.7c0.2-0.3,0.2-0.7,0.2-2.3h-8.2c-0.6,0-1.4,0-2,0.1c-0.6-0.7-0.6-0.8-0.6-0.9c0-0.1,0.1-0.3,0.3-0.3
		c0.5,0.1,1.3,0.1,1.6,0.1h8.9v-3.4h-11.6c-0.6,0-1.3,0-1.9,0.1c-0.5-0.7-0.6-0.8-0.6-0.9c0-0.1,0.1-0.3,0.3-0.3
		c0.8,0.1,1.8,0.1,2.3,0.1h11.6v-3.3h-8.5c-0.7,0-1.4,0-2.1,0.1c-0.6-0.6-0.6-0.7-0.6-0.8c0-0.1,0.1-0.3,0.3-0.3
		c0.5,0,1.3,0.1,1.6,0.1h9.3v-3.2h-4.4v0.3c0,1-1,1.5-3,1.5c-1.4,0-1.9-0.3-1.8-0.9c0.1-1.5,0.1-3.8,0.1-5.4V342
		c0-0.1,0-0.2,0.1-0.2c0.6,0,2.3,0.2,3.6,0.5c1.1,0.3,1.4,0.4,1.8,0.8h3.6v-2.9h-11.4c-0.5,0-1,0-1.5,0.1c-0.6-0.6-0.6-0.7-0.6-0.8
		c0-0.1,0.1-0.3,0.3-0.3c0.7,0,1.6,0.1,2,0.1h11.2c0-1.6-0.1-3.2-0.1-4.2c0-0.2,0-0.3,0.4-0.3c0.7,0,3.3,0.4,4.1,0.6
		c0.9,0.2,1.3,0.6,1.3,1.1c0,0.1-0.1,0.6-0.9,1.1c0,0.6,0,0.9-0.1,1.7h7.1c0.4-0.5,0.4-0.5,1.7-2c0.6-0.7,0.9-1,1.3-1
		c0.5,0,1.3,0.5,2.5,1.3c1,0.8,1.5,1.4,1.5,1.9c0,0.5-0.4,0.6-1.3,0.6h-12.9v2.9h4.2c0.2-0.2,0.2-0.2,0.6-0.7c0.6-0.7,1-1,1.3-1
		c0.5,0,1.6,0.4,2.9,1.2c1,0.6,1.3,0.9,1.3,1.2c0,0.3-0.1,0.4-0.5,0.7c-0.2,0.1-0.3,0.3-0.3,0.4c0,0.1,0,0.1,0,0.2
		c0,0.5,0.2,2.3,0.2,2.7v0.2c0,0.7-0.2,1-1.1,1.3c-0.7,0.3-1.6,0.4-2.8,0.4c-1,0-1.3-0.2-1.3-0.9v-0.3h-4.3l0,3.2h4.2
		c1.4-1.4,1.6-1.5,2.1-1.5c0.4,0,0.8,0.2,2.5,1c1,0.5,1.3,0.8,1.3,1.1c0,0.1,0,0.3-0.1,0.4c-0.4,0.3-0.5,0.5-0.6,0.6v0.5
		c0,0.3,0,0.3,0,0.9v1.2H186.5z M168.1,343.9c-0.7,0-0.9,0.3-0.9,1.3v2.5h4.5v-3.8H168.1z M180.8,344.3c0-0.4,0-0.4-0.4-0.4h-4
		l0.1,3.8h4.4V344.3z M181,353.4c0-0.6-0.1-0.8-0.5-0.8h-4.1l0,3.3h4.5V353.4z M176.5,356.8l0.1,3.3h4.4v-3.3H176.5z"/>
	<path d="M169,389.6c1-1.3,1.4-1.5,1.8-1.5c0.6,0,2,0.8,3.3,2.1c0.5,0.5,0.8,1.1,0.8,1.5c0,0.6-0.5,0.9-1.4,1
		c-1.3,0.1-2.2,0.6-3.8,2.2c-0.1,0.1-0.3,0.2-0.4,0.2c-0.1,0-0.2,0-0.2-0.1c0-0.1,0-0.2,0.1-0.4c0.2-0.8,0.5-2.2,0.8-4.2h-2.7
		c0.8,0.2,1.1,0.3,1.1,0.5c0,0.1-0.1,0.3-0.5,0.5l0.2,15c0,1.6-0.4,2.4-1.8,3.3c-0.9,0.6-1.9,0.9-2.9,0.9c-0.8,0-1.2-0.3-1.2-0.9
		c-0.1-1.3-0.8-2.1-2.4-2.8c-0.2-0.1-0.2-0.1-0.2-0.2c0-0.1,0-0.1,1.1-0.1c1.6,0,2.5-0.1,2.8-0.4c0.3-0.4,0.4-0.7,0.4-7
		c-1.6,2.2-2.9,3.5-4.8,4.9c-0.8,0.6-1.6,1-1.7,1c-0.1,0-0.2-0.1-0.2-0.2c0-0.1,0.1-0.2,0.1-0.3c2.8-3,5.6-9.3,6.3-14.2h-3.7
		c-0.5,0-1.1,0-1.6,0.1c-0.5-0.6-0.5-0.7-0.5-0.8c0-0.1,0.1-0.3,0.3-0.3c0.6,0,1.3,0.1,1.7,0.1H169z M166.4,380.2
		c1.6-1.7,1.8-1.8,2.1-1.8c0.4,0,0.9,0.2,1.6,0.7c1.7,1.3,2.6,2.2,2.6,3c0,0.6-0.4,0.9-1.3,0.9c-1.5,0.1-2,0.2-3,0.8
		c-0.6,0.4-1.3,0.8-2,1.1c0.9,0.7,1.4,1.5,1.4,2.4c0,1.1-1.1,2-2.7,2c-1.3,0-1.8-0.4-2-2c-0.2-1.1-0.3-1.5-0.7-2.1
		c-0.3-0.6-1.3-1.5-1.8-1.8c-0.3-0.1-0.3-0.2-0.3-0.3c0-0.1,0.1-0.1,0.2-0.1c0.9,0,2.8,0.5,4.9,1.4c0.5-1,0.9-2.1,1.3-3.3h-6.3
		c-0.5,0-1.1,0-1.6,0.1c-0.5-0.6-0.5-0.7-0.5-0.8c0-0.1,0.1-0.3,0.3-0.3c0.6,0.1,1.3,0.1,1.7,0.1H166.4z M184.7,383.5
		c0.1,0.1,0.1,0.1,0.7,0.3c1,0.3,1.5,0.8,1.5,1.1c0,0.3-0.3,0.5-0.9,0.6c-1.3,1.9-1.9,2.8-3.3,4.2c2.1,1.1,5.5,1.9,8.9,2.2
		c0.3,0,0.4,0.1,0.4,0.2c0,0.2-0.1,0.3-0.4,0.4c-1,0.5-2.6,2.5-3.1,3.7c-0.1,0.3-0.3,0.4-0.8,0.4c-0.8,0-2.4-0.5-3.7-1.2
		c-1.7-0.9-2.8-1.7-4.2-3.1c-0.6,0.4-1.5,1-2.5,1.7c1.1,0.1,2.9,0.5,4.1,0.8c0.6,0.2,1,0.4,1,0.8c0,0.4-0.1,0.5-1,0.9l-0.3,2h2.6
		c0.1-0.1,0.1-0.1,0.4-0.4c0.8-0.9,1.1-1.1,1.4-1.1c0.5,0,2,0.9,3.1,1.8c0.6,0.5,0.9,0.9,0.9,1.2c0,0.4-0.3,0.6-0.9,0.8
		c-0.6,8.2-2.3,10-6.8,10c-0.8,0-1.1-0.2-1.3-0.7c-0.4-1.5-0.6-1.8-2.3-2.7c-0.3-0.2-0.4-0.3-0.4-0.4c0-0.1,0.1-0.2,0.2-0.2
		c0.1,0,0.4,0,0.6,0.1c0.6,0.1,1.1,0.1,1.6,0.1c1.5,0,2.3-0.7,2.9-2.6c0.4-1.2,0.8-3.3,0.9-5.1h-3c-1,4.5-2,6.5-4.7,8.3
		c-1.7,1.1-3.3,1.8-6.2,2.6c-1.3,0.3-2.7,0.6-3.3,0.6c-0.2,0-0.4-0.1-0.4-0.3c0-0.1,0.1-0.3,0.5-0.3c2.1-0.4,4.6-1.7,6.1-3.3
		c1.9-1.8,3-4.1,3.6-7.5h-4.1c-0.5,0-1.1,0-1.6,0.1c-0.5-0.6-0.5-0.6-0.5-0.7c0-0.1,0.1-0.3,0.3-0.3c0.6,0,1.3,0.1,1.7,0.1h4.4
		c0.1-0.9,0.3-3.3,0.3-3.8c0-0.1,0-0.1,0-0.3c-1.3,0.8-2.6,1.3-4.2,1.9c-1.2,0.4-3.7,1-4.2,1c-0.1,0-0.3-0.1-0.3-0.2
		c0-0.1,0.1-0.2,0.4-0.3c3.4-1,7.1-3.7,9.4-7c-0.8-1.8-1-2.5-1.7-6.2c-1.2,1.5-2.3,2.6-3.3,3.3c-1,0.7-1.8,1.2-2,1.2
		c-0.1,0-0.1,0-0.1-0.1c0-0.1,0-0.1,0.1-0.3c1.3-1.9,2.8-6.7,3.1-9.9c0-0.4,0.1-0.6,0.3-0.6c0.1,0,0.6,0.1,0.9,0.2
		c3.9,1,4.9,1.5,4.9,2.3c0,0.5-0.4,0.7-1.5,1c-0.3,0.4-0.3,0.4-0.8,1.1c-0.4,0.5-0.4,0.5-0.9,1h7.4c1.3-2.1,2-3,2.6-3
		c0.5,0,1.4,0.5,2.6,1.7c0.8,0.8,1,1.1,1,1.7c0,0.3-0.4,0.5-1.1,0.5H184.7z M177.3,383.5c0.5,2,1.1,3.3,2.3,4.5
		c0.9-1.7,1.2-2.4,1.9-4.5H177.3z"/>
	<path d="M168.5,429.2c1.3-1.7,1.4-1.9,1.9-1.9c0.5,0,1.2,0.4,3,1.7c0.7,0.6,0.9,0.8,0.9,1.1c0,0.4-0.3,0.6-1,1.1
		c0,0.1,0.1,2,0.2,5.6l0,1.1c0,0.7-0.2,1-0.6,1.3c-0.6,0.4-1.8,0.6-2.7,0.6c-0.7,0-1.1-0.1-1.3-0.4c-0.1-0.2-0.1-0.2-0.1-1.5h-3.9
		c-0.1,4.7-0.8,6.9-2.9,9.8c-1.1,1.5-3.6,3.6-4.3,3.6c-0.1,0-0.2-0.1-0.2-0.2c0-0.1,0.1-0.1,0.4-0.4c1-0.9,1.9-2.7,2.3-4.7
		c0.4-1.7,0.5-3.2,0.5-5.7c0-3-0.3-10.4-0.4-12.4c0-0.1,0.1-0.2,0.3-0.2c1.1,0,4,0.8,4.7,1.3H168.5z M168,422.6
		c0.4-0.5,0.4-0.5,1.5-2.1c0.5-0.8,0.8-1,1.2-1c0.5,0,1.1,0.4,2.4,1.4c1,0.9,1.4,1.4,1.4,1.9c0,0.5-0.4,0.6-1.2,0.6h-12.6
		c-0.5,0-1,0-1.5,0.1c-0.6-0.6-0.6-0.7-0.6-0.8c0-0.1,0.1-0.3,0.3-0.3c0.7,0.1,1.6,0.1,2,0.1H168z M168.8,430.4
		c0-0.3-0.1-0.4-0.4-0.4h-3.2l-0.1,0.1c-0.2,0.2-0.3,0.3-0.3,0.9l0.1,6.3h3.9V430.4z M185.1,431.3c1.9-3.3,2.2-3.7,2.7-3.7
		c0.5,0,1.4,0.7,2.6,1.9c1,1,1.3,1.5,1.3,2c0,0.4-0.3,0.6-0.8,0.6h-3.6c0.4,0.1,0.6,0.3,0.6,0.5c0,0.2-0.1,0.3-0.3,0.5
		c-0.2,0.1-0.4,0.3-0.6,0.5c0,0.7,0,0.7,0.1,2.7c0,1.3,0.4,9.7,0.4,11.1c0,1.7,0.1,2.8,0.1,2.9c0,1.1-1.4,1.8-3.5,1.8
		c-1.4,0-1.7-0.2-1.7-1.3c0-0.4,0-0.8,0-1.7c0.1-1.9,0.2-9,0.2-12.6c0-1.6,0-2.4-0.1-4.4h-2.7c-0.1,7.9-0.5,10.4-2.1,13
		c-1.4,2.3-4.2,4.5-7.7,6c-1.1,0.5-2.3,0.9-2.7,0.9c-0.1,0-0.3-0.1-0.3-0.3c0-0.2,0-0.2,1-0.6c1.8-0.8,3.9-2.7,5-4.3
		c1-1.6,1.7-3.3,2-5.9c0.3-1.6,0.3-3.2,0.3-7.5c0-1.5-0.2-8.4-0.3-10.1c0-0.7-0.1-1.5-0.1-1.9c0-0.1,0.1-0.2,0.3-0.2
		c1.3,0,3.7,0.7,5,1.5c2.6-1.3,3.6-1.9,6-3.6c3.4,2,4.6,3,4.6,3.9c0,0.5-0.4,0.8-1.3,0.8c-0.3,0-0.8,0-1.6,0
		c-4.5,0.2-7.2,0.3-8.1,0.3c-0.2,0.3-0.2,0.4-0.2,0.6v6.6H185.1z"/>
</g>
</svg>
