<?xml version="1.0" encoding="utf-8"?>
<!-- Generator: Adobe Illustrator 25.4.1, SVG Export Plug-In . SVG Version: 6.00 Build 0)  -->
<svg version="1.1" xmlns="http://www.w3.org/2000/svg" xmlns:xlink="http://www.w3.org/1999/xlink" x="0px" y="0px"
	 viewBox="0 0 841.9 595.3" style="enable-background:new 0 0 841.9 595.3;" xml:space="preserve">
<style type="text/css">
	.st0{fill:#015287;}
	.st1{fill:none;stroke:#18D9ED;stroke-width:0.25;stroke-miterlimit:10;}
	.st2{fill:#D3D3D3;stroke:#000000;stroke-width:0.1;stroke-miterlimit:10;}
	.st3{fill:none;stroke:#000000;stroke-width:0.1;stroke-miterlimit:10;}
	.st4{display:none;}
	.st5{display:inline;}
	.st6{fill:#FFFFFF;}
	.st7{fill:#FFFFFF;stroke:#000000;stroke-width:0.15;stroke-miterlimit:10;}
</style>
<g id="レイヤー_1">
</g>
<g id="レイヤー_2">
	<g>
		<path class="st0" d="M293.2,208.4v-21.7c0-7.4-6-13.4-13.4-13.4h-56.8v30c0,7.4,6,13.4,13.4,13.4h56.8h8.3
			C296.9,216.7,293.2,213,293.2,208.4z"/>
		<path d="M345.2,191.8c1.3-1.6,1.3-1.6,1.5-1.8c0.5-0.7,0.9-0.9,1.2-0.9c0.9,0,3.2,2.2,3.2,3c0,0.3-0.3,0.5-0.9,0.5h-27.1
			c-0.4,0-0.9,0-1.4,0.1c-0.4-0.5-0.5-0.6-0.5-0.7c0-0.1,0.1-0.2,0.3-0.2c0.6,0,1.4,0.1,1.8,0.1h10.3v-3h-6.2c-0.4,0-0.9,0-1.4,0.1
			c-0.4-0.5-0.5-0.6-0.5-0.7c0-0.1,0.1-0.2,0.3-0.2c0.6,0,1.4,0.1,1.8,0.1h6l0-2.9h-8.5c-0.5,0-1.1,0-1.6,0
			c-0.5-0.5-0.5-0.6-0.5-0.6c0-0.1,0.1-0.2,0.3-0.2c0.6,0,1.4,0.1,1.8,0.1h8.5c0-1.6,0-2.9,0-3.3c0-0.5,0-0.5,0.3-0.5
			c0.8,0,3.5,0.4,4.4,0.6c0.5,0.1,0.8,0.4,0.8,0.8c0,0.3,0,0.3-1,0.9l0,1.5h5.4c1.3-2,2-2.7,2.4-2.7c0.5,0,1.4,0.5,2.6,1.6
			c0.6,0.6,0.9,1,0.9,1.3c0,0.3-0.3,0.5-0.7,0.5h-10.6v2.9h3.3c1.3-1.7,1.8-2.2,2.2-2.2c0.8,0,3.1,1.9,3.1,2.5
			c0,0.4-0.2,0.5-0.9,0.5h-7.7v3H345.2z M340.8,195c0.9-1.3,1.3-1.7,1.6-1.7c0.4,0,2,0.8,3,1.6c0.5,0.4,0.6,0.6,0.6,0.9
			c0,0.3-0.1,0.4-0.8,1c0,0.9,0,0.9,0,1.9c0.1,2,0.1,2.2,0.1,3.6c0,1.4,0,1.4,0.1,3.7v0.4c0,1.2-0.3,1.8-1.1,2.5
			c-0.9,0.8-2,1.3-3.3,1.3c-0.5,0-1-0.1-1.2-0.3c-0.1-0.1-0.1-0.1-0.4-0.9c-0.3-0.9-0.6-1.2-2.4-2.2c-0.2-0.1-0.3-0.2-0.3-0.2
			c0-0.1,0-0.2,0.2-0.2c0.1,0,0.1,0,0.4,0c0.5,0.1,1,0.1,1.3,0.1c0.9,0,1.6-0.1,1.9-0.3c0.4-0.3,0.4-0.3,0.4-3.6H331
			c0,2,0,2.2,0,3.7c0,1,0,1.1,0,1.4c0,1-0.1,1.3-0.5,1.5c-0.5,0.3-1.5,0.5-2.3,0.5c-0.9,0-1.3-0.3-1.3-0.8c0-0.3,0-0.4,0.1-2.2
			c0.1-2.1,0.2-8.1,0.2-9.5v-3.1c0-0.3,0-0.4,0.2-0.4c0.4,0,1.4,0.2,2.5,0.5c1.1,0.3,1.3,0.4,1.7,0.8H340.8z M341.1,198.5
			c0-2.5,0-2.5,0-2.6c0-0.1-0.1-0.2-0.3-0.2h-9.3c-0.4,0.2-0.5,0.3-0.5,0.6v2.2H341.1z M331,199.2v2.7h10.2v-2.7H331z"/>
		<path d="M381.8,183.7c1.3-2.2,1.9-2.7,2.4-2.7c0.9,0,3.5,2.1,3.5,2.9c0,0.3-0.4,0.6-0.7,0.6h-8.4v1.4c0,0.6-0.6,1.1-2,1.2
			c3,0.6,4,0.9,4,1.4c0,0.6-0.4,0.8-1,1.1c-0.5,0.7-0.8,1.3-1.4,2.1h3.7c1.5-2.2,1.8-2.5,2.2-2.5c0.9,0,3,2,3,2.8
			c0,0.4-0.3,0.5-1.2,0.5h-8.3c-1.3,1.8-2.2,2.7-3.5,3.8c-0.8,0.6-1.2,0.9-1.4,0.9c-0.1,0-0.2,0-0.2-0.1c0-0.1,0-0.1,0.2-0.3
			c1.4-1.7,2.9-6.8,3.3-9.5c-0.3,0.1-0.5,0-0.7,0c-0.5,0-0.9-0.3-0.9-0.8v-1.9h-4.2v1.4c0,0.8-1.2,1.3-3,1.3c-0.9,0-1.2-0.2-1.2-0.7
			l0-2h-3.7c-1.2,0-2.4,0.1-3.5,0.2c-0.5-0.7-0.5-0.8-0.5-0.8c0-0.1,0.1-0.2,0.3-0.2c1,0.1,2.3,0.1,3,0.1h4.6c0-0.4,0-0.9,0-1.4
			c0-0.6,0-1.2,0-1.7c0-0.2,0-0.2,0.2-0.2c1.1,0,3.7,0.4,4.2,0.6c0.3,0.2,0.5,0.4,0.5,0.6c0,0.3-0.2,0.5-0.7,0.8v1.3h4.2
			c0-1.3,0-2.2,0-3.1c0-0.2,0.1-0.3,0.3-0.3c0.9,0,2.9,0.2,3.7,0.4c0.7,0.2,1,0.4,1,0.8c0,0.3-0.3,0.6-0.8,0.8l0,1.3H381.8z
			 M383.2,208.8c1.2-2.1,2-2.9,2.4-2.9c0.8,0,2.7,2.2,2.7,3.1c0,0.4-0.3,0.6-1,0.6h-26.4c-0.7,0-1.5,0-2.2,0.1
			c-0.5-0.6-0.5-0.7-0.5-0.7c0-0.1,0.1-0.2,0.3-0.2c0.5,0,1.1,0.1,1.4,0.1h3.5c0-1.4,0-2.9,0-4.3c0-1.5,0-2.5-0.1-3.2v-0.1
			c0-0.2,0.1-0.3,0.2-0.3c0.2,0,0.9,0.1,2.1,0.4c1.3,0.3,1.3,0.3,1.4,0.5h11.6c1.1-1.8,1.2-1.9,1.7-1.9c0.4,0,0.8,0.3,1.9,1.1
			c0.9,0.6,1.3,1.2,1.3,1.6c0,0.3-0.2,0.4-0.9,0.8l0,5.3H383.2z M369.4,199.1c1.4-1.9,1.4-1.9,1.7-1.9c0.7,0,2.5,1.6,2.5,2.2
			c0,0.3-0.3,0.5-0.7,0.5h-9.6v0.1c0,0.7-1,1.3-2.4,1.3c-0.9,0-1.2-0.2-1.2-0.9c0-0.4,0-0.7,0.1-3.4c0-0.5,0-2.9,0-4.9
			c0-2.3,0-3.9,0-4.4v-0.2c0-0.2,0-0.2,0.2-0.2c0.4,0,2.2,0.4,2.9,0.7c0.4,0.2,0.6,0.3,0.8,0.5h5.5c1.1-1.3,1.5-1.7,1.8-1.7
			c0.3,0,0.5,0.2,1.4,0.9c0.7,0.5,0.9,0.8,0.9,1.1c0,0.3-0.2,0.4-0.6,0.4h-4.4l0,2.7h0.7l0.6-0.8c0.3-0.4,0.5-0.5,0.8-0.5
			c0.4,0,0.6,0.1,2.2,1.2c0.5,0.3,0.6,0.5,0.6,0.7c0,0.2-0.1,0.4-0.5,0.6c-0.2,0.1-0.2,0.2-0.2,0.4l0,2.1c0,0.7-0.9,1.1-2.3,1.1
			c-0.8,0-1.1-0.1-1.1-0.7h-0.8l0,3.2H369.4z M365,191.9c0-0.6,0-1,0-1.3c0-0.3,0-0.7,0-1.3h-1.3c-0.4,0.1-0.4,0.3-0.4,1.1v1.6H365z
			 M363.2,192.6v2.6h5.8v-2.6H363.2z M365,199.1c0-0.7,0-1.3,0-1.6c0-0.4,0-0.9,0-1.6h-1.8l0,3.2H365z M367.1,202.6
			c-0.2,0-0.3,0.3-0.3,1.5v4.7h1.8c0-1.2,0-1.7,0-2.4v-3.8H367.1z M372.3,202.6c0,0.1-0.1,0.2-0.2,0.2c-0.1,0.1-0.2,0.2-0.2,0.3
			c0,0.1,0,0.2-0.1,2.2l0,2.5c0,0.4,0,0.6,0,1h1.8c0-2,0-4.3,0-6.2H372.3z M380.9,197.9c0.1-0.2,0.4-0.8,1-1.6
			c0.5-0.8,0.7-1.1,1.1-1.1c0.5,0,1,0.4,2.2,1.7c0.5,0.5,0.6,0.9,0.6,1.2c0,0.3-0.3,0.5-0.6,0.5h-6.9c-0.8,0-1.7,0-2.6,0.2
			c-0.5-0.6-0.5-0.7-0.5-0.8c0-0.1,0.1-0.2,0.3-0.2c0.7,0.1,1.6,0.1,2,0.1H380.9z M377.4,202.6c0,0.1-0.1,0.2-0.3,0.3
			c-0.2,0.1-0.2,0.4-0.2,2.6v3.3h1.8c0-1.8,0-5.2,0-6.2H377.4z"/>
		<path d="M413.9,195.2c0.2,0.2,0.3,0.4,0.3,0.5c0,0.3-0.2,0.5-0.6,0.7c-0.3,2.5-0.9,4.6-1.9,6.2c-1.2,2-2.8,3.4-5.1,4.5
			c-0.8,0.4-2,0.8-3,1.1c-0.7,0.2-1.3,0.3-1.6,0.3c-0.1,0-0.2,0-0.2-0.1c0-0.1,0.1-0.2,0.6-0.3c0.8-0.3,1.7-0.9,2.5-1.4
			c1-0.8,1.9-1.7,2.5-2.6c1.4-2.1,2.3-5.2,2.3-8.2c0-1.4-0.1-1.7-0.6-2.4c-0.4,0-1.1,0.2-1.9,0.3c-0.9,0.2-2,0.4-2.8,0.7
			c-0.5,0.1-1.3,0.4-2,0.8c-0.3,0.1-0.4,0.2-0.6,0.2c-0.5,0-1.3-0.5-1.9-1.2c-0.6-0.7-1.1-1.5-1.1-2c0-0.1,0-0.1,0.1-0.1
			c0.1,0,0.1,0,0.4,0.1c0.7,0.2,1.2,0.3,1.9,0.3c0.5,0,2.2-0.2,4.8-0.5c2.3-0.3,5.2-0.7,8.3-1.2c1.3-0.2,1.7-0.3,2.6-0.6
			c0.3-0.1,0.4-0.2,0.8-0.3c0.3-0.1,0.5-0.1,0.6-0.1c0.5,0,2.3,0.7,3.4,1.4c0.6,0.4,1.1,0.9,1.1,1.4c0,0.5-0.6,1.2-1.2,1.2
			c-0.2,0-1.1-0.2-2.1-0.4c-1.6-0.3-2.5-0.4-4.1-0.4c-1.5,0-3.1,0.1-4.7,0.2C413.3,194.7,413.5,194.8,413.9,195.2z M413.5,187.1
			c-0.9,0-2.5,0.2-3.9,0.4c-1.3,0.2-2.4,0.4-3.1,0.6c-0.4,0.1-0.7,0.2-0.8,0.2c-0.5,0-1-0.3-1.7-1.2c-0.2-0.3-0.4-0.5-0.5-0.8
			c-0.2-0.3-0.3-0.4-0.3-0.5c0-0.1,0-0.1,0.1-0.1c0.1,0,0.4,0.1,0.5,0.1c0.4,0.1,1,0.2,1.3,0.2c0.8,0,2.2-0.2,3.7-0.5
			c1.5-0.3,3-0.7,3.9-1c0.8-0.4,0.9-0.4,1.2-0.4c0.5,0,1.2,0.3,2.3,0.8c0.8,0.4,1.2,0.8,1.2,1.4c0,0.6-0.6,1-1.8,1
			c-0.4,0-0.4,0-1.4-0.1L413.5,187.1z M420.8,186.5c-0.4,0-0.7-0.1-1-0.4c-0.2-0.3-0.2-0.3-0.3-1c-0.2-0.9-0.9-2.1-1.5-2.6
			c-0.1-0.1-0.1-0.1-0.1-0.2c0-0.1,0.1-0.1,0.2-0.1c0.4,0,1.5,0.4,2.2,0.9c1,0.6,1.6,1.5,1.6,2.3C421.9,186,421.4,186.5,420.8,186.5
			z M423,184.2c-0.3-1-1.2-2.1-2.2-2.7c-0.2-0.1-0.3-0.2-0.3-0.3c0-0.1,0.1-0.1,0.2-0.1c0.5,0,1.1,0.1,1.8,0.4
			c1.8,0.6,2.8,1.6,2.8,2.6c0,0.7-0.5,1.2-1.1,1.2C423.6,185.2,423.3,185,423,184.2z"/>
		<path d="M443.9,191.3c2.9-0.2,3.5-0.3,4.4-0.4c0-0.4,0-0.9,0-1.3c0-0.6,0-1.2,0-1.7c0-1.7-0.2-3-0.5-3.3c-0.2-0.2-0.4-0.3-0.9-0.3
			c-0.1,0-0.2-0.1-0.2-0.2c0-0.1,0.2-0.3,0.4-0.5c0.4-0.3,1.1-0.6,1.5-0.6c0.5,0,1.3,0.3,2,0.7c1.3,0.9,1.8,1.4,1.8,1.9
			c0,0.1-0.1,0.3-0.2,0.4c-0.4,0.4-0.4,0.4-0.4,0.8c0,1.2,0,2.5,0,3.7c1.7-0.1,2.2-0.3,3.1-0.6c0.3-0.1,0.5-0.2,0.6-0.2
			c0.5,0,1.8,0.6,2.9,1.3c0.7,0.4,1,0.9,1,1.5c0,0.6-0.6,1-1.3,1c-0.2,0-0.8-0.1-2.4-0.5c-1.1-0.3-1.6-0.3-4-0.5c-0.2,4.9-0.3,6-1,8
			c-1.2,3.3-4.1,6-8.3,7.6c-1.1,0.4-2.1,0.7-2.4,0.7c-0.1,0-0.2-0.1-0.2-0.1c0-0.1,0.1-0.2,0.7-0.5c2.2-1.2,4.2-3,5.5-5
			c1.1-1.8,1.8-3.9,2.1-6.6c0.1-0.9,0.1-1.3,0.2-4c-0.6,0-1.1,0.1-1.3,0.1c-1.7,0.1-2,0.2-3.1,0.3l0.1,4c0,2.7-0.7,4.2-2,4.2
			c-0.4,0-0.6-0.2-0.9-0.8c-0.2-0.6-0.4-1.7-0.4-2.1c0-0.7,0.1-2.1,0.1-3.8c0-0.3,0-0.4,0-0.8c-2.3,0.5-3,0.8-4.3,1.3
			c-0.4,0.2-0.7,0.3-0.9,0.3c-0.4,0-0.9-0.4-1.3-1c-0.6-0.7-1.1-1.6-1.1-2.2c0-0.2,0.1-0.4,0.3-0.7c0.5,0.6,0.9,0.8,1.4,0.8
			c1.1,0,2-0.1,5.7-0.5c-0.2-2.8-0.3-3.5-0.5-3.9c-0.3-0.4-0.6-0.5-1.2-0.6c-0.2,0-0.3-0.1-0.3-0.2c0-0.1,0.4-0.4,0.9-0.5
			c0.5-0.2,1.1-0.4,1.4-0.4c0.5,0,1.2,0.3,2,0.7c1.1,0.6,1.5,1.1,1.5,1.5c0,0.3,0,0.3-0.5,1.2V191.3z M456.7,187.3
			c-0.4,0-0.7-0.2-0.9-0.5c-0.2-0.2-0.2-0.2-0.3-1c-0.2-0.9-0.8-2.1-1.5-2.6c-0.1-0.1-0.2-0.1-0.2-0.2c0-0.1,0.1-0.1,0.2-0.1
			c0.5,0,1.6,0.4,2.3,0.8c0.9,0.6,1.6,1.6,1.6,2.4C457.8,186.8,457.3,187.3,456.7,187.3z M458.5,184.7c-0.4-1-1.3-2.1-2.3-2.6
			c-0.3-0.2-0.3-0.2-0.3-0.3c0-0.1,0.1-0.1,0.3-0.1c0.6,0,1,0.1,1.8,0.3c1.9,0.6,2.9,1.5,2.9,2.6c0,0.7-0.5,1.2-1.1,1.2
			C459.1,185.8,458.9,185.5,458.5,184.7z"/>
		<path d="M483.9,199.1c0,1.9,0,1.9,0.2,4.2c0,0.8,0.1,1.6,0.1,2.2c0,1.1-0.1,1.6-0.3,2c-0.2,0.5-0.9,0.9-1.4,0.9
			c-0.8,0-1.4-0.6-1.9-1.7c-0.4-1-0.6-2.1-0.6-2.7c0-0.3,0-0.5,0.1-0.7c0.2-0.4,0.2-0.6,0.3-1c0.3-1.2,0.5-6.6,0.5-10.2
			c-0.3,0.3-0.3,0.3-0.9,0.8c-2,2-5.3,4-7.9,5c-0.7,0.3-1.7,0.5-2,0.5c-0.1,0-0.2,0-0.2-0.1c0-0.1,0.1-0.2,0.6-0.4
			c0.4-0.2,1.1-0.6,1.8-1.1c0.5-0.4,1.1-0.8,1.5-1.2c2.4-2.1,4.9-5.3,6.6-8.3c0.5-0.9,0.8-1.6,1-2.2c0.1-0.2,0.1-0.3,0.1-0.4
			c0-0.1-0.1-0.3-0.3-0.4c-0.2-0.1-0.4-0.3-0.5-0.3c-0.2-0.1-0.3-0.1-0.3-0.2c0-0.1,0.3-0.3,0.6-0.5c0.6-0.3,1.6-0.6,2.2-0.6
			c0.6,0,1.2,0.3,2.2,1.1c1.3,1.1,1.7,1.5,1.7,2c0,0.4-0.3,0.7-0.7,0.9c-0.6,0.3-0.8,0.5-1.6,1.4c-0.5,0.5-1.8,2-2.2,2.5
			c0.1,0.2,0.1,0.2,0.6,0.5c0.5,0.4,0.8,1.1,0.8,1.6c0,0.2,0,0.3-0.1,0.6c0,0.5,0,0.7,0,1.1V199.1z"/>
		<path d="M509.3,190.4c0,1.3-1,2.3-2.3,2.3c-0.3,0-0.7-0.1-1-0.2c-0.2-0.1-0.2-0.1-0.5-0.7c-0.7-1.3-2.9-3.2-4.1-3.6
			c-0.2-0.1-0.2-0.1-0.2-0.2c0-0.1,0.4-0.2,0.8-0.3c0.7-0.1,1.7-0.2,2.5-0.2C507.4,187.4,509.3,188.6,509.3,190.4z M507.1,204.4
			c-0.6,0.4-0.9,0.5-1.3,0.5c-0.4,0-0.9-0.2-1.5-0.6c-0.5-0.4-1.1-0.9-1.7-1.6c-0.7-0.8-1.1-1.4-1.1-2c0-0.9,0.5-1.9,1.1-2.1
			c0.3,1,1,1.4,2.3,1.4c0.4,0,3-0.8,3.9-1.2c3.2-1.4,7.6-3.9,10.8-6.1c0.8-0.6,1.7-1.3,2.9-2.4c0.5-0.5,0.6-0.5,0.7-0.5
			s0.2,0.1,0.2,0.2c0,0.1,0,0.1-0.1,0.3c-0.4,0.7-1.8,2.7-2.9,4c-1.4,1.6-3.1,3.1-5,4.7c-2.3,1.8-5,3.6-8.1,5.3L507.1,204.4z"/>
		<path d="M559.9,198.9c0.1-0.2,0.2-0.4,0.3-0.5c1-1.6,1.3-2.1,1.7-2.1c0.8,0,2.7,2,2.7,2.7c0,0.4-0.3,0.5-1.3,0.5h-3.9
			c0.1,2.2,0.1,2.5,0.1,3.3c0,0.4,0,0.7,0,1c0,0.8-0.4,1.2-1.4,1.5c-0.5,0.2-1.1,0.3-1.7,0.3c-0.8,0-1.1-0.1-1.3-0.4
			c-0.1-0.2-0.1-0.4-0.1-2.1H551c0,0.7,0,0.7,0.1,2.2v0.2c0,1.6-0.3,2.4-1.1,3.1c-0.8,0.8-1.9,1.2-3.4,1.2c-1.1,0-1.5-0.3-1.6-1.1
			c-0.1-0.8-0.3-1-1.3-1.7c-0.5-0.3-1-0.6-1.4-0.8c-0.2-0.1-0.3-0.2-0.3-0.3c0-0.1,0.1-0.2,0.4-0.2c0.2,0,1.1,0.1,1.4,0.1
			c1.6,0,2.3-0.2,2.6-0.6c0.2-0.3,0.2-0.6,0.2-2.1h-7.3c-0.6,0-1.2,0-1.8,0.1c-0.5-0.6-0.5-0.7-0.5-0.8c0-0.1,0.1-0.2,0.3-0.2
			c0.5,0.1,1.1,0.1,1.4,0.1h8v-3h-10.4c-0.6,0-1.2,0-1.7,0.1c-0.5-0.6-0.5-0.7-0.5-0.8c0-0.1,0.1-0.2,0.3-0.2c0.7,0.1,1.6,0.1,2,0.1
			h10.3v-3h-7.6c-0.6,0-1.3,0-1.9,0.1c-0.5-0.6-0.5-0.6-0.5-0.7c0-0.1,0.1-0.2,0.3-0.2c0.5,0,1.1,0.1,1.4,0.1h8.3v-2.8h-3.9v0.3
			c0,0.9-0.9,1.4-2.7,1.4c-1.2,0-1.7-0.3-1.6-0.8c0.1-1.3,0.1-3.4,0.1-4.8v-1.9c0-0.1,0-0.2,0.1-0.2c0.5,0,2,0.2,3.2,0.5
			c1,0.3,1.3,0.4,1.6,0.7h3.2v-2.6h-10.2c-0.4,0-0.9,0-1.4,0.1c-0.5-0.6-0.5-0.6-0.5-0.7c0-0.1,0.1-0.2,0.3-0.2
			c0.6,0,1.4,0.1,1.8,0.1h10c0-1.4-0.1-2.9-0.1-3.7c0-0.2,0-0.2,0.4-0.2c0.6,0,3,0.3,3.6,0.5c0.8,0.2,1.2,0.5,1.2,1
			c0,0.1-0.1,0.5-0.8,1c0,0.5,0,0.8-0.1,1.5h6.3c0.4-0.4,0.4-0.4,1.5-1.8c0.5-0.6,0.8-0.9,1.2-0.9c0.4,0,1.2,0.4,2.2,1.2
			c0.9,0.7,1.4,1.3,1.4,1.7c0,0.4-0.3,0.6-1.1,0.6h-11.6v2.6h3.8c0.2-0.2,0.2-0.2,0.5-0.6c0.5-0.6,0.9-0.9,1.2-0.9
			c0.5,0,1.4,0.4,2.6,1.1c0.9,0.5,1.2,0.8,1.2,1.1c0,0.2-0.1,0.3-0.5,0.6c-0.2,0.1-0.3,0.3-0.3,0.4c0,0.1,0,0.1,0,0.2
			c0,0.5,0.2,2.1,0.2,2.4v0.2c0,0.6-0.2,0.9-1,1.2c-0.6,0.3-1.4,0.4-2.5,0.4c-0.9,0-1.2-0.2-1.2-0.8v-0.3h-3.9l0,2.9h3.7
			c1.2-1.2,1.4-1.4,1.9-1.4c0.4,0,0.7,0.2,2.2,0.9c0.9,0.4,1.2,0.7,1.2,1c0,0.1,0,0.2-0.1,0.3c-0.3,0.3-0.4,0.4-0.5,0.5v0.4
			c0,0.3,0,0.3,0,0.8v1.1H559.9z M543.4,188.2c-0.6,0-0.8,0.2-0.8,1.2v2.2h4v-3.4H543.4z M554.8,188.6c0-0.3,0-0.4-0.4-0.4h-3.6
			l0.1,3.4h3.9V188.6z M554.9,196.6c0-0.5-0.1-0.7-0.4-0.7h-3.6l0,3h4V196.6z M550.9,199.7l0.1,3h3.9v-3H550.9z"/>
		<path d="M582.2,190.9c0.9-1.1,1.2-1.4,1.6-1.4c0.6,0,1.8,0.7,3,1.9c0.4,0.4,0.7,1,0.7,1.3c0,0.5-0.4,0.8-1.3,0.9
			c-1.1,0.1-2,0.6-3.4,2c-0.1,0.1-0.2,0.2-0.3,0.2s-0.2,0-0.2-0.1s0-0.2,0.1-0.3c0.2-0.7,0.4-2,0.7-3.7h-2.4c0.7,0.2,1,0.3,1,0.5
			c0,0.1-0.1,0.3-0.5,0.5l0.2,13.4c0,1.4-0.4,2.2-1.6,3c-0.8,0.5-1.7,0.8-2.6,0.8c-0.7,0-1.1-0.2-1.1-0.8c-0.1-1.1-0.7-1.9-2.2-2.5
			c-0.2-0.1-0.2-0.1-0.2-0.2c0-0.1,0-0.1,1-0.1c1.4,0,2.2-0.1,2.5-0.4c0.3-0.3,0.3-0.6,0.3-6.3c-1.4,2-2.6,3.1-4.3,4.3
			c-0.7,0.5-1.4,0.9-1.5,0.9c-0.1,0-0.2-0.1-0.2-0.2c0-0.1,0.1-0.2,0.1-0.3c2.5-2.7,5-8.3,5.6-12.7h-3.3c-0.5,0-1,0-1.4,0.1
			c-0.4-0.5-0.4-0.6-0.4-0.7c0-0.1,0.1-0.2,0.3-0.2c0.5,0,1.2,0.1,1.5,0.1H582.2z M579.8,182.5c1.4-1.5,1.6-1.6,1.9-1.6
			c0.4,0,0.8,0.2,1.4,0.6c1.5,1.1,2.3,2,2.3,2.7c0,0.5-0.4,0.8-1.2,0.8c-1.3,0.1-1.8,0.2-2.7,0.7c-0.6,0.4-1.2,0.7-1.8,1
			c0.8,0.6,1.3,1.4,1.3,2.2c0,1-1,1.8-2.4,1.8c-1.2,0-1.6-0.4-1.8-1.8c-0.2-1-0.3-1.4-0.6-1.9c-0.3-0.5-1.2-1.4-1.6-1.6
			c-0.2-0.1-0.3-0.2-0.3-0.3c0-0.1,0.1-0.1,0.2-0.1c0.8,0,2.5,0.5,4.4,1.2c0.4-0.9,0.8-1.9,1.2-3h-5.6c-0.4,0-1,0-1.4,0.1
			c-0.4-0.5-0.5-0.6-0.5-0.7c0-0.1,0.1-0.2,0.3-0.2c0.5,0.1,1.2,0.1,1.5,0.1H579.8z M596.2,185.5c0.1,0.1,0.1,0.1,0.6,0.3
			c0.9,0.3,1.4,0.7,1.4,1c0,0.3-0.3,0.4-0.8,0.6c-1.1,1.7-1.7,2.5-2.9,3.8c1.9,1,4.9,1.7,8,2c0.3,0,0.4,0.1,0.4,0.2
			c0,0.2-0.1,0.2-0.3,0.4c-0.9,0.5-2.3,2.2-2.8,3.3c-0.1,0.3-0.3,0.4-0.7,0.4c-0.7,0-2.2-0.5-3.3-1.1c-1.5-0.8-2.5-1.5-3.8-2.7
			c-0.6,0.4-1.3,0.9-2.2,1.5c1,0.1,2.6,0.4,3.7,0.7c0.6,0.2,0.9,0.4,0.9,0.7c0,0.3-0.1,0.4-0.9,0.8l-0.3,1.8h2.3
			c0.1-0.1,0.1-0.1,0.3-0.4c0.7-0.8,1-1,1.3-1c0.4,0,1.8,0.8,2.8,1.6c0.5,0.4,0.8,0.8,0.8,1.1c0,0.3-0.3,0.5-0.8,0.7
			c-0.5,7.3-2,8.9-6,8.9c-0.7,0-1-0.2-1.2-0.6c-0.4-1.4-0.5-1.6-2-2.4c-0.3-0.2-0.4-0.2-0.4-0.3c0-0.1,0.1-0.2,0.2-0.2
			s0.3,0,0.6,0.1c0.5,0.1,1,0.1,1.4,0.1c1.3,0,2-0.6,2.6-2.3c0.4-1.1,0.7-3,0.8-4.5H593c-0.9,4-1.8,5.8-4.2,7.4
			c-1.5,1-3,1.6-5.6,2.3c-1.2,0.3-2.4,0.5-3,0.5c-0.2,0-0.3-0.1-0.3-0.2c0-0.1,0.1-0.2,0.4-0.3c1.9-0.4,4.1-1.5,5.5-2.9
			c1.7-1.6,2.7-3.7,3.2-6.7h-3.7c-0.5,0-1,0-1.4,0.1c-0.5-0.5-0.5-0.6-0.5-0.6c0-0.1,0.1-0.2,0.3-0.2c0.5,0,1.2,0.1,1.5,0.1h3.9
			c0.1-0.8,0.3-3,0.3-3.4c0-0.1,0-0.1,0-0.3c-1.1,0.7-2.3,1.2-3.7,1.7c-1.1,0.4-3.3,0.9-3.8,0.9c-0.1,0-0.2-0.1-0.2-0.2
			c0-0.1,0.1-0.2,0.4-0.3c3.1-0.9,6.4-3.3,8.4-6.3c-0.7-1.6-0.9-2.2-1.5-5.6c-1.1,1.3-2.1,2.3-2.9,3c-0.9,0.6-1.6,1.1-1.8,1.1
			c-0.1,0-0.1,0-0.1-0.1c0-0.1,0-0.1,0.1-0.3c1.2-1.7,2.5-6,2.8-8.9c0-0.4,0.1-0.5,0.2-0.5c0.1,0,0.6,0.1,0.8,0.2
			c3.5,0.9,4.4,1.3,4.4,2c0,0.4-0.3,0.6-1.3,0.9c-0.3,0.4-0.3,0.4-0.7,1c-0.4,0.5-0.4,0.5-0.8,0.9h6.6c1.2-1.9,1.8-2.7,2.3-2.7
			c0.4,0,1.2,0.5,2.3,1.5c0.7,0.7,0.9,1,0.9,1.5c0,0.3-0.3,0.4-1,0.4H596.2z M589.6,185.5c0.4,1.8,1,2.9,2.1,4
			c0.8-1.5,1.1-2.1,1.7-4H589.6z"/>
		<path d="M619.7,189.4c1.2-1.5,1.3-1.7,1.7-1.7c0.4,0,1.1,0.4,2.7,1.5c0.6,0.5,0.8,0.7,0.8,1c0,0.3-0.2,0.6-0.9,1
			c0,0.1,0.1,1.8,0.2,5l0,1c0,0.6-0.2,0.9-0.5,1.2c-0.6,0.4-1.6,0.6-2.4,0.6c-0.6,0-1-0.1-1.2-0.3c-0.1-0.2-0.1-0.2-0.1-1.3h-3.5
			c-0.1,4.2-0.7,6.2-2.6,8.8c-1,1.3-3.2,3.2-3.9,3.2c-0.1,0-0.2-0.1-0.2-0.2c0-0.1,0.1-0.1,0.4-0.4c0.9-0.8,1.7-2.4,2.1-4.2
			c0.3-1.5,0.4-2.8,0.4-5.1c0-2.7-0.3-9.3-0.4-11c0-0.1,0.1-0.2,0.2-0.2c1,0,3.6,0.7,4.2,1.1H619.7z M619.2,183.6
			c0.3-0.4,0.3-0.4,1.3-1.9c0.5-0.7,0.7-0.9,1.1-0.9c0.4,0,1,0.4,2.1,1.3c0.9,0.8,1.3,1.3,1.3,1.7c0,0.4-0.3,0.6-1.1,0.6h-11.3
			c-0.4,0-0.9,0-1.4,0.1c-0.5-0.6-0.5-0.6-0.5-0.7c0-0.1,0.1-0.2,0.3-0.2c0.6,0.1,1.4,0.1,1.8,0.1H619.2z M620,190.5
			c0-0.3-0.1-0.4-0.3-0.4h-2.9l-0.1,0.1c-0.2,0.2-0.2,0.3-0.2,0.8l0.1,5.6h3.5V190.5z M634.6,191.3c1.7-3,1.9-3.3,2.4-3.3
			c0.4,0,1.3,0.6,2.3,1.7c0.9,0.9,1.2,1.3,1.2,1.8c0,0.3-0.3,0.6-0.7,0.6h-3.2c0.4,0.1,0.6,0.3,0.6,0.5c0,0.2-0.1,0.3-0.3,0.4
			c-0.2,0.1-0.3,0.2-0.5,0.4c0,0.6,0,0.6,0.1,2.4c0,1.2,0.4,8.7,0.4,10c0,1.5,0.1,2.5,0.1,2.6c0,1-1.2,1.6-3.1,1.6
			c-1.3,0-1.5-0.2-1.5-1.2c0-0.4,0-0.7,0-1.5c0.1-1.7,0.2-8,0.2-11.3c0-1.4,0-2.2-0.1-3.9h-2.4c-0.1,7-0.4,9.3-1.9,11.6
			c-1.3,2-3.8,4-6.8,5.3c-1,0.4-2,0.8-2.4,0.8c-0.1,0-0.2-0.1-0.2-0.2c0-0.2,0-0.2,0.9-0.6c1.6-0.7,3.5-2.4,4.4-3.9
			c0.9-1.4,1.5-3,1.8-5.2c0.2-1.4,0.3-2.9,0.3-6.7c0-1.4-0.2-7.5-0.2-9c0-0.6-0.1-1.4-0.1-1.7c0-0.1,0.1-0.2,0.2-0.2
			c1.2,0,3.3,0.6,4.5,1.4c2.3-1.2,3.2-1.7,5.3-3.2c3.1,1.8,4.1,2.7,4.1,3.5c0,0.5-0.3,0.7-1.2,0.7c-0.3,0-0.7,0-1.4,0
			c-4,0.2-6.5,0.3-7.3,0.3c-0.2,0.2-0.2,0.4-0.2,0.6v5.9H634.6z"/>
	</g>
	<g>
		<line class="st1" x1="161.1" y1="216.7" x2="165.2" y2="216.7"/>
		<line class="st1" x1="161.1" y1="173.3" x2="165.2" y2="173.3"/>
		<line class="st1" x1="161.1" y1="179.8" x2="165.2" y2="179.8"/>
		<line class="st1" x1="161.1" y1="177.7" x2="165.2" y2="177.7"/>
		<line class="st1" x1="161.1" y1="210.2" x2="165.2" y2="210.2"/>
		<line class="st1" x1="161.1" y1="212.3" x2="165.2" y2="212.3"/>
		<line class="st1" x1="161.1" y1="173.3" x2="161.1" y2="216.7"/>
	</g>
	<line class="st1" x1="223.1" y1="281.2" x2="640.4" y2="281.2"/>
	<line class="st1" x1="351.1" y1="281.2" x2="351.1" y2="277.1"/>
	<line class="st1" x1="293.2" y1="281.2" x2="293.2" y2="277.1"/>
	<line class="st1" x1="286.2" y1="281.2" x2="286.2" y2="277.1"/>
	<line class="st1" x1="279.2" y1="281.2" x2="279.2" y2="277.1"/>
	<line class="st1" x1="272.2" y1="281.2" x2="272.2" y2="277.1"/>
	<line class="st1" x1="265.2" y1="281.2" x2="265.2" y2="277.1"/>
	<line class="st1" x1="258.2" y1="281.2" x2="258.2" y2="277.1"/>
	<line class="st1" x1="251.1" y1="281.2" x2="251.1" y2="277.1"/>
	<line class="st1" x1="244.1" y1="281.2" x2="244.1" y2="277.1"/>
	<line class="st1" x1="237.1" y1="281.2" x2="237.1" y2="277.1"/>
	<line class="st1" x1="230.1" y1="281.2" x2="230.1" y2="277.1"/>
	<line class="st1" x1="223.1" y1="281.2" x2="223.1" y2="277.1"/>
	<line class="st1" x1="300.2" y1="281.2" x2="300.2" y2="277.1"/>
	<line class="st1" x1="307.3" y1="281.2" x2="307.3" y2="277.1"/>
	<line class="st1" x1="314.3" y1="281.2" x2="314.3" y2="277.1"/>
	<line class="st1" x1="321.3" y1="281.2" x2="321.3" y2="277.1"/>
	<line class="st1" x1="358.2" y1="281.2" x2="358.2" y2="277.1"/>
	<line class="st1" x1="388.3" y1="281.2" x2="388.3" y2="277.1"/>
	<line class="st1" x1="398.8" y1="281.2" x2="398.8" y2="277.1"/>
	<line class="st1" x1="422.7" y1="281.2" x2="422.7" y2="277.1"/>
	<line class="st1" x1="433.2" y1="281.2" x2="433.2" y2="277.1"/>
	<line class="st1" x1="459.5" y1="281.2" x2="459.5" y2="277.1"/>
	<line class="st1" x1="470" y1="281.2" x2="470" y2="277.1"/>
	<line class="st1" x1="523.5" y1="281.2" x2="523.5" y2="277.1"/>
	<line class="st1" x1="534" y1="281.2" x2="534" y2="277.1"/>
	<line class="st1" x1="564.5" y1="281.2" x2="564.5" y2="277.1"/>
	<line class="st1" x1="571.6" y1="281.2" x2="571.6" y2="277.1"/>
	<line class="st1" x1="602.9" y1="281.2" x2="602.9" y2="277.1"/>
	<line class="st1" x1="609.9" y1="281.2" x2="609.9" y2="277.1"/>
	<line class="st1" x1="640.4" y1="281.2" x2="640.4" y2="277.1"/>
	<line class="st1" x1="487.2" y1="281.2" x2="487.2" y2="277.1"/>
	<line class="st1" x1="501.2" y1="281.2" x2="501.2" y2="277.1"/>
	<rect x="223.1" y="173.3" class="st1" width="417.3" height="43.4"/>
	<rect x="201.4" y="151.6" class="st1" width="21.7" height="21.7"/>
	<rect x="179.7" y="130" class="st1" width="21.7" height="21.7"/>
	<rect x="640.4" y="216.7" class="st1" width="21.7" height="21.7"/>
	<rect x="662.1" y="238.4" class="st1" width="21.7" height="21.7"/>
	<rect x="179.7" y="130" class="st1" width="504.1" height="130.1"/>
	<path class="st2" d="M293.2,395.6v-21.7c0-7.4-6-13.4-13.4-13.4h-56.8v30c0,7.4,6,13.4,13.4,13.4h56.8h8.3
		C296.9,403.9,293.2,400.2,293.2,395.6z"/>
	<circle class="st2" cx="279.8" cy="373.9" r="13.4"/>
	<circle class="st2" cx="236.5" cy="390.5" r="13.4"/>
	<path class="st2" d="M345.2,379c1.3-1.6,1.3-1.6,1.5-1.8c0.5-0.7,0.9-0.9,1.2-0.9c0.9,0,3.2,2.2,3.2,3c0,0.3-0.3,0.5-0.9,0.5h-27.1
		c-0.4,0-0.9,0-1.4,0.1c-0.4-0.5-0.5-0.6-0.5-0.7c0-0.1,0.1-0.2,0.3-0.2c0.6,0,1.4,0.1,1.8,0.1h10.3v-3h-6.2c-0.4,0-0.9,0-1.4,0.1
		c-0.4-0.5-0.5-0.6-0.5-0.7c0-0.1,0.1-0.2,0.3-0.2c0.6,0,1.4,0.1,1.8,0.1h6l0-2.9h-8.5c-0.5,0-1.1,0-1.6,0c-0.5-0.5-0.5-0.6-0.5-0.6
		c0-0.1,0.1-0.2,0.3-0.2c0.6,0,1.4,0.1,1.8,0.1h8.5c0-1.6,0-2.9,0-3.3c0-0.5,0-0.5,0.3-0.5c0.8,0,3.5,0.4,4.4,0.6
		c0.5,0.1,0.8,0.4,0.8,0.8c0,0.3,0,0.3-1,0.9l0,1.5h5.4c1.3-2,2-2.7,2.4-2.7c0.5,0,1.4,0.5,2.6,1.6c0.6,0.6,0.9,1,0.9,1.3
		c0,0.3-0.3,0.5-0.7,0.5h-10.6v2.9h3.3c1.3-1.7,1.8-2.2,2.2-2.2c0.8,0,3.1,1.9,3.1,2.5c0,0.4-0.2,0.5-0.9,0.5h-7.7v3H345.2z
		 M340.8,382.2c0.9-1.3,1.3-1.7,1.6-1.7c0.4,0,2,0.8,3,1.6c0.5,0.4,0.6,0.6,0.6,0.9c0,0.3-0.1,0.4-0.8,1c0,0.9,0,0.9,0,1.9
		c0.1,2,0.1,2.2,0.1,3.6c0,1.4,0,1.4,0.1,3.7v0.4c0,1.2-0.3,1.8-1.1,2.5c-0.9,0.8-2,1.3-3.3,1.3c-0.5,0-1-0.1-1.2-0.3
		c-0.1-0.1-0.1-0.1-0.4-0.9c-0.3-0.9-0.6-1.2-2.4-2.2c-0.2-0.1-0.3-0.2-0.3-0.2c0-0.1,0-0.2,0.2-0.2c0.1,0,0.1,0,0.4,0
		c0.5,0.1,1,0.1,1.3,0.1c0.9,0,1.6-0.1,1.9-0.3c0.4-0.3,0.4-0.3,0.4-3.6H331c0,2,0,2.2,0,3.7c0,1,0,1.1,0,1.4c0,1-0.1,1.3-0.5,1.5
		c-0.5,0.3-1.5,0.5-2.3,0.5c-0.9,0-1.3-0.3-1.3-0.8c0-0.3,0-0.4,0.1-2.2c0.1-2.1,0.2-8.1,0.2-9.5v-3.1c0-0.3,0-0.4,0.2-0.4
		c0.4,0,1.4,0.2,2.5,0.5c1.1,0.3,1.3,0.4,1.7,0.8H340.8z M341.1,385.7c0-2.5,0-2.5,0-2.6c0-0.1-0.1-0.2-0.3-0.2h-9.3
		c-0.4,0.2-0.5,0.3-0.5,0.6v2.2H341.1z M331,386.4v2.7h10.2v-2.7H331z"/>
	<path class="st2" d="M381.8,370.9c1.3-2.2,1.9-2.7,2.4-2.7c0.9,0,3.5,2.1,3.5,2.9c0,0.3-0.4,0.6-0.7,0.6h-8.4v1.4
		c0,0.6-0.6,1.1-2,1.2c3,0.6,4,0.9,4,1.4c0,0.6-0.4,0.8-1,1.1c-0.5,0.7-0.8,1.3-1.4,2.1h3.7c1.5-2.2,1.8-2.5,2.2-2.5
		c0.9,0,3,2,3,2.8c0,0.4-0.3,0.5-1.2,0.5h-8.3c-1.3,1.8-2.2,2.7-3.5,3.8c-0.8,0.6-1.2,0.9-1.4,0.9c-0.1,0-0.2,0-0.2-0.1
		c0-0.1,0-0.1,0.2-0.3c1.4-1.7,2.9-6.8,3.3-9.5c-0.3,0.1-0.5,0-0.7,0c-0.5,0-0.9-0.3-0.9-0.8v-1.9h-4.2v1.4c0,0.8-1.2,1.3-3,1.3
		c-0.9,0-1.2-0.2-1.2-0.7l0-2h-3.7c-1.2,0-2.4,0.1-3.5,0.2c-0.5-0.7-0.5-0.8-0.5-0.8c0-0.1,0.1-0.2,0.3-0.2c1,0.1,2.3,0.1,3,0.1h4.6
		c0-0.4,0-0.9,0-1.4c0-0.6,0-1.2,0-1.7c0-0.2,0-0.2,0.2-0.2c1.1,0,3.7,0.4,4.2,0.6c0.3,0.2,0.5,0.4,0.5,0.6c0,0.3-0.2,0.5-0.7,0.8
		v1.3h4.2c0-1.3,0-2.2,0-3.1c0-0.2,0.1-0.3,0.3-0.3c0.9,0,2.9,0.2,3.7,0.4c0.7,0.2,1,0.4,1,0.8c0,0.3-0.3,0.6-0.8,0.8l0,1.3H381.8z
		 M383.2,396c1.2-2.1,2-2.9,2.4-2.9c0.8,0,2.7,2.2,2.7,3.1c0,0.4-0.3,0.6-1,0.6h-26.4c-0.7,0-1.5,0-2.2,0.1
		c-0.5-0.6-0.5-0.7-0.5-0.7c0-0.1,0.1-0.2,0.3-0.2c0.5,0,1.1,0.1,1.4,0.1h3.5c0-1.4,0-2.9,0-4.3c0-1.5,0-2.5-0.1-3.2v-0.1
		c0-0.2,0.1-0.3,0.2-0.3c0.2,0,0.9,0.1,2.1,0.4c1.3,0.3,1.3,0.3,1.4,0.5h11.6c1.1-1.8,1.2-1.9,1.7-1.9c0.4,0,0.8,0.3,1.9,1.1
		c0.9,0.6,1.3,1.2,1.3,1.6c0,0.3-0.2,0.4-0.9,0.8l0,5.3H383.2z M369.4,386.3c1.4-1.9,1.4-1.9,1.7-1.9c0.7,0,2.5,1.6,2.5,2.2
		c0,0.3-0.3,0.5-0.7,0.5h-9.6v0.1c0,0.7-1,1.3-2.4,1.3c-0.9,0-1.2-0.2-1.2-0.9c0-0.4,0-0.7,0.1-3.4c0-0.5,0-2.9,0-4.9
		c0-2.3,0-3.9,0-4.4v-0.2c0-0.2,0-0.2,0.2-0.2c0.4,0,2.2,0.4,2.9,0.7c0.4,0.2,0.6,0.3,0.8,0.5h5.5c1.1-1.3,1.5-1.7,1.8-1.7
		c0.3,0,0.5,0.2,1.4,0.9c0.7,0.5,0.9,0.8,0.9,1.1c0,0.3-0.2,0.4-0.6,0.4h-4.4l0,2.7h0.7l0.6-0.8c0.3-0.4,0.5-0.5,0.8-0.5
		c0.4,0,0.6,0.1,2.2,1.2c0.5,0.3,0.6,0.5,0.6,0.7c0,0.2-0.1,0.4-0.5,0.6c-0.2,0.1-0.2,0.2-0.2,0.4l0,2.1c0,0.7-0.9,1.1-2.3,1.1
		c-0.8,0-1.1-0.1-1.1-0.7h-0.8l0,3.2H369.4z M365,379.1c0-0.6,0-1,0-1.3c0-0.3,0-0.7,0-1.3h-1.3c-0.4,0.1-0.4,0.3-0.4,1.1v1.6H365z
		 M363.2,379.8v2.6h5.8v-2.6H363.2z M365,386.3c0-0.7,0-1.3,0-1.6c0-0.4,0-0.9,0-1.6h-1.8l0,3.2H365z M367.1,389.8
		c-0.2,0-0.3,0.3-0.3,1.5v4.7h1.8c0-1.2,0-1.7,0-2.4v-3.8H367.1z M372.3,389.8c0,0.1-0.1,0.2-0.2,0.2c-0.1,0.1-0.2,0.2-0.2,0.3
		c0,0.1,0,0.2-0.1,2.2l0,2.5c0,0.4,0,0.6,0,1h1.8c0-2,0-4.3,0-6.2H372.3z M380.9,385.1c0.1-0.2,0.4-0.8,1-1.6
		c0.5-0.8,0.7-1.1,1.1-1.1c0.5,0,1,0.4,2.2,1.7c0.5,0.5,0.6,0.9,0.6,1.2c0,0.3-0.3,0.5-0.6,0.5h-6.9c-0.8,0-1.7,0-2.6,0.2
		c-0.5-0.6-0.5-0.7-0.5-0.8c0-0.1,0.1-0.2,0.3-0.2c0.7,0.1,1.6,0.1,2,0.1H380.9z M377.4,389.8c0,0.1-0.1,0.2-0.3,0.3
		c-0.2,0.1-0.2,0.4-0.2,2.6v3.3h1.8c0-1.8,0-5.2,0-6.2H377.4z"/>
	<path class="st2" d="M413.9,382.5c0.2,0.2,0.3,0.4,0.3,0.5c0,0.3-0.2,0.5-0.6,0.7c-0.3,2.5-0.9,4.6-1.9,6.2c-1.2,2-2.8,3.4-5.1,4.5
		c-0.8,0.4-2,0.8-3,1.1c-0.7,0.2-1.3,0.3-1.6,0.3c-0.1,0-0.2,0-0.2-0.1c0-0.1,0.1-0.2,0.6-0.3c0.8-0.3,1.7-0.9,2.5-1.4
		c1-0.8,1.9-1.7,2.5-2.6c1.4-2.1,2.3-5.2,2.3-8.2c0-1.4-0.1-1.7-0.6-2.4c-0.4,0-1.1,0.2-1.9,0.3c-0.9,0.2-2,0.4-2.8,0.7
		c-0.5,0.1-1.3,0.4-2,0.8c-0.3,0.1-0.4,0.2-0.6,0.2c-0.5,0-1.3-0.5-1.9-1.2c-0.6-0.7-1.1-1.5-1.1-2c0-0.1,0-0.1,0.1-0.1
		c0.1,0,0.1,0,0.4,0.1c0.7,0.2,1.2,0.3,1.9,0.3c0.5,0,2.2-0.2,4.8-0.5c2.3-0.3,5.2-0.7,8.3-1.2c1.3-0.2,1.7-0.3,2.6-0.6
		c0.3-0.1,0.4-0.2,0.8-0.3c0.3-0.1,0.5-0.1,0.6-0.1c0.5,0,2.3,0.7,3.4,1.4c0.6,0.4,1.1,0.9,1.1,1.4c0,0.5-0.6,1.2-1.2,1.2
		c-0.2,0-1.1-0.2-2.1-0.4c-1.6-0.3-2.5-0.4-4.1-0.4c-1.5,0-3.1,0.1-4.7,0.2C413.3,381.9,413.5,382,413.9,382.5z M413.5,374.3
		c-0.9,0-2.5,0.2-3.9,0.4c-1.3,0.2-2.4,0.4-3.1,0.6c-0.4,0.1-0.7,0.2-0.8,0.2c-0.5,0-1-0.3-1.7-1.2c-0.2-0.3-0.4-0.5-0.5-0.8
		c-0.2-0.3-0.3-0.4-0.3-0.5c0-0.1,0-0.1,0.1-0.1c0.1,0,0.4,0.1,0.5,0.1c0.4,0.1,1,0.2,1.3,0.2c0.8,0,2.2-0.2,3.7-0.5
		c1.5-0.3,3-0.7,3.9-1c0.8-0.4,0.9-0.4,1.2-0.4c0.5,0,1.2,0.3,2.3,0.8c0.8,0.4,1.2,0.8,1.2,1.4s-0.6,1-1.8,1c-0.4,0-0.4,0-1.4-0.1
		L413.5,374.3z M420.8,373.8c-0.4,0-0.7-0.1-1-0.4c-0.2-0.3-0.2-0.3-0.3-1c-0.2-0.9-0.9-2.1-1.5-2.6c-0.1-0.1-0.1-0.1-0.1-0.2
		c0-0.1,0.1-0.1,0.2-0.1c0.4,0,1.5,0.4,2.2,0.9c1,0.6,1.6,1.5,1.6,2.3C421.9,373.3,421.4,373.8,420.8,373.8z M423,371.4
		c-0.3-1-1.2-2.1-2.2-2.7c-0.2-0.1-0.3-0.2-0.3-0.3c0-0.1,0.1-0.1,0.2-0.1c0.5,0,1.1,0.1,1.8,0.4c1.8,0.6,2.8,1.6,2.8,2.6
		c0,0.7-0.5,1.2-1.1,1.2C423.6,372.5,423.3,372.2,423,371.4z"/>
	<path class="st2" d="M443.9,378.5c2.9-0.2,3.5-0.3,4.4-0.4c0-0.4,0-0.9,0-1.3c0-0.6,0-1.2,0-1.7c0-1.7-0.2-3-0.5-3.3
		c-0.2-0.2-0.4-0.3-0.9-0.3c-0.1,0-0.2-0.1-0.2-0.2c0-0.1,0.2-0.3,0.4-0.5c0.4-0.3,1.1-0.6,1.5-0.6c0.5,0,1.3,0.3,2,0.7
		c1.3,0.9,1.8,1.4,1.8,1.9c0,0.1-0.1,0.3-0.2,0.4c-0.4,0.4-0.4,0.4-0.4,0.8c0,1.2,0,2.5,0,3.7c1.7-0.1,2.2-0.3,3.1-0.6
		c0.3-0.1,0.5-0.2,0.6-0.2c0.5,0,1.8,0.6,2.9,1.3c0.7,0.4,1,0.9,1,1.5s-0.6,1-1.3,1c-0.2,0-0.8-0.1-2.4-0.5c-1.1-0.3-1.6-0.3-4-0.5
		c-0.2,4.9-0.3,6-1,8c-1.2,3.3-4.1,6-8.3,7.6c-1.1,0.4-2.1,0.7-2.4,0.7c-0.1,0-0.2-0.1-0.2-0.1c0-0.1,0.1-0.2,0.7-0.5
		c2.2-1.2,4.2-3,5.5-5c1.1-1.8,1.8-3.9,2.1-6.6c0.1-0.9,0.1-1.3,0.2-4c-0.6,0-1.1,0.1-1.3,0.1c-1.7,0.1-2,0.2-3.1,0.3l0.1,4
		c0,2.7-0.7,4.2-2,4.2c-0.4,0-0.6-0.2-0.9-0.8c-0.2-0.6-0.4-1.7-0.4-2.1c0-0.7,0.1-2.1,0.1-3.8c0-0.3,0-0.4,0-0.8
		c-2.3,0.5-3,0.8-4.3,1.3c-0.4,0.2-0.7,0.3-0.9,0.3c-0.4,0-0.9-0.4-1.3-1c-0.6-0.7-1.1-1.6-1.1-2.2c0-0.2,0.1-0.4,0.3-0.7
		c0.5,0.6,0.9,0.8,1.4,0.8c1.1,0,2-0.1,5.7-0.5c-0.2-2.8-0.3-3.5-0.5-3.9c-0.3-0.4-0.6-0.5-1.2-0.6c-0.2,0-0.3-0.1-0.3-0.2
		c0-0.1,0.4-0.4,0.9-0.5c0.5-0.2,1.1-0.4,1.4-0.4c0.5,0,1.2,0.3,2,0.7c1.1,0.6,1.5,1.1,1.5,1.5c0,0.3,0,0.3-0.5,1.2V378.5z
		 M456.7,374.6c-0.4,0-0.7-0.2-0.9-0.5c-0.2-0.2-0.2-0.2-0.3-1c-0.2-0.9-0.8-2.1-1.5-2.6c-0.1-0.1-0.2-0.1-0.2-0.2
		c0-0.1,0.1-0.1,0.2-0.1c0.5,0,1.6,0.4,2.3,0.8c0.9,0.6,1.6,1.6,1.6,2.4C457.8,374.1,457.3,374.6,456.7,374.6z M458.5,372
		c-0.4-1-1.3-2.1-2.3-2.6c-0.3-0.2-0.3-0.2-0.3-0.3c0-0.1,0.1-0.1,0.3-0.1c0.6,0,1,0.1,1.8,0.3c1.9,0.6,2.9,1.5,2.9,2.6
		c0,0.7-0.5,1.2-1.1,1.2C459.1,373,458.9,372.8,458.5,372z"/>
	<path class="st2" d="M483.9,386.3c0,1.9,0,1.9,0.2,4.2c0,0.8,0.1,1.6,0.1,2.2c0,1.1-0.1,1.6-0.3,2c-0.2,0.5-0.9,0.9-1.4,0.9
		c-0.8,0-1.4-0.6-1.9-1.7c-0.4-1-0.6-2.1-0.6-2.7c0-0.3,0-0.5,0.1-0.7c0.2-0.4,0.2-0.6,0.3-1c0.3-1.2,0.5-6.6,0.5-10.2
		c-0.3,0.3-0.3,0.3-0.9,0.8c-2,2-5.3,4-7.9,5c-0.7,0.3-1.7,0.5-2,0.5c-0.1,0-0.2,0-0.2-0.1c0-0.1,0.1-0.2,0.6-0.4
		c0.4-0.2,1.1-0.6,1.8-1.1c0.5-0.4,1.1-0.8,1.5-1.2c2.4-2.1,4.9-5.3,6.6-8.3c0.5-0.9,0.8-1.6,1-2.2c0.1-0.2,0.1-0.3,0.1-0.4
		c0-0.1-0.1-0.3-0.3-0.4c-0.2-0.1-0.4-0.3-0.5-0.3c-0.2-0.1-0.3-0.1-0.3-0.2c0-0.1,0.3-0.3,0.6-0.5c0.6-0.3,1.6-0.6,2.2-0.6
		c0.6,0,1.2,0.3,2.2,1.1c1.3,1.1,1.7,1.5,1.7,2c0,0.4-0.3,0.7-0.7,0.9c-0.6,0.3-0.8,0.5-1.6,1.4c-0.5,0.5-1.8,2-2.2,2.5
		c0.1,0.2,0.1,0.2,0.6,0.5c0.5,0.4,0.8,1.1,0.8,1.6c0,0.2,0,0.3-0.1,0.6c0,0.5,0,0.7,0,1.1V386.3z"/>
	<path class="st2" d="M509.3,377.6c0,1.3-1,2.3-2.3,2.3c-0.3,0-0.7-0.1-1-0.2c-0.2-0.1-0.2-0.1-0.5-0.7c-0.7-1.3-2.9-3.2-4.1-3.6
		c-0.2-0.1-0.2-0.1-0.2-0.2c0-0.1,0.4-0.2,0.8-0.3c0.7-0.1,1.7-0.2,2.5-0.2C507.4,374.7,509.3,375.9,509.3,377.6z M507.1,391.6
		c-0.6,0.4-0.9,0.5-1.3,0.5c-0.4,0-0.9-0.2-1.5-0.6c-0.5-0.4-1.1-0.9-1.7-1.6c-0.7-0.8-1.1-1.4-1.1-2c0-0.9,0.5-1.9,1.1-2.1
		c0.3,1,1,1.4,2.3,1.4c0.4,0,3-0.8,3.9-1.2c3.2-1.4,7.6-3.9,10.8-6.1c0.8-0.6,1.7-1.3,2.9-2.4c0.5-0.5,0.6-0.5,0.7-0.5
		s0.2,0.1,0.2,0.2c0,0.1,0,0.1-0.1,0.3c-0.4,0.7-1.8,2.7-2.9,4c-1.4,1.6-3.1,3.1-5,4.7c-2.3,1.8-5,3.6-8.1,5.3L507.1,391.6z"/>
	<path class="st2" d="M559.9,386.2c0.1-0.2,0.2-0.4,0.3-0.5c1-1.6,1.3-2.1,1.7-2.1c0.8,0,2.7,2,2.7,2.7c0,0.4-0.3,0.5-1.3,0.5h-3.9
		c0.1,2.2,0.1,2.5,0.1,3.3c0,0.4,0,0.7,0,1c0,0.8-0.4,1.2-1.4,1.5c-0.5,0.2-1.1,0.3-1.7,0.3c-0.8,0-1.1-0.1-1.3-0.4
		c-0.1-0.2-0.1-0.4-0.1-2.1H551c0,0.7,0,0.7,0.1,2.2v0.2c0,1.6-0.3,2.4-1.1,3.1c-0.8,0.8-1.9,1.2-3.4,1.2c-1.1,0-1.5-0.3-1.6-1.1
		c-0.1-0.8-0.3-1-1.3-1.7c-0.5-0.3-1-0.6-1.4-0.8c-0.2-0.1-0.3-0.2-0.3-0.3c0-0.1,0.1-0.2,0.4-0.2c0.2,0,1.1,0.1,1.4,0.1
		c1.6,0,2.3-0.2,2.6-0.6c0.2-0.3,0.2-0.6,0.2-2.1h-7.3c-0.6,0-1.2,0-1.8,0.1c-0.5-0.6-0.5-0.7-0.5-0.8c0-0.1,0.1-0.2,0.3-0.2
		c0.5,0.1,1.1,0.1,1.4,0.1h8v-3h-10.4c-0.6,0-1.2,0-1.7,0.1c-0.5-0.6-0.5-0.7-0.5-0.8c0-0.1,0.1-0.2,0.3-0.2c0.7,0.1,1.6,0.1,2,0.1
		h10.3v-3h-7.6c-0.6,0-1.3,0-1.9,0.1c-0.5-0.6-0.5-0.6-0.5-0.7c0-0.1,0.1-0.2,0.3-0.2c0.5,0,1.1,0.1,1.4,0.1h8.3v-2.8h-3.9v0.3
		c0,0.9-0.9,1.4-2.7,1.4c-1.2,0-1.7-0.3-1.6-0.8c0.1-1.3,0.1-3.4,0.1-4.8v-1.9c0-0.1,0-0.2,0.1-0.2c0.5,0,2,0.2,3.2,0.5
		c1,0.3,1.3,0.4,1.6,0.7h3.2v-2.6h-10.2c-0.4,0-0.9,0-1.4,0.1c-0.5-0.6-0.5-0.6-0.5-0.7c0-0.1,0.1-0.2,0.3-0.2
		c0.6,0,1.4,0.1,1.8,0.1h10c0-1.4-0.1-2.9-0.1-3.7c0-0.2,0-0.2,0.4-0.2c0.6,0,3,0.3,3.6,0.5c0.8,0.2,1.2,0.5,1.2,1
		c0,0.1-0.1,0.5-0.8,1c0,0.5,0,0.8-0.1,1.5h6.3c0.4-0.4,0.4-0.4,1.5-1.8c0.5-0.6,0.8-0.9,1.2-0.9c0.4,0,1.2,0.4,2.2,1.2
		c0.9,0.7,1.4,1.3,1.4,1.7c0,0.4-0.3,0.6-1.1,0.6h-11.6v2.6h3.8c0.2-0.2,0.2-0.2,0.5-0.6c0.5-0.6,0.9-0.9,1.2-0.9
		c0.5,0,1.4,0.4,2.6,1.1c0.9,0.5,1.2,0.8,1.2,1.1c0,0.2-0.1,0.3-0.5,0.6c-0.2,0.1-0.3,0.3-0.3,0.4c0,0.1,0,0.1,0,0.2
		c0,0.5,0.2,2.1,0.2,2.4v0.2c0,0.6-0.2,0.9-1,1.2c-0.6,0.3-1.4,0.4-2.5,0.4c-0.9,0-1.2-0.2-1.2-0.8v-0.3h-3.9l0,2.9h3.7
		c1.2-1.2,1.4-1.4,1.9-1.4c0.4,0,0.7,0.2,2.2,0.9c0.9,0.4,1.2,0.7,1.2,1c0,0.1,0,0.2-0.1,0.3c-0.3,0.3-0.4,0.4-0.5,0.5v0.4
		c0,0.3,0,0.3,0,0.8v1.1H559.9z M543.4,375.4c-0.6,0-0.8,0.2-0.8,1.2v2.2h4v-3.4H543.4z M554.8,375.8c0-0.3,0-0.4-0.4-0.4h-3.6
		l0.1,3.4h3.9V375.8z M554.9,383.9c0-0.5-0.1-0.7-0.4-0.7h-3.6l0,3h4V383.9z M550.9,386.9l0.1,3h3.9v-3H550.9z"/>
	<path class="st2" d="M582.2,378.2c0.9-1.1,1.2-1.4,1.6-1.4c0.6,0,1.8,0.7,3,1.9c0.4,0.4,0.7,1,0.7,1.3c0,0.5-0.4,0.8-1.3,0.9
		c-1.1,0.1-2,0.6-3.4,2c-0.1,0.1-0.2,0.2-0.3,0.2s-0.2,0-0.2-0.1c0-0.1,0-0.2,0.1-0.3c0.2-0.7,0.4-2,0.7-3.7h-2.4
		c0.7,0.2,1,0.3,1,0.5c0,0.1-0.1,0.3-0.5,0.5l0.2,13.4c0,1.4-0.4,2.2-1.6,3c-0.8,0.5-1.7,0.8-2.6,0.8c-0.7,0-1.1-0.2-1.1-0.8
		c-0.1-1.1-0.7-1.9-2.2-2.5c-0.2-0.1-0.2-0.1-0.2-0.2c0-0.1,0-0.1,1-0.1c1.4,0,2.2-0.1,2.5-0.4c0.3-0.3,0.3-0.6,0.3-6.3
		c-1.4,2-2.6,3.1-4.3,4.3c-0.7,0.5-1.4,0.9-1.5,0.9c-0.1,0-0.2-0.1-0.2-0.2c0-0.1,0.1-0.2,0.1-0.3c2.5-2.7,5-8.3,5.6-12.7h-3.3
		c-0.5,0-1,0-1.4,0.1c-0.4-0.5-0.4-0.6-0.4-0.7c0-0.1,0.1-0.2,0.3-0.2c0.5,0,1.2,0.1,1.5,0.1H582.2z M579.8,369.7
		c1.4-1.5,1.6-1.6,1.9-1.6c0.4,0,0.8,0.2,1.4,0.6c1.5,1.1,2.3,2,2.3,2.7c0,0.5-0.4,0.8-1.2,0.8c-1.3,0.1-1.8,0.2-2.7,0.7
		c-0.6,0.4-1.2,0.7-1.8,1c0.8,0.6,1.3,1.4,1.3,2.2c0,1-1,1.8-2.4,1.8c-1.2,0-1.6-0.4-1.8-1.8c-0.2-1-0.3-1.4-0.6-1.9
		c-0.3-0.5-1.2-1.4-1.6-1.6c-0.2-0.1-0.3-0.2-0.3-0.3c0-0.1,0.1-0.1,0.2-0.1c0.8,0,2.5,0.5,4.4,1.2c0.4-0.9,0.8-1.9,1.2-3h-5.6
		c-0.4,0-1,0-1.4,0.1c-0.4-0.5-0.5-0.6-0.5-0.7c0-0.1,0.1-0.2,0.3-0.2c0.5,0.1,1.2,0.1,1.5,0.1H579.8z M596.2,372.7
		c0.1,0.1,0.1,0.1,0.6,0.3c0.9,0.3,1.4,0.7,1.4,1c0,0.3-0.3,0.4-0.8,0.6c-1.1,1.7-1.7,2.5-2.9,3.8c1.9,1,4.9,1.7,8,2
		c0.3,0,0.4,0.1,0.4,0.2c0,0.2-0.1,0.2-0.3,0.4c-0.9,0.5-2.3,2.2-2.8,3.3c-0.1,0.3-0.3,0.4-0.7,0.4c-0.7,0-2.2-0.5-3.3-1.1
		c-1.5-0.8-2.5-1.5-3.8-2.7c-0.6,0.4-1.3,0.9-2.2,1.5c1,0.1,2.6,0.4,3.7,0.7c0.6,0.2,0.9,0.4,0.9,0.7c0,0.3-0.1,0.4-0.9,0.8
		l-0.3,1.8h2.3c0.1-0.1,0.1-0.1,0.3-0.4c0.7-0.8,1-1,1.3-1c0.4,0,1.8,0.8,2.8,1.6c0.5,0.4,0.8,0.8,0.8,1.1c0,0.3-0.3,0.5-0.8,0.7
		c-0.5,7.3-2,8.9-6,8.9c-0.7,0-1-0.2-1.2-0.6c-0.4-1.4-0.5-1.6-2-2.4c-0.3-0.2-0.4-0.2-0.4-0.3c0-0.1,0.1-0.2,0.2-0.2s0.3,0,0.6,0.1
		c0.5,0.1,1,0.1,1.4,0.1c1.3,0,2-0.6,2.6-2.3c0.4-1.1,0.7-3,0.8-4.5H593c-0.9,4-1.8,5.8-4.2,7.4c-1.5,1-3,1.6-5.6,2.3
		c-1.2,0.3-2.4,0.5-3,0.5c-0.2,0-0.3-0.1-0.3-0.2c0-0.1,0.1-0.2,0.4-0.3c1.9-0.4,4.1-1.5,5.5-2.9c1.7-1.6,2.7-3.7,3.2-6.7h-3.7
		c-0.5,0-1,0-1.4,0.1c-0.5-0.5-0.5-0.6-0.5-0.6c0-0.1,0.1-0.2,0.3-0.2c0.5,0,1.2,0.1,1.5,0.1h3.9c0.1-0.8,0.3-3,0.3-3.4
		c0-0.1,0-0.1,0-0.3c-1.1,0.7-2.3,1.2-3.7,1.7c-1.1,0.4-3.3,0.9-3.8,0.9c-0.1,0-0.2-0.1-0.2-0.2c0-0.1,0.1-0.2,0.4-0.3
		c3.1-0.9,6.4-3.3,8.4-6.3c-0.7-1.6-0.9-2.2-1.5-5.6c-1.1,1.3-2.1,2.3-2.9,3c-0.9,0.6-1.6,1.1-1.8,1.1c-0.1,0-0.1,0-0.1-0.1
		c0-0.1,0-0.1,0.1-0.3c1.2-1.7,2.5-6,2.8-8.9c0-0.4,0.1-0.5,0.2-0.5c0.1,0,0.6,0.1,0.8,0.2c3.5,0.9,4.4,1.3,4.4,2
		c0,0.4-0.3,0.6-1.3,0.9c-0.3,0.4-0.3,0.4-0.7,1c-0.4,0.5-0.4,0.5-0.8,0.9h6.6c1.2-1.9,1.8-2.7,2.3-2.7c0.4,0,1.2,0.5,2.3,1.5
		c0.7,0.7,0.9,1,0.9,1.5c0,0.3-0.3,0.4-1,0.4H596.2z M589.6,372.7c0.4,1.8,1,2.9,2.1,4c0.8-1.5,1.1-2.1,1.7-4H589.6z"/>
	<path class="st2" d="M619.7,376.7c1.2-1.5,1.3-1.7,1.7-1.7c0.4,0,1.1,0.4,2.7,1.5c0.6,0.5,0.8,0.7,0.8,1c0,0.3-0.2,0.6-0.9,1
		c0,0.1,0.1,1.8,0.2,5l0,1c0,0.6-0.2,0.9-0.5,1.2c-0.6,0.4-1.6,0.6-2.4,0.6c-0.6,0-1-0.1-1.2-0.3c-0.1-0.2-0.1-0.2-0.1-1.3h-3.5
		c-0.1,4.2-0.7,6.2-2.6,8.8c-1,1.3-3.2,3.2-3.9,3.2c-0.1,0-0.2-0.1-0.2-0.2s0.1-0.1,0.4-0.4c0.9-0.8,1.7-2.4,2.1-4.2
		c0.3-1.5,0.4-2.8,0.4-5.1c0-2.7-0.3-9.3-0.4-11c0-0.1,0.1-0.2,0.2-0.2c1,0,3.6,0.7,4.2,1.1H619.7z M619.2,370.8
		c0.3-0.4,0.3-0.4,1.3-1.9c0.5-0.7,0.7-0.9,1.1-0.9c0.4,0,1,0.4,2.1,1.3c0.9,0.8,1.3,1.3,1.3,1.7c0,0.4-0.3,0.6-1.1,0.6h-11.3
		c-0.4,0-0.9,0-1.4,0.1c-0.5-0.6-0.5-0.6-0.5-0.7c0-0.1,0.1-0.2,0.3-0.2c0.6,0.1,1.4,0.1,1.8,0.1H619.2z M620,377.7
		c0-0.3-0.1-0.4-0.3-0.4h-2.9l-0.1,0.1c-0.2,0.2-0.2,0.3-0.2,0.8l0.1,5.6h3.5V377.7z M634.6,378.6c1.7-3,1.9-3.3,2.4-3.3
		c0.4,0,1.3,0.6,2.3,1.7c0.9,0.9,1.2,1.3,1.2,1.8c0,0.3-0.3,0.6-0.7,0.6h-3.2c0.4,0.1,0.6,0.3,0.6,0.5c0,0.2-0.1,0.3-0.3,0.4
		c-0.2,0.1-0.3,0.2-0.5,0.4c0,0.6,0,0.6,0.1,2.4c0,1.2,0.4,8.7,0.4,10c0,1.5,0.1,2.5,0.1,2.6c0,1-1.2,1.6-3.1,1.6
		c-1.3,0-1.5-0.2-1.5-1.2c0-0.4,0-0.7,0-1.5c0.1-1.7,0.2-8,0.2-11.3c0-1.4,0-2.2-0.1-3.9h-2.4c-0.1,7-0.4,9.3-1.9,11.6
		c-1.3,2-3.8,4-6.8,5.3c-1,0.4-2,0.8-2.4,0.8c-0.1,0-0.2-0.1-0.2-0.2c0-0.2,0-0.2,0.9-0.6c1.6-0.7,3.5-2.4,4.4-3.9
		c0.9-1.4,1.5-3,1.8-5.2c0.2-1.4,0.3-2.9,0.3-6.7c0-1.4-0.2-7.5-0.2-9c0-0.6-0.1-1.4-0.1-1.7c0-0.1,0.1-0.2,0.2-0.2
		c1.2,0,3.3,0.6,4.5,1.4c2.3-1.2,3.2-1.7,5.3-3.2c3.1,1.8,4.1,2.7,4.1,3.5c0,0.5-0.3,0.7-1.2,0.7c-0.3,0-0.7,0-1.4,0
		c-4,0.2-6.5,0.3-7.3,0.3c-0.2,0.2-0.2,0.4-0.2,0.6v5.9H634.6z"/>
	<g>
		<line class="st1" x1="179.8" y1="403.9" x2="183.8" y2="403.9"/>
		<line class="st1" x1="179.8" y1="360.5" x2="183.8" y2="360.5"/>
		<line class="st1" x1="179.8" y1="367" x2="183.8" y2="367"/>
		<line class="st1" x1="179.8" y1="364.9" x2="183.8" y2="364.9"/>
		<line class="st1" x1="179.8" y1="397.4" x2="183.8" y2="397.4"/>
		<line class="st1" x1="179.8" y1="399.6" x2="183.8" y2="399.6"/>
		<line class="st1" x1="179.8" y1="360.5" x2="179.8" y2="403.9"/>
	</g>
	<line class="st1" x1="223.1" y1="443.6" x2="640.4" y2="443.6"/>
	<line class="st1" x1="351.1" y1="443.6" x2="351.1" y2="439.6"/>
	<line class="st1" x1="293.2" y1="443.6" x2="293.2" y2="439.6"/>
	<line class="st1" x1="286.2" y1="443.6" x2="286.2" y2="439.6"/>
	<line class="st1" x1="279.2" y1="443.6" x2="279.2" y2="439.6"/>
	<line class="st1" x1="272.2" y1="443.6" x2="272.2" y2="439.6"/>
	<line class="st1" x1="265.2" y1="443.6" x2="265.2" y2="439.6"/>
	<line class="st1" x1="258.2" y1="443.6" x2="258.2" y2="439.6"/>
	<line class="st1" x1="251.1" y1="443.6" x2="251.1" y2="439.6"/>
	<line class="st1" x1="244.1" y1="443.6" x2="244.1" y2="439.6"/>
	<line class="st1" x1="237.1" y1="443.6" x2="237.1" y2="439.6"/>
	<line class="st1" x1="230.1" y1="443.6" x2="230.1" y2="439.6"/>
	<line class="st1" x1="223.1" y1="443.6" x2="223.1" y2="439.6"/>
	<line class="st1" x1="300.2" y1="443.6" x2="300.2" y2="439.6"/>
	<line class="st1" x1="307.3" y1="443.6" x2="307.3" y2="439.6"/>
	<line class="st1" x1="314.3" y1="443.6" x2="314.3" y2="439.6"/>
	<line class="st1" x1="321.3" y1="443.6" x2="321.3" y2="439.6"/>
	<line class="st1" x1="358.2" y1="443.6" x2="358.2" y2="439.6"/>
	<line class="st1" x1="388.3" y1="443.6" x2="388.3" y2="439.6"/>
	<line class="st1" x1="398.8" y1="443.6" x2="398.8" y2="439.6"/>
	<line class="st1" x1="422.7" y1="443.6" x2="422.7" y2="439.6"/>
	<line class="st1" x1="433.2" y1="443.6" x2="433.2" y2="439.6"/>
	<line class="st1" x1="459.5" y1="443.6" x2="459.5" y2="439.6"/>
	<line class="st1" x1="470" y1="443.6" x2="470" y2="439.6"/>
	<line class="st1" x1="523.5" y1="443.6" x2="523.5" y2="439.6"/>
	<line class="st1" x1="534" y1="443.6" x2="534" y2="439.6"/>
	<line class="st1" x1="564.5" y1="443.6" x2="564.5" y2="439.6"/>
	<line class="st1" x1="571.6" y1="443.6" x2="571.6" y2="439.6"/>
	<line class="st1" x1="602.9" y1="443.6" x2="602.9" y2="439.6"/>
	<line class="st1" x1="609.9" y1="443.6" x2="609.9" y2="439.6"/>
	<line class="st1" x1="640.4" y1="443.6" x2="640.4" y2="439.6"/>
	<line class="st1" x1="487.2" y1="443.6" x2="487.2" y2="439.6"/>
	<line class="st1" x1="501.2" y1="443.6" x2="501.2" y2="439.6"/>
	<line class="st3" x1="183.8" y1="360.5" x2="648.9" y2="360.5"/>
	<line class="st3" x1="183.8" y1="364.9" x2="648.9" y2="364.9"/>
	<line class="st3" x1="183.8" y1="369.2" x2="648.9" y2="369.2"/>
	<line class="st3" x1="183.8" y1="373.6" x2="648.9" y2="373.6"/>
	<line class="st3" x1="183.8" y1="377.9" x2="648.9" y2="377.9"/>
	<line class="st3" x1="183.8" y1="382.2" x2="648.9" y2="382.2"/>
	<line class="st3" x1="183.8" y1="386.6" x2="648.9" y2="386.6"/>
	<line class="st3" x1="183.8" y1="390.9" x2="648.9" y2="390.9"/>
	<line class="st3" x1="183.8" y1="395.2" x2="648.9" y2="395.2"/>
	<line class="st3" x1="183.8" y1="399.6" x2="648.9" y2="399.6"/>
	<line class="st3" x1="183.8" y1="397.4" x2="648.9" y2="397.4"/>
	<line class="st3" x1="183.8" y1="367.1" x2="648.9" y2="367.1"/>
	<line class="st3" x1="183.8" y1="382.2" x2="648.9" y2="382.2"/>
	<line class="st3" x1="183.8" y1="403.9" x2="648.9" y2="403.9"/>
	<line class="st3" x1="321.3" y1="439.9" x2="321.3" y2="341.9"/>
	<line class="st3" x1="293.2" y1="439.6" x2="293.2" y2="341.6"/>
	<line class="st3" x1="230.1" y1="439.6" x2="230.1" y2="341.6"/>
	<line class="st3" x1="237.1" y1="439.6" x2="237.1" y2="341.6"/>
	<line class="st3" x1="244.1" y1="439.6" x2="244.1" y2="341.6"/>
	<line class="st3" x1="251.1" y1="439.6" x2="251.1" y2="341.6"/>
	<line class="st3" x1="258.2" y1="439.6" x2="258.2" y2="341.6"/>
	<line class="st3" x1="265.2" y1="439.6" x2="265.2" y2="341.6"/>
	<line class="st3" x1="272.2" y1="439.6" x2="272.2" y2="341.6"/>
	<line class="st3" x1="279.2" y1="439.6" x2="279.2" y2="341.6"/>
	<line class="st3" x1="286.2" y1="439.6" x2="286.2" y2="341.6"/>
	<line class="st3" x1="300.2" y1="439.6" x2="300.2" y2="341.6"/>
	<line class="st3" x1="307.3" y1="439.6" x2="307.3" y2="341.6"/>
	<line class="st3" x1="314.3" y1="439.6" x2="314.3" y2="341.6"/>
	<line class="st3" x1="223.1" y1="439.6" x2="223.1" y2="341.6"/>
	<line class="st3" x1="640.4" y1="439.6" x2="640.4" y2="341.6"/>
	<line class="st3" x1="609.9" y1="439.6" x2="609.9" y2="341.6"/>
	<line class="st3" x1="602.9" y1="439.6" x2="602.9" y2="341.6"/>
	<line class="st3" x1="571.6" y1="439.6" x2="571.6" y2="341.6"/>
	<line class="st3" x1="523.5" y1="439.6" x2="523.5" y2="341.6"/>
	<line class="st3" x1="501.2" y1="439.6" x2="501.2" y2="341.6"/>
	<line class="st3" x1="487.2" y1="439.6" x2="487.2" y2="341.6"/>
	<line class="st3" x1="459.5" y1="439.6" x2="459.5" y2="341.6"/>
	<line class="st3" x1="470" y1="439.6" x2="470" y2="341.6"/>
	<line class="st3" x1="422.7" y1="439.6" x2="422.7" y2="341.6"/>
	<line class="st3" x1="398.8" y1="439.6" x2="398.8" y2="341.6"/>
	<line class="st3" x1="388.3" y1="439.6" x2="388.3" y2="341.6"/>
	<line class="st3" x1="358.2" y1="439.6" x2="358.2" y2="341.6"/>
	<line class="st3" x1="351.1" y1="439.6" x2="351.1" y2="341.6"/>
	<line class="st3" x1="433.2" y1="439.6" x2="433.2" y2="341.6"/>
	<line class="st3" x1="564.5" y1="439.6" x2="564.5" y2="341.6"/>
	<line class="st3" x1="534" y1="439.6" x2="534" y2="341.6"/>
	<line class="st3" x1="223.1" y1="360.5" x2="293.2" y2="403.9"/>
	<line class="st3" x1="223.1" y1="403.9" x2="293.1" y2="360.5"/>
	<rect x="293.2" y="395.6" class="st3" width="8.3" height="8.3"/>
	<rect x="293.2" y="387.3" class="st3" width="16.6" height="16.6"/>
	<rect x="223.1" y="377.1" class="st3" width="26.8" height="26.8"/>
	<rect x="266.3" y="360.5" class="st3" width="26.8" height="26.8"/>
	<circle class="st3" cx="301.5" cy="395.6" r="8.3"/>
	<g>
		<rect x="670.8" y="486.8" class="st3" width="147.2" height="91"/>
		<g>
			<polyline class="st3" points="670.8,486.8 761.8,577.8 761.8,486.8 			"/>
			<polyline class="st3" points="818,486.8 761.8,543.1 818,543.1 783.3,577.8 783.3,543.1 775.1,551.2 			"/>
			<polyline class="st3" points="775.1,556.3 775.1,543.1 761.8,556.3 783.3,556.3 761.8,577.8 			"/>
			<line class="st3" x1="775.1" y1="551.2" x2="783.3" y2="551.2"/>
		</g>
		<line class="st3" x1="778.2" y1="551.2" x2="778.2" y2="556.3"/>
		<line class="st3" x1="775.1" y1="553.2" x2="778.2" y2="553.2"/>
		<circle class="st3" cx="716.3" cy="532.3" r="45.5"/>
		<circle class="st3" cx="789.9" cy="514.9" r="28.1"/>
		<circle class="st3" cx="800.6" cy="560.4" r="17.4"/>
		<circle class="st3" cx="768.4" cy="549.7" r="6.6"/>
		<circle class="st3" cx="779.2" cy="547.1" r="4.1"/>
		<circle class="st3" cx="772.5" cy="567.1" r="10.7"/>
		<circle class="st3" cx="780.7" cy="553.8" r="2.5"/>
		<circle class="st3" cx="776.6" cy="554.8" r="1.5"/>
	</g>
	<g>
		<path class="st3" d="M590.4,553.2c0,1.7,1.4,3.1,3.1,3.1c2.8,0,5.1-2.3,5.1-5.1c0-4.5-3.7-8.2-8.2-8.2c-7.3,0-13.3,5.9-13.3,13.3
			c0,11.9,9.6,21.5,21.5,21.5c19.2,0,34.8-15.6,34.8-34.8c0-31.1-25.2-56.2-56.2-56.2c-50.2,0-91,40.7-91,91"/>
		<rect x="486.2" y="486.8" class="st3" width="147.2" height="91"/>
		<g>
			<line class="st3" x1="577.1" y1="486.8" x2="577.1" y2="577.8"/>
			<line class="st3" x1="577.1" y1="543.1" x2="633.4" y2="543.1"/>
			<line class="st3" x1="598.6" y1="543.1" x2="598.6" y2="577.8"/>
			<line class="st3" x1="577.1" y1="556.3" x2="598.6" y2="556.3"/>
			<line class="st3" x1="590.4" y1="556.3" x2="590.4" y2="543.1"/>
			<line class="st3" x1="590.4" y1="551.2" x2="598.6" y2="551.2"/>
		</g>
		<line class="st3" x1="593.5" y1="551.2" x2="593.5" y2="556.3"/>
		<line class="st3" x1="590.4" y1="553.2" x2="593.5" y2="553.2"/>
	</g>
</g>
<g id="レイヤー_3">
	<g id="レイヤー_4">
	</g>
</g>
<g id="レイヤー_5">
</g>
<g id="レイヤー_6">
</g>
<g id="レイヤー_7">
</g>
<g id="レイヤー_8" class="st4">
</g>
</svg>
