<?xml version="1.0" encoding="utf-8"?>
<!-- Generator: Adobe Illustrator 25.2.1, SVG Export Plug-In . SVG Version: 6.00 Build 0)  -->
<svg version="1.1" id="レイヤー_1" xmlns="http://www.w3.org/2000/svg" xmlns:xlink="http://www.w3.org/1999/xlink" x="0px"
	 y="0px" viewBox="0 0 417.34 43.37" style="enable-background:new 0 0 417.34 43.37;" xml:space="preserve">
<style type="text/css">
	.st0{fill:#FFFFFF;}
</style>
<g>
	<path class="st0" d="M70.14,35.1V13.38C70.14,5.99,64.14,0,56.75,0H0v29.98c0,7.39,5.99,13.39,13.39,13.39h56.75h8.27
		C73.84,43.37,70.14,39.67,70.14,35.1z"/>
	<path class="st0" d="M122.08,18.45c1.32-1.57,1.32-1.57,1.54-1.83c0.55-0.67,0.9-0.93,1.22-0.93c0.87,0,3.21,2.18,3.21,3.02
		c0,0.32-0.32,0.51-0.9,0.51h-27.1c-0.45,0-0.93,0-1.38,0.06c-0.45-0.55-0.48-0.61-0.48-0.67c0-0.13,0.1-0.22,0.26-0.22
		c0.61,0.03,1.44,0.06,1.83,0.06h10.27v-2.99h-6.2c-0.45,0-0.93,0-1.38,0.06c-0.45-0.55-0.48-0.61-0.48-0.67
		c0-0.13,0.1-0.22,0.26-0.22c0.61,0.03,1.45,0.06,1.83,0.06h5.97l-0.03-2.92h-8.51c-0.51,0-1.06,0-1.57,0.03
		c-0.48-0.51-0.51-0.58-0.51-0.64c0-0.13,0.1-0.22,0.26-0.22c0.61,0.03,1.38,0.06,1.77,0.06h8.54c0-1.64-0.03-2.92-0.03-3.31
		c0-0.51,0.03-0.51,0.32-0.51c0.84,0,3.5,0.35,4.37,0.61c0.48,0.13,0.8,0.42,0.8,0.77c0,0.32,0,0.32-1.03,0.93L114.89,11h5.39
		c1.32-1.96,1.96-2.67,2.41-2.67c0.51,0,1.38,0.55,2.57,1.57c0.64,0.58,0.9,0.96,0.9,1.32c0,0.32-0.29,0.55-0.71,0.55h-10.6v2.92
		h3.34c1.28-1.67,1.83-2.25,2.18-2.25c0.8,0,3.08,1.86,3.08,2.5c0,0.35-0.22,0.51-0.87,0.51h-7.74v2.99H122.08z M117.74,21.66
		c0.9-1.32,1.25-1.7,1.64-1.7c0.45,0,1.99,0.84,3.02,1.64c0.48,0.35,0.64,0.61,0.64,0.87c0,0.29-0.13,0.45-0.8,0.99
		c0,0.93,0,0.93,0.03,1.93c0.06,2.02,0.06,2.18,0.1,3.6c0.03,1.41,0.03,1.41,0.1,3.69v0.38c0,1.19-0.26,1.8-1.06,2.5
		c-0.9,0.84-2.02,1.25-3.34,1.25c-0.55,0-0.96-0.1-1.19-0.29c-0.13-0.1-0.13-0.1-0.39-0.9c-0.29-0.87-0.64-1.16-2.44-2.18
		c-0.19-0.1-0.26-0.16-0.26-0.22c0-0.1,0.03-0.16,0.16-0.16c0.06,0,0.1,0,0.39,0.03c0.55,0.06,0.96,0.1,1.35,0.1
		c0.93,0,1.64-0.1,1.93-0.29c0.42-0.26,0.42-0.26,0.42-3.56h-10.18c0,1.96,0,2.25,0.03,3.69c0.03,0.96,0.03,1.06,0.03,1.44
		c0,1.03-0.1,1.28-0.51,1.51c-0.51,0.29-1.48,0.51-2.31,0.51c-0.87,0-1.25-0.26-1.25-0.8c0-0.26,0-0.38,0.06-2.25
		c0.06-2.05,0.19-8.12,0.19-9.54v-3.15c0-0.32,0-0.39,0.16-0.39c0.45,0,1.38,0.19,2.54,0.51c1.09,0.29,1.35,0.42,1.67,0.77H117.74z
		 M118.03,25.19C118,22.65,118,22.65,118,22.56c0-0.13-0.1-0.19-0.32-0.19h-9.31c-0.38,0.16-0.51,0.32-0.51,0.61v2.21H118.03z
		 M107.86,25.9v2.7h10.18v-2.7H107.86z"/>
	<path class="st0" d="M158.72,10.36c1.35-2.21,1.89-2.7,2.38-2.7c0.87,0,3.47,2.09,3.47,2.86c0,0.29-0.35,0.58-0.74,0.58h-8.38v1.44
		c0,0.58-0.61,1.06-1.96,1.19c2.99,0.64,3.98,0.9,3.98,1.38c0,0.58-0.45,0.83-0.99,1.06c-0.48,0.74-0.84,1.28-1.41,2.05h3.69
		c1.54-2.21,1.8-2.47,2.18-2.47c0.87,0,2.95,1.96,2.95,2.76c0,0.42-0.29,0.51-1.19,0.51h-8.25c-1.32,1.83-2.15,2.67-3.53,3.79
		c-0.8,0.64-1.22,0.87-1.41,0.87c-0.1,0-0.16-0.03-0.16-0.13c0-0.06,0.03-0.13,0.16-0.29c1.38-1.73,2.86-6.81,3.28-9.5
		c-0.29,0.06-0.51,0.03-0.71,0.03c-0.55,0-0.87-0.29-0.87-0.77V11.1h-4.17v1.41c0,0.8-1.19,1.35-3.05,1.35
		c-0.93,0-1.16-0.16-1.16-0.74l0.03-2.02h-3.72c-1.16,0-2.38,0.06-3.53,0.22c-0.51-0.71-0.55-0.77-0.55-0.84
		c0-0.13,0.1-0.22,0.26-0.22c1.03,0.06,2.31,0.1,2.95,0.1h4.59c0-0.45-0.03-0.93-0.03-1.38c0-0.58-0.03-1.16-0.03-1.73
		c0-0.16,0.03-0.19,0.22-0.19c1.06,0,3.72,0.39,4.24,0.61c0.32,0.16,0.48,0.35,0.48,0.58c0,0.29-0.19,0.48-0.71,0.77v1.35h4.17
		c0-1.35-0.03-2.25-0.03-3.08c0-0.19,0.06-0.26,0.32-0.26c0.87,0,2.89,0.22,3.69,0.42c0.67,0.16,1.03,0.45,1.03,0.8
		c0,0.29-0.29,0.58-0.8,0.77l0.03,1.35H158.72z M160.07,35.46c1.22-2.09,1.96-2.92,2.38-2.92c0.77,0,2.73,2.15,2.73,3.11
		c0,0.42-0.32,0.61-0.99,0.61h-26.39c-0.71,0-1.48,0.03-2.18,0.1c-0.51-0.61-0.55-0.67-0.55-0.74c0-0.13,0.1-0.22,0.26-0.22
		c0.48,0.03,1.09,0.06,1.38,0.06h3.53c0-1.44,0.03-2.86,0.03-4.3c0-1.51-0.03-2.47-0.06-3.21v-0.1c0-0.19,0.06-0.26,0.19-0.26
		c0.19,0,0.93,0.13,2.09,0.39c1.25,0.29,1.25,0.29,1.44,0.55h11.62c1.12-1.77,1.22-1.86,1.7-1.86c0.35,0,0.84,0.29,1.93,1.09
		c0.9,0.64,1.32,1.19,1.32,1.64c0,0.29-0.16,0.45-0.93,0.8l-0.03,5.27H160.07z M146.33,25.8c1.41-1.93,1.41-1.93,1.7-1.93
		c0.71,0,2.47,1.57,2.47,2.18c0,0.29-0.29,0.48-0.67,0.48h-9.63v0.13c0,0.74-1,1.25-2.44,1.25c-0.93,0-1.22-0.19-1.22-0.93
		c0-0.45,0.03-0.67,0.13-3.37c0.03-0.51,0.03-2.89,0.03-4.91c0-2.28-0.03-3.92-0.03-4.37v-0.19c0-0.16,0.03-0.22,0.16-0.22
		c0.39,0,2.22,0.45,2.92,0.71c0.38,0.16,0.64,0.32,0.77,0.55h5.46c1.06-1.28,1.51-1.73,1.83-1.73c0.26,0,0.51,0.16,1.41,0.9
		c0.67,0.51,0.9,0.8,0.9,1.12c0,0.26-0.22,0.42-0.64,0.42h-4.43l-0.03,2.66h0.74l0.61-0.77c0.29-0.38,0.48-0.51,0.8-0.51
		c0.38,0,0.58,0.1,2.15,1.16c0.48,0.32,0.64,0.51,0.64,0.71c0,0.22-0.1,0.35-0.51,0.61c-0.16,0.1-0.16,0.22-0.16,0.35l0.03,2.05
		c0,0.67-0.9,1.12-2.28,1.12c-0.8,0-1.09-0.1-1.09-0.71h-0.83l-0.03,3.24H146.33z M141.87,18.54c0.03-0.58,0.03-1.03,0.03-1.32
		c0-0.29,0-0.74-0.03-1.35h-1.28c-0.42,0.13-0.45,0.26-0.45,1.09v1.57H141.87z M140.14,19.25v2.57h5.81v-2.57H140.14z M141.9,25.8
		c0.03-0.71,0.03-1.25,0.03-1.61c0-0.39,0-0.93-0.03-1.64h-1.77l0.03,3.24H141.9z M143.99,29.27c-0.22,0-0.29,0.29-0.29,1.48v4.72
		h1.77c0.03-1.16,0.03-1.67,0.03-2.38v-3.82H143.99z M149.19,29.27c0,0.1-0.1,0.16-0.19,0.23c-0.1,0.06-0.19,0.16-0.22,0.26
		c-0.03,0.13-0.03,0.22-0.06,2.22l-0.03,2.47c0,0.45,0,0.64,0.03,1.03h1.77c0.03-1.99,0.03-4.27,0.03-6.2H149.19z M157.76,24.55
		c0.1-0.19,0.45-0.84,0.96-1.64c0.51-0.8,0.74-1.09,1.06-1.09c0.51,0,0.96,0.35,2.25,1.7c0.45,0.51,0.64,0.87,0.64,1.22
		c0,0.32-0.26,0.55-0.61,0.55h-6.93c-0.84,0-1.73,0.03-2.57,0.16c-0.48-0.64-0.51-0.71-0.51-0.77c0-0.13,0.1-0.22,0.26-0.22
		c0.71,0.06,1.57,0.1,2.02,0.1H157.76z M154.33,29.27c-0.03,0.1-0.06,0.16-0.29,0.29c-0.19,0.13-0.19,0.45-0.19,2.63v3.27h1.77
		c0-1.77,0.03-5.17,0-6.2H154.33z"/>
	<path class="st0" d="M190.83,21.92c0.19,0.22,0.29,0.38,0.29,0.51c0,0.29-0.16,0.48-0.64,0.71c-0.29,2.54-0.9,4.56-1.86,6.23
		c-1.16,1.99-2.82,3.44-5.14,4.53c-0.77,0.35-1.99,0.8-2.99,1.12c-0.74,0.19-1.32,0.32-1.61,0.32c-0.1,0-0.22-0.03-0.22-0.13
		c0-0.1,0.13-0.16,0.58-0.32c0.84-0.32,1.7-0.87,2.54-1.44c0.99-0.77,1.93-1.67,2.54-2.63c1.41-2.09,2.28-5.17,2.28-8.16
		c0-1.38-0.1-1.73-0.58-2.41c-0.39,0.03-1.09,0.16-1.93,0.32c-0.93,0.19-1.96,0.45-2.82,0.67c-0.48,0.13-1.28,0.45-1.99,0.83
		c-0.29,0.13-0.45,0.19-0.61,0.19c-0.51,0-1.25-0.55-1.86-1.19c-0.64-0.67-1.09-1.48-1.09-2.02c0-0.06,0.03-0.1,0.1-0.1
		c0.06,0,0.13,0.03,0.39,0.13c0.71,0.22,1.22,0.32,1.86,0.32c0.48,0,2.25-0.22,4.75-0.55c2.31-0.32,5.2-0.74,8.28-1.19
		c1.32-0.19,1.7-0.29,2.6-0.64c0.29-0.13,0.42-0.16,0.8-0.32c0.29-0.1,0.48-0.13,0.58-0.13c0.48,0,2.31,0.74,3.44,1.38
		c0.64,0.35,1.06,0.9,1.06,1.38c0,0.55-0.64,1.22-1.19,1.22c-0.22,0-1.12-0.16-2.09-0.35c-1.61-0.32-2.47-0.39-4.14-0.39
		c-1.51,0-3.08,0.06-4.72,0.16C190.22,21.34,190.38,21.47,190.83,21.92z M190.38,13.79c-0.93,0-2.47,0.16-3.92,0.35
		c-1.25,0.16-2.38,0.39-3.08,0.58c-0.42,0.13-0.71,0.16-0.84,0.16c-0.48,0-0.99-0.32-1.67-1.15c-0.19-0.26-0.39-0.51-0.55-0.77
		c-0.16-0.26-0.26-0.45-0.26-0.55c0-0.06,0.03-0.1,0.1-0.1c0.06,0,0.35,0.1,0.55,0.13c0.39,0.06,0.96,0.16,1.28,0.16
		c0.84,0,2.25-0.19,3.69-0.48c1.51-0.32,3.02-0.67,3.88-1.03c0.77-0.35,0.9-0.39,1.19-0.39c0.51,0,1.22,0.26,2.31,0.84
		c0.84,0.38,1.16,0.8,1.16,1.44s-0.61,0.96-1.77,0.96c-0.38,0-0.45,0-1.41-0.13L190.38,13.79z M197.7,13.21
		c-0.39,0-0.74-0.13-0.96-0.45c-0.16-0.26-0.16-0.26-0.29-1.03c-0.16-0.9-0.87-2.09-1.54-2.6c-0.1-0.06-0.13-0.13-0.13-0.19
		c0-0.1,0.06-0.13,0.16-0.13c0.45,0,1.54,0.42,2.21,0.87c1,0.58,1.61,1.54,1.61,2.31C198.76,12.73,198.31,13.21,197.7,13.21z
		 M199.89,10.84c-0.32-0.99-1.19-2.09-2.15-2.7c-0.22-0.13-0.29-0.19-0.29-0.29c0-0.06,0.1-0.13,0.22-0.13
		c0.48,0,1.06,0.13,1.77,0.42c1.8,0.64,2.79,1.6,2.79,2.57c0,0.71-0.48,1.22-1.09,1.22C200.5,11.93,200.21,11.67,199.89,10.84z"/>
	<path class="st0" d="M220.81,18c2.86-0.22,3.5-0.29,4.43-0.38c0-0.45,0-0.87,0-1.28c0-0.58,0-1.16,0-1.7
		c0-1.67-0.19-2.95-0.55-3.28c-0.19-0.19-0.45-0.29-0.87-0.32c-0.13,0-0.19-0.06-0.19-0.16c0-0.13,0.19-0.32,0.45-0.51
		c0.42-0.29,1.09-0.61,1.51-0.61c0.48,0,1.35,0.32,1.99,0.74c1.32,0.93,1.83,1.41,1.83,1.93c0,0.13-0.06,0.32-0.19,0.45
		c-0.42,0.45-0.42,0.45-0.45,0.77c0,1.22-0.03,2.47-0.03,3.69c1.67-0.13,2.25-0.26,3.15-0.58c0.29-0.13,0.55-0.19,0.64-0.19
		c0.48,0,1.83,0.61,2.86,1.28c0.67,0.42,0.99,0.9,0.99,1.48c0,0.58-0.58,1.03-1.32,1.03c-0.22,0-0.77-0.13-2.38-0.55
		c-1.09-0.26-1.57-0.32-3.98-0.48c-0.16,4.91-0.32,5.97-1.03,7.96c-1.19,3.31-4.08,5.97-8.28,7.58c-1.06,0.42-2.09,0.71-2.41,0.71
		c-0.13,0-0.22-0.06-0.22-0.13c0-0.13,0.1-0.16,0.74-0.48c2.22-1.19,4.24-2.99,5.49-4.98c1.12-1.83,1.83-3.95,2.09-6.64
		c0.1-0.9,0.13-1.28,0.19-4.05c-0.61,0.03-1.06,0.06-1.32,0.1c-1.73,0.13-1.96,0.16-3.11,0.29l0.06,3.98c0,2.7-0.74,4.17-2.02,4.17
		c-0.45,0-0.64-0.19-0.87-0.77c-0.22-0.58-0.39-1.73-0.39-2.12c0-0.67,0.06-2.09,0.06-3.79c0-0.26,0-0.42-0.03-0.8
		c-2.28,0.55-3.05,0.77-4.27,1.28c-0.38,0.19-0.67,0.26-0.9,0.26c-0.35,0-0.9-0.42-1.32-0.96c-0.58-0.68-1.09-1.57-1.09-2.15
		c0-0.22,0.06-0.38,0.32-0.67c0.55,0.61,0.9,0.8,1.45,0.8c1.12,0,1.96-0.06,5.71-0.51c-0.16-2.82-0.26-3.53-0.55-3.92
		c-0.26-0.39-0.58-0.55-1.15-0.61c-0.19-0.03-0.29-0.1-0.29-0.19c0-0.13,0.42-0.35,0.9-0.55c0.51-0.19,1.09-0.39,1.38-0.39
		c0.48,0,1.16,0.26,1.99,0.71c1.09,0.61,1.51,1.06,1.51,1.48c0,0.26-0.03,0.32-0.55,1.19V18z M233.59,14.02
		c-0.35,0-0.71-0.19-0.93-0.48c-0.16-0.22-0.16-0.22-0.32-0.99c-0.16-0.9-0.8-2.12-1.51-2.57c-0.13-0.1-0.16-0.13-0.16-0.22
		c0-0.06,0.06-0.13,0.16-0.13c0.48,0,1.57,0.45,2.28,0.83c0.93,0.61,1.57,1.57,1.57,2.38C234.68,13.54,234.23,14.02,233.59,14.02z
		 M235.42,11.42c-0.38-0.99-1.35-2.05-2.28-2.6c-0.26-0.16-0.32-0.19-0.32-0.29c0-0.06,0.1-0.1,0.26-0.1c0.58,0,1.03,0.06,1.77,0.26
		c1.86,0.64,2.89,1.51,2.89,2.57c0,0.67-0.48,1.19-1.09,1.19C236.03,12.44,235.77,12.22,235.42,11.42z"/>
	<path class="st0" d="M260.8,25.77c0,1.86,0,1.86,0.16,4.24c0.03,0.84,0.06,1.61,0.06,2.22c0,1.12-0.06,1.61-0.29,1.99
		c-0.22,0.51-0.87,0.9-1.38,0.9c-0.77,0-1.45-0.61-1.89-1.67c-0.35-0.99-0.64-2.12-0.64-2.7c0-0.26,0.03-0.45,0.13-0.74
		c0.16-0.45,0.22-0.61,0.32-0.96c0.26-1.19,0.55-6.61,0.55-10.21c-0.29,0.29-0.29,0.29-0.87,0.84c-1.96,1.99-5.27,4.04-7.93,4.98
		c-0.74,0.26-1.67,0.51-1.96,0.51c-0.1,0-0.16-0.03-0.16-0.13c0-0.1,0.1-0.16,0.58-0.39c0.38-0.19,1.09-0.58,1.8-1.12
		c0.48-0.39,1.06-0.84,1.54-1.22c2.38-2.12,4.94-5.26,6.61-8.28c0.48-0.9,0.8-1.61,1.03-2.25c0.06-0.16,0.1-0.32,0.1-0.42
		c0-0.13-0.13-0.32-0.26-0.42c-0.16-0.13-0.35-0.26-0.55-0.32c-0.22-0.06-0.26-0.13-0.26-0.19c0-0.13,0.26-0.32,0.61-0.48
		c0.64-0.32,1.61-0.64,2.15-0.64c0.64,0,1.16,0.26,2.15,1.06c1.28,1.06,1.67,1.51,1.67,1.99c0,0.35-0.29,0.67-0.74,0.9
		c-0.64,0.32-0.8,0.55-1.61,1.44c-0.51,0.55-1.8,1.99-2.25,2.47c0.13,0.16,0.13,0.16,0.58,0.51c0.51,0.42,0.84,1.06,0.84,1.64
		c0,0.16-0.03,0.26-0.06,0.61c-0.03,0.55-0.03,0.67-0.03,1.06V25.77z"/>
	<path class="st0" d="M286.25,17.07c0,1.28-0.96,2.28-2.28,2.28c-0.32,0-0.67-0.1-0.96-0.19c-0.23-0.06-0.23-0.13-0.51-0.71
		c-0.74-1.28-2.86-3.18-4.14-3.63c-0.16-0.06-0.22-0.13-0.22-0.19c0-0.1,0.35-0.19,0.84-0.29c0.67-0.13,1.67-0.22,2.5-0.22
		C284.29,14.11,286.25,15.33,286.25,17.07z M284,31.1c-0.61,0.42-0.9,0.55-1.25,0.55c-0.45,0-0.93-0.19-1.51-0.61
		c-0.51-0.39-1.09-0.9-1.73-1.64c-0.74-0.8-1.09-1.44-1.09-1.96c0-0.87,0.55-1.89,1.12-2.05c0.29,1.03,0.96,1.44,2.28,1.44
		c0.42,0,2.99-0.8,3.95-1.19c3.24-1.41,7.58-3.85,10.79-6.1c0.84-0.61,1.73-1.35,2.92-2.44c0.55-0.48,0.61-0.55,0.71-0.55
		c0.1,0,0.19,0.06,0.19,0.16c0,0.06-0.03,0.13-0.1,0.26c-0.35,0.74-1.83,2.7-2.92,3.98c-1.38,1.61-3.05,3.15-5.01,4.66
		c-2.28,1.8-4.98,3.6-8.06,5.3L284,31.1z"/>
	<path class="st0" d="M336.76,25.61c0.1-0.19,0.19-0.35,0.26-0.45c0.96-1.57,1.35-2.05,1.7-2.05c0.77,0,2.73,1.96,2.73,2.73
		c0,0.38-0.32,0.55-1.35,0.55h-3.92c0.06,2.15,0.06,2.54,0.13,3.34c0.03,0.38,0.03,0.74,0.03,1.03c0,0.77-0.35,1.19-1.38,1.54
		c-0.48,0.19-1.12,0.29-1.73,0.29c-0.8,0-1.12-0.1-1.28-0.35c-0.13-0.19-0.13-0.45-0.13-2.09h-3.92c0.03,0.67,0.03,0.67,0.06,2.21
		v0.19c0,1.57-0.29,2.41-1.06,3.15c-0.8,0.77-1.93,1.16-3.37,1.16c-1.12,0-1.48-0.26-1.64-1.09c-0.13-0.84-0.26-1-1.28-1.7
		c-0.48-0.32-0.96-0.61-1.38-0.84c-0.19-0.1-0.26-0.16-0.26-0.29c0-0.1,0.1-0.16,0.38-0.16c0.22,0,1.06,0.06,1.38,0.06
		c1.57,0,2.34-0.19,2.6-0.61c0.16-0.26,0.19-0.61,0.19-2.05h-7.32c-0.58,0-1.22,0.03-1.8,0.1c-0.51-0.64-0.55-0.71-0.55-0.77
		c0-0.13,0.1-0.23,0.26-0.23c0.48,0.06,1.12,0.1,1.41,0.1h7.99v-3.02h-10.37c-0.58,0-1.16,0.03-1.73,0.1
		c-0.48-0.64-0.51-0.71-0.51-0.77c0-0.13,0.1-0.22,0.26-0.22c0.71,0.06,1.57,0.13,2.02,0.13h10.34v-2.95h-7.58
		c-0.61,0-1.25,0.03-1.86,0.1c-0.51-0.58-0.55-0.64-0.55-0.71c0-0.13,0.1-0.22,0.26-0.22c0.48,0.03,1.12,0.06,1.41,0.06h8.31v-2.82
		h-3.95v0.29c0,0.9-0.93,1.38-2.7,1.38c-1.22,0-1.67-0.26-1.64-0.84c0.06-1.32,0.13-3.4,0.13-4.78v-1.93c0-0.13,0.03-0.19,0.13-0.19
		c0.51-0.03,2.02,0.19,3.18,0.48c0.99,0.26,1.25,0.39,1.64,0.74h3.21v-2.57h-10.18c-0.45,0-0.93,0-1.38,0.06
		c-0.51-0.58-0.55-0.64-0.55-0.71c0-0.13,0.1-0.22,0.26-0.22c0.61,0.03,1.44,0.06,1.83,0.06h9.99c-0.03-1.41-0.06-2.89-0.1-3.72
		c0-0.19,0.03-0.22,0.38-0.22c0.61,0,2.95,0.32,3.63,0.51c0.77,0.19,1.19,0.55,1.19,0.96c0,0.13-0.13,0.55-0.8,0.96
		c-0.03,0.51-0.03,0.77-0.06,1.51h6.32c0.35-0.42,0.35-0.42,1.54-1.8c0.51-0.64,0.84-0.87,1.19-0.87c0.42,0,1.15,0.42,2.21,1.19
		c0.9,0.67,1.38,1.28,1.38,1.7c0,0.42-0.32,0.58-1.12,0.58h-11.56v2.57h3.76c0.16-0.19,0.16-0.19,0.51-0.61
		c0.55-0.61,0.9-0.87,1.16-0.87c0.48,0,1.41,0.38,2.6,1.06c0.87,0.51,1.16,0.77,1.16,1.09c0,0.22-0.1,0.32-0.48,0.61
		c-0.19,0.13-0.29,0.29-0.29,0.39c0,0.06,0,0.13,0,0.19c0,0.48,0.16,2.05,0.16,2.38v0.16c0,0.61-0.19,0.87-0.96,1.16
		c-0.64,0.26-1.45,0.35-2.51,0.35c-0.87,0-1.15-0.19-1.15-0.8v-0.26h-3.88l0.03,2.86h3.72c1.22-1.22,1.44-1.38,1.86-1.38
		c0.35,0,0.74,0.16,2.25,0.9c0.9,0.42,1.16,0.67,1.16,1c0,0.13-0.03,0.22-0.13,0.32c-0.32,0.29-0.45,0.42-0.55,0.55v0.42
		c0,0.26,0,0.26,0.03,0.84v1.09H336.76z M320.32,14.88c-0.61,0-0.77,0.23-0.77,1.16v2.25h4.01v-3.4H320.32z M331.69,15.24
		c0-0.32-0.03-0.35-0.38-0.35h-3.6l0.06,3.4h3.92V15.24z M331.85,23.33c-0.03-0.51-0.13-0.68-0.42-0.68h-3.63l0.03,2.95h4.01V23.33z
		 M327.83,26.38l0.06,2.95h3.95v-2.95H327.83z"/>
	<path class="st0" d="M359.12,17.61c0.9-1.12,1.22-1.38,1.57-1.38c0.58,0,1.77,0.74,2.95,1.86c0.45,0.42,0.74,0.96,0.74,1.35
		c0,0.51-0.42,0.8-1.25,0.9c-1.12,0.1-1.96,0.58-3.44,1.99c-0.13,0.13-0.22,0.16-0.32,0.16s-0.16-0.03-0.16-0.13
		c0-0.1,0.03-0.19,0.06-0.32c0.19-0.74,0.45-1.96,0.74-3.72h-2.38c0.74,0.16,1,0.29,1,0.48c0,0.13-0.13,0.26-0.48,0.48l0.19,13.42
		c0,1.45-0.38,2.15-1.57,2.95c-0.8,0.55-1.73,0.83-2.6,0.83c-0.74,0-1.06-0.22-1.09-0.77c-0.1-1.12-0.74-1.89-2.18-2.5
		c-0.16-0.06-0.19-0.1-0.19-0.19c0-0.13,0-0.13,0.99-0.13c1.45,0,2.22-0.13,2.47-0.39c0.29-0.32,0.32-0.64,0.32-6.29
		c-1.41,1.96-2.57,3.11-4.3,4.33c-0.74,0.51-1.41,0.93-1.54,0.93c-0.1,0-0.19-0.06-0.19-0.16c0-0.06,0.06-0.19,0.13-0.26
		c2.5-2.7,4.98-8.31,5.65-12.71h-3.27c-0.48,0-0.96,0.03-1.45,0.1c-0.42-0.55-0.45-0.61-0.45-0.67c0-0.13,0.1-0.22,0.26-0.22
		c0.51,0.03,1.16,0.06,1.48,0.06H359.12z M356.74,9.2c1.45-1.54,1.57-1.64,1.89-1.64c0.35,0,0.8,0.19,1.44,0.64
		c1.54,1.12,2.34,1.99,2.34,2.67c0,0.51-0.38,0.8-1.15,0.83c-1.32,0.06-1.8,0.19-2.7,0.74c-0.58,0.35-1.16,0.67-1.8,1.03
		c0.8,0.61,1.25,1.38,1.25,2.18c0,1.03-0.99,1.77-2.44,1.77c-1.19,0-1.57-0.38-1.83-1.83c-0.16-1.03-0.29-1.38-0.61-1.89
		c-0.29-0.51-1.19-1.38-1.57-1.61c-0.22-0.13-0.29-0.19-0.29-0.29c0-0.1,0.1-0.13,0.19-0.13c0.8,0,2.5,0.48,4.4,1.22
		c0.42-0.9,0.8-1.89,1.16-2.99h-5.59c-0.45,0-0.96,0.03-1.41,0.1c-0.45-0.55-0.48-0.61-0.48-0.67c0-0.13,0.1-0.22,0.26-0.22
		c0.51,0.06,1.19,0.1,1.51,0.1H356.74z M373.12,12.19c0.13,0.06,0.13,0.06,0.64,0.26c0.87,0.29,1.38,0.67,1.38,0.99
		c0,0.26-0.26,0.45-0.77,0.58c-1.12,1.73-1.73,2.5-2.92,3.76c1.89,0.96,4.88,1.7,7.96,1.96c0.29,0.03,0.38,0.1,0.38,0.19
		c0,0.16-0.06,0.22-0.32,0.39c-0.87,0.48-2.31,2.25-2.76,3.34c-0.1,0.29-0.29,0.35-0.67,0.35c-0.67,0-2.18-0.48-3.34-1.06
		c-1.51-0.77-2.54-1.51-3.76-2.73c-0.58,0.38-1.32,0.9-2.21,1.51c0.99,0.13,2.63,0.45,3.66,0.71c0.58,0.16,0.87,0.39,0.87,0.67
		c0,0.32-0.13,0.42-0.93,0.8l-0.29,1.77h2.31c0.13-0.13,0.13-0.13,0.32-0.35c0.67-0.77,0.99-1.03,1.25-1.03
		c0.45,0,1.8,0.77,2.76,1.57c0.51,0.45,0.77,0.8,0.77,1.06c0,0.32-0.26,0.55-0.77,0.74c-0.55,7.29-2.02,8.89-6.04,8.89
		c-0.74,0-1.03-0.16-1.15-0.61c-0.35-1.38-0.51-1.57-2.02-2.41c-0.29-0.16-0.38-0.22-0.38-0.32s0.06-0.16,0.16-0.16
		s0.32,0.03,0.58,0.06c0.55,0.06,0.99,0.1,1.41,0.1c1.32,0,2.02-0.64,2.57-2.28c0.35-1.09,0.67-2.99,0.8-4.53h-2.7
		c-0.87,4.05-1.83,5.78-4.21,7.38c-1.48,0.99-2.99,1.61-5.55,2.28c-1.19,0.29-2.44,0.51-2.98,0.51c-0.19,0-0.32-0.1-0.32-0.22
		c0-0.13,0.1-0.22,0.42-0.29c1.89-0.39,4.08-1.54,5.49-2.92c1.7-1.64,2.66-3.69,3.18-6.74h-3.66c-0.48,0-0.96,0-1.44,0.06
		c-0.45-0.51-0.48-0.58-0.48-0.64c0-0.13,0.1-0.22,0.26-0.22c0.51,0.03,1.19,0.06,1.51,0.06h3.95c0.1-0.77,0.26-2.95,0.26-3.4
		c0-0.06,0-0.13-0.03-0.29c-1.12,0.67-2.28,1.19-3.72,1.67c-1.06,0.38-3.31,0.9-3.76,0.9c-0.13,0-0.22-0.06-0.22-0.19
		c0-0.13,0.1-0.19,0.39-0.29c3.08-0.87,6.36-3.31,8.44-6.29c-0.71-1.57-0.9-2.21-1.48-5.55c-1.09,1.32-2.09,2.31-2.92,2.95
		c-0.87,0.64-1.57,1.09-1.8,1.09c-0.06,0-0.13-0.03-0.13-0.1c0-0.06,0-0.1,0.13-0.29c1.16-1.7,2.5-5.97,2.79-8.86
		c0.03-0.38,0.1-0.51,0.22-0.51c0.13,0,0.58,0.1,0.8,0.16c3.5,0.9,4.4,1.32,4.4,2.02c0,0.42-0.32,0.64-1.35,0.9
		c-0.29,0.35-0.29,0.35-0.74,0.96c-0.38,0.48-0.38,0.48-0.77,0.93h6.58c1.15-1.89,1.83-2.66,2.28-2.66c0.45,0,1.22,0.48,2.28,1.48
		c0.71,0.67,0.93,1.03,0.93,1.48c0,0.29-0.32,0.42-1.03,0.42H373.12z M366.5,12.19c0.45,1.8,1.03,2.92,2.05,4.05
		c0.8-1.51,1.06-2.12,1.67-4.05H366.5z"/>
	<path class="st0" d="M396.6,16.14c1.16-1.54,1.28-1.67,1.7-1.67c0.42,0,1.09,0.39,2.66,1.54c0.64,0.51,0.84,0.74,0.84,0.99
		c0,0.32-0.22,0.58-0.9,0.96c0,0.1,0.06,1.77,0.19,4.98l0.03,1.03c0,0.61-0.16,0.93-0.55,1.16c-0.58,0.35-1.57,0.58-2.41,0.58
		c-0.61,0-1.03-0.1-1.19-0.32c-0.13-0.16-0.13-0.19-0.13-1.32h-3.47c-0.1,4.24-0.67,6.2-2.57,8.8c-0.96,1.32-3.24,3.21-3.85,3.21
		c-0.06,0-0.16-0.06-0.16-0.16c0-0.1,0.06-0.13,0.35-0.38c0.9-0.77,1.67-2.38,2.09-4.21c0.32-1.48,0.45-2.82,0.45-5.07
		c0-2.7-0.26-9.28-0.38-11.04c0-0.13,0.06-0.19,0.22-0.19c0.99,0,3.56,0.67,4.17,1.12H396.6z M396.15,10.26
		c0.32-0.45,0.32-0.45,1.35-1.89c0.48-0.71,0.74-0.9,1.06-0.9c0.42,0,0.99,0.35,2.12,1.28c0.9,0.77,1.28,1.28,1.28,1.7
		c0,0.42-0.32,0.58-1.09,0.58h-11.3c-0.45,0-0.93,0-1.38,0.06c-0.51-0.58-0.55-0.64-0.55-0.71c0-0.13,0.1-0.22,0.26-0.22
		c0.61,0.06,1.44,0.1,1.83,0.1H396.15z M396.86,17.2c-0.03-0.29-0.06-0.35-0.32-0.35h-2.89l-0.1,0.1c-0.19,0.19-0.22,0.29-0.22,0.8
		l0.06,5.59h3.47V17.2z M411.47,18.03c1.7-2.95,1.93-3.27,2.41-3.27c0.42,0,1.25,0.61,2.31,1.67c0.87,0.87,1.16,1.32,1.16,1.77
		c0,0.32-0.29,0.58-0.74,0.58h-3.18c0.39,0.13,0.58,0.29,0.58,0.48c0,0.16-0.06,0.26-0.29,0.42c-0.19,0.13-0.32,0.22-0.55,0.45
		c0,0.61,0,0.61,0.06,2.38c0.03,1.16,0.35,8.67,0.39,9.95c0.03,1.48,0.1,2.5,0.1,2.6c0,0.96-1.22,1.57-3.15,1.57
		c-1.25,0-1.51-0.19-1.51-1.19c0-0.38,0-0.74,0.03-1.48c0.1-1.67,0.19-8.03,0.19-11.27c0-1.41,0-2.15-0.06-3.92h-2.41
		c-0.06,7.03-0.45,9.31-1.86,11.59c-1.28,2.02-3.79,3.98-6.84,5.33c-0.96,0.42-2.02,0.77-2.38,0.77c-0.13,0-0.22-0.1-0.22-0.22
		c0-0.16,0-0.16,0.93-0.58c1.61-0.74,3.5-2.38,4.43-3.85c0.93-1.41,1.48-2.99,1.83-5.23c0.22-1.41,0.29-2.86,0.29-6.71
		c0-1.38-0.16-7.51-0.22-9.02c-0.03-0.64-0.06-1.38-0.06-1.7c0-0.13,0.06-0.19,0.22-0.19c1.16,0,3.28,0.64,4.5,1.38
		c2.28-1.19,3.21-1.73,5.33-3.18c3.08,1.8,4.11,2.7,4.11,3.5c0,0.48-0.32,0.67-1.16,0.67c-0.29,0-0.74,0-1.44-0.03
		c-4.05,0.16-6.45,0.26-7.26,0.26c-0.16,0.22-0.19,0.38-0.19,0.58v5.91H411.47z"/>
</g>
</svg>
