<?xml version="1.0" encoding="utf-8"?>
<!-- Generator: Adobe Illustrator 25.3.1, SVG Export Plug-In . SVG Version: 6.00 Build 0)  -->
<svg version="1.1" id="レイヤー_1" xmlns="http://www.w3.org/2000/svg" xmlns:xlink="http://www.w3.org/1999/xlink" x="0px"
	 y="0px" viewBox="0 0 184.1 95.8" style="enable-background:new 0 0 184.1 95.8;" xml:space="preserve">
<g>
	<g>
		<path d="M118.6,22.5H71.4c-0.5,0-0.8-0.4-0.8-0.8V11.1c0-0.5,0.4-0.8,0.8-0.8h47.2c0.5,0,0.8,0.4,0.8,0.8v10.6
			C119.5,22.1,119.1,22.5,118.6,22.5z"/>
		<path d="M118.6,62.3H113c-0.5,0-0.8-0.4-0.8-0.8v-9c0-0.5,0.4-0.8,0.8-0.8h5.7c0.5,0,0.8,0.4,0.8,0.8v9
			C119.5,62,119.1,62.3,118.6,62.3z"/>
		<path d="M109.7,62.3H104c-0.5,0-0.8-0.4-0.8-0.8v-9c0-0.5,0.4-0.8,0.8-0.8h5.7c0.5,0,0.8,0.4,0.8,0.8v9
			C110.5,62,110.1,62.3,109.7,62.3z"/>
		<path d="M118.6,26.5H71.4c-0.5,0-0.8,0.4-0.8,0.8v10.6c0,0.5,0.4,0.8,0.8,0.8h17.1v7.3l-5.3,15.2c-0.2,0.5,0.2,1.1,0.8,1.1h11.3
			c0.3,0,0.7-0.2,0.8-0.5l5.5-15.7l0,0v-7.3h17.1c0.5,0,0.8-0.4,0.8-0.8V27.3C119.5,26.9,119.1,26.5,118.6,26.5z"/>
	</g>
	<g>
		<path d="M21.6,8.1h-8.3c-0.4,0-0.7-0.2-0.7-0.5l-2.1-7c0-0.3,0.3-0.5,0.7-0.5h8.3c0.4,0,0.7,0.2,0.7,0.5l2.1,7
			C22.3,7.9,22,8.1,21.6,8.1z"/>
		<path d="M36.1,8.1h-8.3c-0.4,0-0.7-0.2-0.7-0.5l-2.1-7c0-0.3,0.3-0.5,0.7-0.5H34c0.4,0,0.7,0.2,0.7,0.5l2.1,7
			C36.8,7.9,36.5,8.1,36.1,8.1z"/>
		<path d="M61.7,10H50.4l3.9-9.5c0-0.3-0.4-0.5-0.8-0.5H44c-0.4,0-0.8,0.2-0.8,0.5L39.3,10H0.6C0.3,10,0,10.3,0,10.6v3.1v3.1v5
			c0,0.3,0.3,0.6,0.6,0.6h8.7c0.3,0,0.6-0.3,0.6-0.6v-4.4h42.4v4.4c0,0.3,0.3,0.6,0.6,0.6h8.7c0.3,0,0.6-0.3,0.6-0.6v-5v-3.1v-3.1
			C62.4,10.3,62.1,10,61.7,10z"/>
		<path d="M49.3,31.8H13.1c-0.3,0-0.6-0.3-0.6-0.6v-8.1c0-0.3,0.3-0.6,0.6-0.6h36.2c0.3,0,0.6,0.3,0.6,0.6v8.1
			C49.9,31.5,49.6,31.8,49.3,31.8z"/>
		<path d="M51.5,47.7H10.4c-0.4,0-0.7-0.3-0.7-0.6V39c0-0.3,0.3-0.6,0.7-0.6h41.1c0.4,0,0.7,0.3,0.7,0.6v8.1
			C52.2,47.4,51.9,47.7,51.5,47.7z"/>
		<path d="M26.9,62V38.8c0-0.2,0.3-0.4,0.6-0.4h8.1c0.3,0,0.6,0.2,0.6,0.4V62c0,0.2-0.3,0.4-0.6,0.4h-8.1
			C27.2,62.4,26.9,62.2,26.9,62z"/>
		<path d="M27.3,62.4h-4.4c-0.3,0-0.6-0.3-0.6-0.6v-6.9c0-0.3,0.3-0.6,0.6-0.6h4.4c0.3,0,0.6,0.3,0.6,0.6v6.9
			C27.9,62.1,27.6,62.4,27.3,62.4z"/>
		<polygon points="36.3,38.4 26.9,38.4 40.6,31.8 49.9,31.8 		"/>
		<rect x="47.8" y="30.7" width="2.1" height="1.1"/>
	</g>
	<g>
		<path d="M182.1,22.4h-47.5c-0.5,0-0.8-0.4-0.8-0.8V10.9c0-0.5,0.4-0.8,0.8-0.8h47.5c0.5,0,0.8,0.4,0.8,0.8v10.6
			C182.9,22,182.5,22.4,182.1,22.4z"/>
		<path d="M183.2,43.2h-50.3c-0.5,0-0.9-0.4-0.9-0.8V31.8c0-0.5,0.4-0.8,0.9-0.8h50.3c0.5,0,0.9,0.4,0.9,0.8v10.6
			C184.1,42.9,183.7,43.2,183.2,43.2z"/>
		<path d="M152.7,62V31.5c0-0.3,0.4-0.5,0.8-0.5h10.6c0.5,0,0.8,0.2,0.8,0.5V62c0,0.3-0.4,0.5-0.8,0.5h-10.6
			C153.1,62.5,152.7,62.2,152.7,62z"/>
		<path d="M153.2,62.5h-5.7c-0.5,0-0.8-0.4-0.8-0.8v-9c0-0.5,0.4-0.8,0.8-0.8h5.7c0.5,0,0.8,0.4,0.8,0.8v9
			C154,62.1,153.6,62.5,153.2,62.5z"/>
		<polygon points="165,31 152.8,31 170.6,22.4 182.9,22.4 		"/>
		<rect x="180.1" y="21" width="2.8" height="1.4"/>
	</g>
</g>
<g>
	<path d="M23,95.8l1.3-8.3h1.9l1.5,4.4l1.5-4.4h1.9l1.3,8.3h-2L29.8,91L28,95.8h-0.8L25.6,91l-0.6,4.8H23z"/>
	<path d="M47.3,94.3h-2.8L44,95.8h-2.1l2.9-8.3h2.1l2.9,8.3h-2.1L47.3,94.3z M46.7,92.7l-0.9-2.8L45,92.7H46.7z"/>
	<path d="M59.7,95.8v-8.3h2l3.6,5.1v-5.1h2v8.3h-2l-3.6-5.1v5.1H59.7z"/>
	<path d="M82.4,94.3h-2.8l-0.5,1.4h-2.1l2.9-8.3h2.1l2.9,8.3h-2.1L82.4,94.3z M81.9,92.7L81,89.9l-0.9,2.8H81.9z"/>
	<path d="M94.8,87.5h2.9c0.5,0,1,0.1,1.4,0.3c0.5,0.2,0.8,0.5,1.2,0.9c0.3,0.4,0.6,0.8,0.8,1.3c0.2,0.5,0.3,1,0.3,1.6
		c0,0.5-0.1,1.1-0.3,1.6c-0.2,0.5-0.5,0.9-0.8,1.3c-0.3,0.4-0.7,0.7-1.2,0.9c-0.4,0.2-0.9,0.3-1.5,0.3h-2.9V87.5z M96.8,93.9h0.5
		c0.3,0,0.6-0.1,0.9-0.2s0.5-0.3,0.7-0.5c0.2-0.2,0.3-0.4,0.4-0.7s0.1-0.6,0.1-0.9c0-0.3,0-0.6-0.1-0.9c-0.1-0.3-0.2-0.5-0.4-0.7
		c-0.2-0.2-0.4-0.4-0.7-0.5s-0.6-0.2-0.9-0.2h-0.5V93.9z"/>
	<path d="M115.9,89.3h-2.3v1.4h2.2v1.8h-2.2v1.4h2.3v1.8h-4.3v-8.3h4.3V89.3z"/>
	<path d="M130.5,89.6c-0.2-0.2-0.4-0.3-0.6-0.4c-0.2-0.1-0.4-0.1-0.6-0.1c-0.3,0-0.5,0.1-0.6,0.2c-0.2,0.1-0.2,0.3-0.2,0.5
		c0,0.1,0,0.3,0.1,0.4s0.2,0.2,0.3,0.2c0.1,0.1,0.3,0.1,0.4,0.2c0.2,0.1,0.3,0.1,0.5,0.2c0.6,0.2,1.1,0.5,1.4,0.9
		c0.3,0.4,0.4,0.9,0.4,1.5c0,0.4-0.1,0.8-0.2,1.2c-0.1,0.3-0.3,0.6-0.6,0.9s-0.6,0.4-0.9,0.6c-0.4,0.1-0.8,0.2-1.2,0.2
		c-1,0-1.8-0.3-2.6-0.9l0.8-1.7c0.3,0.3,0.6,0.5,0.9,0.6c0.3,0.1,0.6,0.2,0.8,0.2c0.3,0,0.6-0.1,0.7-0.2c0.2-0.2,0.2-0.3,0.2-0.6
		c0-0.1,0-0.2-0.1-0.3s-0.1-0.2-0.2-0.3c-0.1-0.1-0.2-0.1-0.4-0.2c-0.2-0.1-0.3-0.1-0.5-0.2c-0.3-0.1-0.5-0.2-0.7-0.3
		s-0.5-0.2-0.7-0.4c-0.2-0.2-0.3-0.4-0.5-0.7c-0.1-0.3-0.2-0.6-0.2-1s0.1-0.8,0.2-1.1c0.1-0.3,0.3-0.6,0.5-0.9s0.5-0.4,0.8-0.6
		c0.3-0.1,0.7-0.2,1.1-0.2c0.4,0,0.8,0.1,1.2,0.2c0.4,0.1,0.8,0.3,1.2,0.5L130.5,89.6z"/>
	<path d="M143.8,90.7h2.8v-3.2h2v8.3h-2v-3.4h-2.8v3.4h-2v-8.3h2V90.7z"/>
	<path d="M161.1,87.5v8.3h-2v-8.3H161.1z"/>
</g>
</svg>
