<?xml version="1.0" encoding="utf-8"?>
<!-- Generator: Adobe Illustrator 25.4.1, SVG Export Plug-In . SVG Version: 6.00 Build 0)  -->
<svg version="1.1" id="レイヤー_1" xmlns="http://www.w3.org/2000/svg" xmlns:xlink="http://www.w3.org/1999/xlink" x="0px"
	 y="0px" viewBox="0 0 191.3 89.3" style="enable-background:new 0 0 191.3 89.3;" xml:space="preserve">
<style type="text/css">
	.st0{fill:#ED4F00;}
</style>
<g>
	<g>
		<path d="M188.5,24.1h-49.6c-0.8,0-1.4-0.6-1.4-1.4V11.3c0-0.8,0.6-1.4,1.4-1.4h48.2c0.8,0,1.4,0.6,1.4,1.4V24.1z"/>
		<path d="M189.9,45.4h-53.9c-0.8,0-1.4-0.6-1.4-1.4V32.6c0-0.8,0.6-1.4,1.4-1.4h53.9c0.8,0,1.4,0.6,1.4,1.4v11.3
			C191.3,44.7,190.7,45.4,189.9,45.4z"/>
		<rect x="145.3" y="41.8" transform="matrix(-1.836970e-16 1 -1 -1.836970e-16 211.8898 -114.0945)" width="35.4" height="14.2"/>
		<path d="M150.2,55.3h19.8v9.9c0,0.8-0.6,1.4-1.4,1.4h-18.4c-0.8,0-1.4-0.6-1.4-1.4v-8.5C148.8,55.9,149.5,55.3,150.2,55.3z"/>
		<polygon points="188.5,24.1 170.1,31.2 155.9,31.2 174.3,24.1 		"/>
	</g>
	<g>
		<path d="M126.1,24.1H72.3c-0.8,0-1.4-0.6-1.4-1.4V11.3c0-0.8,0.6-1.4,1.4-1.4h53.9c0.8,0,1.4,0.6,1.4,1.4v11.3
			C127.6,23.5,126.9,24.1,126.1,24.1z"/>
		<path d="M126.1,45.4H72.3c-0.8,0-1.4-0.6-1.4-1.4V32.6c0-0.8,0.6-1.4,1.4-1.4h53.9c0.8,0,1.4,0.6,1.4,1.4v11.3
			C127.6,44.7,126.9,45.4,126.1,45.4z"/>
		<rect x="95.7" y="41.8" transform="matrix(-1.836970e-16 1 -1 -1.836970e-16 148.1102 -50.315)" width="7.1" height="14.2"/>
		<path d="M87.2,64.7l4.9-12.2h14.2L101,65.7c-0.2,0.5-0.7,0.9-1.3,0.9H88.6C87.5,66.6,86.9,65.6,87.2,64.7z"/>
		<path class="st0" d="M120.5,55.3h5.7c0.8,0,1.4,0.6,1.4,1.4v8.5c0,0.8-0.6,1.4-1.4,1.4h-5.7c-0.8,0-1.4-0.6-1.4-1.4v-8.5
			C119.1,55.9,119.7,55.3,120.5,55.3z"/>
		<path class="st0" d="M110.6,55.3h5.7c0.8,0,1.4,0.6,1.4,1.4v8.5c0,0.8-0.6,1.4-1.4,1.4h-5.7c-0.8,0-1.4-0.6-1.4-1.4v-8.5
			C109.1,55.9,109.8,55.3,110.6,55.3z"/>
	</g>
	<g>
		<path d="M50.4,35.8H14.8c-0.8,0-1.4-0.6-1.4-1.4v-7.4c0-0.8,0.6-1.4,1.4-1.4H49c0.8,0,1.4,0.6,1.4,1.4V35.8z"/>
		<path d="M51,51.2H12.8c-0.8,0-1.4-0.6-1.4-1.4v-7.4c0-0.8,0.6-1.4,1.4-1.4H51c0.8,0,1.4,0.6,1.4,1.4v7.4
			C52.4,50.6,51.8,51.2,51,51.2z"/>
		<rect x="19.8" y="47.9" transform="matrix(-1.836970e-16 1 -1 -1.836970e-16 84.9508 21.1713)" width="24.3" height="10.3"/>
		<path d="M23,55.3h14v9.9c0,0.8-0.6,1.4-1.4,1.4H23c-0.8,0-1.4-0.6-1.4-1.4v-8.5C21.6,55.9,22.2,55.3,23,55.3z"/>
		<polygon points="50.4,35.8 37,40.9 26.8,40.9 40.1,35.8 		"/>
		<path d="M62.4,21.3H1.4c-0.8,0-1.4-0.6-1.4-1.4v-8.5c0-0.8,0.6-1.4,1.4-1.4h60.9c0.8,0,1.4,0.6,1.4,1.4v8.5
			C63.8,20.6,63.1,21.3,62.4,21.3z"/>
		<path d="M11.3,9.9v12.8c0,0.8-0.6,1.4-1.4,1.4H1.4c-0.8,0-1.4-0.6-1.4-1.4V11.3c0-0.8,0.6-1.4,1.4-1.4H11.3z"/>
		<path d="M63.8,11.3v11.3c0,0.8-0.6,1.4-1.4,1.4h-8.5c-0.8,0-1.4-0.6-1.4-1.4V11.3c0-0.8,0.6-1.4,1.4-1.4h8.5
			C63.1,9.9,63.8,10.6,63.8,11.3z"/>
		<path class="st0" d="M24.7,0H32c0.3,0,0.5,0.2,0.6,0.4l1.3,7.4c0.1,0.4-0.2,0.7-0.6,0.7H26c-0.3,0-0.5-0.2-0.6-0.4l-1.3-7.4
			C24,0.3,24.3,0,24.7,0z"/>
		<path class="st0" d="M11.9,0h7.3c0.3,0,0.5,0.2,0.6,0.4l1.3,7.4c0.1,0.4-0.2,0.7-0.6,0.7h-7.3c-0.3,0-0.5-0.2-0.6-0.4l-1.3-7.4
			C11.3,0.3,11.5,0,11.9,0z"/>
		<path d="M52,0.8l-2.4,9.1H38.3l2.3-9C40.8,0.4,41.3,0,41.9,0h9.5C51.8,0,52.1,0.4,52,0.8z"/>
	</g>
	<g>
		<path d="M28.8,80.8h0.9v8.5h-0.8V82l0.1,0.4l-2.6,5.7h-0.6l-2.6-5.6l0.1-0.5v7.3h-0.8v-8.5h0.9l2.7,6.1L28.8,80.8z"/>
		<path d="M43.5,80.8h1l3.1,8.5h-0.9L44,81.7l-2.7,7.6h-0.9L43.5,80.8z M41.8,86.4h4.5v0.8h-4.5V86.4z"/>
		<path d="M58.8,80.8h0.8l4.9,7.7l-0.3-0.2v-7.4h0.8v8.5h-0.9l-5-7.7l0.5,0.3v7.4h-0.8V80.8z"/>
		<path d="M79.4,80.8h1l3.1,8.5h-0.9l-2.7-7.6l-2.7,7.6h-0.9L79.4,80.8z M77.7,86.4h4.5v0.8h-4.5V86.4z"/>
		<path d="M94.9,80.8h0.8v8.5h-0.8V80.8z M95.7,88.5h1.9c0.8,0,1.4-0.2,1.8-0.6c0.4-0.4,0.6-0.9,0.6-1.7v-2.5c0-0.7-0.2-1.3-0.6-1.7
			s-1-0.6-1.8-0.6h-1.9v-0.8h1.9c0.7,0,1.3,0.1,1.8,0.3c0.5,0.2,0.8,0.6,1.1,1c0.2,0.5,0.4,1,0.4,1.7v2.4c0,0.7-0.1,1.2-0.4,1.7
			c-0.2,0.5-0.6,0.8-1.1,1c-0.5,0.2-1.1,0.3-1.8,0.3h-1.9V88.5z"/>
		<path d="M113.1,80.8h0.8v8.5h-0.8V80.8z M113.7,80.8h4.9v0.8h-4.9V80.8z M113.7,84.7h4.2v0.8h-4.2V84.7z M113.7,88.5h4.9v0.8h-4.9
			V88.5z"/>
		<path d="M132.7,89.2c-0.4-0.1-0.7-0.2-1-0.3c-0.3-0.2-0.6-0.3-0.9-0.6l0.5-0.7c0.4,0.3,0.7,0.5,1.2,0.7c0.4,0.2,0.9,0.2,1.4,0.2
			c0.7,0,1.3-0.1,1.7-0.4s0.6-0.7,0.6-1.2v0c0-0.3-0.1-0.6-0.3-0.8c-0.2-0.2-0.4-0.3-0.7-0.4c-0.3-0.1-0.6-0.2-1.1-0.3c0,0,0,0,0,0
			c0,0,0,0,0,0l-0.2,0c-0.6-0.1-1.1-0.2-1.4-0.3s-0.7-0.3-0.9-0.6c-0.3-0.3-0.4-0.7-0.4-1.2v0c0-0.5,0.1-1,0.4-1.3s0.6-0.6,1-0.8
			c0.5-0.2,1-0.3,1.6-0.3c0.3,0,0.6,0,0.9,0.1c0.3,0.1,0.6,0.2,0.9,0.3c0.3,0.1,0.6,0.3,0.9,0.5l-0.5,0.6c-0.4-0.3-0.7-0.4-1.1-0.6
			s-0.7-0.2-1-0.2c-0.7,0-1.2,0.1-1.6,0.4c-0.4,0.3-0.6,0.7-0.6,1.2v0c0,0.3,0.1,0.6,0.3,0.7s0.4,0.3,0.7,0.4
			c0.3,0.1,0.7,0.2,1.2,0.3c0,0,0,0,0,0c0,0,0,0,0.1,0c0,0,0,0,0.1,0s0,0,0.1,0c0.5,0.1,1,0.2,1.3,0.4c0.4,0.1,0.7,0.4,0.9,0.6
			s0.4,0.7,0.4,1.2v0c0,0.5-0.1,0.9-0.4,1.3s-0.6,0.6-1.1,0.8s-1,0.3-1.7,0.3C133.4,89.3,133,89.3,132.7,89.2z"/>
		<path d="M148.8,80.8h0.8v8.5h-0.8V80.8z M149.4,84.7h5.1v0.8h-5.1V84.7z M154,80.8h0.8v8.5H154V80.8z"/>
		<path d="M170.1,89.3h-0.6v-8.5h0.6V89.3z"/>
	</g>
</g>
</svg>
